999
dxflib 3.26.4.0
  0
SECTION
  2
HEADER
  9
$ACADVER
  1
AC1015
  9
$HANDSEED
  5
FFFF
  9
$ANGBASE
 50
0.0
  9
$ANGDIR
 70
0
  9
$ATTMODE
 70
1
  9
$AUNITS
 70
0
  9
$AUPREC
 70
0
  9
$CECOLOR
 62
256
  9
$CELTSCALE
 40
1.0
  9
$CHAMFERA
 40
0.0
  9
$CHAMFERB
 40
0.0
  9
$CHAMFERC
 40
0.0
  9
$CHAMFERD
 40
0.0
  9
$CMLJUST
 70
0
  9
$CMLSCALE
 40
1.0
  9
$DIMADEC
 70
0
  9
$DIMALT
 70
0
  9
$DIMALTD
 70
2
  9
$DIMALTF
 40
0.0393700787
  9
$DIMALTRND
 40
0.0
  9
$DIMALTTD
 70
2
  9
$DIMALTTZ
 70
0
  9
$DIMALTU
 70
2
  9
$DIMALTZ
 70
0
  9
$DIMAPOST
  1

  9
$DIMASZ
 40
3.0
  9
$DIMATFIT
 70
3
  9
$DIMAUNIT
 70
0
  9
$DIMAZIN
 70
0
  9
$DIMBLK
  1
0
  9
$DIMBLK1
  1
0
  9
$DIMBLK2
  1
0
  9
$DIMCEN
 40
3.7799999999999998
  9
$DIMCLRD
 70
0
  9
$DIMCLRE
 70
0
  9
$DIMDEC
 70
4
  9
$DIMDLE
 40
0.0
  9
$DIMDLI
 40
15.9600000000000009
  9
$DIMDSEP
 70
46
  9
$DIMEXE
 40
1.0
  9
$DIMEXO
 40
1.5
  9
$DIMFRAC
 70
0
  9
$DIMGAP
 40
0.625
  9
$DIMJUST
 70
0
  9
$DIMLDRBLK
  1

  9
$DIMLFAC
 40
1.0
  9
$DIMLIM
 70
0
  9
$DIMLUNIT
 70
2
  9
$DIMLWD
 70
-2
  9
$DIMLWE
 70
-2
  9
$DIMPOST
  1

  9
$DIMRND
 40
0.0
  9
$DIMSAH
 70
0
  9
$DIMSCALE
 40
1.0
  9
$DIMSD1
 70
0
  9
$DIMSD2
 70
0
  9
$DIMSE1
 70
0
  9
$DIMSE2
 70
0
  9
$DIMSOXD
 70
0
  9
$DIMTAD
 70
0
  9
$DIMTDEC
 70
4
  9
$DIMTFAC
 40
1.0
  9
$DIMTIH
 70
1
  9
$DIMTIX
 70
0
  9
$DIMTM
 40
0.0001
  9
$DIMTOFL
 70
0
  9
$DIMTOH
 70
1
  9
$DIMTOL
 70
1
  9
$DIMTOLJ
 70
1
  9
$DIMTP
 40
0.0001
  9
$DIMTSZ
 40
0.0
  9
$DIMTVP
 40
0.0
  9
$DIMTXSTY
  7
STANDARD
  9
$DIMTXT
 40
3.5
  9
$DIMTZIN
 70
0
  9
$DIMUPT
 70
0
  9
$DIMZIN
 70
0
  9
$DISPSILH
 70
0
  9
$DWGCODEPAGE
  3
ANSI_1252
  9
$ELEVATION
 40
0.0
  9
$EXTMAX
 10
420.0
 20
297.0
 30
0.0
  9
$EXTMIN
 10
0.0
 20
0.0
 30
0.0
  9
$FILLETRAD
 40
0.0
  9
$FILLMODE
 70
1
  9
$INSBASE
 10
0.0
 20
0.0
 30
0.0
  9
$INSUNITS
 70
4
  9
$LIMCHECK
 70
0
  9
$LIMMAX
 10
420.0
 20
297.0
  9
$LIMMIN
 10
0.0
 20
0.0
  9
$LTSCALE
 40
23.1000000000000014
  9
$LUNITS
 70
2
  9
$LUPREC
 70
4
  9
$MAXACTVP
 70
64
  9
$MEASUREMENT
 70
1
  9
$MIRRTEXT
 70
0
  9
$ORTHOMODE
 70
0
  9
$PDMODE
 70
0
  9
$PDSIZE
 40
0.5
  9
$PELEVATION
 40
0.0
  9
$PEXTMAX
 10
-100000000000000000000.0
 20
-100000000000000000000.0
 30
-100000000000000000000.0
  9
$PEXTMIN
 10
100000000000000000000.0
 20
100000000000000000000.0
 30
100000000000000000000.0
  9
$PINSBASE
 10
0.0
 20
0.0
 30
0.0
  9
$PLIMCHECK
 70
0
  9
$PLIMMAX
 10
12.0
 20
9.0
  9
$PLIMMIN
 10
0.0
 20
0.0
  9
$PLINEGEN
 70
0
  9
$PLINEWID
 40
0.0
  9
$PROXYGRAPHICS
 70
1
  9
$PSLTSCALE
 70
1
  9
$PUCSNAME
  2

  9
$PUCSORG
 10
0.0
 20
0.0
 30
0.0
  9
$PUCSXDIR
 10
1.0
 20
0.0
 30
0.0
  9
$PUCSYDIR
 10
0.0
 20
1.0
 30
0.0
  9
$QTEXTMODE
 70
0
  9
$REGENMODE
 70
1
  9
$SHADEDGE
 70
3
  9
$SHADEDIF
 70
70
  9
$SKETCHINC
 40
0.1
  9
$SKPOLY
 70
0
  9
$SPLFRAME
 70
0
  9
$SPLINESEGS
 70
8
  9
$SPLINETYPE
 70
6
  9
$SURFTAB1
 70
6
  9
$SURFTAB2
 70
6
  9
$SURFTYPE
 70
6
  9
$SURFU
 70
6
  9
$SURFV
 70
6
  9
$TEXTSIZE
 40
0.2
  9
$TEXTSTYLE
  7
STANDARD
  9
$THICKNESS
 40
0.0
  9
$TILEMODE
 70
1
  9
$TRACEWID
 40
0.05
  9
$TREEDEPTH
 70
3020
  9
$UCSNAME
  2

  9
$UCSORG
 10
0.0
 20
0.0
 30
0.0
  9
$UCSXDIR
 10
1.0
 20
0.0
 30
0.0
  9
$UCSYDIR
 10
0.0
 20
1.0
 30
0.0
  9
$UNITMODE
 70
0
  9
$USERI1
 70
0
  9
$USERI2
 70
0
  9
$USERI3
 70
0
  9
$USERI4
 70
0
  9
$USERI5
 70
0
  9
$USERR1
 40
0.0
  9
$USERR2
 40
0.0
  9
$USERR3
 40
0.0
  9
$USERR4
 40
0.0
  9
$USERR5
 40
0.0
  9
$USRTIMER
 70
1
  9
$VISRETAIN
 70
1
  0
ENDSEC
  0
SECTION
  2
TABLES
  0
TABLE
  2
VPORT
  5
8
100
AcDbSymbolTable
 70
1
  0
VPORT
  5
30
100
AcDbSymbolTableRecord
100
AcDbViewportTableRecord
  2
*Active
 70
0
 10
0.0
 20
0.0
 11
1.0
 21
1.0
 12
286.3055555555554861
 22
148.5
 13
0.0
 23
0.0
 14
10.0
 24
10.0
 15
10.0
 25
10.0
 16
0.0
 26
0.0
 36
1.0
 17
0.0
 27
0.0
 37
0.0
 40
297.0
 41
1.92798353909465
 42
50.0
 43
0.0
 44
0.0
 50
0.0
 51
0.0
 71
0
 72
100
 73
1
 74
3
 75
1
 76
1
 77
0
 78
0
281
0
 65
1
110
0.0
120
0.0
130
0.0
111
1.0
121
0.0
131
0.0
112
0.0
122
1.0
132
0.0
 79
0
146
0.0
  0
ENDTAB
  0
TABLE
  2
LTYPE
  5
5
100
AcDbSymbolTable
 70
41
  0
LTYPE
  5
16
100
AcDbSymbolTableRecord
100
AcDbLinetypeTableRecord
  2
CONTINUOUS
 70
0
  3
Solid line
 72
65
 73
0
 40
0.0
  0
LTYPE
  5
31
100
AcDbSymbolTableRecord
100
AcDbLinetypeTableRecord
  2
DOT2
 70
0
  3
Dot (.5x) ........................................
 72
65
 73
2
 40
3.1749999999999998
 49
0.0
 74
0
 49
-3.1749999999999998
 74
0
  0
LTYPE
  5
32
100
AcDbSymbolTableRecord
100
AcDbLinetypeTableRecord
  2
DASHDOTX2
 70
0
  3
Dash dot (2x) ____  .  ____  .  ____  .  ___
 72
65
 73
4
 40
50.7999999999999972
 49
25.3999999999999986
 74
0
 49
-12.6999999999999993
 74
0
 49
0.0
 74
0
 49
-12.6999999999999993
 74
0
  0
LTYPE
  5
33
100
AcDbSymbolTableRecord
100
AcDbLinetypeTableRecord
  2
ACAD_ISO05W100
 70
0
  3
ISO long-dash double-dot ____ .. ____ .. ____ . 
 72
65
 73
6
 40
33.0
 49
24.0
 74
0
 49
-3.0
 74
0
 49
0.0
 74
0
 49
-3.0
 74
0
 49
0.0
 74
0
 49
-3.0
 74
0
  0
LTYPE
  5
34
100
AcDbSymbolTableRecord
100
AcDbLinetypeTableRecord
  2
ACAD_ISO13W100
 70
0
  3
ISO double-dash double-dot __ __ . . __ __ . . _
 72
65
 73
8
 40
36.0
 49
12.0
 74
0
 49
-3.0
 74
0
 49
12.0
 74
0
 49
-3.0
 74
0
 49
0.0
 74
0
 49
-3.0
 74
0
 49
0.0
 74
0
 49
-3.0
 74
0
  0
LTYPE
  5
35
100
AcDbSymbolTableRecord
100
AcDbLinetypeTableRecord
  2
ACAD_ISO15W100
 70
0
  3
ISO double-dash triple-dot __ __ . . . __ __ . .
 72
65
 73
10
 40
39.0
 49
12.0
 74
0
 49
-3.0
 74
0
 49
12.0
 74
0
 49
-3.0
 74
0
 49
0.0
 74
0
 49
-3.0
 74
0
 49
0.0
 74
0
 49
-3.0
 74
0
 49
0.0
 74
0
 49
-3.0
 74
0
  0
LTYPE
  5
36
100
AcDbSymbolTableRecord
100
AcDbLinetypeTableRecord
  2
ACAD_ISO10W100
 70
0
  3
ISO dash dot __ . __ . __ . __ . __ . __ . __ . 
 72
65
 73
4
 40
18.0
 49
12.0
 74
0
 49
-3.0
 74
0
 49
0.0
 74
0
 49
-3.0
 74
0
  0
LTYPE
  5
37
100
AcDbSymbolTableRecord
100
AcDbLinetypeTableRecord
  2
ACAD_ISO08W100
 70
0
  3
ISO long-dash short-dash ____ __ ____ __ ____ _
 72
65
 73
4
 40
36.0
 49
24.0
 74
0
 49
-3.0
 74
0
 49
6.0
 74
0
 49
-3.0
 74
0
  0
LTYPE
  5
38
100
AcDbSymbolTableRecord
100
AcDbLinetypeTableRecord
  2
ACAD_ISO14W100
 70
0
  3
ISO dash triple-dot __ . . . __ . . . __ . . . _
 72
65
 73
8
 40
24.0
 49
12.0
 74
0
 49
-3.0
 74
0
 49
0.0
 74
0
 49
-3.0
 74
0
 49
0.0
 74
0
 49
-3.0
 74
0
 49
0.0
 74
0
 49
-3.0
 74
0
  0
LTYPE
  5
39
100
AcDbSymbolTableRecord
100
AcDbLinetypeTableRecord
  2
ACAD_ISO02W100
 70
0
  3
ISO dash __ __ __ __ __ __ __ __ __ __ __ __ __
 72
65
 73
2
 40
15.0
 49
12.0
 74
0
 49
-3.0
 74
0
  0
LTYPE
  5
14
100
AcDbSymbolTableRecord
100
AcDbLinetypeTableRecord
  2
BYBLOCK
 70
0
  3

 72
65
 73
0
 40
0.0
  0
LTYPE
  5
3A
100
AcDbSymbolTableRecord
100
AcDbLinetypeTableRecord
  2
PHANTOM2
 70
0
  3
Phantom (.5x) ___ _ _ ___ _ _ ___ _ _ ___ _ _
 72
65
 73
6
 40
31.7500000000000036
 49
15.875
 74
0
 49
-3.1749999999999998
 74
0
 49
3.1749999999999998
 74
0
 49
-3.1749999999999998
 74
0
 49
3.1749999999999998
 74
0
 49
-3.1749999999999998
 74
0
  0
LTYPE
  5
3B
100
AcDbSymbolTableRecord
100
AcDbLinetypeTableRecord
  2
DOT
 70
0
  3
. . . . . . . . . . . . . . . . . . . .
 72
65
 73
2
 40
0.2
 49
0.1
 74
0
 49
-0.1
 74
0
  0
LTYPE
  5
3C
100
AcDbSymbolTableRecord
100
AcDbLinetypeTableRecord
  2
CENTER
 70
0
  3
____ _ ____ _ ____ _ ____ _ ____ _ ____ _ ____
 72
65
 73
4
 40
0.6
 49
0.375
 74
0
 49
-0.075
 74
0
 49
0.075
 74
0
 49
-0.075
 74
0
  0
LTYPE
  5
3D
100
AcDbSymbolTableRecord
100
AcDbLinetypeTableRecord
  2
DASHED
 70
0
  3
- - - - - - - - - - - - - - - - - - - -
 72
65
 73
2
 40
0.2
 49
0.1
 74
0
 49
-0.1
 74
0
  0
LTYPE
  5
3E
100
AcDbSymbolTableRecord
100
AcDbLinetypeTableRecord
  2
CENTER2
 70
0
  3
Center (.5x) ___ _ ___ _ ___ _ ___ _ ___ _ ___
 72
65
 73
4
 40
28.5750000000000028
 49
19.0500000000000007
 74
0
 49
-3.1749999999999998
 74
0
 49
3.1749999999999998
 74
0
 49
-3.1749999999999998
 74
0
  0
LTYPE
  5
3F
100
AcDbSymbolTableRecord
100
AcDbLinetypeTableRecord
  2
ACAD_ISO04W100
 70
0
  3
ISO long-dash dot ____ . ____ . ____ . ____ . _
 72
65
 73
4
 40
30.0
 49
24.0
 74
0
 49
-3.0
 74
0
 49
0.0
 74
0
 49
-3.0
 74
0
  0
LTYPE
  5
40
100
AcDbSymbolTableRecord
100
AcDbLinetypeTableRecord
  2
ACAD_ISO03W100
 70
0
  3
ISO dash space __    __    __    __    __    __
 72
65
 73
2
 40
30.0
 49
12.0
 74
0
 49
-18.0
 74
0
  0
LTYPE
  5
41
100
AcDbSymbolTableRecord
100
AcDbLinetypeTableRecord
  2
DIVIDE2
 70
0
  3
Divide (.5x) __..__..__..__..__..__..__..__.._
 72
65
 73
6
 40
15.875
 49
6.3499999999999996
 74
0
 49
-3.1749999999999998
 74
0
 49
0.0
 74
0
 49
-3.1749999999999998
 74
0
 49
0.0
 74
0
 49
-3.1749999999999998
 74
0
  0
LTYPE
  5
42
100
AcDbSymbolTableRecord
100
AcDbLinetypeTableRecord
  2
DIVIDE
 70
0
  3
Divide ____ . . ____ . . ____ . . ____ . . ____
 72
65
 73
6
 40
31.75
 49
12.6999999999999993
 74
0
 49
-6.3499999999999996
 74
0
 49
0.0
 74
0
 49
-6.3499999999999996
 74
0
 49
0.0
 74
0
 49
-6.3499999999999996
 74
0
  0
LTYPE
  5
43
100
AcDbSymbolTableRecord
100
AcDbLinetypeTableRecord
  2
HIDDEN
 70
0
  3
- - - - - - - - - - - - - - - - - - - -
 72
65
 73
2
 40
0.2
 49
0.1
 74
0
 49
-0.1
 74
0
  0
LTYPE
  5
44
100
AcDbSymbolTableRecord
100
AcDbLinetypeTableRecord
  2
DIVIDEX2
 70
0
  3
Divide (2x) ________  .  .  ________  .  .  _
 72
65
 73
6
 40
63.5
 49
25.3999999999999986
 74
0
 49
-12.6999999999999993
 74
0
 49
0.0
 74
0
 49
-12.6999999999999993
 74
0
 49
0.0
 74
0
 49
-12.6999999999999993
 74
0
  0
LTYPE
  5
45
100
AcDbSymbolTableRecord
100
AcDbLinetypeTableRecord
  2
DASHEDX2
 70
0
  3
Dashed (2x) ____  ____  ____  ____  ____  ___
 72
65
 73
2
 40
38.0999999999999943
 49
25.3999999999999986
 74
0
 49
-12.6999999999999993
 74
0
  0
LTYPE
  5
46
100
AcDbSymbolTableRecord
100
AcDbLinetypeTableRecord
  2
ACAD_ISO12W100
 70
0
  3
ISO dash double-dot __ . . __ . . __ . . __ . . 
 72
65
 73
6
 40
21.0
 49
12.0
 74
0
 49
-3.0
 74
0
 49
0.0
 74
0
 49
-3.0
 74
0
 49
0.0
 74
0
 49
-3.0
 74
0
  0
LTYPE
  5
15
100
AcDbSymbolTableRecord
100
AcDbLinetypeTableRecord
  2
BYLAYER
 70
0
  3

 72
65
 73
0
 40
0.0
  0
LTYPE
  5
47
100
AcDbSymbolTableRecord
100
AcDbLinetypeTableRecord
  2
DASHDOT
 70
0
  3
Dash dot __ . __ . __ . __ . __ . __ . __ . __
 72
65
 73
4
 40
25.3999999999999986
 49
12.6999999999999993
 74
0
 49
-6.3499999999999996
 74
0
 49
0.0
 74
0
 49
-6.3499999999999996
 74
0
  0
LTYPE
  5
48
100
AcDbSymbolTableRecord
100
AcDbLinetypeTableRecord
  2
CENTERX2
 70
0
  3
Center (2x) ________  __  ________  __  _____
 72
65
 73
4
 40
101.6000000000000085
 49
63.5
 74
0
 49
-12.6999999999999993
 74
0
 49
12.6999999999999993
 74
0
 49
-12.6999999999999993
 74
0
  0
LTYPE
  5
49
100
AcDbSymbolTableRecord
100
AcDbLinetypeTableRecord
  2
BORDER
 70
0
  3
Border __ __ . __ __ . __ __ . __ __ . __ __ .
 72
65
 73
6
 40
44.4499999999999957
 49
12.6999999999999993
 74
0
 49
-6.3499999999999996
 74
0
 49
12.6999999999999993
 74
0
 49
-6.3499999999999996
 74
0
 49
0.0
 74
0
 49
-6.3499999999999996
 74
0
  0
LTYPE
  5
4A
100
AcDbSymbolTableRecord
100
AcDbLinetypeTableRecord
  2
PHANTOM
 70
0
  3
_____ _ _ _____ _ _ _____ _ _ _____
 72
65
 73
6
 40
0.8
 49
0.45
 74
0
 49
-0.05
 74
0
 49
0.1
 74
0
 49
-0.05
 74
0
 49
0.1
 74
0
 49
-0.05
 74
0
  0
LTYPE
  5
4B
100
AcDbSymbolTableRecord
100
AcDbLinetypeTableRecord
  2
BORDERX2
 70
0
  3
Border (2x) ____  ____  .  ____  ____  .  ___
 72
65
 73
6
 40
88.8999999999999915
 49
25.3999999999999986
 74
0
 49
-12.6999999999999993
 74
0
 49
25.3999999999999986
 74
0
 49
-12.6999999999999993
 74
0
 49
0.0
 74
0
 49
-12.6999999999999993
 74
0
  0
LTYPE
  5
4C
100
AcDbSymbolTableRecord
100
AcDbLinetypeTableRecord
  2
PHANTOMX2
 70
0
  3
Phantom (2x) ____________    ____    ____   _
 72
65
 73
6
 40
127.0000000000000142
 49
63.5
 74
0
 49
-12.6999999999999993
 74
0
 49
12.6999999999999993
 74
0
 49
-12.6999999999999993
 74
0
 49
12.6999999999999993
 74
0
 49
-12.6999999999999993
 74
0
  0
LTYPE
  5
4D
100
AcDbSymbolTableRecord
100
AcDbLinetypeTableRecord
  2
DASHDOT2
 70
0
  3
Dash dot (.5x) _._._._._._._._._._._._._._._.
 72
65
 73
4
 40
12.6999999999999993
 49
6.3499999999999996
 74
0
 49
-3.1749999999999998
 74
0
 49
0.0
 74
0
 49
-3.1749999999999998
 74
0
  0
LTYPE
  5
4E
100
AcDbSymbolTableRecord
100
AcDbLinetypeTableRecord
  2
ACAD_ISO09W100
 70
0
  3
ISO long-dash double-short-dash ____ __ __ ____
 72
65
 73
6
 40
45.0
 49
24.0
 74
0
 49
-3.0
 74
0
 49
6.0
 74
0
 49
-3.0
 74
0
 49
6.0
 74
0
 49
-3.0
 74
0
  0
LTYPE
  5
4F
100
AcDbSymbolTableRecord
100
AcDbLinetypeTableRecord
  2
HIDDEN2
 70
0
  3
Hidden (.5x) _ _ _ _ _ _ _ _ _ _ _ _ _ _ _ _ _ 
 72
65
 73
2
 40
4.7624999999999993
 49
3.1749999999999998
 74
0
 49
-1.5874999999999999
 74
0
  0
LTYPE
  5
50
100
AcDbSymbolTableRecord
100
AcDbLinetypeTableRecord
  2
ACAD_ISO06W100
 70
0
  3
ISO long-dash triple-dot ____ ... ____ ... ____
 72
65
 73
8
 40
36.0
 49
24.0
 74
0
 49
-3.0
 74
0
 49
0.0
 74
0
 49
-3.0
 74
0
 49
0.0
 74
0
 49
-3.0
 74
0
 49
0.0
 74
0
 49
-3.0
 74
0
  0
LTYPE
  5
51
100
AcDbSymbolTableRecord
100
AcDbLinetypeTableRecord
  2
DASHED2
 70
0
  3
Dashed (.5x) _ _ _ _ _ _ _ _ _ _ _ _ _ _ _ _ _ 
 72
65
 73
2
 40
9.5249999999999986
 49
6.3499999999999996
 74
0
 49
-3.1749999999999998
 74
0
  0
LTYPE
  5
52
100
AcDbSymbolTableRecord
100
AcDbLinetypeTableRecord
  2
ACAD_ISO07W100
 70
0
  3
ISO dot . . . . . . . . . . . . . . . . . . . . 
 72
65
 73
2
 40
3.0
 49
0.0
 74
0
 49
-3.0
 74
0
  0
LTYPE
  5
53
100
AcDbSymbolTableRecord
100
AcDbLinetypeTableRecord
  2
HIDDENX2
 70
0
  3
Hidden (2x) ____ ____ ____ ____ ____ ____ ____ 
 72
65
 73
2
 40
19.0499999999999972
 49
12.6999999999999993
 74
0
 49
-6.3499999999999996
 74
0
  0
LTYPE
  5
54
100
AcDbSymbolTableRecord
100
AcDbLinetypeTableRecord
  2
ACAD_ISO11W100
 70
0
  3
ISO double-dash dot __ __ . __ __ . __ __ . __ _
 72
65
 73
6
 40
33.0
 49
12.0
 74
0
 49
-3.0
 74
0
 49
12.0
 74
0
 49
-3.0
 74
0
 49
0.0
 74
0
 49
-3.0
 74
0
  0
LTYPE
  5
55
100
AcDbSymbolTableRecord
100
AcDbLinetypeTableRecord
  2
DOTX2
 70
0
  3
Dot (2x) .  .  .  .  .  .  .  .  .  .  .  .  .  .
 72
65
 73
2
 40
12.6999999999999993
 49
0.0
 74
0
 49
-12.6999999999999993
 74
0
  0
LTYPE
  5
56
100
AcDbSymbolTableRecord
100
AcDbLinetypeTableRecord
  2
BORDER2
 70
0
  3
Border (.5x) __.__.__.__.__.__.__.__.__.__.__.
 72
65
 73
6
 40
22.2249999999999979
 49
6.3499999999999996
 74
0
 49
-3.1749999999999998
 74
0
 49
6.3499999999999996
 74
0
 49
-3.1749999999999998
 74
0
 49
0.0
 74
0
 49
-3.1749999999999998
 74
0
  0
ENDTAB
  0
TABLE
  2
LAYER
  5
2
100
AcDbSymbolTable
 70
14
  0
LAYER
  5
57
100
AcDbSymbolTableRecord
100
AcDbLayerTableRecord
  2
NOTE3D
 70
0
 62
7
420
16777215
  6
CONTINUOUS
370
-3
390
F
  0
LAYER
  5
58
100
AcDbSymbolTableRecord
100
AcDbLayerTableRecord
  2
3_ALL_AXES
 70
0
 62
7
420
16777215
  6
CONTINUOUS
370
-3
390
F
  0
LAYER
  5
59
100
AcDbSymbolTableRecord
100
AcDbLayerTableRecord
  2
2_ALL_CSYS
 70
0
 62
7
420
16777215
  6
CONTINUOUS
370
-3
390
F
  0
LAYER
  5
5A
100
AcDbSymbolTableRecord
100
AcDbLayerTableRecord
  2
1__DEF_PLANES
 70
0
 62
7
420
16777215
  6
CONTINUOUS
370
-3
390
F
  0
LAYER
  5
5B
100
AcDbSymbolTableRecord
100
AcDbLayerTableRecord
  2
6_ALL_SURFS
 70
0
 62
7
420
16777215
  6
CONTINUOUS
370
-3
390
F
  0
LAYER
  5
10
100
AcDbSymbolTableRecord
100
AcDbLayerTableRecord
  2
0
 70
0
 62
7
420
16777215
  6
CONTINUOUS
370
-3
390
F
  0
LAYER
  5
5C
100
AcDbSymbolTableRecord
100
AcDbLayerTableRecord
  2
NOTE2D
 70
0
 62
7
420
16777215
  6
CONTINUOUS
370
-3
390
F
  0
LAYER
  5
5D
100
AcDbSymbolTableRecord
100
AcDbLayerTableRecord
  2
2_ALL_NOTES
 70
0
 62
7
420
16777215
  6
CONTINUOUS
370
-3
390
F
  0
LAYER
  5
5E
100
AcDbSymbolTableRecord
100
AcDbLayerTableRecord
  2
DEFAULT_1
 70
0
 62
7
420
16777215
  6
CENTER
370
-3
390
F
  0
LAYER
  5
5F
100
AcDbSymbolTableRecord
100
AcDbLayerTableRecord
  2
1_ALL_PLANES
 70
0
 62
7
420
16777215
  6
CONTINUOUS
370
-3
390
F
  0
LAYER
  5
60
100
AcDbSymbolTableRecord
100
AcDbLayerTableRecord
  2
3_ALL_SYMBOLS
 70
0
 62
7
420
16777215
  6
CONTINUOUS
370
-3
390
F
  0
LAYER
  5
61
100
AcDbSymbolTableRecord
100
AcDbLayerTableRecord
  2
2__DEF_CSYS
 70
0
 62
7
420
16777215
  6
CONTINUOUS
370
-3
390
F
  0
LAYER
  5
62
100
AcDbSymbolTableRecord
100
AcDbLayerTableRecord
  2
DEFAULT_2
 70
0
 62
6
420
16711935
  6
HIDDEN
370
-3
390
F
  0
LAYER
  5
63
100
AcDbSymbolTableRecord
100
AcDbLayerTableRecord
  2
DEFAULT_3
 70
0
 62
7
420
16777215
  6
PHANTOM
370
-3
390
F
  0
ENDTAB
  0
TABLE
  2
STYLE
  5
3
100
AcDbSymbolTable
 70
19
  0
STYLE
  5
64
100
AcDbSymbolTableRecord
100
AcDbTextStyleTableRecord
  2
Standard
 70
0
 40
0.0
 41
1.0
 50
0.0
 71
0
 42
2.5
  3

  4

1001
ACAD
1000
txt
1071
0
  0
STYLE
  5
65
100
AcDbSymbolTableRecord
100
AcDbTextStyleTableRecord
  2
textstyle0
 70
0
 40
0.0
 41
1.0
 50
0.0
 71
0
 42
3.5
  3

  4

1001
ACAD
1000
Standard
1071
0
  0
STYLE
  5
66
100
AcDbSymbolTableRecord
100
AcDbTextStyleTableRecord
  2
textstyle1
 70
0
 40
0.0
 41
1.0
 50
0.0
 71
0
 42
3.5
  3

  4

1001
ACAD
1000
Standard
1071
0
  0
STYLE
  5
67
100
AcDbSymbolTableRecord
100
AcDbTextStyleTableRecord
  2
textstyle2
 70
0
 40
0.0
 41
1.0
 50
0.0
 71
0
 42
3.5
  3

  4

1001
ACAD
1000
Standard
1071
0
  0
STYLE
  5
68
100
AcDbSymbolTableRecord
100
AcDbTextStyleTableRecord
  2
textstyle3
 70
0
 40
0.0
 41
1.0
 50
0.0
 71
0
 42
3.5
  3

  4

1001
ACAD
1000
Standard
1071
0
  0
STYLE
  5
69
100
AcDbSymbolTableRecord
100
AcDbTextStyleTableRecord
  2
textstyle4
 70
0
 40
0.0
 41
1.0
 50
0.0
 71
0
 42
2.0
  3

  4

1001
ACAD
1000
Standard
1071
0
  0
STYLE
  5
6A
100
AcDbSymbolTableRecord
100
AcDbTextStyleTableRecord
  2
textstyle5
 70
0
 40
0.0
 41
1.0
 50
0.0
 71
0
 42
4.0
  3

  4

1001
ACAD
1000
Standard
1071
0
  0
STYLE
  5
6B
100
AcDbSymbolTableRecord
100
AcDbTextStyleTableRecord
  2
textstyle6
 70
0
 40
0.0
 41
1.0
 50
0.0
 71
0
 42
4.0
  3

  4

1001
ACAD
1000
Standard
1071
0
  0
STYLE
  5
6C
100
AcDbSymbolTableRecord
100
AcDbTextStyleTableRecord
  2
textstyle7
 70
0
 40
0.0
 41
1.0
 50
0.0
 71
0
 42
4.0
  3

  4

1001
ACAD
1000
Standard
1071
0
  0
STYLE
  5
6D
100
AcDbSymbolTableRecord
100
AcDbTextStyleTableRecord
  2
textstyle8
 70
0
 40
0.0
 41
1.0
 50
0.0
 71
0
 42
4.0
  3

  4

1001
ACAD
1000
Standard
1071
0
  0
STYLE
  5
6E
100
AcDbSymbolTableRecord
100
AcDbTextStyleTableRecord
  2
textstyle9
 70
0
 40
0.0
 41
1.0
 50
0.0
 71
0
 42
2.0
  3

  4

1001
ACAD
1000
Standard
1071
0
  0
STYLE
  5
6F
100
AcDbSymbolTableRecord
100
AcDbTextStyleTableRecord
  2
textstyle10
 70
0
 40
0.0
 41
1.0
 50
0.0
 71
0
 42
4.0
  3

  4

1001
ACAD
1000
Standard
1071
0
  0
STYLE
  5
70
100
AcDbSymbolTableRecord
100
AcDbTextStyleTableRecord
  2
textstyle11
 70
0
 40
0.0
 41
1.0
 50
0.0
 71
0
 42
2.0
  3

  4

1001
ACAD
1000
Standard
1071
0
  0
STYLE
  5
71
100
AcDbSymbolTableRecord
100
AcDbTextStyleTableRecord
  2
textstyle12
 70
0
 40
0.0
 41
1.0
 50
0.0
 71
0
 42
2.0
  3

  4

1001
ACAD
1000
Standard
1071
0
  0
STYLE
  5
72
100
AcDbSymbolTableRecord
100
AcDbTextStyleTableRecord
  2
textstyle13
 70
0
 40
0.0
 41
1.0
 50
0.0
 71
0
 42
4.0
  3

  4

1001
ACAD
1000
Standard
1071
0
  0
STYLE
  5
73
100
AcDbSymbolTableRecord
100
AcDbTextStyleTableRecord
  2
textstyle14
 70
0
 40
0.0
 41
1.0
 50
0.0
 71
0
 42
3.5
  3

  4

1001
ACAD
1000
Standard
1071
0
  0
STYLE
  5
74
100
AcDbSymbolTableRecord
100
AcDbTextStyleTableRecord
  2
textstyle15
 70
0
 40
0.0
 41
1.0
 50
0.0
 71
0
 42
3.5
  3

  4

1001
ACAD
1000
Standard
1071
0
  0
STYLE
  5
75
100
AcDbSymbolTableRecord
100
AcDbTextStyleTableRecord
  2
textstyle16
 70
0
 40
0.0
 41
1.0
 50
0.0
 71
0
 42
2.8999941587000002
  3

  4

1001
ACAD
1000
arial
1071
0
  0
STYLE
  5
76
100
AcDbSymbolTableRecord
100
AcDbTextStyleTableRecord
  2
textstyle17
 70
0
 40
0.0
 41
1.0
 50
0.0
 71
0
 42
2.0000000372
  3

  4

1001
ACAD
1000
Standard
1071
0
  0
ENDTAB
  0
TABLE
  2
VIEW
  5
6
100
AcDbSymbolTable
 70
0
  0
ENDTAB
  0
TABLE
  2
UCS
  5
7
100
AcDbSymbolTable
 70
0
  0
ENDTAB
  0
TABLE
  2
APPID
  5
9
100
AcDbSymbolTable
 70
1
  0
APPID
  5
12
100
AcDbSymbolTableRecord
100
AcDbRegAppTableRecord
  2
ACAD
 70
0
  0
APPID
  5
77
100
AcDbSymbolTableRecord
100
AcDbRegAppTableRecord
  2
QCAD
 70
0
  0
ENDTAB
  0
TABLE
  2
DIMSTYLE
  5
A
100
AcDbSymbolTable
 70
1
100
AcDbDimStyleTable
 71
0
  0
DIMSTYLE
105
27
100
AcDbSymbolTableRecord
100
AcDbDimStyleTableRecord
  2
Standard
 41
3.0
 42
1.5
 43
3.75
 44
1.0
 70
0
 73
1
 74
0
 77
0
 78
8
140
3.5
141
2.5
143
0.03937007874016
147
0.625
171
3
172
1
271
2
272
2
274
3
278
44
283
0
284
8
340
64
  0
ENDTAB
  0
TABLE
  2
BLOCK_RECORD
  5
1
100
AcDbSymbolTable
 70
1
  0
BLOCK_RECORD
  5
1F
100
AcDbSymbolTableRecord
100
AcDbBlockTableRecord
  2
*Model_Space
340
22
  0
BLOCK_RECORD
  5
1B
100
AcDbSymbolTableRecord
100
AcDbBlockTableRecord
  2
*Paper_Space
340
1E
  0
BLOCK_RECORD
  5
23
100
AcDbSymbolTableRecord
100
AcDbBlockTableRecord
  2
*Paper_Space0
340
26
  0
BLOCK_RECORD
  5
78
100
AcDbSymbolTableRecord
100
AcDbBlockTableRecord
  2
LAV-SUP_BL3
340
0
  0
BLOCK_RECORD
  5
79
100
AcDbSymbolTableRecord
100
AcDbBlockTableRecord
  2
LAV-SUP_BL2
340
0
  0
BLOCK_RECORD
  5
7D
100
AcDbSymbolTableRecord
100
AcDbBlockTableRecord
  2
UGUALE-UGUALE_BL5
340
0
  0
ENDTAB
  0
ENDSEC
  0
SECTION
  2
BLOCKS
  0
BLOCK
  5
20
100
AcDbEntity
  8
0
100
AcDbBlockBegin
  2
*Model_Space
 70
0
 10
0.0
 20
0.0
 30
0.0
  3
*Model_Space
  1

  0
ENDBLK
  5
21
100
AcDbEntity
  8
0
100
AcDbBlockEnd
  0
BLOCK
  5
1C
100
AcDbEntity
 67
1
  8
0
100
AcDbBlockBegin
  2
*Paper_Space
 70
0
 10
0.0
 20
0.0
 30
0.0
  3
*Paper_Space
  1

  0
ENDBLK
  5
1D
100
AcDbEntity
 67
1
  8
0
100
AcDbBlockEnd
  0
BLOCK
  5
24
100
AcDbEntity
  8
0
100
AcDbBlockBegin
  2
*Paper_Space0
 70
0
 10
0.0
 20
0.0
 30
0.0
  3
*Paper_Space0
  1

  0
ENDBLK
  5
25
100
AcDbEntity
  8
0
100
AcDbBlockEnd
  0
BLOCK
  5
7F
100
AcDbEntity
  8
0
100
AcDbBlockBegin
  2
LAV-SUP_BL3
 70
0
 10
201.7696961702000067
 20
258.1034006745999818
 30
0.0
  3
LAV-SUP_BL3
  1

  0
LINE
  5
80
100
AcDbEntity
  8
NOTE2D
 62
3
420
65280
370
-1
 48
1.0
  6
CONTINUOUS
100
AcDbLine
 10
201.7696961702000067
 20
255.5141149602999917
 30
0.0
 11
204.7696961702000067
 21
257.2641149602999917
 31
0.0
  0
LINE
  5
81
100
AcDbEntity
  8
NOTE2D
 62
3
420
65280
370
-1
 48
1.0
  6
CONTINUOUS
100
AcDbLine
 10
204.7696961702000067
 20
257.2641149602999917
 30
0.0
 11
198.7696961702000067
 21
260.6926863888999719
 31
0.0
  0
CIRCLE
  5
82
100
AcDbEntity
  8
NOTE2D
 62
3
420
65280
370
-1
 48
1.0
  6
CONTINUOUS
100
AcDbCircle
 10
202.5693647006000049
 20
257.2601990777999958
 30
0.0
 40
1.1018270385
  0
ENDBLK
  5
83
100
AcDbEntity
  8
0
100
AcDbBlockEnd
  0
BLOCK
  5
84
100
AcDbEntity
  8
0
100
AcDbBlockBegin
  2
LAV-SUP_BL2
 70
0
 10
215.7696961702000067
 20
256.3118842247999964
 30
0.0
  3
LAV-SUP_BL2
  1

  0
LINE
  5
85
100
AcDbEntity
  8
NOTE2D
 62
3
420
65280
370
-1
 48
1.0
  6
CONTINUOUS
100
AcDbLine
 10
215.7696961702000067
 20
258.9011699390999865
 30
0.0
 11
212.7696961702000067
 21
257.1511699390999865
 31
0.0
  0
LINE
  5
86
100
AcDbEntity
  8
NOTE2D
 62
3
420
65280
370
-1
 48
1.0
  6
CONTINUOUS
100
AcDbLine
 10
212.7696961702000067
 20
257.1511699390999865
 30
0.0
 11
218.7696961702000067
 21
253.7225985105000063
 31
0.0
  0
CIRCLE
  5
87
100
AcDbEntity
  8
NOTE2D
 62
3
420
65280
370
-1
 48
1.0
  6
CONTINUOUS
100
AcDbCircle
 10
214.9700276398000085
 20
257.1550858215999824
 30
0.0
 40
1.1018270385
  0
ENDBLK
  5
88
100
AcDbEntity
  8
0
100
AcDbBlockEnd
  0
BLOCK
  5
A7
100
AcDbEntity
  8
0
100
AcDbBlockBegin
  2
UGUALE-UGUALE_BL5
 70
0
 10
67.7079635595000013
 20
259.5840884438999865
 30
0.0
  3
UGUALE-UGUALE_BL5
  1

  0
CIRCLE
  5
A8
100
AcDbEntity
  8
NOTE2D
 62
3
420
65280
370
-1
 48
1.0
  6
CONTINUOUS
100
AcDbCircle
 10
67.6769804197000013
 20
260.3946312000999797
 30
0.0
 40
0.5325
  0
LINE
  5
A9
100
AcDbEntity
  8
NOTE2D
 62
3
420
65280
370
-1
 48
1.0
  6
CONTINUOUS
100
AcDbLine
 10
64.8679635594999979
 20
258.9510456876000148
 30
0.0
 11
62.7379635595000025
 21
258.9510456876000148
 31
0.0
  0
LINE
  5
AA
100
AcDbEntity
  8
NOTE2D
 62
3
420
65280
370
-1
 48
1.0
  6
CONTINUOUS
100
AcDbLine
 10
62.7379635595000025
 20
258.2410456875999785
 30
0.0
 11
64.8679635594999979
 21
258.2410456875999785
 31
0.0
  0
LINE
  5
AB
100
AcDbEntity
  8
NOTE2D
 62
3
420
65280
370
-1
 48
1.0
  6
CONTINUOUS
100
AcDbLine
 10
70.5479635595000047
 20
258.9510456876000148
 30
0.0
 11
72.6779635595000002
 21
258.9510456876000148
 31
0.0
  0
LINE
  5
AC
100
AcDbEntity
  8
NOTE2D
 62
3
420
65280
370
-1
 48
1.0
  6
CONTINUOUS
100
AcDbLine
 10
70.5479635595000047
 20
258.2410456875999785
 30
0.0
 11
72.6779635595000002
 21
258.2410456875999785
 31
0.0
  0
LWPOLYLINE
  5
AD
100
AcDbEntity
  8
NOTE2D
 62
3
420
65280
370
-1
 48
1.0
  6
CONTINUOUS
100
AcDbPolyline
 90
43
 70
0
 10
68.2094804197000002
 20
260.3946312000999797
 10
68.203467221400004
 20
260.314832091899973
 10
68.1855634331000005
 20
260.2368352290999951
 10
68.1561734081000026
 20
260.1624021540000058
 10
68.1159609136999933
 20
260.0932139215000234
 10
68.0658341403999998
 20
260.0308331325999802
 10
68.0069251902999952
 20
259.9766686438999841
 10
67.9405645093000032
 20
259.9319437487000073
 10
67.8682508389999981
 20
259.8976685489000147
 10
67.7916173679000025
 20
259.8746171425000284
 10
67.7123948461999987
 20
259.8633101405000048
 10
67.6323724973999987
 20
259.8640029091000088
 10
67.5533576089000007
 20
259.8766798021999875
 10
67.4771347145999982
 20
259.9010545149000109
 10
67.4054252921000057
 20
259.9365765498000087
 10
67.3398488831000037
 20
259.9824436493000235
 10
67.2818865165999966
 20
260.0376199149999934
 10
67.232847259899998
 20
260.1008592028999828
 10
67.1938386539999897
 20
260.1707332674999975
 10
67.1657416997999945
 20
260.2456640181999887
 10
67.1491909610000022
 20
260.3239591602999781
 10
67.144560232200007
 20
260.4038504150000222
 10
67.1519540975999973
 20
260.4835334558
 10
67.1712055681999942
 20
260.5612086584000053
 10
67.2018798539000102
 20
260.6351217453999993
 10
67.2432841826000072
 20
260.7036034057999814
 10
67.2944834464000081
 20
260.7651069960999735
 10
67.3543213211000023
 20
260.8182434711000042
 10
67.4214463814999903
 20
260.8618127551000043
 10
67.4943426224999996
 20
260.8948308453000209
 10
67.5713636984000061
 20
260.9165520353000147
 10
67.6507701050000065
 20
260.9264857567000035
 10
67.7307684658999989
 20
260.9244076586999768
 10
67.809552035400003
 20
260.9103646745999754
 10
67.8853415039000083
 20
260.8846739621999973
 10
67.9564251824999985
 20
260.8479157405000137
 10
68.0211976619999916
 20
260.8009201860999724
 10
68.0781960699000024
 20
260.7447486832999743
 10
68.1261331097000067
 20
260.6806698533000031
 10
68.1639261336000004
 20
260.610130902499975
 10
68.1907215945000047
 20
260.5347249379000232
 10
68.2059143227000106
 20
260.4561549865999837
 10
68.2094804197000002
 20
260.3946312000999797
  0
HATCH
  5
AE
100
AcDbEntity
  8
NOTE2D
 62
3
420
65280
370
-1
 48
1.0
  6
CONTINUOUS
100
AcDbHatch
 10
0.0
 20
0.0
 30
0.0
210
0.0
220
0.0
230
1.0
  2
SOLID
 70
1
 71
0
 91
1
 92
1
 93
42
 72
1
 10
68.2094804197000002
 20
260.3946312000999797
 11
68.203467221400004
 21
260.314832091899973
 72
1
 10
68.203467221400004
 20
260.314832091899973
 11
68.1855634331000005
 21
260.2368352290999951
 72
1
 10
68.1855634331000005
 20
260.2368352290999951
 11
68.1561734081000026
 21
260.1624021540000058
 72
1
 10
68.1561734081000026
 20
260.1624021540000058
 11
68.1159609136999933
 21
260.0932139215000234
 72
1
 10
68.1159609136999933
 20
260.0932139215000234
 11
68.0658341403999998
 21
260.0308331325999802
 72
1
 10
68.0658341403999998
 20
260.0308331325999802
 11
68.0069251902999952
 21
259.9766686438999841
 72
1
 10
68.0069251902999952
 20
259.9766686438999841
 11
67.9405645093000032
 21
259.9319437487000073
 72
1
 10
67.9405645093000032
 20
259.9319437487000073
 11
67.8682508389999981
 21
259.8976685489000147
 72
1
 10
67.8682508389999981
 20
259.8976685489000147
 11
67.7916173679000025
 21
259.8746171425000284
 72
1
 10
67.7916173679000025
 20
259.8746171425000284
 11
67.7123948461999987
 21
259.8633101405000048
 72
1
 10
67.7123948461999987
 20
259.8633101405000048
 11
67.6323724973999987
 21
259.8640029091000088
 72
1
 10
67.6323724973999987
 20
259.8640029091000088
 11
67.5533576089000007
 21
259.8766798021999875
 72
1
 10
67.5533576089000007
 20
259.8766798021999875
 11
67.4771347145999982
 21
259.9010545149000109
 72
1
 10
67.4771347145999982
 20
259.9010545149000109
 11
67.4054252921000057
 21
259.9365765498000087
 72
1
 10
67.4054252921000057
 20
259.9365765498000087
 11
67.3398488831000037
 21
259.9824436493000235
 72
1
 10
67.3398488831000037
 20
259.9824436493000235
 11
67.2818865165999966
 21
260.0376199149999934
 72
1
 10
67.2818865165999966
 20
260.0376199149999934
 11
67.232847259899998
 21
260.1008592028999828
 72
1
 10
67.232847259899998
 20
260.1008592028999828
 11
67.1938386539999897
 21
260.1707332674999975
 72
1
 10
67.1938386539999897
 20
260.1707332674999975
 11
67.1657416997999945
 21
260.2456640181999887
 72
1
 10
67.1657416997999945
 20
260.2456640181999887
 11
67.1491909610000022
 21
260.3239591602999781
 72
1
 10
67.1491909610000022
 20
260.3239591602999781
 11
67.144560232200007
 21
260.4038504150000222
 72
1
 10
67.144560232200007
 20
260.4038504150000222
 11
67.1519540975999973
 21
260.4835334558
 72
1
 10
67.1519540975999973
 20
260.4835334558
 11
67.1712055681999942
 21
260.5612086584000053
 72
1
 10
67.1712055681999942
 20
260.5612086584000053
 11
67.2018798539000102
 21
260.6351217453999993
 72
1
 10
67.2018798539000102
 20
260.6351217453999993
 11
67.2432841826000072
 21
260.7036034057999814
 72
1
 10
67.2432841826000072
 20
260.7036034057999814
 11
67.2944834464000081
 21
260.7651069960999735
 72
1
 10
67.2944834464000081
 20
260.7651069960999735
 11
67.3543213211000023
 21
260.8182434711000042
 72
1
 10
67.3543213211000023
 20
260.8182434711000042
 11
67.4214463814999903
 21
260.8618127551000043
 72
1
 10
67.4214463814999903
 20
260.8618127551000043
 11
67.4943426224999996
 21
260.8948308453000209
 72
1
 10
67.4943426224999996
 20
260.8948308453000209
 11
67.5713636984000061
 21
260.9165520353000147
 72
1
 10
67.5713636984000061
 20
260.9165520353000147
 11
67.6507701050000065
 21
260.9264857567000035
 72
1
 10
67.6507701050000065
 20
260.9264857567000035
 11
67.7307684658999989
 21
260.9244076586999768
 72
1
 10
67.7307684658999989
 20
260.9244076586999768
 11
67.809552035400003
 21
260.9103646745999754
 72
1
 10
67.809552035400003
 20
260.9103646745999754
 11
67.8853415039000083
 21
260.8846739621999973
 72
1
 10
67.8853415039000083
 20
260.8846739621999973
 11
67.9564251824999985
 21
260.8479157405000137
 72
1
 10
67.9564251824999985
 20
260.8479157405000137
 11
68.0211976619999916
 21
260.8009201860999724
 72
1
 10
68.0211976619999916
 20
260.8009201860999724
 11
68.0781960699000024
 21
260.7447486832999743
 72
1
 10
68.0781960699000024
 20
260.7447486832999743
 11
68.1261331097000067
 21
260.6806698533000031
 72
1
 10
68.1261331097000067
 20
260.6806698533000031
 11
68.1639261336000004
 21
260.610130902499975
 72
1
 10
68.1639261336000004
 20
260.610130902499975
 11
68.1907215945000047
 21
260.5347249379000232
 72
1
 10
68.1907215945000047
 20
260.5347249379000232
 11
68.2059143227000106
 21
260.4561549865999837
 72
1
 10
68.2059143227000106
 20
260.4561549865999837
 11
68.2094804197000002
 21
260.3946312000999797
 97
0
 75
0
 76
1
 98
0
1001
ACAD
1010
0.0
1020
0.0
1030
0
  0
ENDBLK
  5
AF
100
AcDbEntity
  8
0
100
AcDbBlockEnd
  0
ENDSEC
  0
SECTION
  2
ENTITIES
  0
LINE
  5
122
100
AcDbEntity
  8
0
 62
7
420
16777215
370
-1
 48
1.0
  6
CONTINUOUS
100
AcDbLine
 10
0.0
 20
0.0
 30
0.0
 11
420.0
 21
0.0
 31
0.0
  0
LINE
  5
123
100
AcDbEntity
  8
0
 62
7
420
16777215
370
-1
 48
1.0
  6
CONTINUOUS
100
AcDbLine
 10
420.0
 20
0.0
 30
0.0
 11
420.0
 21
297.0
 31
0.0
  0
LINE
  5
124
100
AcDbEntity
  8
0
 62
7
420
16777215
370
-1
 48
1.0
  6
CONTINUOUS
100
AcDbLine
 10
0.0
 20
297.0
 30
0.0
 11
420.0
 21
297.0
 31
0.0
  0
LINE
  5
125
100
AcDbEntity
  8
0
 62
7
420
16777215
370
-1
 48
1.0
  6
CONTINUOUS
100
AcDbLine
 10
0.0
 20
0.0
 30
0.0
 11
0.0
 21
297.0
 31
0.0
  0
LINE
  5
126
100
AcDbEntity
  8
0
 62
7
420
16777215
370
-1
 48
1.0
  6
CONTINUOUS
100
AcDbLine
 10
5.0
 20
5.0
 30
0.0
 11
415.0
 21
5.0
 31
0.0
  0
LINE
  5
127
100
AcDbEntity
  8
0
 62
7
420
16777215
370
-1
 48
1.0
  6
CONTINUOUS
100
AcDbLine
 10
415.0
 20
5.0
 30
0.0
 11
415.0
 21
292.0
 31
0.0
  0
LINE
  5
128
100
AcDbEntity
  8
0
 62
7
420
16777215
370
-1
 48
1.0
  6
CONTINUOUS
100
AcDbLine
 10
415.0
 20
292.0
 30
0.0
 11
5.0
 21
292.0
 31
0.0
  0
LINE
  5
129
100
AcDbEntity
  8
0
 62
7
420
16777215
370
-1
 48
1.0
  6
CONTINUOUS
100
AcDbLine
 10
5.0
 20
292.0
 30
0.0
 11
5.0
 21
5.0
 31
0.0
  0
LINE
  5
12A
100
AcDbEntity
  8
0
 62
4
420
65535
370
-1
 48
1.0
  6
CONTINUOUS
100
AcDbLine
 10
0.0
 20
0.0
 30
0.0
 11
420.0
 21
0.0
 31
0.0
  0
LINE
  5
12B
100
AcDbEntity
  8
0
 62
4
420
65535
370
-1
 48
1.0
  6
CONTINUOUS
100
AcDbLine
 10
0.0
 20
0.0
 30
0.0
 11
0.0
 21
297.0
 31
0.0
  0
LINE
  5
12C
100
AcDbEntity
  8
0
 62
4
420
65535
370
-1
 48
1.0
  6
CONTINUOUS
100
AcDbLine
 10
420.0
 20
297.0
 30
0.0
 11
0.0
 21
297.0
 31
0.0
  0
LINE
  5
12D
100
AcDbEntity
  8
0
 62
4
420
65535
370
-1
 48
1.0
  6
CONTINUOUS
100
AcDbLine
 10
420.0
 20
297.0
 30
0.0
 11
420.0
 21
0.0
 31
0.0
  0
LINE
  5
12E
100
AcDbEntity
  8
0
 62
4
420
65535
370
-1
 48
1.0
  6
CONTINUOUS
100
AcDbLine
 10
210.0
 20
294.5
 30
0.0
 11
210.0
 21
292.0
 31
0.0
  0
ARC
  5
12F
100
AcDbEntity
  8
DEFAULT_2
 62
6
420
16711935
370
-1
 48
1.0
  6
HIDDEN
100
AcDbCircle
 10
365.2382799467999916
 20
180.814461396300004
 30
0.0
 40
2.5
100
AcDbArc
 50
0.0
 51
180.0
  0
ARC
  5
130
100
AcDbEntity
  8
DEFAULT_2
 62
6
420
16711935
370
-1
 48
1.0
  6
HIDDEN
100
AcDbCircle
 10
365.2382799467999916
 20
180.814461396300004
 30
0.0
 40
2.5
100
AcDbArc
 50
255.0
 51
360.0
  0
ARC
  5
131
100
AcDbEntity
  8
DEFAULT_2
 62
6
420
16711935
370
-1
 48
1.0
  6
HIDDEN
100
AcDbCircle
 10
365.2382799467999916
 20
180.814461396300004
 30
0.0
 40
2.5
100
AcDbArc
 50
180.0
 51
195.0
  0
ARC
  5
132
100
AcDbEntity
  8
DEFAULT_2
 62
6
420
16711935
370
-1
 48
1.0
  6
HIDDEN
100
AcDbCircle
 10
365.2382799467999916
 20
160.814461396300004
 30
0.0
 40
2.5
100
AcDbArc
 50
0.0
 51
180.0
  0
ARC
  5
133
100
AcDbEntity
  8
DEFAULT_2
 62
6
420
16711935
370
-1
 48
1.0
  6
HIDDEN
100
AcDbCircle
 10
365.2382799467999916
 20
160.814461396300004
 30
0.0
 40
2.5
100
AcDbArc
 50
255.0
 51
360.0
  0
ARC
  5
134
100
AcDbEntity
  8
DEFAULT_2
 62
6
420
16711935
370
-1
 48
1.0
  6
HIDDEN
100
AcDbCircle
 10
365.2382799467999916
 20
160.814461396300004
 30
0.0
 40
2.5
100
AcDbArc
 50
180.0
 51
195.0
  0
ARC
  5
135
100
AcDbEntity
  8
DEFAULT_2
 62
6
420
16711935
370
-1
 48
1.0
  6
HIDDEN
100
AcDbCircle
 10
325.2382799467999916
 20
180.814461396300004
 30
0.0
 40
2.5
100
AcDbArc
 50
0.0
 51
180.0
  0
ARC
  5
136
100
AcDbEntity
  8
DEFAULT_2
 62
6
420
16711935
370
-1
 48
1.0
  6
HIDDEN
100
AcDbCircle
 10
325.2382799467999916
 20
180.814461396300004
 30
0.0
 40
2.5
100
AcDbArc
 50
255.0
 51
360.0
  0
ARC
  5
137
100
AcDbEntity
  8
DEFAULT_2
 62
6
420
16711935
370
-1
 48
1.0
  6
HIDDEN
100
AcDbCircle
 10
325.2382799467999916
 20
180.814461396300004
 30
0.0
 40
2.5
100
AcDbArc
 50
180.0
 51
195.0
  0
ARC
  5
138
100
AcDbEntity
  8
DEFAULT_2
 62
6
420
16711935
370
-1
 48
1.0
  6
HIDDEN
100
AcDbCircle
 10
325.2382799467999916
 20
160.814461396300004
 30
0.0
 40
2.5
100
AcDbArc
 50
0.0
 51
180.0
  0
ARC
  5
139
100
AcDbEntity
  8
DEFAULT_2
 62
6
420
16711935
370
-1
 48
1.0
  6
HIDDEN
100
AcDbCircle
 10
325.2382799467999916
 20
160.814461396300004
 30
0.0
 40
2.5
100
AcDbArc
 50
255.0
 51
360.0
  0
ARC
  5
13A
100
AcDbEntity
  8
DEFAULT_2
 62
6
420
16711935
370
-1
 48
1.0
  6
HIDDEN
100
AcDbCircle
 10
325.2382799467999916
 20
160.814461396300004
 30
0.0
 40
2.5
100
AcDbArc
 50
180.0
 51
195.0
  0
ARC
  5
13B
100
AcDbEntity
  8
0
 62
3
420
65280
370
-1
 48
1.0
  6
CONTINUOUS
100
AcDbCircle
 10
365.2382799467999916
 20
180.814461396300004
 30
0.0
 40
2.5
100
AcDbArc
 50
0.0
 51
180.0
  0
ARC
  5
13C
100
AcDbEntity
  8
0
 62
3
420
65280
370
-1
 48
1.0
  6
CONTINUOUS
100
AcDbCircle
 10
365.2382799467999916
 20
180.814461396300004
 30
0.0
 40
2.5
100
AcDbArc
 50
255.0
 51
360.0
  0
ARC
  5
13D
100
AcDbEntity
  8
0
 62
3
420
65280
370
-1
 48
1.0
  6
CONTINUOUS
100
AcDbCircle
 10
365.2382799467999916
 20
180.814461396300004
 30
0.0
 40
2.5
100
AcDbArc
 50
180.0
 51
195.0
  0
ARC
  5
13E
100
AcDbEntity
  8
0
 62
3
420
65280
370
-1
 48
1.0
  6
CONTINUOUS
100
AcDbCircle
 10
365.2382799467999916
 20
160.814461396300004
 30
0.0
 40
2.5
100
AcDbArc
 50
0.0
 51
180.0
  0
ARC
  5
13F
100
AcDbEntity
  8
0
 62
3
420
65280
370
-1
 48
1.0
  6
CONTINUOUS
100
AcDbCircle
 10
365.2382799467999916
 20
160.814461396300004
 30
0.0
 40
2.5
100
AcDbArc
 50
255.0
 51
360.0
  0
ARC
  5
140
100
AcDbEntity
  8
0
 62
3
420
65280
370
-1
 48
1.0
  6
CONTINUOUS
100
AcDbCircle
 10
365.2382799467999916
 20
160.814461396300004
 30
0.0
 40
2.5
100
AcDbArc
 50
180.0
 51
195.0
  0
ARC
  5
141
100
AcDbEntity
  8
0
 62
3
420
65280
370
-1
 48
1.0
  6
CONTINUOUS
100
AcDbCircle
 10
325.2382799467999916
 20
180.814461396300004
 30
0.0
 40
2.5
100
AcDbArc
 50
0.0
 51
180.0
  0
ARC
  5
142
100
AcDbEntity
  8
0
 62
3
420
65280
370
-1
 48
1.0
  6
CONTINUOUS
100
AcDbCircle
 10
325.2382799467999916
 20
180.814461396300004
 30
0.0
 40
2.5
100
AcDbArc
 50
255.0
 51
360.0
  0
ARC
  5
143
100
AcDbEntity
  8
0
 62
3
420
65280
370
-1
 48
1.0
  6
CONTINUOUS
100
AcDbCircle
 10
325.2382799467999916
 20
180.814461396300004
 30
0.0
 40
2.5
100
AcDbArc
 50
180.0
 51
195.0
  0
ARC
  5
144
100
AcDbEntity
  8
0
 62
3
420
65280
370
-1
 48
1.0
  6
CONTINUOUS
100
AcDbCircle
 10
325.2382799467999916
 20
160.814461396300004
 30
0.0
 40
2.5
100
AcDbArc
 50
0.0
 51
180.0
  0
ARC
  5
145
100
AcDbEntity
  8
0
 62
3
420
65280
370
-1
 48
1.0
  6
CONTINUOUS
100
AcDbCircle
 10
325.2382799467999916
 20
160.814461396300004
 30
0.0
 40
2.5
100
AcDbArc
 50
255.0
 51
360.0
  0
ARC
  5
146
100
AcDbEntity
  8
0
 62
3
420
65280
370
-1
 48
1.0
  6
CONTINUOUS
100
AcDbCircle
 10
325.2382799467999916
 20
160.814461396300004
 30
0.0
 40
2.5
100
AcDbArc
 50
180.0
 51
195.0
  0
ARC
  5
147
100
AcDbEntity
  8
0
 62
7
420
16777215
370
-1
 48
1.0
  6
CONTINUOUS
100
AcDbCircle
 10
299.2382799467999916
 20
155.814461396300004
 30
0.0
 40
5.0
100
AcDbArc
 50
0.0
 51
90.0
  0
ARC
  5
148
100
AcDbEntity
  8
0
 62
7
420
16777215
370
-1
 48
1.0
  6
CONTINUOUS
100
AcDbCircle
 10
319.2382799467999916
 20
220.814461396300004
 30
0.0
 40
5.0
100
AcDbArc
 50
270.0
 51
360.0
  0
LINE
  5
149
100
AcDbEntity
  8
0
 62
7
420
16777215
370
-1
 48
1.0
  6
CONTINUOUS
100
AcDbLine
 10
264.2382799467999916
 20
160.814461396300004
 30
0.0
 11
299.2382799467999916
 21
160.814461396300004
 31
0.0
  0
LINE
  5
14A
100
AcDbEntity
  8
0
 62
7
420
16777215
370
-1
 48
1.0
  6
CONTINUOUS
100
AcDbLine
 10
304.2382799467999916
 20
135.814461396300004
 30
0.0
 11
304.2382799467999916
 21
155.814461396300004
 31
0.0
  0
ARC
  5
14B
100
AcDbEntity
  8
0
 62
7
420
16777215
370
-1
 48
1.0
  6
CONTINUOUS
100
AcDbCircle
 10
309.2382799467999916
 20
135.814461396300004
 30
0.0
 40
5.0
100
AcDbArc
 50
180.0
 51
270.0
  0
LINE
  5
14C
100
AcDbEntity
  8
0
 62
7
420
16777215
370
-1
 48
1.0
  6
CONTINUOUS
100
AcDbLine
 10
309.2382799467999916
 20
130.814461396300004
 30
0.0
 11
369.2382799467999916
 21
130.814461396300004
 31
0.0
  0
ARC
  5
14D
100
AcDbEntity
  8
0
 62
7
420
16777215
370
-1
 48
1.0
  6
CONTINUOUS
100
AcDbCircle
 10
369.2382799467999916
 20
135.814461396300004
 30
0.0
 40
5.0
100
AcDbArc
 50
270.0
 51
360.0
  0
LINE
  5
14E
100
AcDbEntity
  8
0
 62
7
420
16777215
370
-1
 48
1.0
  6
CONTINUOUS
100
AcDbLine
 10
374.2382799467999916
 20
135.814461396300004
 30
0.0
 11
374.2382799467999916
 21
245.814461396300004
 31
0.0
  0
ARC
  5
14F
100
AcDbEntity
  8
0
 62
7
420
16777215
370
-1
 48
1.0
  6
CONTINUOUS
100
AcDbCircle
 10
369.2382799467999916
 20
245.814461396300004
 30
0.0
 40
5.0
100
AcDbArc
 50
0.0
 51
90.0
  0
LINE
  5
150
100
AcDbEntity
  8
0
 62
7
420
16777215
370
-1
 48
1.0
  6
CONTINUOUS
100
AcDbLine
 10
369.2382799467999916
 20
250.814461396300004
 30
0.0
 11
329.2382799467999916
 21
250.814461396300004
 31
0.0
  0
ARC
  5
151
100
AcDbEntity
  8
0
 62
7
420
16777215
370
-1
 48
1.0
  6
CONTINUOUS
100
AcDbCircle
 10
329.2382799467999916
 20
245.814461396300004
 30
0.0
 40
5.0
100
AcDbArc
 50
90.0
 51
180.0
  0
LINE
  5
152
100
AcDbEntity
  8
0
 62
7
420
16777215
370
-1
 48
1.0
  6
CONTINUOUS
100
AcDbLine
 10
324.2382799467999916
 20
245.814461396300004
 30
0.0
 11
324.2382799467999916
 21
220.814461396300004
 31
0.0
  0
LINE
  5
153
100
AcDbEntity
  8
0
 62
7
420
16777215
370
-1
 48
1.0
  6
CONTINUOUS
100
AcDbLine
 10
264.2382799467999916
 20
215.814461396300004
 30
0.0
 11
319.2382799467999916
 21
215.814461396300004
 31
0.0
  0
ARC
  5
154
100
AcDbEntity
  8
0
 62
7
420
16777215
370
-1
 48
1.0
  6
CONTINUOUS
100
AcDbCircle
 10
264.2382799467999916
 20
210.814461396300004
 30
0.0
 40
5.0
100
AcDbArc
 50
90.0
 51
180.0
  0
ARC
  5
155
100
AcDbEntity
  8
3_ALL_AXES
 62
7
420
16777215
370
-1
 48
1.0
  6
CONTINUOUS
100
AcDbCircle
 10
271.2382799467999916
 20
205.814461396300004
 30
0.0
 40
3.25
100
AcDbArc
 50
180.0
 51
360.0
  0
ARC
  5
156
100
AcDbEntity
  8
3_ALL_AXES
 62
7
420
16777215
370
-1
 48
1.0
  6
CONTINUOUS
100
AcDbCircle
 10
271.2382799467999916
 20
205.814461396300004
 30
0.0
 40
3.25
100
AcDbArc
 50
0.0
 51
180.0
  0
ARC
  5
157
100
AcDbEntity
  8
3_ALL_AXES
 62
7
420
16777215
370
-1
 48
1.0
  6
CONTINUOUS
100
AcDbCircle
 10
271.2382799467999916
 20
175.814461396300004
 30
0.0
 40
3.25
100
AcDbArc
 50
180.0
 51
360.0
  0
ARC
  5
158
100
AcDbEntity
  8
3_ALL_AXES
 62
7
420
16777215
370
-1
 48
1.0
  6
CONTINUOUS
100
AcDbCircle
 10
271.2382799467999916
 20
175.814461396300004
 30
0.0
 40
3.25
100
AcDbArc
 50
0.0
 51
180.0
  0
ARC
  5
159
100
AcDbEntity
  8
3_ALL_AXES
 62
7
420
16777215
370
-1
 48
1.0
  6
CONTINUOUS
100
AcDbCircle
 10
325.2382799467999916
 20
160.814461396300004
 30
0.0
 40
2.0649999999999999
100
AcDbArc
 50
180.0
 51
360.0
  0
ARC
  5
15A
100
AcDbEntity
  8
3_ALL_AXES
 62
7
420
16777215
370
-1
 48
1.0
  6
CONTINUOUS
100
AcDbCircle
 10
325.2382799467999916
 20
160.814461396300004
 30
0.0
 40
2.0649999999999999
100
AcDbArc
 50
0.0
 51
180.0
  0
ARC
  5
15B
100
AcDbEntity
  8
0
 62
7
420
16777215
370
-1
 48
1.0
  6
CONTINUOUS
100
AcDbCircle
 10
325.2382799467999916
 20
180.814461396300004
 30
0.0
 40
2.0649999999999999
100
AcDbArc
 50
180.0
 51
360.0
  0
ARC
  5
15C
100
AcDbEntity
  8
0
 62
7
420
16777215
370
-1
 48
1.0
  6
CONTINUOUS
100
AcDbCircle
 10
325.2382799467999916
 20
180.814461396300004
 30
0.0
 40
2.0649999999999999
100
AcDbArc
 50
0.0
 51
180.0
  0
ARC
  5
15D
100
AcDbEntity
  8
0
 62
7
420
16777215
370
-1
 48
1.0
  6
CONTINUOUS
100
AcDbCircle
 10
365.2382799467999916
 20
160.814461396300004
 30
0.0
 40
2.0649999999999999
100
AcDbArc
 50
180.0
 51
360.0
  0
ARC
  5
15E
100
AcDbEntity
  8
0
 62
7
420
16777215
370
-1
 48
1.0
  6
CONTINUOUS
100
AcDbCircle
 10
365.2382799467999916
 20
160.814461396300004
 30
0.0
 40
2.0649999999999999
100
AcDbArc
 50
0.0
 51
180.0
  0
ARC
  5
15F
100
AcDbEntity
  8
0
 62
7
420
16777215
370
-1
 48
1.0
  6
CONTINUOUS
100
AcDbCircle
 10
365.2382799467999916
 20
180.814461396300004
 30
0.0
 40
2.0649999999999999
100
AcDbArc
 50
180.0
 51
360.0
  0
ARC
  5
160
100
AcDbEntity
  8
0
 62
7
420
16777215
370
-1
 48
1.0
  6
CONTINUOUS
100
AcDbCircle
 10
365.2382799467999916
 20
180.814461396300004
 30
0.0
 40
2.0649999999999999
100
AcDbArc
 50
0.0
 51
180.0
  0
ARC
  5
161
100
AcDbEntity
  8
0
 62
7
420
16777215
370
-1
 48
1.0
  6
CONTINUOUS
100
AcDbCircle
 10
356.9882799467999916
 20
240.814461396300004
 30
0.0
 40
4.25
100
AcDbArc
 50
270.0
 51
90.0
  0
LINE
  5
162
100
AcDbEntity
  8
0
 62
7
420
16777215
370
-1
 48
1.0
  6
CONTINUOUS
100
AcDbLine
 10
356.9882799467999916
 20
245.064461396300004
 30
0.0
 11
345.4882799467999916
 21
245.064461396300004
 31
0.0
  0
ARC
  5
163
100
AcDbEntity
  8
0
 62
7
420
16777215
370
-1
 48
1.0
  6
CONTINUOUS
100
AcDbCircle
 10
345.4882799467999916
 20
240.814461396300004
 30
0.0
 40
4.25
100
AcDbArc
 50
90.0
 51
270.0
  0
LINE
  5
164
100
AcDbEntity
  8
0
 62
7
420
16777215
370
-1
 48
1.0
  6
CONTINUOUS
100
AcDbLine
 10
345.4882799467999916
 20
236.564461396300004
 30
0.0
 11
356.9882799467999916
 21
236.564461396300004
 31
0.0
  0
ARC
  5
165
100
AcDbEntity
  8
0
 62
7
420
16777215
370
-1
 48
1.0
  6
CONTINUOUS
100
AcDbCircle
 10
356.9882799467999916
 20
140.814461396300004
 30
0.0
 40
4.25
100
AcDbArc
 50
270.0
 51
90.0
  0
LINE
  5
166
100
AcDbEntity
  8
0
 62
7
420
16777215
370
-1
 48
1.0
  6
CONTINUOUS
100
AcDbLine
 10
356.9882799467999916
 20
145.064461396300004
 30
0.0
 11
345.4882799467999916
 21
145.064461396300004
 31
0.0
  0
ARC
  5
167
100
AcDbEntity
  8
0
 62
7
420
16777215
370
-1
 48
1.0
  6
CONTINUOUS
100
AcDbCircle
 10
345.4882799467999916
 20
140.814461396300004
 30
0.0
 40
4.25
100
AcDbArc
 50
90.0
 51
270.0
  0
LINE
  5
168
100
AcDbEntity
  8
0
 62
7
420
16777215
370
-1
 48
1.0
  6
CONTINUOUS
100
AcDbLine
 10
345.4882799467999916
 20
136.564461396300004
 30
0.0
 11
356.9882799467999916
 21
136.564461396300004
 31
0.0
  0
ARC
  5
169
100
AcDbEntity
  8
0
 62
7
420
16777215
370
-1
 48
1.0
  6
CONTINUOUS
100
AcDbCircle
 10
283.2382799467999916
 20
165.814461396300004
 30
0.0
 40
1.5
100
AcDbArc
 50
180.0
 51
360.0
  0
ARC
  5
16A
100
AcDbEntity
  8
0
 62
7
420
16777215
370
-1
 48
1.0
  6
CONTINUOUS
100
AcDbCircle
 10
283.2382799467999916
 20
165.814461396300004
 30
0.0
 40
1.5
100
AcDbArc
 50
0.0
 51
180.0
  0
ARC
  5
16B
100
AcDbEntity
  8
0
 62
7
420
16777215
370
-1
 48
1.0
  6
CONTINUOUS
100
AcDbCircle
 10
278.2382799467999916
 20
165.814461396300004
 30
0.0
 40
1.5
100
AcDbArc
 50
180.0
 51
360.0
  0
ARC
  5
16C
100
AcDbEntity
  8
0
 62
7
420
16777215
370
-1
 48
1.0
  6
CONTINUOUS
100
AcDbCircle
 10
278.2382799467999916
 20
165.814461396300004
 30
0.0
 40
1.5
100
AcDbArc
 50
0.0
 51
180.0
  0
ARC
  5
16D
100
AcDbEntity
  8
0
 62
7
420
16777215
370
-1
 48
1.0
  6
CONTINUOUS
100
AcDbCircle
 10
264.2382799467999916
 20
165.814461396300004
 30
0.0
 40
5.0
100
AcDbArc
 50
180.0
 51
270.0
  0
LINE
  5
16E
100
AcDbEntity
  8
0
 62
7
420
16777215
370
-1
 48
1.0
  6
CONTINUOUS
100
AcDbLine
 10
259.2382799467999916
 20
210.814461396300004
 30
0.0
 11
259.2382799467999916
 21
165.814461396300004
 31
0.0
  0
LINE
  5
16F
100
AcDbEntity
  8
DEFAULT_2
 62
6
420
16711935
370
-1
 48
1.0
  6
HIDDEN
100
AcDbLine
 10
212.7696961702000067
 20
167.314461396300004
 30
0.0
 11
204.7696961702000067
 21
167.314461396300004
 31
0.0
  0
LINE
  5
170
100
AcDbEntity
  8
DEFAULT_2
 62
6
420
16711935
370
-1
 48
1.0
  6
HIDDEN
100
AcDbLine
 10
212.7696961702000067
 20
164.314461396300004
 30
0.0
 11
204.7696961702000067
 21
164.314461396300004
 31
0.0
  0
LINE
  5
171
100
AcDbEntity
  8
DEFAULT_2
 62
6
420
16711935
370
-1
 48
1.0
  6
HIDDEN
100
AcDbLine
 10
212.7696961702000067
 20
167.314461396300004
 30
0.0
 11
204.7696961702000067
 21
167.314461396300004
 31
0.0
  0
LINE
  5
172
100
AcDbEntity
  8
DEFAULT_2
 62
6
420
16711935
370
-1
 48
1.0
  6
HIDDEN
100
AcDbLine
 10
212.7696961702000067
 20
164.314461396300004
 30
0.0
 11
204.7696961702000067
 21
164.314461396300004
 31
0.0
  0
LINE
  5
173
100
AcDbEntity
  8
DEFAULT_2
 62
6
420
16711935
370
-1
 48
1.0
  6
HIDDEN
100
AcDbLine
 10
204.7696961702000067
 20
136.564461396300004
 30
0.0
 11
212.7696961702000067
 21
136.564461396300004
 31
0.0
  0
LINE
  5
174
100
AcDbEntity
  8
DEFAULT_2
 62
6
420
16711935
370
-1
 48
1.0
  6
HIDDEN
100
AcDbLine
 10
204.7696961702000067
 20
145.064461396300004
 30
0.0
 11
212.7696961702000067
 21
145.064461396300004
 31
0.0
  0
LINE
  5
175
100
AcDbEntity
  8
DEFAULT_2
 62
6
420
16711935
370
-1
 48
1.0
  6
HIDDEN
100
AcDbLine
 10
204.7696961702000067
 20
236.564461396300004
 30
0.0
 11
212.7696961702000067
 21
236.564461396300004
 31
0.0
  0
LINE
  5
176
100
AcDbEntity
  8
DEFAULT_2
 62
6
420
16711935
370
-1
 48
1.0
  6
HIDDEN
100
AcDbLine
 10
204.7696961702000067
 20
245.064461396300004
 30
0.0
 11
212.7696961702000067
 21
245.064461396300004
 31
0.0
  0
LINE
  5
177
100
AcDbEntity
  8
DEFAULT_2
 62
6
420
16711935
370
-1
 48
1.0
  6
HIDDEN
100
AcDbLine
 10
212.7696961702000067
 20
215.814461396300004
 30
0.0
 11
204.7696961702000067
 21
215.814461396300004
 31
0.0
  0
LINE
  5
178
100
AcDbEntity
  8
DEFAULT_2
 62
6
420
16711935
370
-1
 48
1.0
  6
HIDDEN
100
AcDbLine
 10
204.7696961702000067
 20
182.8794613963000018
 30
0.0
 11
212.7696961702000067
 21
182.8794613963000018
 31
0.0
  0
LINE
  5
179
100
AcDbEntity
  8
DEFAULT_2
 62
6
420
16711935
370
-1
 48
1.0
  6
HIDDEN
100
AcDbLine
 10
204.7696961702000067
 20
178.7494613963000063
 30
0.0
 11
212.7696961702000067
 21
178.7494613963000063
 31
0.0
  0
LINE
  5
17A
100
AcDbEntity
  8
DEFAULT_2
 62
6
420
16711935
370
-1
 48
1.0
  6
HIDDEN
100
AcDbLine
 10
204.7696961702000067
 20
162.8794613963000018
 30
0.0
 11
212.7696961702000067
 21
162.8794613963000018
 31
0.0
  0
LINE
  5
17B
100
AcDbEntity
  8
DEFAULT_2
 62
6
420
16711935
370
-1
 48
1.0
  6
HIDDEN
100
AcDbLine
 10
204.7696961702000067
 20
158.7494613963000063
 30
0.0
 11
212.7696961702000067
 21
158.7494613963000063
 31
0.0
  0
LINE
  5
17C
100
AcDbEntity
  8
DEFAULT_2
 62
6
420
16711935
370
-1
 48
1.0
  6
HIDDEN
100
AcDbLine
 10
204.7696961702000067
 20
182.8794613963000018
 30
0.0
 11
212.7696961702000067
 21
182.8794613963000018
 31
0.0
  0
LINE
  5
17D
100
AcDbEntity
  8
DEFAULT_2
 62
6
420
16711935
370
-1
 48
1.0
  6
HIDDEN
100
AcDbLine
 10
204.7696961702000067
 20
178.7494613963000063
 30
0.0
 11
212.7696961702000067
 21
178.7494613963000063
 31
0.0
  0
LINE
  5
17E
100
AcDbEntity
  8
3_ALL_AXES
 62
6
420
16711935
370
-1
 48
1.0
  6
HIDDEN
100
AcDbLine
 10
204.7696961702000067
 20
162.8794613963000018
 30
0.0
 11
212.7696961702000067
 21
162.8794613963000018
 31
0.0
  0
LINE
  5
17F
100
AcDbEntity
  8
3_ALL_AXES
 62
6
420
16711935
370
-1
 48
1.0
  6
HIDDEN
100
AcDbLine
 10
204.7696961702000067
 20
158.7494613963000063
 30
0.0
 11
212.7696961702000067
 21
158.7494613963000063
 31
0.0
  0
LINE
  5
180
100
AcDbEntity
  8
3_ALL_AXES
 62
6
420
16711935
370
-1
 48
1.0
  6
HIDDEN
100
AcDbLine
 10
204.7696961702000067
 20
209.064461396300004
 30
0.0
 11
212.7696961702000067
 21
209.064461396300004
 31
0.0
  0
LINE
  5
181
100
AcDbEntity
  8
3_ALL_AXES
 62
6
420
16711935
370
-1
 48
1.0
  6
HIDDEN
100
AcDbLine
 10
204.7696961702000067
 20
202.564461396300004
 30
0.0
 11
212.7696961702000067
 21
202.564461396300004
 31
0.0
  0
LINE
  5
182
100
AcDbEntity
  8
3_ALL_AXES
 62
6
420
16711935
370
-1
 48
1.0
  6
HIDDEN
100
AcDbLine
 10
204.7696961702000067
 20
179.064461396300004
 30
0.0
 11
212.7696961702000067
 21
179.064461396300004
 31
0.0
  0
LINE
  5
183
100
AcDbEntity
  8
3_ALL_AXES
 62
6
420
16711935
370
-1
 48
1.0
  6
HIDDEN
100
AcDbLine
 10
204.7696961702000067
 20
172.564461396300004
 30
0.0
 11
212.7696961702000067
 21
172.564461396300004
 31
0.0
  0
LINE
  5
184
100
AcDbEntity
  8
DEFAULT_2
 62
6
420
16711935
370
-1
 48
1.0
  6
HIDDEN
100
AcDbLine
 10
212.7696961702000067
 20
183.314461396300004
 30
0.0
 11
212.7696961702000067
 21
180.8144612870000003
 31
0.0
  0
LINE
  5
185
100
AcDbEntity
  8
3_ALL_AXES
 62
6
420
16711935
370
-1
 48
1.0
  6
HIDDEN
100
AcDbLine
 10
212.7696961702000067
 20
205.814461396300004
 30
0.0
 11
212.7696961702000067
 21
209.064461396300004
 31
0.0
  0
LINE
  5
186
100
AcDbEntity
  8
3_ALL_AXES
 62
6
420
16711935
370
-1
 48
1.0
  6
HIDDEN
100
AcDbLine
 10
212.7696961702000067
 20
160.814461396300004
 30
0.0
 11
212.7696961702000067
 21
158.7494613963000063
 31
0.0
  0
LINE
  5
187
100
AcDbEntity
  8
DEFAULT_2
 62
6
420
16711935
370
-1
 48
1.0
  6
HIDDEN
100
AcDbLine
 10
212.7696961702000067
 20
180.814461396300004
 30
0.0
 11
212.7696961702000067
 21
183.314461396300004
 31
0.0
  0
LINE
  5
188
100
AcDbEntity
  8
DEFAULT_2
 62
6
420
16711935
370
-1
 48
1.0
  6
HIDDEN
100
AcDbLine
 10
212.7696961702000067
 20
180.814461396300004
 30
0.0
 11
212.7696961702000067
 21
178.7494613963000063
 31
0.0
  0
LINE
  5
189
100
AcDbEntity
  8
DEFAULT_2
 62
6
420
16711935
370
-1
 48
1.0
  6
HIDDEN
100
AcDbLine
 10
204.7696961702000067
 20
183.314461396300004
 30
0.0
 11
204.7696961702000067
 21
180.8144612870000003
 31
0.0
  0
LINE
  5
18A
100
AcDbEntity
  8
DEFAULT_2
 62
6
420
16711935
370
-1
 48
1.0
  6
HIDDEN
100
AcDbLine
 10
212.7696961702000067
 20
160.814461396300004
 30
0.0
 11
212.7696961702000067
 21
158.7494613963000063
 31
0.0
  0
LINE
  5
18B
100
AcDbEntity
  8
DEFAULT_2
 62
6
420
16711935
370
-1
 48
1.0
  6
HIDDEN
100
AcDbLine
 10
204.7696961702000067
 20
180.814461396300004
 30
0.0
 11
204.7696961702000067
 21
183.314461396300004
 31
0.0
  0
LINE
  5
18C
100
AcDbEntity
  8
DEFAULT_2
 62
6
420
16711935
370
-1
 48
1.0
  6
HIDDEN
100
AcDbLine
 10
212.7696961702000067
 20
180.814461396300004
 30
0.0
 11
212.7696961702000067
 21
178.7494613963000063
 31
0.0
  0
LINE
  5
18D
100
AcDbEntity
  8
DEFAULT_2
 62
6
420
16711935
370
-1
 48
1.0
  6
HIDDEN
100
AcDbLine
 10
204.7696961702000067
 20
183.314461396300004
 30
0.0
 11
212.7696961702000067
 21
183.314461396300004
 31
0.0
  0
LINE
  5
18E
100
AcDbEntity
  8
DEFAULT_2
 62
6
420
16711935
370
-1
 48
1.0
  6
HIDDEN
100
AcDbLine
 10
212.7696961702000067
 20
178.314461396300004
 30
0.0
 11
212.7696961702000067
 21
180.8144615056000077
 31
0.0
  0
LINE
  5
18F
100
AcDbEntity
  8
3_ALL_AXES
 62
6
420
16711935
370
-1
 48
1.0
  6
HIDDEN
100
AcDbLine
 10
212.7696961702000067
 20
175.814461396300004
 30
0.0
 11
212.7696961702000067
 21
178.6290439585999934
 31
0.0
  0
LINE
  5
190
100
AcDbEntity
  8
3_ALL_AXES
 62
6
420
16711935
370
-1
 48
1.0
  6
HIDDEN
100
AcDbLine
 10
212.7696961702000067
 20
178.6290439585999934
 30
0.0
 11
212.7696961702000067
 21
179.064461396300004
 31
0.0
  0
LINE
  5
191
100
AcDbEntity
  8
DEFAULT_2
 62
6
420
16711935
370
-1
 48
1.0
  6
HIDDEN
100
AcDbLine
 10
212.7696961702000067
 20
180.814461396300004
 30
0.0
 11
212.7696961702000067
 21
178.314461396300004
 31
0.0
  0
LINE
  5
192
100
AcDbEntity
  8
DEFAULT_2
 62
6
420
16711935
370
-1
 48
1.0
  6
HIDDEN
100
AcDbLine
 10
204.7696961702000067
 20
178.314461396300004
 30
0.0
 11
204.7696961702000067
 21
180.8144615056000077
 31
0.0
  0
LINE
  5
193
100
AcDbEntity
  8
DEFAULT_2
 62
6
420
16711935
370
-1
 48
1.0
  6
HIDDEN
100
AcDbLine
 10
204.7696961702000067
 20
180.814461396300004
 30
0.0
 11
204.7696961702000067
 21
178.314461396300004
 31
0.0
  0
LINE
  5
194
100
AcDbEntity
  8
DEFAULT_2
 62
6
420
16711935
370
-1
 48
1.0
  6
HIDDEN
100
AcDbLine
 10
204.7696961702000067
 20
178.314461396300004
 30
0.0
 11
212.7696961702000067
 21
178.314461396300004
 31
0.0
  0
LINE
  5
195
100
AcDbEntity
  8
DEFAULT_2
 62
6
420
16711935
370
-1
 48
1.0
  6
HIDDEN
100
AcDbLine
 10
212.7696961702000067
 20
163.314461396300004
 30
0.0
 11
212.7696961702000067
 21
160.8144612870000003
 31
0.0
  0
LINE
  5
196
100
AcDbEntity
  8
DEFAULT_2
 62
6
420
16711935
370
-1
 48
1.0
  6
HIDDEN
100
AcDbLine
 10
212.7696961702000067
 20
160.814461396300004
 30
0.0
 11
212.7696961702000067
 21
163.314461396300004
 31
0.0
  0
LINE
  5
197
100
AcDbEntity
  8
DEFAULT_2
 62
6
420
16711935
370
-1
 48
1.0
  6
HIDDEN
100
AcDbLine
 10
204.7696961702000067
 20
163.314461396300004
 30
0.0
 11
204.7696961702000067
 21
160.8144612870000003
 31
0.0
  0
LINE
  5
198
100
AcDbEntity
  8
DEFAULT_2
 62
6
420
16711935
370
-1
 48
1.0
  6
HIDDEN
100
AcDbLine
 10
204.7696961702000067
 20
160.814461396300004
 30
0.0
 11
204.7696961702000067
 21
163.314461396300004
 31
0.0
  0
LINE
  5
199
100
AcDbEntity
  8
DEFAULT_2
 62
6
420
16711935
370
-1
 48
1.0
  6
HIDDEN
100
AcDbLine
 10
212.7696961702000067
 20
165.814461396300004
 30
0.0
 11
212.7696961702000067
 21
164.314461396300004
 31
0.0
  0
LINE
  5
19A
100
AcDbEntity
  8
DEFAULT_2
 62
6
420
16711935
370
-1
 48
1.0
  6
HIDDEN
100
AcDbLine
 10
204.7696961702000067
 20
163.314461396300004
 30
0.0
 11
212.7696961702000067
 21
163.314461396300004
 31
0.0
  0
LINE
  5
19B
100
AcDbEntity
  8
DEFAULT_2
 62
6
420
16711935
370
-1
 48
1.0
  6
HIDDEN
100
AcDbLine
 10
212.7696961702000067
 20
165.814461396300004
 30
0.0
 11
212.7696961702000067
 21
164.314461396300004
 31
0.0
  0
LINE
  5
19C
100
AcDbEntity
  8
DEFAULT_2
 62
6
420
16711935
370
-1
 48
1.0
  6
HIDDEN
100
AcDbLine
 10
212.7696961702000067
 20
158.314461396300004
 30
0.0
 11
212.7696961702000067
 21
160.8144615056000077
 31
0.0
  0
LINE
  5
19D
100
AcDbEntity
  8
DEFAULT_2
 62
6
420
16711935
370
-1
 48
1.0
  6
HIDDEN
100
AcDbLine
 10
212.7696961702000067
 20
160.814461396300004
 30
0.0
 11
212.7696961702000067
 21
158.314461396300004
 31
0.0
  0
LINE
  5
19E
100
AcDbEntity
  8
DEFAULT_2
 62
6
420
16711935
370
-1
 48
1.0
  6
HIDDEN
100
AcDbLine
 10
204.7696961702000067
 20
158.314461396300004
 30
0.0
 11
204.7696961702000067
 21
160.8144615056000077
 31
0.0
  0
LINE
  5
19F
100
AcDbEntity
  8
DEFAULT_2
 62
6
420
16711935
370
-1
 48
1.0
  6
HIDDEN
100
AcDbLine
 10
204.7696961702000067
 20
160.814461396300004
 30
0.0
 11
204.7696961702000067
 21
158.314461396300004
 31
0.0
  0
LINE
  5
1A0
100
AcDbEntity
  8
DEFAULT_2
 62
6
420
16711935
370
-1
 48
1.0
  6
HIDDEN
100
AcDbLine
 10
204.7696961702000067
 20
158.314461396300004
 30
0.0
 11
212.7696961702000067
 21
158.314461396300004
 31
0.0
  0
LINE
  5
1A1
100
AcDbEntity
  8
DEFAULT_2
 62
6
420
16711935
370
-1
 48
1.0
  6
HIDDEN
100
AcDbLine
 10
212.7696961702000067
 20
183.314461396300004
 30
0.0
 11
212.7696961702000067
 21
180.8144612870000003
 31
0.0
  0
LINE
  5
1A2
100
AcDbEntity
  8
DEFAULT_2
 62
6
420
16711935
370
-1
 48
1.0
  6
HIDDEN
100
AcDbLine
 10
212.7696961702000067
 20
180.814461396300004
 30
0.0
 11
212.7696961702000067
 21
183.314461396300004
 31
0.0
  0
LINE
  5
1A3
100
AcDbEntity
  8
DEFAULT_2
 62
6
420
16711935
370
-1
 48
1.0
  6
HIDDEN
100
AcDbLine
 10
204.7696961702000067
 20
183.314461396300004
 30
0.0
 11
204.7696961702000067
 21
180.8144612870000003
 31
0.0
  0
LINE
  5
1A4
100
AcDbEntity
  8
DEFAULT_2
 62
6
420
16711935
370
-1
 48
1.0
  6
HIDDEN
100
AcDbLine
 10
204.7696961702000067
 20
180.814461396300004
 30
0.0
 11
204.7696961702000067
 21
183.314461396300004
 31
0.0
  0
LINE
  5
1A5
100
AcDbEntity
  8
DEFAULT_2
 62
6
420
16711935
370
-1
 48
1.0
  6
HIDDEN
100
AcDbLine
 10
204.7696961702000067
 20
183.314461396300004
 30
0.0
 11
212.7696961702000067
 21
183.314461396300004
 31
0.0
  0
LINE
  5
1A6
100
AcDbEntity
  8
DEFAULT_2
 62
6
420
16711935
370
-1
 48
1.0
  6
HIDDEN
100
AcDbLine
 10
212.7696961702000067
 20
178.314461396300004
 30
0.0
 11
212.7696961702000067
 21
180.8144615056000077
 31
0.0
  0
LINE
  5
1A7
100
AcDbEntity
  8
DEFAULT_2
 62
6
420
16711935
370
-1
 48
1.0
  6
HIDDEN
100
AcDbLine
 10
212.7696961702000067
 20
180.814461396300004
 30
0.0
 11
212.7696961702000067
 21
178.314461396300004
 31
0.0
  0
LINE
  5
1A8
100
AcDbEntity
  8
DEFAULT_2
 62
6
420
16711935
370
-1
 48
1.0
  6
HIDDEN
100
AcDbLine
 10
204.7696961702000067
 20
178.314461396300004
 30
0.0
 11
204.7696961702000067
 21
180.8144615056000077
 31
0.0
  0
LINE
  5
1A9
100
AcDbEntity
  8
3_ALL_AXES
 62
6
420
16711935
370
-1
 48
1.0
  6
HIDDEN
100
AcDbLine
 10
204.7696961702000067
 20
205.814461396300004
 30
0.0
 11
204.7696961702000067
 21
209.064461396300004
 31
0.0
  0
LINE
  5
1AA
100
AcDbEntity
  8
DEFAULT_2
 62
6
420
16711935
370
-1
 48
1.0
  6
HIDDEN
100
AcDbLine
 10
204.7696961702000067
 20
180.814461396300004
 30
0.0
 11
204.7696961702000067
 21
178.314461396300004
 31
0.0
  0
LINE
  5
1AB
100
AcDbEntity
  8
3_ALL_AXES
 62
6
420
16711935
370
-1
 48
1.0
  6
HIDDEN
100
AcDbLine
 10
204.7696961702000067
 20
175.814461396300004
 30
0.0
 11
204.7696961702000067
 21
178.314461396300004
 31
0.0
  0
LINE
  5
1AC
100
AcDbEntity
  8
3_ALL_AXES
 62
6
420
16711935
370
-1
 48
1.0
  6
HIDDEN
100
AcDbLine
 10
204.7696961702000067
 20
178.314461396300004
 30
0.0
 11
204.7696961702000067
 21
178.6290439585999934
 31
0.0
  0
LINE
  5
1AD
100
AcDbEntity
  8
3_ALL_AXES
 62
6
420
16711935
370
-1
 48
1.0
  6
HIDDEN
100
AcDbLine
 10
204.7696961702000067
 20
178.6290439585999934
 30
0.0
 11
204.7696961702000067
 21
179.064461396300004
 31
0.0
  0
LINE
  5
1AE
100
AcDbEntity
  8
3_ALL_AXES
 62
6
420
16711935
370
-1
 48
1.0
  6
HIDDEN
100
AcDbLine
 10
204.7696961702000067
 20
160.814461396300004
 30
0.0
 11
204.7696961702000067
 21
158.7494613963000063
 31
0.0
  0
LINE
  5
1AF
100
AcDbEntity
  8
DEFAULT_2
 62
6
420
16711935
370
-1
 48
1.0
  6
HIDDEN
100
AcDbLine
 10
204.7696961702000067
 20
178.314461396300004
 30
0.0
 11
212.7696961702000067
 21
178.314461396300004
 31
0.0
  0
LINE
  5
1B0
100
AcDbEntity
  8
DEFAULT_2
 62
6
420
16711935
370
-1
 48
1.0
  6
HIDDEN
100
AcDbLine
 10
204.7696961702000067
 20
180.814461396300004
 30
0.0
 11
204.7696961702000067
 21
178.7494613963000063
 31
0.0
  0
LINE
  5
1B1
100
AcDbEntity
  8
DEFAULT_2
 62
6
420
16711935
370
-1
 48
1.0
  6
HIDDEN
100
AcDbLine
 10
212.7696961702000067
 20
163.314461396300004
 30
0.0
 11
212.7696961702000067
 21
160.8144612870000003
 31
0.0
  0
LINE
  5
1B2
100
AcDbEntity
  8
DEFAULT_2
 62
6
420
16711935
370
-1
 48
1.0
  6
HIDDEN
100
AcDbLine
 10
204.7696961702000067
 20
160.814461396300004
 30
0.0
 11
204.7696961702000067
 21
158.7494613963000063
 31
0.0
  0
LINE
  5
1B3
100
AcDbEntity
  8
DEFAULT_2
 62
6
420
16711935
370
-1
 48
1.0
  6
HIDDEN
100
AcDbLine
 10
212.7696961702000067
 20
160.814461396300004
 30
0.0
 11
212.7696961702000067
 21
163.314461396300004
 31
0.0
  0
LINE
  5
1B4
100
AcDbEntity
  8
DEFAULT_2
 62
6
420
16711935
370
-1
 48
1.0
  6
HIDDEN
100
AcDbLine
 10
204.7696961702000067
 20
180.814461396300004
 30
0.0
 11
204.7696961702000067
 21
178.7494613963000063
 31
0.0
  0
LINE
  5
1B5
100
AcDbEntity
  8
DEFAULT_2
 62
6
420
16711935
370
-1
 48
1.0
  6
HIDDEN
100
AcDbLine
 10
204.7696961702000067
 20
163.314461396300004
 30
0.0
 11
204.7696961702000067
 21
160.8144612870000003
 31
0.0
  0
LINE
  5
1B6
100
AcDbEntity
  8
DEFAULT_2
 62
6
420
16711935
370
-1
 48
1.0
  6
HIDDEN
100
AcDbLine
 10
204.7696961702000067
 20
160.814461396300004
 30
0.0
 11
204.7696961702000067
 21
163.314461396300004
 31
0.0
  0
LINE
  5
1B7
100
AcDbEntity
  8
DEFAULT_2
 62
6
420
16711935
370
-1
 48
1.0
  6
HIDDEN
100
AcDbLine
 10
204.7696961702000067
 20
163.314461396300004
 30
0.0
 11
212.7696961702000067
 21
163.314461396300004
 31
0.0
  0
LINE
  5
1B8
100
AcDbEntity
  8
DEFAULT_2
 62
6
420
16711935
370
-1
 48
1.0
  6
HIDDEN
100
AcDbLine
 10
212.7696961702000067
 20
158.314461396300004
 30
0.0
 11
212.7696961702000067
 21
160.8144615056000077
 31
0.0
  0
LINE
  5
1B9
100
AcDbEntity
  8
DEFAULT_2
 62
6
420
16711935
370
-1
 48
1.0
  6
HIDDEN
100
AcDbLine
 10
212.7696961702000067
 20
160.814461396300004
 30
0.0
 11
212.7696961702000067
 21
158.314461396300004
 31
0.0
  0
LINE
  5
1BA
100
AcDbEntity
  8
DEFAULT_2
 62
6
420
16711935
370
-1
 48
1.0
  6
HIDDEN
100
AcDbLine
 10
204.7696961702000067
 20
158.314461396300004
 30
0.0
 11
204.7696961702000067
 21
160.8144615056000077
 31
0.0
  0
LINE
  5
1BB
100
AcDbEntity
  8
DEFAULT_2
 62
6
420
16711935
370
-1
 48
1.0
  6
HIDDEN
100
AcDbLine
 10
204.7696961702000067
 20
160.814461396300004
 30
0.0
 11
204.7696961702000067
 21
158.314461396300004
 31
0.0
  0
LINE
  5
1BC
100
AcDbEntity
  8
DEFAULT_2
 62
6
420
16711935
370
-1
 48
1.0
  6
HIDDEN
100
AcDbLine
 10
204.7696961702000067
 20
158.314461396300004
 30
0.0
 11
212.7696961702000067
 21
158.314461396300004
 31
0.0
  0
LINE
  5
1BD
100
AcDbEntity
  8
DEFAULT_2
 62
6
420
16711935
370
-1
 48
1.0
  6
HIDDEN
100
AcDbLine
 10
204.7696961702000067
 20
130.814461396300004
 30
0.0
 11
212.7696961702000067
 21
130.814461396300004
 31
0.0
  0
LINE
  5
1BE
100
AcDbEntity
  8
DEFAULT_2
 62
6
420
16711935
370
-1
 48
1.0
  6
HIDDEN
100
AcDbLine
 10
204.7696961702000067
 20
165.814461396300004
 30
0.0
 11
204.7696961702000067
 21
164.314461396300004
 31
0.0
  0
LINE
  5
1BF
100
AcDbEntity
  8
DEFAULT_2
 62
6
420
16711935
370
-1
 48
1.0
  6
HIDDEN
100
AcDbLine
 10
204.7696961702000067
 20
167.314461396300004
 30
0.0
 11
204.7696961702000067
 21
165.814461396300004
 31
0.0
  0
LINE
  5
1C0
100
AcDbEntity
  8
DEFAULT_2
 62
6
420
16711935
370
-1
 48
1.0
  6
HIDDEN
100
AcDbLine
 10
204.7696961702000067
 20
165.814461396300004
 30
0.0
 11
204.7696961702000067
 21
164.314461396300004
 31
0.0
  0
LINE
  5
1C1
100
AcDbEntity
  8
DEFAULT_2
 62
6
420
16711935
370
-1
 48
1.0
  6
HIDDEN
100
AcDbLine
 10
212.7696961702000067
 20
167.314461396300004
 30
0.0
 11
212.7696961702000067
 21
165.814461396300004
 31
0.0
  0
LINE
  5
1C2
100
AcDbEntity
  8
DEFAULT_2
 62
6
420
16711935
370
-1
 48
1.0
  6
HIDDEN
100
AcDbLine
 10
204.7696961702000067
 20
167.314461396300004
 30
0.0
 11
204.7696961702000067
 21
165.814461396300004
 31
0.0
  0
LINE
  5
1C3
100
AcDbEntity
  8
DEFAULT_2
 62
6
420
16711935
370
-1
 48
1.0
  6
HIDDEN
100
AcDbLine
 10
212.7696961702000067
 20
167.314461396300004
 30
0.0
 11
212.7696961702000067
 21
165.814461396300004
 31
0.0
  0
LINE
  5
1C4
100
AcDbEntity
  8
DEFAULT_2
 62
6
420
16711935
370
-1
 48
1.0
  6
HIDDEN
100
AcDbLine
 10
212.7696961702000067
 20
136.564461396300004
 30
0.0
 11
212.7696961702000067
 21
145.064461396300004
 31
0.0
  0
LINE
  5
1C5
100
AcDbEntity
  8
DEFAULT_2
 62
6
420
16711935
370
-1
 48
1.0
  6
HIDDEN
100
AcDbLine
 10
204.7696961702000067
 20
136.564461396300004
 30
0.0
 11
204.7696961702000067
 21
145.064461396300004
 31
0.0
  0
LINE
  5
1C6
100
AcDbEntity
  8
DEFAULT_2
 62
6
420
16711935
370
-1
 48
1.0
  6
HIDDEN
100
AcDbLine
 10
212.7696961702000067
 20
236.564461396300004
 30
0.0
 11
212.7696961702000067
 21
245.064461396300004
 31
0.0
  0
LINE
  5
1C7
100
AcDbEntity
  8
DEFAULT_2
 62
6
420
16711935
370
-1
 48
1.0
  6
HIDDEN
100
AcDbLine
 10
204.7696961702000067
 20
236.564461396300004
 30
0.0
 11
204.7696961702000067
 21
245.064461396300004
 31
0.0
  0
LINE
  5
1C8
100
AcDbEntity
  8
DEFAULT_2
 62
6
420
16711935
370
-1
 48
1.0
  6
HIDDEN
100
AcDbLine
 10
212.7696961702000067
 20
250.814461396300004
 30
0.0
 11
204.7696961702000067
 21
250.814461396300004
 31
0.0
  0
LINE
  5
1C9
100
AcDbEntity
  8
DEFAULT_2
 62
6
420
16711935
370
-1
 48
1.0
  6
HIDDEN
100
AcDbLine
 10
212.7696961702000067
 20
182.8794613963000018
 30
0.0
 11
212.7696961702000067
 21
180.814461396300004
 31
0.0
  0
LINE
  5
1CA
100
AcDbEntity
  8
DEFAULT_2
 62
6
420
16711935
370
-1
 48
1.0
  6
HIDDEN
100
AcDbLine
 10
204.7696961702000067
 20
182.8794613963000018
 30
0.0
 11
204.7696961702000067
 21
180.814461396300004
 31
0.0
  0
LINE
  5
1CB
100
AcDbEntity
  8
DEFAULT_2
 62
6
420
16711935
370
-1
 48
1.0
  6
HIDDEN
100
AcDbLine
 10
212.7696961702000067
 20
162.8794613963000018
 30
0.0
 11
212.7696961702000067
 21
160.814461396300004
 31
0.0
  0
LINE
  5
1CC
100
AcDbEntity
  8
DEFAULT_2
 62
6
420
16711935
370
-1
 48
1.0
  6
HIDDEN
100
AcDbLine
 10
204.7696961702000067
 20
162.8794613963000018
 30
0.0
 11
204.7696961702000067
 21
160.814461396300004
 31
0.0
  0
LINE
  5
1CD
100
AcDbEntity
  8
DEFAULT_2
 62
6
420
16711935
370
-1
 48
1.0
  6
HIDDEN
100
AcDbLine
 10
212.7696961702000067
 20
182.8794613963000018
 30
0.0
 11
212.7696961702000067
 21
180.814461396300004
 31
0.0
  0
LINE
  5
1CE
100
AcDbEntity
  8
DEFAULT_2
 62
6
420
16711935
370
-1
 48
1.0
  6
HIDDEN
100
AcDbLine
 10
204.7696961702000067
 20
182.8794613963000018
 30
0.0
 11
204.7696961702000067
 21
180.814461396300004
 31
0.0
  0
LINE
  5
1CF
100
AcDbEntity
  8
3_ALL_AXES
 62
6
420
16711935
370
-1
 48
1.0
  6
HIDDEN
100
AcDbLine
 10
212.7696961702000067
 20
162.8794613963000018
 30
0.0
 11
212.7696961702000067
 21
160.814461396300004
 31
0.0
  0
LINE
  5
1D0
100
AcDbEntity
  8
3_ALL_AXES
 62
6
420
16711935
370
-1
 48
1.0
  6
HIDDEN
100
AcDbLine
 10
204.7696961702000067
 20
162.8794613963000018
 30
0.0
 11
204.7696961702000067
 21
160.814461396300004
 31
0.0
  0
LINE
  5
1D1
100
AcDbEntity
  8
3_ALL_AXES
 62
6
420
16711935
370
-1
 48
1.0
  6
HIDDEN
100
AcDbLine
 10
212.7696961702000067
 20
202.564461396300004
 30
0.0
 11
212.7696961702000067
 21
205.814461396300004
 31
0.0
  0
LINE
  5
1D2
100
AcDbEntity
  8
3_ALL_AXES
 62
6
420
16711935
370
-1
 48
1.0
  6
HIDDEN
100
AcDbLine
 10
204.7696961702000067
 20
202.564461396300004
 30
0.0
 11
204.7696961702000067
 21
205.814461396300004
 31
0.0
  0
LINE
  5
1D3
100
AcDbEntity
  8
DEFAULT_2
 62
6
420
16711935
370
-1
 48
1.0
  6
HIDDEN
100
AcDbLine
 10
204.7696961702000067
 20
215.814461396300004
 30
0.0
 11
212.7696961702000067
 21
215.814461396300004
 31
0.0
  0
LINE
  5
1D4
100
AcDbEntity
  8
3_ALL_AXES
 62
6
420
16711935
370
-1
 48
1.0
  6
HIDDEN
100
AcDbLine
 10
212.7696961702000067
 20
172.564461396300004
 30
0.0
 11
212.7696961702000067
 21
175.814461396300004
 31
0.0
  0
LINE
  5
1D5
100
AcDbEntity
  8
3_ALL_AXES
 62
6
420
16711935
370
-1
 48
1.0
  6
HIDDEN
100
AcDbLine
 10
204.7696961702000067
 20
172.564461396300004
 30
0.0
 11
204.7696961702000067
 21
175.814461396300004
 31
0.0
  0
LINE
  5
1D6
100
AcDbEntity
  8
DEFAULT_2
 62
6
420
16711935
370
-1
 48
1.0
  6
HIDDEN
100
AcDbLine
 10
212.7696961702000067
 20
236.564461396300004
 30
0.0
 11
204.7696961702000067
 21
236.564461396300004
 31
0.0
  0
LINE
  5
1D7
100
AcDbEntity
  8
DEFAULT_2
 62
6
420
16711935
370
-1
 48
1.0
  6
HIDDEN
100
AcDbLine
 10
212.7696961702000067
 20
160.814461396300004
 30
0.0
 11
204.7696961702000067
 21
160.814461396300004
 31
0.0
  0
LINE
  5
1D8
100
AcDbEntity
  8
DEFAULT_2
 62
6
420
16711935
370
-1
 48
1.0
  6
HIDDEN
100
AcDbLine
 10
212.7696961702000067
 20
245.064461396300004
 30
0.0
 11
204.7696961702000067
 21
245.064461396300004
 31
0.0
  0
LINE
  5
1D9
100
AcDbEntity
  8
DEFAULT_2
 62
6
420
16711935
370
-1
 48
1.0
  6
HIDDEN
100
AcDbLine
 10
212.7696961702000067
 20
136.564461396300004
 30
0.0
 11
204.7696961702000067
 21
136.564461396300004
 31
0.0
  0
LINE
  5
1DA
100
AcDbEntity
  8
DEFAULT_2
 62
6
420
16711935
370
-1
 48
1.0
  6
HIDDEN
100
AcDbLine
 10
212.7696961702000067
 20
160.814461396300004
 30
0.0
 11
204.7696961702000067
 21
160.814461396300004
 31
0.0
  0
LINE
  5
1DB
100
AcDbEntity
  8
DEFAULT_2
 62
6
420
16711935
370
-1
 48
1.0
  6
HIDDEN
100
AcDbLine
 10
212.7696961702000067
 20
145.064461396300004
 30
0.0
 11
204.7696961702000067
 21
145.064461396300004
 31
0.0
  0
LINE
  5
1DC
100
AcDbEntity
  8
0
 62
7
420
16777215
370
-1
 48
1.0
  6
CONTINUOUS
100
AcDbLine
 10
212.7696961702000067
 20
135.814461396300004
 30
0.0
 11
212.7696961702000067
 21
130.814461396300004
 31
0.0
  0
LINE
  5
1DD
100
AcDbEntity
  8
0
 62
7
420
16777215
370
-1
 48
1.0
  6
CONTINUOUS
100
AcDbLine
 10
212.7696961702000067
 20
135.814461396300004
 30
0.0
 11
212.7696961702000067
 21
245.814461396300004
 31
0.0
  0
LINE
  5
1DE
100
AcDbEntity
  8
0
 62
7
420
16777215
370
-1
 48
1.0
  6
CONTINUOUS
100
AcDbLine
 10
212.7696961702000067
 20
250.814461396300004
 30
0.0
 11
212.7696961702000067
 21
245.814461396300004
 31
0.0
  0
LINE
  5
1DF
100
AcDbEntity
  8
0
 62
7
420
16777215
370
-1
 48
1.0
  6
CONTINUOUS
100
AcDbLine
 10
204.7696961702000067
 20
245.814461396300004
 30
0.0
 11
204.7696961702000067
 21
250.814461396300004
 31
0.0
  0
LINE
  5
1E0
100
AcDbEntity
  8
0
 62
7
420
16777215
370
-1
 48
1.0
  6
CONTINUOUS
100
AcDbLine
 10
204.7696961702000067
 20
135.814461396300004
 30
0.0
 11
204.7696961702000067
 21
245.814461396300004
 31
0.0
  0
LINE
  5
1E1
100
AcDbEntity
  8
0
 62
7
420
16777215
370
-1
 48
1.0
  6
CONTINUOUS
100
AcDbLine
 10
204.7696961702000067
 20
130.814461396300004
 30
0.0
 11
204.7696961702000067
 21
135.814461396300004
 31
0.0
  0
LINE
  5
1E2
100
AcDbEntity
  8
0
 62
7
420
16777215
370
-1
 48
1.0
  6
CONTINUOUS
100
AcDbLine
 10
204.7696961702000067
 20
130.814461396300004
 30
0.0
 11
212.7696961702000067
 21
130.814461396300004
 31
0.0
  0
LINE
  5
1E3
100
AcDbEntity
  8
0
 62
7
420
16777215
370
-1
 48
1.0
  6
CONTINUOUS
100
AcDbLine
 10
204.7696961702000067
 20
250.814461396300004
 30
0.0
 11
212.7696961702000067
 21
250.814461396300004
 31
0.0
  0
ARC
  5
1E4
100
AcDbEntity
  8
DEFAULT_2
 62
6
420
16711935
370
-1
 48
1.0
  6
HIDDEN
100
AcDbCircle
 10
53.6879142553000008
 20
180.814461396300004
 30
0.0
 40
2.5
100
AcDbArc
 50
0.0
 51
180.0
  0
ARC
  5
1E5
100
AcDbEntity
  8
DEFAULT_2
 62
6
420
16711935
370
-1
 48
1.0
  6
HIDDEN
100
AcDbCircle
 10
53.6879142553000008
 20
180.814461396300004
 30
0.0
 40
2.5
100
AcDbArc
 50
255.0
 51
360.0
  0
ARC
  5
1E6
100
AcDbEntity
  8
DEFAULT_2
 62
6
420
16711935
370
-1
 48
1.0
  6
HIDDEN
100
AcDbCircle
 10
53.6879142553000008
 20
180.814461396300004
 30
0.0
 40
2.5
100
AcDbArc
 50
180.0
 51
195.0
  0
ARC
  5
1E7
100
AcDbEntity
  8
DEFAULT_2
 62
6
420
16711935
370
-1
 48
1.0
  6
HIDDEN
100
AcDbCircle
 10
53.6879142553000008
 20
160.814461396300004
 30
0.0
 40
2.5
100
AcDbArc
 50
0.0
 51
180.0
  0
ARC
  5
1E8
100
AcDbEntity
  8
DEFAULT_2
 62
6
420
16711935
370
-1
 48
1.0
  6
HIDDEN
100
AcDbCircle
 10
53.6879142553000008
 20
160.814461396300004
 30
0.0
 40
2.5
100
AcDbArc
 50
255.0
 51
360.0
  0
ARC
  5
1E9
100
AcDbEntity
  8
DEFAULT_2
 62
6
420
16711935
370
-1
 48
1.0
  6
HIDDEN
100
AcDbCircle
 10
53.6879142553000008
 20
160.814461396300004
 30
0.0
 40
2.5
100
AcDbArc
 50
180.0
 51
195.0
  0
ARC
  5
1EA
100
AcDbEntity
  8
DEFAULT_2
 62
6
420
16711935
370
-1
 48
1.0
  6
HIDDEN
100
AcDbCircle
 10
93.6879142553000008
 20
180.814461396300004
 30
0.0
 40
2.5
100
AcDbArc
 50
0.0
 51
180.0
  0
ARC
  5
1EB
100
AcDbEntity
  8
DEFAULT_2
 62
6
420
16711935
370
-1
 48
1.0
  6
HIDDEN
100
AcDbCircle
 10
93.6879142553000008
 20
180.814461396300004
 30
0.0
 40
2.5
100
AcDbArc
 50
255.0
 51
360.0
  0
ARC
  5
1EC
100
AcDbEntity
  8
DEFAULT_2
 62
6
420
16711935
370
-1
 48
1.0
  6
HIDDEN
100
AcDbCircle
 10
93.6879142553000008
 20
180.814461396300004
 30
0.0
 40
2.5
100
AcDbArc
 50
180.0
 51
195.0
  0
ARC
  5
1ED
100
AcDbEntity
  8
DEFAULT_2
 62
6
420
16711935
370
-1
 48
1.0
  6
HIDDEN
100
AcDbCircle
 10
93.6879142553000008
 20
160.814461396300004
 30
0.0
 40
2.5
100
AcDbArc
 50
0.0
 51
180.0
  0
ARC
  5
1EE
100
AcDbEntity
  8
DEFAULT_2
 62
6
420
16711935
370
-1
 48
1.0
  6
HIDDEN
100
AcDbCircle
 10
93.6879142553000008
 20
160.814461396300004
 30
0.0
 40
2.5
100
AcDbArc
 50
255.0
 51
360.0
  0
ARC
  5
1EF
100
AcDbEntity
  8
DEFAULT_2
 62
6
420
16711935
370
-1
 48
1.0
  6
HIDDEN
100
AcDbCircle
 10
93.6879142553000008
 20
160.814461396300004
 30
0.0
 40
2.5
100
AcDbArc
 50
180.0
 51
195.0
  0
ARC
  5
1F0
100
AcDbEntity
  8
0
 62
3
420
65280
370
-1
 48
1.0
  6
CONTINUOUS
100
AcDbCircle
 10
53.6879142553000008
 20
180.814461396300004
 30
0.0
 40
2.5
100
AcDbArc
 50
0.0
 51
180.0
  0
ARC
  5
1F1
100
AcDbEntity
  8
0
 62
3
420
65280
370
-1
 48
1.0
  6
CONTINUOUS
100
AcDbCircle
 10
53.6879142553000008
 20
180.814461396300004
 30
0.0
 40
2.5
100
AcDbArc
 50
255.0
 51
360.0
  0
ARC
  5
1F2
100
AcDbEntity
  8
0
 62
3
420
65280
370
-1
 48
1.0
  6
CONTINUOUS
100
AcDbCircle
 10
53.6879142553000008
 20
180.814461396300004
 30
0.0
 40
2.5
100
AcDbArc
 50
180.0
 51
195.0
  0
ARC
  5
1F3
100
AcDbEntity
  8
0
 62
3
420
65280
370
-1
 48
1.0
  6
CONTINUOUS
100
AcDbCircle
 10
53.6879142553000008
 20
160.814461396300004
 30
0.0
 40
2.5
100
AcDbArc
 50
0.0
 51
180.0
  0
ARC
  5
1F4
100
AcDbEntity
  8
0
 62
3
420
65280
370
-1
 48
1.0
  6
CONTINUOUS
100
AcDbCircle
 10
53.6879142553000008
 20
160.814461396300004
 30
0.0
 40
2.5
100
AcDbArc
 50
255.0
 51
360.0
  0
ARC
  5
1F5
100
AcDbEntity
  8
0
 62
3
420
65280
370
-1
 48
1.0
  6
CONTINUOUS
100
AcDbCircle
 10
53.6879142553000008
 20
160.814461396300004
 30
0.0
 40
2.5
100
AcDbArc
 50
180.0
 51
195.0
  0
ARC
  5
1F6
100
AcDbEntity
  8
0
 62
3
420
65280
370
-1
 48
1.0
  6
CONTINUOUS
100
AcDbCircle
 10
93.6879142553000008
 20
180.814461396300004
 30
0.0
 40
2.5
100
AcDbArc
 50
0.0
 51
180.0
  0
ARC
  5
1F7
100
AcDbEntity
  8
0
 62
3
420
65280
370
-1
 48
1.0
  6
CONTINUOUS
100
AcDbCircle
 10
93.6879142553000008
 20
180.814461396300004
 30
0.0
 40
2.5
100
AcDbArc
 50
255.0
 51
360.0
  0
ARC
  5
1F8
100
AcDbEntity
  8
0
 62
3
420
65280
370
-1
 48
1.0
  6
CONTINUOUS
100
AcDbCircle
 10
93.6879142553000008
 20
180.814461396300004
 30
0.0
 40
2.5
100
AcDbArc
 50
180.0
 51
195.0
  0
ARC
  5
1F9
100
AcDbEntity
  8
0
 62
3
420
65280
370
-1
 48
1.0
  6
CONTINUOUS
100
AcDbCircle
 10
93.6879142553000008
 20
160.814461396300004
 30
0.0
 40
2.5
100
AcDbArc
 50
0.0
 51
180.0
  0
ARC
  5
1FA
100
AcDbEntity
  8
0
 62
3
420
65280
370
-1
 48
1.0
  6
CONTINUOUS
100
AcDbCircle
 10
93.6879142553000008
 20
160.814461396300004
 30
0.0
 40
2.5
100
AcDbArc
 50
255.0
 51
360.0
  0
ARC
  5
1FB
100
AcDbEntity
  8
0
 62
3
420
65280
370
-1
 48
1.0
  6
CONTINUOUS
100
AcDbCircle
 10
93.6879142553000008
 20
160.814461396300004
 30
0.0
 40
2.5
100
AcDbArc
 50
180.0
 51
195.0
  0
ARC
  5
1FC
100
AcDbEntity
  8
3_ALL_AXES
 62
7
420
16777215
370
-1
 48
1.0
  6
CONTINUOUS
100
AcDbCircle
 10
147.6879142553000008
 20
205.814461396300004
 30
0.0
 40
3.25
100
AcDbArc
 50
180.0
 51
360.0
  0
ARC
  5
1FD
100
AcDbEntity
  8
3_ALL_AXES
 62
7
420
16777215
370
-1
 48
1.0
  6
CONTINUOUS
100
AcDbCircle
 10
147.6879142553000008
 20
205.814461396300004
 30
0.0
 40
3.25
100
AcDbArc
 50
0.0
 51
180.0
  0
ARC
  5
1FE
100
AcDbEntity
  8
3_ALL_AXES
 62
7
420
16777215
370
-1
 48
1.0
  6
CONTINUOUS
100
AcDbCircle
 10
93.6879142553000008
 20
160.814461396300004
 30
0.0
 40
2.0649999999999999
100
AcDbArc
 50
180.0
 51
360.0
  0
ARC
  5
1FF
100
AcDbEntity
  8
3_ALL_AXES
 62
7
420
16777215
370
-1
 48
1.0
  6
CONTINUOUS
100
AcDbCircle
 10
93.6879142553000008
 20
160.814461396300004
 30
0.0
 40
2.0649999999999999
100
AcDbArc
 50
0.0
 51
180.0
  0
ARC
  5
200
100
AcDbEntity
  8
0
 62
7
420
16777215
370
-1
 48
1.0
  6
CONTINUOUS
100
AcDbCircle
 10
93.6879142553000008
 20
180.814461396300004
 30
0.0
 40
2.0649999999999999
100
AcDbArc
 50
180.0
 51
360.0
  0
ARC
  5
201
100
AcDbEntity
  8
0
 62
7
420
16777215
370
-1
 48
1.0
  6
CONTINUOUS
100
AcDbCircle
 10
93.6879142553000008
 20
180.814461396300004
 30
0.0
 40
2.0649999999999999
100
AcDbArc
 50
0.0
 51
180.0
  0
ARC
  5
202
100
AcDbEntity
  8
0
 62
7
420
16777215
370
-1
 48
1.0
  6
CONTINUOUS
100
AcDbCircle
 10
53.6879142553000008
 20
160.814461396300004
 30
0.0
 40
2.0649999999999999
100
AcDbArc
 50
180.0
 51
360.0
  0
ARC
  5
203
100
AcDbEntity
  8
0
 62
7
420
16777215
370
-1
 48
1.0
  6
CONTINUOUS
100
AcDbCircle
 10
53.6879142553000008
 20
160.814461396300004
 30
0.0
 40
2.0649999999999999
100
AcDbArc
 50
0.0
 51
180.0
  0
ARC
  5
204
100
AcDbEntity
  8
0
 62
7
420
16777215
370
-1
 48
1.0
  6
CONTINUOUS
100
AcDbCircle
 10
53.6879142553000008
 20
180.814461396300004
 30
0.0
 40
2.0649999999999999
100
AcDbArc
 50
180.0
 51
360.0
  0
ARC
  5
205
100
AcDbEntity
  8
0
 62
7
420
16777215
370
-1
 48
1.0
  6
CONTINUOUS
100
AcDbCircle
 10
53.6879142553000008
 20
180.814461396300004
 30
0.0
 40
2.0649999999999999
100
AcDbArc
 50
0.0
 51
180.0
  0
ARC
  5
206
100
AcDbEntity
  8
3_ALL_AXES
 62
7
420
16777215
370
-1
 48
1.0
  6
CONTINUOUS
100
AcDbCircle
 10
147.6879142553000008
 20
175.814461396300004
 30
0.0
 40
3.25
100
AcDbArc
 50
180.0
 51
360.0
  0
ARC
  5
207
100
AcDbEntity
  8
3_ALL_AXES
 62
7
420
16777215
370
-1
 48
1.0
  6
CONTINUOUS
100
AcDbCircle
 10
147.6879142553000008
 20
175.814461396300004
 30
0.0
 40
3.25
100
AcDbArc
 50
0.0
 51
180.0
  0
ARC
  5
208
100
AcDbEntity
  8
0
 62
7
420
16777215
370
-1
 48
1.0
  6
CONTINUOUS
100
AcDbCircle
 10
61.9379142553000008
 20
240.814461396300004
 30
0.0
 40
4.25
100
AcDbArc
 50
90.0
 51
270.0
  0
LINE
  5
209
100
AcDbEntity
  8
0
 62
7
420
16777215
370
-1
 48
1.0
  6
CONTINUOUS
100
AcDbLine
 10
61.9379142553000008
 20
236.564461396300004
 30
0.0
 11
73.4379142553000008
 21
236.564461396300004
 31
0.0
  0
ARC
  5
20A
100
AcDbEntity
  8
0
 62
7
420
16777215
370
-1
 48
1.0
  6
CONTINUOUS
100
AcDbCircle
 10
73.4379142553000008
 20
240.814461396300004
 30
0.0
 40
4.25
100
AcDbArc
 50
270.0
 51
90.0
  0
LINE
  5
20B
100
AcDbEntity
  8
0
 62
7
420
16777215
370
-1
 48
1.0
  6
CONTINUOUS
100
AcDbLine
 10
73.4379142553000008
 20
245.064461396300004
 30
0.0
 11
61.9379142553000008
 21
245.064461396300004
 31
0.0
  0
ARC
  5
20C
100
AcDbEntity
  8
0
 62
7
420
16777215
370
-1
 48
1.0
  6
CONTINUOUS
100
AcDbCircle
 10
61.9379142553000008
 20
140.814461396300004
 30
0.0
 40
4.25
100
AcDbArc
 50
90.0
 51
270.0
  0
LINE
  5
20D
100
AcDbEntity
  8
0
 62
7
420
16777215
370
-1
 48
1.0
  6
CONTINUOUS
100
AcDbLine
 10
61.9379142553000008
 20
136.564461396300004
 30
0.0
 11
73.4379142553000008
 21
136.564461396300004
 31
0.0
  0
ARC
  5
20E
100
AcDbEntity
  8
0
 62
7
420
16777215
370
-1
 48
1.0
  6
CONTINUOUS
100
AcDbCircle
 10
73.4379142553000008
 20
140.814461396300004
 30
0.0
 40
4.25
100
AcDbArc
 50
270.0
 51
90.0
  0
LINE
  5
20F
100
AcDbEntity
  8
0
 62
7
420
16777215
370
-1
 48
1.0
  6
CONTINUOUS
100
AcDbLine
 10
73.4379142553000008
 20
145.064461396300004
 30
0.0
 11
61.9379142553000008
 21
145.064461396300004
 31
0.0
  0
ARC
  5
210
100
AcDbEntity
  8
0
 62
7
420
16777215
370
-1
 48
1.0
  6
CONTINUOUS
100
AcDbCircle
 10
135.6879142553000008
 20
165.814461396300004
 30
0.0
 40
1.5
100
AcDbArc
 50
180.0
 51
360.0
  0
ARC
  5
211
100
AcDbEntity
  8
0
 62
7
420
16777215
370
-1
 48
1.0
  6
CONTINUOUS
100
AcDbCircle
 10
135.6879142553000008
 20
165.814461396300004
 30
0.0
 40
1.5
100
AcDbArc
 50
0.0
 51
180.0
  0
ARC
  5
212
100
AcDbEntity
  8
0
 62
7
420
16777215
370
-1
 48
1.0
  6
CONTINUOUS
100
AcDbCircle
 10
140.6879142553000008
 20
165.814461396300004
 30
0.0
 40
1.5
100
AcDbArc
 50
180.0
 51
360.0
  0
ARC
  5
213
100
AcDbEntity
  8
0
 62
7
420
16777215
370
-1
 48
1.0
  6
CONTINUOUS
100
AcDbCircle
 10
140.6879142553000008
 20
165.814461396300004
 30
0.0
 40
1.5
100
AcDbArc
 50
0.0
 51
180.0
  0
ARC
  5
214
100
AcDbEntity
  8
0
 62
7
420
16777215
370
-1
 48
1.0
  6
CONTINUOUS
100
AcDbCircle
 10
154.6879142553000008
 20
165.814461396300004
 30
0.0
 40
5.0
100
AcDbArc
 50
270.0
 51
360.0
  0
LINE
  5
215
100
AcDbEntity
  8
0
 62
7
420
16777215
370
-1
 48
1.0
  6
CONTINUOUS
100
AcDbLine
 10
154.6879142553000008
 20
160.814461396300004
 30
0.0
 11
119.6879142553000008
 21
160.814461396300004
 31
0.0
  0
LINE
  5
216
100
AcDbEntity
  8
0
 62
7
420
16777215
370
-1
 48
1.0
  6
CONTINUOUS
100
AcDbLine
 10
114.6879142553000008
 20
135.814461396300004
 30
0.0
 11
114.6879142553000008
 21
155.814461396300004
 31
0.0
  0
ARC
  5
217
100
AcDbEntity
  8
0
 62
7
420
16777215
370
-1
 48
1.0
  6
CONTINUOUS
100
AcDbCircle
 10
109.6879142553000008
 20
135.814461396300004
 30
0.0
 40
5.0
100
AcDbArc
 50
270.0
 51
360.0
  0
LINE
  5
218
100
AcDbEntity
  8
0
 62
7
420
16777215
370
-1
 48
1.0
  6
CONTINUOUS
100
AcDbLine
 10
109.6879142553000008
 20
130.814461396300004
 30
0.0
 11
49.6879142553000008
 21
130.814461396300004
 31
0.0
  0
ARC
  5
219
100
AcDbEntity
  8
0
 62
7
420
16777215
370
-1
 48
1.0
  6
CONTINUOUS
100
AcDbCircle
 10
49.6879142553000008
 20
135.814461396300004
 30
0.0
 40
5.0
100
AcDbArc
 50
180.0
 51
270.0
  0
LINE
  5
21A
100
AcDbEntity
  8
0
 62
7
420
16777215
370
-1
 48
1.0
  6
CONTINUOUS
100
AcDbLine
 10
44.6879142553000008
 20
135.814461396300004
 30
0.0
 11
44.6879142553000008
 21
245.814461396300004
 31
0.0
  0
ARC
  5
21B
100
AcDbEntity
  8
0
 62
7
420
16777215
370
-1
 48
1.0
  6
CONTINUOUS
100
AcDbCircle
 10
49.6879142553000008
 20
245.814461396300004
 30
0.0
 40
5.0
100
AcDbArc
 50
90.0
 51
180.0
  0
LINE
  5
21C
100
AcDbEntity
  8
0
 62
7
420
16777215
370
-1
 48
1.0
  6
CONTINUOUS
100
AcDbLine
 10
49.6879142553000008
 20
250.814461396300004
 30
0.0
 11
89.6879142553000008
 21
250.814461396300004
 31
0.0
  0
ARC
  5
21D
100
AcDbEntity
  8
0
 62
7
420
16777215
370
-1
 48
1.0
  6
CONTINUOUS
100
AcDbCircle
 10
89.6879142553000008
 20
245.814461396300004
 30
0.0
 40
5.0
100
AcDbArc
 50
0.0
 51
90.0
  0
LINE
  5
21E
100
AcDbEntity
  8
0
 62
7
420
16777215
370
-1
 48
1.0
  6
CONTINUOUS
100
AcDbLine
 10
94.6879142553000008
 20
245.814461396300004
 30
0.0
 11
94.6879142553000008
 21
220.814461396300004
 31
0.0
  0
LINE
  5
21F
100
AcDbEntity
  8
0
 62
7
420
16777215
370
-1
 48
1.0
  6
CONTINUOUS
100
AcDbLine
 10
154.6879142553000008
 20
215.814461396300004
 30
0.0
 11
99.6879142553000008
 21
215.814461396300004
 31
0.0
  0
ARC
  5
220
100
AcDbEntity
  8
0
 62
7
420
16777215
370
-1
 48
1.0
  6
CONTINUOUS
100
AcDbCircle
 10
154.6879142553000008
 20
210.814461396300004
 30
0.0
 40
5.0
100
AcDbArc
 50
0.0
 51
90.0
  0
LINE
  5
221
100
AcDbEntity
  8
0
 62
7
420
16777215
370
-1
 48
1.0
  6
CONTINUOUS
100
AcDbLine
 10
159.6879142553000008
 20
210.814461396300004
 30
0.0
 11
159.6879142553000008
 21
165.814461396300004
 31
0.0
  0
ARC
  5
222
100
AcDbEntity
  8
0
 62
7
420
16777215
370
-1
 48
1.0
  6
CONTINUOUS
100
AcDbCircle
 10
119.6879142553000008
 20
155.814461396300004
 30
0.0
 40
5.0
100
AcDbArc
 50
90.0
 51
180.0
  0
ARC
  5
223
100
AcDbEntity
  8
0
 62
7
420
16777215
370
-1
 48
1.0
  6
CONTINUOUS
100
AcDbCircle
 10
99.6879142553000008
 20
220.814461396300004
 30
0.0
 40
5.0
100
AcDbArc
 50
180.0
 51
270.0
  0
DIMENSION
  5
224
100
AcDbEntity
  8
0
 62
3
420
65280
370
-1
 48
1.0
  6
CONTINUOUS
100
AcDbDimension
 10
259.2382799467999916
 20
260.9242052792999971
 30
0.0
 11
291.2382769774999929
 21
260.9242052792999971
 31
0.0
 70
128
 71
8
 72
2
 74
0
 75
0
 41
0.9
 42
0.0
  1

  3
Standard
100
AcDbAlignedDimension
 13
324.2382799467999916
 23
245.814461396300004
 33
0.0
 14
259.2382799467999916
 24
210.814461396300004
 34
0.0
 50
180.0
100
AcDbRotatedDimension
1001
ACAD
1000
DSTYLE
1002
{
1070
279
1070
2
1070
144
1040
1.0
1070
40
1040
1.0
1002
}
  0
DIMENSION
  5
225
100
AcDbEntity
  8
0
 62
3
420
65280
370
-1
 48
1.0
  6
CONTINUOUS
100
AcDbDimension
 10
374.2382799467999916
 20
271.0219754920000241
 30
0.0
 11
316.2382873535000272
 21
271.0219754920000241
 31
0.0
 70
128
 71
8
 72
2
 74
0
 75
0
 41
0.9
 42
0.0
  1

  3
Standard
100
AcDbAlignedDimension
 13
259.2382799467999916
 23
210.814461396300004
 33
0.0
 14
374.2382799467999916
 24
245.814461396300004
 34
0.0
 50
0.0
100
AcDbRotatedDimension
1001
ACAD
1000
DSTYLE
1002
{
1070
279
1070
2
1070
144
1040
1.0
1070
40
1040
1.0
1002
}
  0
DIMENSION
  5
226
100
AcDbEntity
  8
0
 62
3
420
65280
370
-1
 48
1.0
  6
CONTINUOUS
100
AcDbDimension
 10
388.2064110637999761
 20
130.814461396300004
 30
0.0
 11
388.2064110637999761
 21
190.0596813507999912
 31
0.0
 70
128
 71
8
 72
2
 74
0
 75
0
 41
0.9
 42
0.0
  1

  3
Standard
100
AcDbAlignedDimension
 13
369.2382799467999916
 23
250.814461396300004
 33
0.0
 14
369.2382799467999916
 24
130.814461396300004
 34
0.0
 50
270.0
100
AcDbRotatedDimension
1001
ACAD
1000
DSTYLE
1002
{
1070
279
1070
2
1070
144
1040
1.0
1070
40
1040
1.0
1002
}
  0
DIMENSION
  5
227
100
AcDbEntity
  8
0
 62
3
420
65280
370
-1
 48
1.0
  6
CONTINUOUS
100
AcDbDimension
 10
259.2382799467999916
 20
121.4856350664999951
 30
0.0
 11
286.7838519287000167
 21
121.4856350664999951
 31
0.0
 70
128
 71
8
 72
2
 74
0
 75
0
 41
0.9
 42
0.0
  1

  3
Standard
100
AcDbAlignedDimension
 13
304.2382799467999916
 23
135.814461396300004
 33
0.0
 14
259.2382799467999916
 24
165.814461396300004
 34
0.0
 50
180.0
100
AcDbRotatedDimension
1001
ACAD
1000
DSTYLE
1002
{
1070
279
1070
2
1070
144
1040
1.0
1070
40
1040
1.0
1002
}
  0
DIMENSION
  5
228
100
AcDbEntity
  8
0
 62
3
420
65280
370
-1
 48
1.0
  6
CONTINUOUS
100
AcDbDimension
 10
247.9902408510999976
 20
160.814461396300004
 30
0.0
 11
247.9902408510999976
 21
146.0783982099999889
 31
0.0
 70
128
 71
8
 72
2
 74
0
 75
0
 41
0.9
 42
0.0
  1

  3
Standard
100
AcDbAlignedDimension
 13
309.2382799467999916
 23
130.814461396300004
 33
0.0
 14
264.2382799467999916
 24
160.814461396300004
 34
0.0
 50
90.0
100
AcDbRotatedDimension
1001
ACAD
1000
DSTYLE
1002
{
1070
279
1070
2
1070
144
1040
1.0
1070
40
1040
1.0
1002
}
  0
DIMENSION
  5
229
100
AcDbEntity
  8
0
 62
3
420
65280
370
-1
 48
1.0
  6
CONTINUOUS
100
AcDbDimension
 10
247.9902408510999976
 20
215.814461396300004
 30
0.0
 11
247.9902408510999976
 21
187.8144634651000047
 31
0.0
 70
128
 71
8
 72
2
 74
0
 75
0
 41
0.9
 42
0.0
  1

  3
Standard
100
AcDbAlignedDimension
 13
264.2382799467999916
 23
160.814461396300004
 33
0.0
 14
264.2382799467999916
 24
215.814461396300004
 34
0.0
 50
90.0
100
AcDbRotatedDimension
1001
ACAD
1000
DSTYLE
1002
{
1070
279
1070
2
1070
144
1040
1.0
1070
40
1040
1.0
1002
}
  0
DIMENSION
  5
22A
100
AcDbEntity
  8
0
 62
3
420
65280
370
-1
 48
1.0
  6
CONTINUOUS
100
AcDbDimension
 10
212.7696961702000067
 20
262.5232659175999856
 30
0.0
 11
208.269698181199999
 21
262.5232659175999856
 31
0.0
 70
128
 71
8
 72
2
 74
0
 75
0
 41
0.9
 42
0.0
  1

  3
Standard
100
AcDbAlignedDimension
 13
204.7696961702000067
 23
250.814461396300004
 33
0.0
 14
212.7696961702000067
 24
250.814461396300004
 34
0.0
 50
0.0
100
AcDbRotatedDimension
1001
ACAD
1000
DSTYLE
1002
{
1070
279
1070
2
1070
144
1040
1.0
1070
40
1040
1.0
1002
}
  0
INSERT
  5
22B
100
AcDbEntity
  8
NOTE2D
 62
3
420
65280
370
-1
 48
1.0
  6
CONTINUOUS
100
AcDbBlockReference
  2
LAV-SUP_BL2
 10
215.7696961702000067
 20
256.3118842247999964
 30
0.0
  0
INSERT
  5
22C
100
AcDbEntity
  8
NOTE2D
 62
3
420
65280
370
-1
 48
1.0
  6
CONTINUOUS
100
AcDbBlockReference
  2
LAV-SUP_BL3
 10
201.7696961702000067
 20
258.1034006745999818
 30
0.0
  0
DIMENSION
  5
22D
100
AcDbEntity
  8
0
 62
3
420
65280
370
-1
 48
1.0
  6
CONTINUOUS
100
AcDbDimension
 10
179.9316453190999994
 20
175.814461396300004
 30
0.0
 11
179.9316453190999994
 21
167.8144643315000053
 31
0.0
 70
128
 71
8
 72
2
 74
0
 75
0
 41
0.9
 42
0.0
  1

  3
Standard
100
AcDbAlignedDimension
 13
154.6879142553000008
 23
160.814461396300004
 33
0.0
 14
153.9379142553000008
 24
175.814461396300004
 34
0.0
 50
90.0
100
AcDbRotatedDimension
1001
ACAD
1000
DSTYLE
1002
{
1070
279
1070
2
1070
144
1040
1.0
1070
40
1040
1.0
1002
}
  0
DIMENSION
  5
22E
100
AcDbEntity
  8
0
 62
3
420
65280
370
-1
 48
1.0
  6
CONTINUOUS
100
AcDbDimension
 10
179.9316453190999994
 20
205.814461396300004
 30
0.0
 11
179.9316453190999994
 21
190.3144625005000137
 31
0.0
 70
128
 71
8
 72
2
 74
0
 75
0
 41
0.9
 42
0.0
  1

  3
Standard
100
AcDbAlignedDimension
 13
153.9379142553000008
 23
175.814461396300004
 33
0.0
 14
153.9379142553000008
 24
205.814461396300004
 34
0.0
 50
90.0
100
AcDbRotatedDimension
1001
ACAD
1000
DSTYLE
1002
{
1070
279
1070
2
1070
144
1040
1.0
1070
40
1040
1.0
1002
}
  0
DIMENSION
  5
22F
100
AcDbEntity
  8
0
 62
3
420
65280
370
-1
 48
1.0
  6
CONTINUOUS
100
AcDbDimension
 10
147.6879142553000008
 20
227.5752127261000055
 30
0.0
 11
153.1879119872999979
 21
227.5752127261000055
 31
0.0
 70
128
 71
8
 72
2
 74
0
 75
0
 41
0.9
 42
0.0
  1

  3
Standard
100
AcDbAlignedDimension
 13
159.6879142553000008
 23
210.814461396300004
 33
0.0
 14
147.6879142553000008
 24
212.064461396300004
 34
0.0
 50
180.0
100
AcDbRotatedDimension
1001
ACAD
1000
DSTYLE
1002
{
1070
279
1070
2
1070
144
1040
1.0
1070
40
1040
1.0
1002
}
  0
DIMENSION
  5
230
100
AcDbEntity
  8
0
 62
3
420
65280
370
-1
 48
1.0
  6
CONTINUOUS
100
AcDbDimension
 10
140.6879142553000008
 20
146.0126935771000092
 30
0.0
 11
149.6969952393000085
 21
146.0126935771000092
 31
0.0
 70
128
 71
8
 72
2
 74
0
 75
0
 41
0.9
 42
0.0
  1

  3
Standard
100
AcDbAlignedDimension
 13
159.6879142553000008
 23
165.814461396300004
 33
0.0
 14
140.6879142553000008
 24
161.314461396300004
 34
0.0
 50
180.0
100
AcDbRotatedDimension
1001
ACAD
1000
DSTYLE
1002
{
1070
279
1070
2
1070
144
1040
1.0
1070
40
1040
1.0
1002
}
  0
DIMENSION
  5
231
100
AcDbEntity
  8
0
 62
3
420
65280
370
-1
 48
1.0
  6
CONTINUOUS
100
AcDbDimension
 10
135.6879142553000008
 20
146.0126935771000092
 30
0.0
 11
137.6879150391000053
 21
146.0126935771000092
 31
0.0
 70
128
 71
8
 72
2
 74
0
 75
0
 41
0.9
 42
0.0
  1

  3
Standard
100
AcDbAlignedDimension
 13
140.6879142553000008
 23
161.314461396300004
 33
0.0
 14
135.6879142553000008
 24
161.314461396300004
 34
0.0
 50
180.0
100
AcDbRotatedDimension
1001
ACAD
1000
DSTYLE
1002
{
1070
279
1070
2
1070
144
1040
1.0
1070
40
1040
1.0
1002
}
  0
DIMENSION
  5
232
100
AcDbEntity
  8
0
 62
3
420
65280
370
-1
 48
1.0
  6
CONTINUOUS
100
AcDbDimension
 10
170.4565065957000058
 20
160.814461396300004
 30
0.0
 11
170.4565065957000058
 21
153.5806588051000006
 31
0.0
 70
128
 71
8
 72
2
 74
0
 75
0
 41
0.9
 42
0.0
  1

  3
Standard
100
AcDbAlignedDimension
 13
145.1879142553000008
 23
165.814461396300004
 33
0.0
 14
154.6879142553000008
 24
160.814461396300004
 34
0.0
 50
270.0
100
AcDbRotatedDimension
1001
ACAD
1000
DSTYLE
1002
{
1070
279
1070
2
1070
144
1040
1.0
1070
40
1040
1.0
1002
}
  0
DIMENSION
  5
233
100
AcDbEntity
  8
0
 62
3
420
65280
370
-1
 48
1.0
  6
CONTINUOUS
100
AcDbDimension
 10
159.6879142553000008
 20
269.4944705984000279
 30
0.0
 11
113.1879107665999982
 21
269.4944705984000279
 31
0.0
 70
128
 71
8
 72
2
 74
0
 75
0
 41
0.9
 42
0.0
  1

  3
Standard
100
AcDbAlignedDimension
 13
67.6879142553000008
 23
248.064461396300004
 33
0.0
 14
159.6879142553000008
 24
210.814461396300004
 34
0.0
 50
0.0
100
AcDbRotatedDimension
1001
ACAD
1000
DSTYLE
1002
{
1070
279
1070
2
1070
144
1040
1.0
1070
40
1040
1.0
1002
}
  0
DIMENSION
  5
234
100
AcDbEntity
  8
0
 62
3
420
65280
370
-1
 48
1.0
  6
CONTINUOUS
100
AcDbDimension
 10
93.6879142553000008
 20
118.3808705983999943
 30
0.0
 11
119.5878799438000044
 21
118.3808705983999943
 31
0.0
 70
128
 71
8
 72
2
 74
0
 75
0
 41
0.9
 42
0.0
  1

  3
Standard
100
AcDbAlignedDimension
 13
159.6879142553000008
 23
165.814461396300004
 33
0.0
 14
93.6879142553000008
 24
155.7494613963000063
 34
0.0
 50
180.0
100
AcDbRotatedDimension
1001
ACAD
1000
DSTYLE
1002
{
1070
279
1070
2
1070
144
1040
1.0
1070
40
1040
1.0
1002
}
  0
DIMENSION
  5
235
100
AcDbEntity
  8
0
 62
3
420
65280
370
-1
 48
1.0
  6
CONTINUOUS
100
AcDbDimension
 10
53.6879142553000008
 20
118.3808705983999943
 30
0.0
 11
73.1879127501999989
 21
118.3808705983999943
 31
0.0
 70
128
 71
8
 72
2
 74
0
 75
0
 41
0.9
 42
0.0
  1

  3
Standard
100
AcDbAlignedDimension
 13
93.6879142553000008
 23
155.7494613963000063
 33
0.0
 14
53.6879142553000008
 24
155.7494613963000063
 34
0.0
 50
180.0
100
AcDbRotatedDimension
1001
ACAD
1000
DSTYLE
1002
{
1070
279
1070
2
1070
144
1040
1.0
1070
40
1040
1.0
1002
}
  0
DIMENSION
  5
236
100
AcDbEntity
  8
0
 62
3
420
65280
370
-1
 48
1.0
  6
CONTINUOUS
100
AcDbDimension
 10
23.9908589361999987
 20
240.814461396300004
 30
0.0
 11
23.9908589361999987
 21
190.3144603855000128
 31
0.0
 70
128
 71
8
 72
2
 74
0
 75
0
 41
0.9
 42
0.0
  1

  3
Standard
100
AcDbAlignedDimension
 13
60.4379142553000008
 23
140.814461396300004
 33
0.0
 14
60.4379142553000008
 24
240.814461396300004
 34
0.0
 50
90.0
100
AcDbRotatedDimension
1001
ACAD
1000
DSTYLE
1002
{
1070
279
1070
2
1070
144
1040
1.0
1070
40
1040
1.0
1002
}
  0
DIMENSION
  5
237
100
AcDbEntity
  8
0
 62
3
420
65280
370
-1
 48
1.0
  6
CONTINUOUS
100
AcDbDimension
 10
36.7600436170000009
 20
140.814461396300004
 30
0.0
 11
36.7600436170000009
 21
150.3051372978000018
 31
0.0
 70
128
 71
8
 72
2
 74
0
 75
0
 41
0.9
 42
0.0
  1

  3
Standard
100
AcDbAlignedDimension
 13
48.6229142553000031
 23
160.814461396300004
 33
0.0
 14
60.4379142553000008
 24
140.814461396300004
 34
0.0
 50
270.0
100
AcDbRotatedDimension
1001
ACAD
1000
DSTYLE
1002
{
1070
279
1070
2
1070
144
1040
1.0
1070
40
1040
1.0
1002
}
  0
DIMENSION
  5
238
100
AcDbEntity
  8
0
 62
3
420
65280
370
-1
 48
1.0
  6
CONTINUOUS
100
AcDbDimension
 10
36.7600436170000009
 20
160.814461396300004
 30
0.0
 11
36.7600436170000009
 21
170.3144625637999923
 31
0.0
 70
128
 71
8
 72
2
 74
0
 75
0
 41
0.9
 42
0.0
  1

  3
Standard
100
AcDbAlignedDimension
 13
48.6229142553000031
 23
180.814461396300004
 33
0.0
 14
48.6229142553000031
 24
160.814461396300004
 34
0.0
 50
270.0
100
AcDbRotatedDimension
1001
ACAD
1000
DSTYLE
1002
{
1070
279
1070
2
1070
144
1040
1.0
1070
40
1040
1.0
1002
}
  0
DIMENSION
  5
239
100
AcDbEntity
  8
0
 62
3
420
65280
370
-1
 48
1.0
  6
CONTINUOUS
100
AcDbDimension
 10
145.6260590605999994
 20
203.3022406343999933
 30
0.0
 11
133.4549092242999961
 21
199.5758024342999875
 31
0.0
 70
131
 71
8
 72
2
 74
0
 75
0
 41
0.9
 42
0.0
  1
%%c<>
  3
Standard
100
AcDbDiametricDimension
 15
149.7497694500000023
 25
208.3266821580999988
 35
0.0
 40
0.0
1001
ACAD
1000
DSTYLE
1002
{
1070
279
1070
2
1070
144
1040
1.0
1070
40
1040
1.0
1002
}
  0
DIMENSION
  5
23A
100
AcDbEntity
  8
0
 62
3
420
65280
370
-1
 48
1.0
  6
CONTINUOUS
100
AcDbDimension
 10
134.813159202099996
 20
167.0329865690999895
 30
0.0
 11
124.1143480573000062
 21
178.1767869232000123
 31
0.0
 70
131
 71
8
 72
2
 74
0
 75
0
 41
0.9
 42
0.0
  1
%%c<>
  3
Standard
100
AcDbDiametricDimension
 15
136.5626693085999932
 25
164.5959362234000025
 35
0.0
 40
0.0
1001
ACAD
1000
DSTYLE
1002
{
1070
279
1070
2
1070
144
1040
1.0
1070
40
1040
1.0
1002
}
  0
DIMENSION
  5
23B
100
AcDbEntity
  8
0
 62
3
420
65280
370
-1
 48
1.0
  6
CONTINUOUS
100
AcDbDimension
 10
92.0931249905999891
 20
182.7397268848000067
 30
0.0
 11
81.9433269212999988
 21
193.090707131500011
 31
0.0
 70
131
 71
8
 72
2
 74
0
 75
0
 41
0.9
 42
0.0
  1
M<>
  3
Standard
100
AcDbDiametricDimension
 15
95.2827035199999983
 25
178.8891959078000014
 35
0.0
 40
0.0
1001
ACAD
1000
DSTYLE
1002
{
1070
279
1070
2
1070
144
1040
1.0
1070
40
1040
1.0
1002
}
  0
DIMENSION
  5
23C
100
AcDbEntity
  8
0
 62
3
420
65280
370
-1
 48
1.0
  6
CONTINUOUS
100
AcDbDimension
 10
87.2561133678000118
 20
245.064461396300004
 30
0.0
 11
87.2561133678000118
 21
227.6356112345999918
 31
0.0
 70
128
 71
8
 72
2
 74
0
 75
0
 41
0.9
 42
0.0
  1

  3
Standard
100
AcDbAlignedDimension
 13
73.4379142553000008
 23
236.564461396300004
 33
0.0
 14
73.4379142553000008
 24
245.064461396300004
 34
0.0
 50
90.0
100
AcDbRotatedDimension
1001
ACAD
1000
DSTYLE
1002
{
1070
279
1070
2
1070
144
1040
1.0
1070
40
1040
1.0
1002
}
  0
DIMENSION
  5
23D
100
AcDbEntity
  8
0
 62
3
420
65280
370
-1
 48
1.0
  6
CONTINUOUS
100
AcDbDimension
 10
57.6879142553000008
 20
260.3510579145000179
 30
0.0
 11
64.2994679260000055
 21
260.3510579145000179
 31
0.0
 70
128
 71
8
 72
2
 74
0
 75
0
 41
0.9
 42
0.0
  1

  3
Standard
100
AcDbAlignedDimension
 13
77.6879142553000008
 23
240.814461396300004
 33
0.0
 14
57.6879142553000008
 24
240.814461396300004
 34
0.0
 50
180.0
100
AcDbRotatedDimension
1001
ACAD
1000
DSTYLE
1002
{
1070
279
1070
2
1070
144
1040
1.0
1070
40
1040
1.0
1002
}
  0
DIMENSION
  5
23E
100
AcDbEntity
  8
0
 62
3
420
65280
370
-1
 48
1.0
  6
CONTINUOUS
100
AcDbDimension
 10
247.9902408510999976
 20
215.814461396300004
 30
0.0
 11
245.3652408510999976
 21
233.314461396300004
 31
0.0
 70
128
 71
8
 72
2
 74
0
 75
0
 41
0.9
 42
0.0
  1
(<>)
  3
Standard
100
AcDbAlignedDimension
 13
329.2382799467999916
 23
250.814461396300004
 33
0.0
 14
264.2382799467999916
 24
215.814461396300004
 34
0.0
 50
270.0
100
AcDbRotatedDimension
1001
ACAD
1000
DSTYLE
1002
{
1070
279
1070
2
1070
144
1040
1.0
1070
40
1040
1.0
1002
}
  0
LINE
  5
23F
100
AcDbEntity
  8
3_ALL_AXES
 62
3
420
65280
370
-1
 48
1.0
  6
CENTER
100
AcDbLine
 10
147.6879142553000008
 20
175.814461396300004
 30
0.0
 11
153.9379142553000008
 21
175.814461396300004
 31
0.0
  0
LINE
  5
240
100
AcDbEntity
  8
3_ALL_AXES
 62
3
420
65280
370
-1
 48
1.0
  6
CENTER
100
AcDbLine
 10
147.6879142553000008
 20
175.814461396300004
 30
0.0
 11
141.4379142553000008
 21
175.814461396300004
 31
0.0
  0
LINE
  5
241
100
AcDbEntity
  8
3_ALL_AXES
 62
3
420
65280
370
-1
 48
1.0
  6
CENTER
100
AcDbLine
 10
147.6879142553000008
 20
175.814461396300004
 30
0.0
 11
147.6879142553000008
 21
182.064461396300004
 31
0.0
  0
LINE
  5
242
100
AcDbEntity
  8
3_ALL_AXES
 62
3
420
65280
370
-1
 48
1.0
  6
CENTER
100
AcDbLine
 10
147.6879142553000008
 20
175.814461396300004
 30
0.0
 11
147.6879142553000008
 21
169.564461396300004
 31
0.0
  0
LINE
  5
243
100
AcDbEntity
  8
3_ALL_AXES
 62
3
420
65280
370
-1
 48
1.0
  6
CENTER
100
AcDbLine
 10
147.6879142553000008
 20
205.814461396300004
 30
0.0
 11
153.9379142553000008
 21
205.814461396300004
 31
0.0
  0
LINE
  5
244
100
AcDbEntity
  8
3_ALL_AXES
 62
3
420
65280
370
-1
 48
1.0
  6
CENTER
100
AcDbLine
 10
147.6879142553000008
 20
205.814461396300004
 30
0.0
 11
141.4379142553000008
 21
205.814461396300004
 31
0.0
  0
LINE
  5
245
100
AcDbEntity
  8
3_ALL_AXES
 62
3
420
65280
370
-1
 48
1.0
  6
CENTER
100
AcDbLine
 10
147.6879142553000008
 20
205.814461396300004
 30
0.0
 11
147.6879142553000008
 21
212.064461396300004
 31
0.0
  0
LINE
  5
246
100
AcDbEntity
  8
3_ALL_AXES
 62
3
420
65280
370
-1
 48
1.0
  6
CENTER
100
AcDbLine
 10
147.6879142553000008
 20
205.814461396300004
 30
0.0
 11
147.6879142553000008
 21
199.564461396300004
 31
0.0
  0
LINE
  5
247
100
AcDbEntity
  8
DEFAULT_1
 62
3
420
65280
370
-1
 48
1.0
  6
CENTER
100
AcDbLine
 10
67.6879142553000008
 20
240.814461396300004
 30
0.0
 11
74.9379142553000008
 21
240.814461396300004
 31
0.0
  0
LINE
  5
248
100
AcDbEntity
  8
DEFAULT_1
 62
3
420
65280
370
-1
 48
1.0
  6
CENTER
100
AcDbLine
 10
67.6879142553000008
 20
240.814461396300004
 30
0.0
 11
60.4379142553000008
 21
240.814461396300004
 31
0.0
  0
LINE
  5
249
100
AcDbEntity
  8
DEFAULT_1
 62
3
420
65280
370
-1
 48
1.0
  6
CENTER
100
AcDbLine
 10
67.6879142553000008
 20
240.814461396300004
 30
0.0
 11
67.6879142553000008
 21
248.064461396300004
 31
0.0
  0
LINE
  5
24A
100
AcDbEntity
  8
DEFAULT_1
 62
3
420
65280
370
-1
 48
1.0
  6
CENTER
100
AcDbLine
 10
67.6879142553000008
 20
240.814461396300004
 30
0.0
 11
67.6879142553000008
 21
233.564461396300004
 31
0.0
  0
LINE
  5
24B
100
AcDbEntity
  8
DEFAULT_1
 62
3
420
65280
370
-1
 48
1.0
  6
CENTER
100
AcDbLine
 10
67.6879142553000008
 20
140.814461396300004
 30
0.0
 11
74.9379142553000008
 21
140.814461396300004
 31
0.0
  0
LINE
  5
24C
100
AcDbEntity
  8
DEFAULT_1
 62
3
420
65280
370
-1
 48
1.0
  6
CENTER
100
AcDbLine
 10
67.6879142553000008
 20
140.814461396300004
 30
0.0
 11
60.4379142553000008
 21
140.814461396300004
 31
0.0
  0
LINE
  5
24D
100
AcDbEntity
  8
DEFAULT_1
 62
3
420
65280
370
-1
 48
1.0
  6
CENTER
100
AcDbLine
 10
67.6879142553000008
 20
140.814461396300004
 30
0.0
 11
67.6879142553000008
 21
148.064461396300004
 31
0.0
  0
LINE
  5
24E
100
AcDbEntity
  8
DEFAULT_1
 62
3
420
65280
370
-1
 48
1.0
  6
CENTER
100
AcDbLine
 10
67.6879142553000008
 20
140.814461396300004
 30
0.0
 11
67.6879142553000008
 21
133.564461396300004
 31
0.0
  0
LINE
  5
24F
100
AcDbEntity
  8
3_ALL_AXES
 62
3
420
65280
370
-1
 48
1.0
  6
CENTER
100
AcDbLine
 10
93.6879142553000008
 20
160.814461396300004
 30
0.0
 11
118.347171544899993
 21
160.814461396300004
 31
0.0
  0
LINE
  5
250
100
AcDbEntity
  8
3_ALL_AXES
 62
3
420
65280
370
-1
 48
1.0
  6
CENTER
100
AcDbLine
 10
93.6879142553000008
 20
160.814461396300004
 30
0.0
 11
88.6229142553000031
 21
160.814461396300004
 31
0.0
  0
LINE
  5
251
100
AcDbEntity
  8
3_ALL_AXES
 62
3
420
65280
370
-1
 48
1.0
  6
CENTER
100
AcDbLine
 10
93.6879142553000008
 20
160.814461396300004
 30
0.0
 11
93.6879142553000008
 21
165.8794613963000018
 31
0.0
  0
LINE
  5
252
100
AcDbEntity
  8
3_ALL_AXES
 62
3
420
65280
370
-1
 48
1.0
  6
CENTER
100
AcDbLine
 10
93.6879142553000008
 20
160.814461396300004
 30
0.0
 11
93.6879142553000008
 21
155.7494613963000063
 31
0.0
  0
LINE
  5
253
100
AcDbEntity
  8
DEFAULT_1
 62
3
420
65280
370
-1
 48
1.0
  6
CENTER
100
AcDbLine
 10
93.6879142553000008
 20
180.814461396300004
 30
0.0
 11
98.7529142553000128
 21
180.814461396300004
 31
0.0
  0
LINE
  5
254
100
AcDbEntity
  8
DEFAULT_1
 62
3
420
65280
370
-1
 48
1.0
  6
CENTER
100
AcDbLine
 10
93.6879142553000008
 20
180.814461396300004
 30
0.0
 11
88.6229142553000031
 21
180.814461396300004
 31
0.0
  0
LINE
  5
255
100
AcDbEntity
  8
DEFAULT_1
 62
3
420
65280
370
-1
 48
1.0
  6
CENTER
100
AcDbLine
 10
93.6879142553000008
 20
180.814461396300004
 30
0.0
 11
93.6879142553000008
 21
185.8794613963000018
 31
0.0
  0
LINE
  5
256
100
AcDbEntity
  8
DEFAULT_1
 62
3
420
65280
370
-1
 48
1.0
  6
CENTER
100
AcDbLine
 10
93.6879142553000008
 20
180.814461396300004
 30
0.0
 11
93.6879142553000008
 21
175.7494613963000063
 31
0.0
  0
LINE
  5
257
100
AcDbEntity
  8
DEFAULT_1
 62
3
420
65280
370
-1
 48
1.0
  6
CENTER
100
AcDbLine
 10
53.6879142553000008
 20
160.814461396300004
 30
0.0
 11
88.4129784254999862
 21
160.814461396300004
 31
0.0
  0
LINE
  5
258
100
AcDbEntity
  8
DEFAULT_1
 62
3
420
65280
370
-1
 48
1.0
  6
CENTER
100
AcDbLine
 10
53.6879142553000008
 20
160.814461396300004
 30
0.0
 11
48.6229142553000031
 21
160.814461396300004
 31
0.0
  0
LINE
  5
259
100
AcDbEntity
  8
DEFAULT_1
 62
3
420
65280
370
-1
 48
1.0
  6
CENTER
100
AcDbLine
 10
53.6879142553000008
 20
160.814461396300004
 30
0.0
 11
53.6879142553000008
 21
165.8794613963000018
 31
0.0
  0
LINE
  5
25A
100
AcDbEntity
  8
DEFAULT_1
 62
3
420
65280
370
-1
 48
1.0
  6
CENTER
100
AcDbLine
 10
53.6879142553000008
 20
160.814461396300004
 30
0.0
 11
53.6879142553000008
 21
155.7494613963000063
 31
0.0
  0
LINE
  5
25B
100
AcDbEntity
  8
DEFAULT_1
 62
3
420
65280
370
-1
 48
1.0
  6
CENTER
100
AcDbLine
 10
53.6879142553000008
 20
180.814461396300004
 30
0.0
 11
58.7529142552999986
 21
180.814461396300004
 31
0.0
  0
LINE
  5
25C
100
AcDbEntity
  8
DEFAULT_1
 62
3
420
65280
370
-1
 48
1.0
  6
CENTER
100
AcDbLine
 10
53.6879142553000008
 20
180.814461396300004
 30
0.0
 11
48.6229142553000031
 21
180.814461396300004
 31
0.0
  0
LINE
  5
25D
100
AcDbEntity
  8
DEFAULT_1
 62
3
420
65280
370
-1
 48
1.0
  6
CENTER
100
AcDbLine
 10
53.6879142553000008
 20
180.814461396300004
 30
0.0
 11
53.6879142553000008
 21
185.8794613963000018
 31
0.0
  0
LINE
  5
25E
100
AcDbEntity
  8
DEFAULT_1
 62
3
420
65280
370
-1
 48
1.0
  6
CENTER
100
AcDbLine
 10
53.6879142553000008
 20
180.814461396300004
 30
0.0
 11
53.6879142553000008
 21
175.7494613963000063
 31
0.0
  0
LINE
  5
25F
100
AcDbEntity
  8
DEFAULT_1
 62
3
420
65280
370
-1
 48
1.0
  6
CENTER
100
AcDbLine
 10
135.6879142553000008
 20
165.814461396300004
 30
0.0
 11
140.1879142553000008
 21
165.814461396300004
 31
0.0
  0
LINE
  5
260
100
AcDbEntity
  8
DEFAULT_1
 62
3
420
65280
370
-1
 48
1.0
  6
CENTER
100
AcDbLine
 10
135.6879142553000008
 20
165.814461396300004
 30
0.0
 11
131.1879142553000008
 21
165.814461396300004
 31
0.0
  0
LINE
  5
261
100
AcDbEntity
  8
DEFAULT_1
 62
3
420
65280
370
-1
 48
1.0
  6
CENTER
100
AcDbLine
 10
135.6879142553000008
 20
165.814461396300004
 30
0.0
 11
135.6879142553000008
 21
170.314461396300004
 31
0.0
  0
LINE
  5
262
100
AcDbEntity
  8
DEFAULT_1
 62
3
420
65280
370
-1
 48
1.0
  6
CENTER
100
AcDbLine
 10
135.6879142553000008
 20
165.814461396300004
 30
0.0
 11
135.6879142553000008
 21
161.314461396300004
 31
0.0
  0
LINE
  5
263
100
AcDbEntity
  8
DEFAULT_1
 62
3
420
65280
370
-1
 48
1.0
  6
CENTER
100
AcDbLine
 10
140.6879142553000008
 20
165.814461396300004
 30
0.0
 11
145.1879142553000008
 21
165.814461396300004
 31
0.0
  0
LINE
  5
264
100
AcDbEntity
  8
DEFAULT_1
 62
3
420
65280
370
-1
 48
1.0
  6
CENTER
100
AcDbLine
 10
140.6879142553000008
 20
165.814461396300004
 30
0.0
 11
136.1879142553000008
 21
165.814461396300004
 31
0.0
  0
LINE
  5
265
100
AcDbEntity
  8
DEFAULT_1
 62
3
420
65280
370
-1
 48
1.0
  6
CENTER
100
AcDbLine
 10
140.6879142553000008
 20
165.814461396300004
 30
0.0
 11
140.6879142553000008
 21
170.314461396300004
 31
0.0
  0
LINE
  5
266
100
AcDbEntity
  8
DEFAULT_1
 62
3
420
65280
370
-1
 48
1.0
  6
CENTER
100
AcDbLine
 10
140.6879142553000008
 20
165.814461396300004
 30
0.0
 11
140.6879142553000008
 21
161.314461396300004
 31
0.0
  0
INSERT
  5
267
100
AcDbEntity
  8
NOTE2D
 62
3
420
65280
370
-1
 48
1.0
  6
CONTINUOUS
100
AcDbBlockReference
  2
UGUALE-UGUALE_BL5
 10
67.7079635595000013
 20
259.5840884438999865
 30
0.0
  0
ENDSEC
  0
SECTION
  2
OBJECTS
  0
DICTIONARY
  5
C
100
AcDbDictionary
280
0
281
1
  3
ACAD_GROUP
350
D
  3
ACAD_LAYOUT
350
1A
  3
ACAD_MLINESTYLE
350
17
  3
ACAD_PLOTSETTINGS
350
19
  3
ACAD_PLOTSTYLENAME
350
E
  3
AcDbVariableDictionary
350
268
  3
QCAD_OBJECTS
350
269
  0
DICTIONARY
  5
D
100
AcDbDictionary
280
0
281
1
  0
ACDBDICTIONARYWDFLT
  5
E
100
AcDbDictionary
281
1
  3
Normal
350
F
100
AcDbDictionaryWithDefault
340
F
  0
ACDBPLACEHOLDER
  5
F
  0
DICTIONARY
  5
17
100
AcDbDictionary
280
0
281
1
  3
Standard
350
18
  0
MLINESTYLE
  5
18
100
AcDbMlineStyle
  2
STANDARD
 70
0
  3

 62
256
 51
90.0
 52
90.0
 71
2
 49
0.5
 62
256
  6
BYLAYER
 49
-0.5
 62
256
  6
BYLAYER
  0
DICTIONARY
  5
19
100
AcDbDictionary
280
0
281
1
  0
DICTIONARY
  5
1A
100
AcDbDictionary
281
1
  3
Layout1
350
1E
  3
Layout2
350
26
  3
Model
350
22
  0
LAYOUT
  5
1E
100
AcDbPlotSettings
  1

  2
none_device
  4

  6

 40
0.0
 41
0.0
 42
0.0
 43
0.0
 44
0.0
 45
0.0
 46
0.0
 47
0.0
 48
0.0
 49
0.0
140
0.0
141
0.0
142
1.0
143
1.0
 70
688
 72
0
 73
0
 74
5
  7

 75
16
147
1.0
148
0.0
149
0.0
100
AcDbLayout
  1
Layout1
 70
1
 71
1
 10
0.0
 20
0.0
 11
420.0
 21
297.0
 12
0.0
 22
0.0
 32
0.0
 14
100000000000000000000.0
 24
100000000000000000000.0
 34
100000000000000000000.0
 15
-100000000000000000000.0
 25
-100000000000000000000.0
 35
-100000000000000000000.0
146
0.0
 13
0.0
 23
0.0
 33
0.0
 16
1.0
 26
0.0
 36
0.0
 17
0.0
 27
1.0
 37
0.0
 76
0
330
1B
  0
LAYOUT
  5
22
100
AcDbPlotSettings
  1

  2
none_device
  4

  6

 40
0.0
 41
0.0
 42
0.0
 43
0.0
 44
0.0
 45
0.0
 46
0.0
 47
0.0
 48
0.0
 49
0.0
140
0.0
141
0.0
142
1.0
143
1.0
 70
1712
 72
0
 73
0
 74
0
  7

 75
0
147
1.0
148
0.0
149
0.0
100
AcDbLayout
  1
Model
 70
1
 71
0
 10
0.0
 20
0.0
 11
12.0
 21
9.0
 12
0.0
 22
0.0
 32
0.0
 14
0.0
 24
0.0
 34
0.0
 15
0.0
 25
0.0
 35
0.0
146
0.0
 13
0.0
 23
0.0
 33
0.0
 16
1.0
 26
0.0
 36
0.0
 17
0.0
 27
1.0
 37
0.0
 76
0
330
1F
  0
LAYOUT
  5
26
100
AcDbPlotSettings
  1

  2
none_device
  4

  6

 40
0.0
 41
0.0
 42
0.0
 43
0.0
 44
0.0
 45
0.0
 46
0.0
 47
0.0
 48
0.0
 49
0.0
140
0.0
141
0.0
142
1.0
143
1.0
 70
688
 72
0
 73
0
 74
5
  7

 75
16
147
1.0
148
0.0
149
0.0
100
AcDbLayout
  1
Layout2
 70
1
 71
2
 10
0.0
 20
0.0
 11
12.0
 21
9.0
 12
0.0
 22
0.0
 32
0.0
 14
0.0
 24
0.0
 34
0.0
 15
0.0
 25
0.0
 35
0.0
146
0.0
 13
0.0
 23
0.0
 33
0.0
 16
1.0
 26
0.0
 36
0.0
 17
0.0
 27
1.0
 37
0.0
 76
0
330
23
  0
DICTIONARY
  5
268
100
AcDbDictionary
281
1
  3
DIMASSOC
350
26B
  3
HIDETEXT
350
26A
  0
DICTIONARYVAR
  5
26A
100
DictionaryVariables
280
0
  1
2
  0
DICTIONARYVAR
  5
26B
100
DictionaryVariables
280
0
  1
1
  0
DICTIONARY
  5
269
100
AcDbDictionary
281
1
  3
ColorSettings/BackgroundColor
350
26C
  3
ColorSettings/ColorMode
350
26D
  3
Grid/DisplayGrid00
350
26E
  3
Grid/DisplayGrid01
350
26F
  3
Grid/DisplayGrid02
350
270
  3
Grid/DisplayGrid03
350
271
  3
Grid/GridSpacingX00
350
272
  3
Grid/GridSpacingX01
350
273
  3
Grid/GridSpacingX02
350
274
  3
Grid/GridSpacingX03
350
275
  3
Grid/GridSpacingY00
350
276
  3
Grid/GridSpacingY01
350
277
  3
Grid/GridSpacingY02
350
278
  3
Grid/GridSpacingY03
350
279
  3
Grid/IsometricGrid00
350
27A
  3
Grid/IsometricGrid01
350
27B
  3
Grid/IsometricGrid02
350
27C
  3
Grid/IsometricGrid03
350
27D
  3
Grid/IsometricProjection00
350
27E
  3
Grid/IsometricProjection01
350
27F
  3
Grid/IsometricProjection02
350
280
  3
Grid/IsometricProjection03
350
281
  3
Grid/MetaGridSpacingX00
350
282
  3
Grid/MetaGridSpacingX01
350
283
  3
Grid/MetaGridSpacingX02
350
284
  3
Grid/MetaGridSpacingX03
350
285
  3
Grid/MetaGridSpacingY00
350
286
  3
Grid/MetaGridSpacingY01
350
287
  3
Grid/MetaGridSpacingY02
350
288
  3
Grid/MetaGridSpacingY03
350
289
  3
MultiPageSettings/Columns
350
28A
  3
MultiPageSettings/GlueMarginsBottom
350
28B
  3
MultiPageSettings/GlueMarginsLeft
350
28C
  3
MultiPageSettings/GlueMarginsRight
350
28D
  3
MultiPageSettings/GlueMarginsTop
350
28E
  3
MultiPageSettings/PrintCropMarks
350
28F
  3
MultiPageSettings/Rows
350
290
  3
PageSettings/OffsetX
350
291
  3
PageSettings/OffsetY
350
292
  3
PageSettings/PageOrientation
350
293
  3
PageSettings/PaperHeight
350
294
  3
PageSettings/PaperWidth
350
295
  3
PageSettings/Scale
350
296
  3
PageSettings/ShowPaperBorders
350
297
  3
PageTagSettings/EnablePageTags
350
298
  3
PageTagSettings/TagAlignment
350
299
  3
PageTagSettings/TagFont
350
29A
  3
PageTagSettings/TagPosition
350
29B
  3
QCADVersion
350
29C
  3
UnitSettings/PaperUnit
350
29D
  3
ViewportCenter
350
29E
  3
ViewportHeight
350
29F
  3
ViewportWidth
350
2A0
  0
XRECORD
  5
26C
330
269
100
AcDbXrecord
280
1
1000
Bianco
  0
XRECORD
  5
26D
330
269
100
AcDbXrecord
280
1
1000
FullColor
  0
XRECORD
  5
26E
330
269
100
AcDbXrecord
280
1
290
1
  0
XRECORD
  5
26F
330
269
100
AcDbXrecord
280
1
290
1
  0
XRECORD
  5
270
330
269
100
AcDbXrecord
280
1
290
1
  0
XRECORD
  5
271
330
269
100
AcDbXrecord
280
1
290
1
  0
XRECORD
  5
272
330
269
100
AcDbXrecord
280
1
1000
auto
  0
XRECORD
  5
273
330
269
100
AcDbXrecord
280
1
1000
auto
  0
XRECORD
  5
274
330
269
100
AcDbXrecord
280
1
1000
auto
  0
XRECORD
  5
275
330
269
100
AcDbXrecord
280
1
1000
auto
  0
XRECORD
  5
276
330
269
100
AcDbXrecord
280
1
1000
auto
  0
XRECORD
  5
277
330
269
100
AcDbXrecord
280
1
1000
auto
  0
XRECORD
  5
278
330
269
100
AcDbXrecord
280
1
1000
auto
  0
XRECORD
  5
279
330
269
100
AcDbXrecord
280
1
1000
auto
  0
XRECORD
  5
27A
330
269
100
AcDbXrecord
280
1
290
0
  0
XRECORD
  5
27B
330
269
100
AcDbXrecord
280
1
290
0
  0
XRECORD
  5
27C
330
269
100
AcDbXrecord
280
1
290
0
  0
XRECORD
  5
27D
330
269
100
AcDbXrecord
280
1
290
0
  0
XRECORD
  5
27E
330
269
100
AcDbXrecord
280
1
 90
65537
  0
XRECORD
  5
27F
330
269
100
AcDbXrecord
280
1
 90
65537
  0
XRECORD
  5
280
330
269
100
AcDbXrecord
280
1
 90
65537
  0
XRECORD
  5
281
330
269
100
AcDbXrecord
280
1
 90
65537
  0
XRECORD
  5
282
330
269
100
AcDbXrecord
280
1
1000
auto
  0
XRECORD
  5
283
330
269
100
AcDbXrecord
280
1
1000
auto
  0
XRECORD
  5
284
330
269
100
AcDbXrecord
280
1
1000
auto
  0
XRECORD
  5
285
330
269
100
AcDbXrecord
280
1
1000
auto
  0
XRECORD
  5
286
330
269
100
AcDbXrecord
280
1
1000
auto
  0
XRECORD
  5
287
330
269
100
AcDbXrecord
280
1
1000
auto
  0
XRECORD
  5
288
330
269
100
AcDbXrecord
280
1
1000
auto
  0
XRECORD
  5
289
330
269
100
AcDbXrecord
280
1
1000
auto
  0
XRECORD
  5
28A
330
269
100
AcDbXrecord
280
1
 90
1
  0
XRECORD
  5
28B
330
269
100
AcDbXrecord
280
1
 40
10.0
  0
XRECORD
  5
28C
330
269
100
AcDbXrecord
280
1
 40
10.0
  0
XRECORD
  5
28D
330
269
100
AcDbXrecord
280
1
 40
10.0
  0
XRECORD
  5
28E
330
269
100
AcDbXrecord
280
1
 40
10.0
  0
XRECORD
  5
28F
330
269
100
AcDbXrecord
280
1
290
0
  0
XRECORD
  5
290
330
269
100
AcDbXrecord
280
1
 90
1
  0
XRECORD
  5
291
330
269
100
AcDbXrecord
280
1
 40
0.0
  0
XRECORD
  5
292
330
269
100
AcDbXrecord
280
1
 40
0.0
  0
XRECORD
  5
293
330
269
100
AcDbXrecord
280
1
1000
Portrait
  0
XRECORD
  5
294
330
269
100
AcDbXrecord
280
1
 40
297.0
  0
XRECORD
  5
295
330
269
100
AcDbXrecord
280
1
 40
210.0
  0
XRECORD
  5
296
330
269
100
AcDbXrecord
280
1
1000
1:1
  0
XRECORD
  5
297
330
269
100
AcDbXrecord
280
1
290
1
  0
XRECORD
  5
298
330
269
100
AcDbXrecord
280
1
290
0
  0
XRECORD
  5
299
330
269
100
AcDbXrecord
280
1
1000
Inside
  0
XRECORD
  5
29A
330
269
100
AcDbXrecord
280
1
1000
Arial,10,-1,5,50,0,0,0,0,0
  0
XRECORD
  5
29B
330
269
100
AcDbXrecord
280
1
1000
TopLeft
  0
XRECORD
  5
29C
330
269
100
AcDbXrecord
280
1
1000
3.32.6
  0
XRECORD
  5
29D
330
269
100
AcDbXrecord
280
1
 90
4
  0
XRECORD
  5
29F
330
269
100
AcDbXrecord
280
1
 40
949.8228479999997944
  0
XRECORD
  5
2A0
330
269
100
AcDbXrecord
280
1
 40
1894.6068479999998999
  0
ENDSEC
  0
EOF
