999
dxflib 3.26.4.0
  0
SECTION
  2
HEADER
  9
$ACADVER
  1
AC1015
  9
$HANDSEED
  5
FFFF
  9
$ANGBASE
 50
0.0
  9
$ANGDIR
 70
0
  9
$ATTMODE
 70
1
  9
$AUNITS
 70
0
  9
$AUPREC
 70
0
  9
$CECOLOR
 62
256
  9
$CELTSCALE
 40
1.0
  9
$CHAMFERA
 40
0.0
  9
$CHAMFERB
 40
0.0
  9
$CHAMFERC
 40
0.0
  9
$CHAMFERD
 40
0.0
  9
$CMLJUST
 70
0
  9
$CMLSCALE
 40
1.0
  9
$DIMADEC
 70
0
  9
$DIMALT
 70
0
  9
$DIMALTD
 70
2
  9
$DIMALTF
 40
0.0393700787
  9
$DIMALTRND
 40
0.0
  9
$DIMALTTD
 70
2
  9
$DIMALTTZ
 70
0
  9
$DIMALTU
 70
2
  9
$DIMALTZ
 70
0
  9
$DIMAPOST
  1

  9
$DIMASZ
 40
6.0
  9
$DIMATFIT
 70
3
  9
$DIMAUNIT
 70
0
  9
$DIMAZIN
 70
0
  9
$DIMBLK
  1
0
  9
$DIMBLK1
  1
0
  9
$DIMBLK2
  1
0
  9
$DIMCEN
 40
6.3360000000000003
  9
$DIMCLRD
 70
0
  9
$DIMCLRE
 70
0
  9
$DIMDEC
 70
4
  9
$DIMDLE
 40
0.0
  9
$DIMDLI
 40
26.7519999999999989
  9
$DIMDSEP
 70
46
  9
$DIMEXE
 40
1.0
  9
$DIMEXO
 40
1.5
  9
$DIMFRAC
 70
0
  9
$DIMGAP
 40
0.625
  9
$DIMJUST
 70
0
  9
$DIMLDRBLK
  1

  9
$DIMLFAC
 40
1.0
  9
$DIMLIM
 70
0
  9
$DIMLUNIT
 70
2
  9
$DIMLWD
 70
-2
  9
$DIMLWE
 70
-2
  9
$DIMPOST
  1

  9
$DIMRND
 40
0.0
  9
$DIMSAH
 70
0
  9
$DIMSCALE
 40
1.0
  9
$DIMSD1
 70
0
  9
$DIMSD2
 70
0
  9
$DIMSE1
 70
0
  9
$DIMSE2
 70
0
  9
$DIMSOXD
 70
0
  9
$DIMTAD
 70
0
  9
$DIMTDEC
 70
4
  9
$DIMTFAC
 40
1.0
  9
$DIMTIH
 70
1
  9
$DIMTIX
 70
0
  9
$DIMTM
 40
0.0001
  9
$DIMTOFL
 70
0
  9
$DIMTOH
 70
1
  9
$DIMTOL
 70
1
  9
$DIMTOLJ
 70
1
  9
$DIMTP
 40
0.0001
  9
$DIMTSZ
 40
0.0
  9
$DIMTVP
 40
0.0
  9
$DIMTXSTY
  7
STANDARD
  9
$DIMTXT
 40
7.0
  9
$DIMTZIN
 70
0
  9
$DIMUPT
 70
0
  9
$DIMZIN
 70
0
  9
$DISPSILH
 70
0
  9
$DWGCODEPAGE
  3
ANSI_1252
  9
$ELEVATION
 40
0.0
  9
$EXTMAX
 10
420.0
 20
594.0
 30
0.0
  9
$EXTMIN
 10
0.0
 20
0.0
 30
0.0
  9
$FILLETRAD
 40
0.0
  9
$FILLMODE
 70
1
  9
$INSBASE
 10
0.0
 20
0.0
 30
0.0
  9
$INSUNITS
 70
4
  9
$LIMCHECK
 70
0
  9
$LIMMAX
 10
420.0
 20
594.0
  9
$LIMMIN
 10
0.0
 20
0.0
  9
$LTSCALE
 40
38.7199999999999989
  9
$LUNITS
 70
2
  9
$LUPREC
 70
4
  9
$MAXACTVP
 70
64
  9
$MEASUREMENT
 70
1
  9
$MIRRTEXT
 70
0
  9
$ORTHOMODE
 70
0
  9
$PDMODE
 70
0
  9
$PDSIZE
 40
0.5
  9
$PELEVATION
 40
0.0
  9
$PEXTMAX
 10
-100000000000000000000.0
 20
-100000000000000000000.0
 30
-100000000000000000000.0
  9
$PEXTMIN
 10
100000000000000000000.0
 20
100000000000000000000.0
 30
100000000000000000000.0
  9
$PINSBASE
 10
0.0
 20
0.0
 30
0.0
  9
$PLIMCHECK
 70
0
  9
$PLIMMAX
 10
12.0
 20
9.0
  9
$PLIMMIN
 10
0.0
 20
0.0
  9
$PLINEGEN
 70
0
  9
$PLINEWID
 40
0.0
  9
$PROXYGRAPHICS
 70
1
  9
$PSLTSCALE
 70
1
  9
$PUCSNAME
  2

  9
$PUCSORG
 10
0.0
 20
0.0
 30
0.0
  9
$PUCSXDIR
 10
1.0
 20
0.0
 30
0.0
  9
$PUCSYDIR
 10
0.0
 20
1.0
 30
0.0
  9
$QTEXTMODE
 70
0
  9
$REGENMODE
 70
1
  9
$SHADEDGE
 70
3
  9
$SHADEDIF
 70
70
  9
$SKETCHINC
 40
0.1
  9
$SKPOLY
 70
0
  9
$SPLFRAME
 70
0
  9
$SPLINESEGS
 70
8
  9
$SPLINETYPE
 70
6
  9
$SURFTAB1
 70
6
  9
$SURFTAB2
 70
6
  9
$SURFTYPE
 70
6
  9
$SURFU
 70
6
  9
$SURFV
 70
6
  9
$TEXTSIZE
 40
0.2
  9
$TEXTSTYLE
  7
STANDARD
  9
$THICKNESS
 40
0.0
  9
$TILEMODE
 70
1
  9
$TRACEWID
 40
0.05
  9
$TREEDEPTH
 70
3020
  9
$UCSNAME
  2

  9
$UCSORG
 10
0.0
 20
0.0
 30
0.0
  9
$UCSXDIR
 10
1.0
 20
0.0
 30
0.0
  9
$UCSYDIR
 10
0.0
 20
1.0
 30
0.0
  9
$UNITMODE
 70
0
  9
$USERI1
 70
0
  9
$USERI2
 70
0
  9
$USERI3
 70
0
  9
$USERI4
 70
0
  9
$USERI5
 70
0
  9
$USERR1
 40
0.0
  9
$USERR2
 40
0.0
  9
$USERR3
 40
0.0
  9
$USERR4
 40
0.0
  9
$USERR5
 40
0.0
  9
$USRTIMER
 70
1
  9
$VISRETAIN
 70
1
  0
ENDSEC
  0
SECTION
  2
TABLES
  0
TABLE
  2
VPORT
  5
8
100
AcDbSymbolTable
 70
1
  0
VPORT
  5
30
100
AcDbSymbolTableRecord
100
AcDbViewportTableRecord
  2
*Active
 70
0
 10
0.0
 20
0.0
 11
1.0
 21
1.0
 12
286.3055555555554861
 22
148.5
 13
0.0
 23
0.0
 14
10.0
 24
10.0
 15
10.0
 25
10.0
 16
0.0
 26
0.0
 36
1.0
 17
0.0
 27
0.0
 37
0.0
 40
297.0
 41
1.92798353909465
 42
50.0
 43
0.0
 44
0.0
 50
0.0
 51
0.0
 71
0
 72
100
 73
1
 74
3
 75
1
 76
1
 77
0
 78
0
281
0
 65
1
110
0.0
120
0.0
130
0.0
111
1.0
121
0.0
131
0.0
112
0.0
122
1.0
132
0.0
 79
0
146
0.0
  0
ENDTAB
  0
TABLE
  2
LTYPE
  5
5
100
AcDbSymbolTable
 70
41
  0
LTYPE
  5
16
100
AcDbSymbolTableRecord
100
AcDbLinetypeTableRecord
  2
CONTINUOUS
 70
0
  3
Solid line
 72
65
 73
0
 40
0.0
  0
LTYPE
  5
31
100
AcDbSymbolTableRecord
100
AcDbLinetypeTableRecord
  2
DOT2
 70
0
  3
Dot (.5x) ........................................
 72
65
 73
2
 40
3.1749999999999998
 49
0.0
 74
0
 49
-3.1749999999999998
 74
0
  0
LTYPE
  5
32
100
AcDbSymbolTableRecord
100
AcDbLinetypeTableRecord
  2
DASHDOTX2
 70
0
  3
Dash dot (2x) ____  .  ____  .  ____  .  ___
 72
65
 73
4
 40
50.7999999999999972
 49
25.3999999999999986
 74
0
 49
-12.6999999999999993
 74
0
 49
0.0
 74
0
 49
-12.6999999999999993
 74
0
  0
LTYPE
  5
33
100
AcDbSymbolTableRecord
100
AcDbLinetypeTableRecord
  2
ACAD_ISO05W100
 70
0
  3
ISO long-dash double-dot ____ .. ____ .. ____ . 
 72
65
 73
6
 40
33.0
 49
24.0
 74
0
 49
-3.0
 74
0
 49
0.0
 74
0
 49
-3.0
 74
0
 49
0.0
 74
0
 49
-3.0
 74
0
  0
LTYPE
  5
34
100
AcDbSymbolTableRecord
100
AcDbLinetypeTableRecord
  2
ACAD_ISO13W100
 70
0
  3
ISO double-dash double-dot __ __ . . __ __ . . _
 72
65
 73
8
 40
36.0
 49
12.0
 74
0
 49
-3.0
 74
0
 49
12.0
 74
0
 49
-3.0
 74
0
 49
0.0
 74
0
 49
-3.0
 74
0
 49
0.0
 74
0
 49
-3.0
 74
0
  0
LTYPE
  5
35
100
AcDbSymbolTableRecord
100
AcDbLinetypeTableRecord
  2
ACAD_ISO15W100
 70
0
  3
ISO double-dash triple-dot __ __ . . . __ __ . .
 72
65
 73
10
 40
39.0
 49
12.0
 74
0
 49
-3.0
 74
0
 49
12.0
 74
0
 49
-3.0
 74
0
 49
0.0
 74
0
 49
-3.0
 74
0
 49
0.0
 74
0
 49
-3.0
 74
0
 49
0.0
 74
0
 49
-3.0
 74
0
  0
LTYPE
  5
36
100
AcDbSymbolTableRecord
100
AcDbLinetypeTableRecord
  2
ACAD_ISO10W100
 70
0
  3
ISO dash dot __ . __ . __ . __ . __ . __ . __ . 
 72
65
 73
4
 40
18.0
 49
12.0
 74
0
 49
-3.0
 74
0
 49
0.0
 74
0
 49
-3.0
 74
0
  0
LTYPE
  5
37
100
AcDbSymbolTableRecord
100
AcDbLinetypeTableRecord
  2
ACAD_ISO08W100
 70
0
  3
ISO long-dash short-dash ____ __ ____ __ ____ _
 72
65
 73
4
 40
36.0
 49
24.0
 74
0
 49
-3.0
 74
0
 49
6.0
 74
0
 49
-3.0
 74
0
  0
LTYPE
  5
38
100
AcDbSymbolTableRecord
100
AcDbLinetypeTableRecord
  2
ACAD_ISO14W100
 70
0
  3
ISO dash triple-dot __ . . . __ . . . __ . . . _
 72
65
 73
8
 40
24.0
 49
12.0
 74
0
 49
-3.0
 74
0
 49
0.0
 74
0
 49
-3.0
 74
0
 49
0.0
 74
0
 49
-3.0
 74
0
 49
0.0
 74
0
 49
-3.0
 74
0
  0
LTYPE
  5
39
100
AcDbSymbolTableRecord
100
AcDbLinetypeTableRecord
  2
ACAD_ISO02W100
 70
0
  3
ISO dash __ __ __ __ __ __ __ __ __ __ __ __ __
 72
65
 73
2
 40
15.0
 49
12.0
 74
0
 49
-3.0
 74
0
  0
LTYPE
  5
14
100
AcDbSymbolTableRecord
100
AcDbLinetypeTableRecord
  2
BYBLOCK
 70
0
  3

 72
65
 73
0
 40
0.0
  0
LTYPE
  5
3A
100
AcDbSymbolTableRecord
100
AcDbLinetypeTableRecord
  2
PHANTOM2
 70
0
  3
Phantom (.5x) ___ _ _ ___ _ _ ___ _ _ ___ _ _
 72
65
 73
6
 40
31.7500000000000036
 49
15.875
 74
0
 49
-3.1749999999999998
 74
0
 49
3.1749999999999998
 74
0
 49
-3.1749999999999998
 74
0
 49
3.1749999999999998
 74
0
 49
-3.1749999999999998
 74
0
  0
LTYPE
  5
3B
100
AcDbSymbolTableRecord
100
AcDbLinetypeTableRecord
  2
DOT
 70
0
  3
. . . . . . . . . . . . . . . . . . . .
 72
65
 73
2
 40
0.2
 49
0.1
 74
0
 49
-0.1
 74
0
  0
LTYPE
  5
3C
100
AcDbSymbolTableRecord
100
AcDbLinetypeTableRecord
  2
CENTER
 70
0
  3
____ _ ____ _ ____ _ ____ _ ____ _ ____ _ ____
 72
65
 73
4
 40
0.6
 49
0.375
 74
0
 49
-0.075
 74
0
 49
0.075
 74
0
 49
-0.075
 74
0
  0
LTYPE
  5
3D
100
AcDbSymbolTableRecord
100
AcDbLinetypeTableRecord
  2
DASHED
 70
0
  3
- - - - - - - - - - - - - - - - - - - -
 72
65
 73
2
 40
0.2
 49
0.1
 74
0
 49
-0.1
 74
0
  0
LTYPE
  5
3E
100
AcDbSymbolTableRecord
100
AcDbLinetypeTableRecord
  2
CENTER2
 70
0
  3
Center (.5x) ___ _ ___ _ ___ _ ___ _ ___ _ ___
 72
65
 73
4
 40
28.5750000000000028
 49
19.0500000000000007
 74
0
 49
-3.1749999999999998
 74
0
 49
3.1749999999999998
 74
0
 49
-3.1749999999999998
 74
0
  0
LTYPE
  5
3F
100
AcDbSymbolTableRecord
100
AcDbLinetypeTableRecord
  2
ACAD_ISO04W100
 70
0
  3
ISO long-dash dot ____ . ____ . ____ . ____ . _
 72
65
 73
4
 40
30.0
 49
24.0
 74
0
 49
-3.0
 74
0
 49
0.0
 74
0
 49
-3.0
 74
0
  0
LTYPE
  5
40
100
AcDbSymbolTableRecord
100
AcDbLinetypeTableRecord
  2
ACAD_ISO03W100
 70
0
  3
ISO dash space __    __    __    __    __    __
 72
65
 73
2
 40
30.0
 49
12.0
 74
0
 49
-18.0
 74
0
  0
LTYPE
  5
41
100
AcDbSymbolTableRecord
100
AcDbLinetypeTableRecord
  2
DIVIDE2
 70
0
  3
Divide (.5x) __..__..__..__..__..__..__..__.._
 72
65
 73
6
 40
15.875
 49
6.3499999999999996
 74
0
 49
-3.1749999999999998
 74
0
 49
0.0
 74
0
 49
-3.1749999999999998
 74
0
 49
0.0
 74
0
 49
-3.1749999999999998
 74
0
  0
LTYPE
  5
42
100
AcDbSymbolTableRecord
100
AcDbLinetypeTableRecord
  2
DIVIDE
 70
0
  3
Divide ____ . . ____ . . ____ . . ____ . . ____
 72
65
 73
6
 40
31.75
 49
12.6999999999999993
 74
0
 49
-6.3499999999999996
 74
0
 49
0.0
 74
0
 49
-6.3499999999999996
 74
0
 49
0.0
 74
0
 49
-6.3499999999999996
 74
0
  0
LTYPE
  5
43
100
AcDbSymbolTableRecord
100
AcDbLinetypeTableRecord
  2
HIDDEN
 70
0
  3
- - - - - - - - - - - - - - - - - - - -
 72
65
 73
2
 40
0.2
 49
0.1
 74
0
 49
-0.1
 74
0
  0
LTYPE
  5
44
100
AcDbSymbolTableRecord
100
AcDbLinetypeTableRecord
  2
DIVIDEX2
 70
0
  3
Divide (2x) ________  .  .  ________  .  .  _
 72
65
 73
6
 40
63.5
 49
25.3999999999999986
 74
0
 49
-12.6999999999999993
 74
0
 49
0.0
 74
0
 49
-12.6999999999999993
 74
0
 49
0.0
 74
0
 49
-12.6999999999999993
 74
0
  0
LTYPE
  5
45
100
AcDbSymbolTableRecord
100
AcDbLinetypeTableRecord
  2
DASHEDX2
 70
0
  3
Dashed (2x) ____  ____  ____  ____  ____  ___
 72
65
 73
2
 40
38.0999999999999943
 49
25.3999999999999986
 74
0
 49
-12.6999999999999993
 74
0
  0
LTYPE
  5
46
100
AcDbSymbolTableRecord
100
AcDbLinetypeTableRecord
  2
ACAD_ISO12W100
 70
0
  3
ISO dash double-dot __ . . __ . . __ . . __ . . 
 72
65
 73
6
 40
21.0
 49
12.0
 74
0
 49
-3.0
 74
0
 49
0.0
 74
0
 49
-3.0
 74
0
 49
0.0
 74
0
 49
-3.0
 74
0
  0
LTYPE
  5
15
100
AcDbSymbolTableRecord
100
AcDbLinetypeTableRecord
  2
BYLAYER
 70
0
  3

 72
65
 73
0
 40
0.0
  0
LTYPE
  5
47
100
AcDbSymbolTableRecord
100
AcDbLinetypeTableRecord
  2
DASHDOT
 70
0
  3
Dash dot __ . __ . __ . __ . __ . __ . __ . __
 72
65
 73
4
 40
25.3999999999999986
 49
12.6999999999999993
 74
0
 49
-6.3499999999999996
 74
0
 49
0.0
 74
0
 49
-6.3499999999999996
 74
0
  0
LTYPE
  5
48
100
AcDbSymbolTableRecord
100
AcDbLinetypeTableRecord
  2
CENTERX2
 70
0
  3
Center (2x) ________  __  ________  __  _____
 72
65
 73
4
 40
101.6000000000000085
 49
63.5
 74
0
 49
-12.6999999999999993
 74
0
 49
12.6999999999999993
 74
0
 49
-12.6999999999999993
 74
0
  0
LTYPE
  5
49
100
AcDbSymbolTableRecord
100
AcDbLinetypeTableRecord
  2
BORDER
 70
0
  3
Border __ __ . __ __ . __ __ . __ __ . __ __ .
 72
65
 73
6
 40
44.4499999999999957
 49
12.6999999999999993
 74
0
 49
-6.3499999999999996
 74
0
 49
12.6999999999999993
 74
0
 49
-6.3499999999999996
 74
0
 49
0.0
 74
0
 49
-6.3499999999999996
 74
0
  0
LTYPE
  5
4A
100
AcDbSymbolTableRecord
100
AcDbLinetypeTableRecord
  2
PHANTOM
 70
0
  3
_____ _ _ _____ _ _ _____ _ _ _____
 72
65
 73
6
 40
0.8
 49
0.45
 74
0
 49
-0.05
 74
0
 49
0.1
 74
0
 49
-0.05
 74
0
 49
0.1
 74
0
 49
-0.05
 74
0
  0
LTYPE
  5
4B
100
AcDbSymbolTableRecord
100
AcDbLinetypeTableRecord
  2
BORDERX2
 70
0
  3
Border (2x) ____  ____  .  ____  ____  .  ___
 72
65
 73
6
 40
88.8999999999999915
 49
25.3999999999999986
 74
0
 49
-12.6999999999999993
 74
0
 49
25.3999999999999986
 74
0
 49
-12.6999999999999993
 74
0
 49
0.0
 74
0
 49
-12.6999999999999993
 74
0
  0
LTYPE
  5
4C
100
AcDbSymbolTableRecord
100
AcDbLinetypeTableRecord
  2
PHANTOMX2
 70
0
  3
Phantom (2x) ____________    ____    ____   _
 72
65
 73
6
 40
127.0000000000000142
 49
63.5
 74
0
 49
-12.6999999999999993
 74
0
 49
12.6999999999999993
 74
0
 49
-12.6999999999999993
 74
0
 49
12.6999999999999993
 74
0
 49
-12.6999999999999993
 74
0
  0
LTYPE
  5
4D
100
AcDbSymbolTableRecord
100
AcDbLinetypeTableRecord
  2
DASHDOT2
 70
0
  3
Dash dot (.5x) _._._._._._._._._._._._._._._.
 72
65
 73
4
 40
12.6999999999999993
 49
6.3499999999999996
 74
0
 49
-3.1749999999999998
 74
0
 49
0.0
 74
0
 49
-3.1749999999999998
 74
0
  0
LTYPE
  5
4E
100
AcDbSymbolTableRecord
100
AcDbLinetypeTableRecord
  2
ACAD_ISO09W100
 70
0
  3
ISO long-dash double-short-dash ____ __ __ ____
 72
65
 73
6
 40
45.0
 49
24.0
 74
0
 49
-3.0
 74
0
 49
6.0
 74
0
 49
-3.0
 74
0
 49
6.0
 74
0
 49
-3.0
 74
0
  0
LTYPE
  5
4F
100
AcDbSymbolTableRecord
100
AcDbLinetypeTableRecord
  2
HIDDEN2
 70
0
  3
Hidden (.5x) _ _ _ _ _ _ _ _ _ _ _ _ _ _ _ _ _ 
 72
65
 73
2
 40
4.7624999999999993
 49
3.1749999999999998
 74
0
 49
-1.5874999999999999
 74
0
  0
LTYPE
  5
50
100
AcDbSymbolTableRecord
100
AcDbLinetypeTableRecord
  2
ACAD_ISO06W100
 70
0
  3
ISO long-dash triple-dot ____ ... ____ ... ____
 72
65
 73
8
 40
36.0
 49
24.0
 74
0
 49
-3.0
 74
0
 49
0.0
 74
0
 49
-3.0
 74
0
 49
0.0
 74
0
 49
-3.0
 74
0
 49
0.0
 74
0
 49
-3.0
 74
0
  0
LTYPE
  5
51
100
AcDbSymbolTableRecord
100
AcDbLinetypeTableRecord
  2
DASHED2
 70
0
  3
Dashed (.5x) _ _ _ _ _ _ _ _ _ _ _ _ _ _ _ _ _ 
 72
65
 73
2
 40
9.5249999999999986
 49
6.3499999999999996
 74
0
 49
-3.1749999999999998
 74
0
  0
LTYPE
  5
52
100
AcDbSymbolTableRecord
100
AcDbLinetypeTableRecord
  2
ACAD_ISO07W100
 70
0
  3
ISO dot . . . . . . . . . . . . . . . . . . . . 
 72
65
 73
2
 40
3.0
 49
0.0
 74
0
 49
-3.0
 74
0
  0
LTYPE
  5
53
100
AcDbSymbolTableRecord
100
AcDbLinetypeTableRecord
  2
HIDDENX2
 70
0
  3
Hidden (2x) ____ ____ ____ ____ ____ ____ ____ 
 72
65
 73
2
 40
19.0499999999999972
 49
12.6999999999999993
 74
0
 49
-6.3499999999999996
 74
0
  0
LTYPE
  5
54
100
AcDbSymbolTableRecord
100
AcDbLinetypeTableRecord
  2
ACAD_ISO11W100
 70
0
  3
ISO double-dash dot __ __ . __ __ . __ __ . __ _
 72
65
 73
6
 40
33.0
 49
12.0
 74
0
 49
-3.0
 74
0
 49
12.0
 74
0
 49
-3.0
 74
0
 49
0.0
 74
0
 49
-3.0
 74
0
  0
LTYPE
  5
55
100
AcDbSymbolTableRecord
100
AcDbLinetypeTableRecord
  2
DOTX2
 70
0
  3
Dot (2x) .  .  .  .  .  .  .  .  .  .  .  .  .  .
 72
65
 73
2
 40
12.6999999999999993
 49
0.0
 74
0
 49
-12.6999999999999993
 74
0
  0
LTYPE
  5
56
100
AcDbSymbolTableRecord
100
AcDbLinetypeTableRecord
  2
BORDER2
 70
0
  3
Border (.5x) __.__.__.__.__.__.__.__.__.__.__.
 72
65
 73
6
 40
22.2249999999999979
 49
6.3499999999999996
 74
0
 49
-3.1749999999999998
 74
0
 49
6.3499999999999996
 74
0
 49
-3.1749999999999998
 74
0
 49
0.0
 74
0
 49
-3.1749999999999998
 74
0
  0
ENDTAB
  0
TABLE
  2
LAYER
  5
2
100
AcDbSymbolTable
 70
31
  0
LAYER
  5
57
100
AcDbSymbolTableRecord
100
AcDbLayerTableRecord
  2
06_ALL_SURFS
 70
0
 62
7
420
16777215
  6
CONTINUOUS
370
-3
390
F
  0
LAYER
  5
58
100
AcDbSymbolTableRecord
100
AcDbLayerTableRecord
  2
Defpoints
 70
0
 62
7
420
16777215
  6
CONTINUOUS
290
0
370
-3
390
F
  0
LAYER
  5
59
100
AcDbSymbolTableRecord
100
AcDbLayerTableRecord
  2
02_ALL_AXES
 70
0
 62
7
420
16777215
  6
CONTINUOUS
370
-3
390
F
  0
LAYER
  5
5A
100
AcDbSymbolTableRecord
100
AcDbLayerTableRecord
  2
06___PRT_ALL_SURFS
 70
0
 62
7
420
16777215
  6
CONTINUOUS
370
-3
390
F
  0
LAYER
  5
5B
100
AcDbSymbolTableRecord
100
AcDbLayerTableRecord
  2
DEFAULT_3
 70
0
 62
7
420
16777215
  6
PHANTOM
370
-3
390
F
  0
LAYER
  5
5C
100
AcDbSymbolTableRecord
100
AcDbLayerTableRecord
  2
01__ASM_ALL_DTM_PLN
 70
0
 62
7
420
16777215
  6
CONTINUOUS
370
-3
390
F
  0
LAYER
  5
5D
100
AcDbSymbolTableRecord
100
AcDbLayerTableRecord
  2
DEFAULT_2
 70
0
 62
6
420
16711935
  6
HIDDEN
370
-3
390
F
  0
LAYER
  5
5E
100
AcDbSymbolTableRecord
100
AcDbLayerTableRecord
  2
05__ASM_DEF_DTM_CSYS
 70
0
 62
7
420
16777215
  6
CONTINUOUS
370
-3
390
F
  0
LAYER
  5
5F
100
AcDbSymbolTableRecord
100
AcDbLayerTableRecord
  2
03__ASM_ALL_CURVES
 70
0
 62
7
420
16777215
  6
CONTINUOUS
370
-3
390
F
  0
LAYER
  5
60
100
AcDbSymbolTableRecord
100
AcDbLayerTableRecord
  2
NOTE3D
 70
0
 62
7
420
16777215
  6
CONTINUOUS
370
-3
390
F
  0
LAYER
  5
61
100
AcDbSymbolTableRecord
100
AcDbLayerTableRecord
  2
04_ALL_DTM_PNT
 70
0
 62
7
420
16777215
  6
CONTINUOUS
370
-3
390
F
  0
LAYER
  5
62
100
AcDbSymbolTableRecord
100
AcDbLayerTableRecord
  2
03___PRT_ALL_CURVES
 70
0
 62
7
420
16777215
  6
CONTINUOUS
370
-3
390
F
  0
LAYER
  5
63
100
AcDbSymbolTableRecord
100
AcDbLayerTableRecord
  2
0_COMPONENTS
 70
0
 62
7
420
16777215
  6
CONTINUOUS
370
-3
390
F
  0
LAYER
  5
64
100
AcDbSymbolTableRecord
100
AcDbLayerTableRecord
  2
02___PRT_ALL_AXES
 70
0
 62
7
420
16777215
  6
CONTINUOUS
370
-3
390
F
  0
LAYER
  5
65
100
AcDbSymbolTableRecord
100
AcDbLayerTableRecord
  2
01_ALL_DTM_PLN
 70
0
 62
7
420
16777215
  6
CONTINUOUS
370
-3
390
F
  0
LAYER
  5
66
100
AcDbSymbolTableRecord
100
AcDbLayerTableRecord
  2
05___PRT_ALL_DTM_CSYS
 70
0
 62
7
420
16777215
  6
CONTINUOUS
370
-3
390
F
  0
LAYER
  5
67
100
AcDbSymbolTableRecord
100
AcDbLayerTableRecord
  2
04__ASM_ALL_DTM_PNT
 70
0
 62
7
420
16777215
  6
CONTINUOUS
370
-3
390
F
  0
LAYER
  5
68
100
AcDbSymbolTableRecord
100
AcDbLayerTableRecord
  2
DEFAULT_1
 70
0
 62
7
420
16777215
  6
CENTER
370
-3
390
F
  0
LAYER
  5
69
100
AcDbSymbolTableRecord
100
AcDbLayerTableRecord
  2
01___PRT_ALL_DTM_PLN
 70
0
 62
7
420
16777215
  6
CONTINUOUS
370
-3
390
F
  0
LAYER
  5
6A
100
AcDbSymbolTableRecord
100
AcDbLayerTableRecord
  2
06__ASM_ALL_SURFS
 70
0
 62
7
420
16777215
  6
CONTINUOUS
370
-3
390
F
  0
LAYER
  5
6B
100
AcDbSymbolTableRecord
100
AcDbLayerTableRecord
  2
05__ASM_ALL_DTM_CSYS
 70
0
 62
7
420
16777215
  6
CONTINUOUS
370
-3
390
F
  0
LAYER
  5
6C
100
AcDbSymbolTableRecord
100
AcDbLayerTableRecord
  2
03_ALL_CURVES
 70
0
 62
7
420
16777215
  6
CONTINUOUS
370
-3
390
F
  0
LAYER
  5
10
100
AcDbSymbolTableRecord
100
AcDbLayerTableRecord
  2
0
 70
0
 62
7
420
16777215
  6
CONTINUOUS
370
-3
390
F
  0
LAYER
  5
6D
100
AcDbSymbolTableRecord
100
AcDbLayerTableRecord
  2
07__ASM_ALL_SKELETONS
 70
0
 62
7
420
16777215
  6
CONTINUOUS
370
-3
390
F
  0
LAYER
  5
6E
100
AcDbSymbolTableRecord
100
AcDbLayerTableRecord
  2
04___PRT_ALL_DTM_PNT
 70
0
 62
7
420
16777215
  6
CONTINUOUS
370
-3
390
F
  0
LAYER
  5
6F
100
AcDbSymbolTableRecord
100
AcDbLayerTableRecord
  2
NOTE2D
 70
0
 62
7
420
16777215
  6
CONTINUOUS
370
-3
390
F
  0
LAYER
  5
70
100
AcDbSymbolTableRecord
100
AcDbLayerTableRecord
  2
01__ASM_DEF_DTM_PLN
 70
0
 62
7
420
16777215
  6
CONTINUOUS
370
-3
390
F
  0
LAYER
  5
71
100
AcDbSymbolTableRecord
100
AcDbLayerTableRecord
  2
05_ALL_DTM_CSYS
 70
0
 62
7
420
16777215
  6
CONTINUOUS
370
-3
390
F
  0
LAYER
  5
72
100
AcDbSymbolTableRecord
100
AcDbLayerTableRecord
  2
01___PRT_DEF_DTM_PLN
 70
0
 62
7
420
16777215
  6
CONTINUOUS
370
-3
390
F
  0
LAYER
  5
73
100
AcDbSymbolTableRecord
100
AcDbLayerTableRecord
  2
02__ASM_ALL_AXES
 70
0
 62
7
420
16777215
  6
CONTINUOUS
370
-3
390
F
  0
LAYER
  5
74
100
AcDbSymbolTableRecord
100
AcDbLayerTableRecord
  2
05___PRT_DEF_DTM_CSYS
 70
0
 62
7
420
16777215
  6
CONTINUOUS
370
-3
390
F
  0
ENDTAB
  0
TABLE
  2
STYLE
  5
3
100
AcDbSymbolTable
 70
36
  0
STYLE
  5
75
100
AcDbSymbolTableRecord
100
AcDbTextStyleTableRecord
  2
Standard
 70
0
 40
0.0
 41
1.0
 50
0.0
 71
0
 42
2.5
  3

  4

1001
ACAD
1000
txt
1071
0
  0
STYLE
  5
76
100
AcDbSymbolTableRecord
100
AcDbTextStyleTableRecord
  2
textstyle0
 70
0
 40
0.0
 41
1.0
 50
0.0
 71
0
 42
0.3125
  3

  4

1001
ACAD
1000
Standard
1071
0
  0
STYLE
  5
77
100
AcDbSymbolTableRecord
100
AcDbTextStyleTableRecord
  2
textstyle1
 70
0
 40
0.0
 41
1.0
 50
0.0
 71
0
 42
0.3125
  3

  4

1001
ACAD
1000
Standard
1071
0
  0
STYLE
  5
78
100
AcDbSymbolTableRecord
100
AcDbTextStyleTableRecord
  2
textstyle2
 70
0
 40
0.0
 41
1.0
 50
0.0
 71
0
 42
0.3125
  3

  4

1001
ACAD
1000
Standard
1071
0
  0
STYLE
  5
79
100
AcDbSymbolTableRecord
100
AcDbTextStyleTableRecord
  2
textstyle3
 70
0
 40
0.0
 41
1.0
 50
0.0
 71
0
 42
0.3125
  3

  4

1001
ACAD
1000
Standard
1071
0
  0
STYLE
  5
7A
100
AcDbSymbolTableRecord
100
AcDbTextStyleTableRecord
  2
textstyle4
 70
0
 40
0.0
 41
1.0
 50
0.0
 71
0
 42
0.3125
  3

  4

1001
ACAD
1000
Standard
1071
0
  0
STYLE
  5
7B
100
AcDbSymbolTableRecord
100
AcDbTextStyleTableRecord
  2
textstyle5
 70
0
 40
0.0
 41
1.0
 50
0.0
 71
0
 42
0.3125
  3

  4

1001
ACAD
1000
Standard
1071
0
  0
STYLE
  5
7C
100
AcDbSymbolTableRecord
100
AcDbTextStyleTableRecord
  2
textstyle6
 70
0
 40
0.0
 41
1.0
 50
0.0
 71
0
 42
0.3125
  3

  4

1001
ACAD
1000
Standard
1071
0
  0
STYLE
  5
7D
100
AcDbSymbolTableRecord
100
AcDbTextStyleTableRecord
  2
textstyle7
 70
0
 40
0.0
 41
1.0
 50
0.0
 71
0
 42
0.3125
  3

  4

1001
ACAD
1000
Standard
1071
0
  0
STYLE
  5
7E
100
AcDbSymbolTableRecord
100
AcDbTextStyleTableRecord
  2
textstyle8
 70
0
 40
0.0
 41
1.0
 50
0.0
 71
0
 42
0.3125
  3

  4

1001
ACAD
1000
Standard
1071
0
  0
STYLE
  5
7F
100
AcDbSymbolTableRecord
100
AcDbTextStyleTableRecord
  2
textstyle9
 70
0
 40
0.0
 41
1.0
 50
0.0
 71
0
 42
0.3125
  3

  4

1001
ACAD
1000
Standard
1071
0
  0
STYLE
  5
80
100
AcDbSymbolTableRecord
100
AcDbTextStyleTableRecord
  2
textstyle10
 70
0
 40
0.0
 41
1.0
 50
0.0
 71
0
 42
0.3125
  3

  4

1001
ACAD
1000
Standard
1071
0
  0
STYLE
  5
81
100
AcDbSymbolTableRecord
100
AcDbTextStyleTableRecord
  2
textstyle11
 70
0
 40
0.0
 41
1.0
 50
0.0
 71
0
 42
0.3125
  3

  4

1001
ACAD
1000
Standard
1071
0
  0
STYLE
  5
82
100
AcDbSymbolTableRecord
100
AcDbTextStyleTableRecord
  2
textstyle12
 70
0
 40
0.0
 41
1.0
 50
0.0
 71
0
 42
0.3125
  3

  4

1001
ACAD
1000
Standard
1071
0
  0
STYLE
  5
83
100
AcDbSymbolTableRecord
100
AcDbTextStyleTableRecord
  2
textstyle13
 70
0
 40
0.0
 41
1.0
 50
0.0
 71
0
 42
0.3125
  3

  4

1001
ACAD
1000
Standard
1071
0
  0
STYLE
  5
84
100
AcDbSymbolTableRecord
100
AcDbTextStyleTableRecord
  2
textstyle14
 70
0
 40
0.0
 41
1.0
 50
0.0
 71
0
 42
0.3125
  3

  4

1001
ACAD
1000
Standard
1071
0
  0
STYLE
  5
85
100
AcDbSymbolTableRecord
100
AcDbTextStyleTableRecord
  2
textstyle15
 70
0
 40
0.0
 41
1.0
 50
0.0
 71
0
 42
0.3125
  3

  4

1001
ACAD
1000
Standard
1071
0
  0
STYLE
  5
86
100
AcDbSymbolTableRecord
100
AcDbTextStyleTableRecord
  2
textstyle16
 70
0
 40
0.0
 41
1.0
 50
0.0
 71
0
 42
0.3125
  3

  4

1001
ACAD
1000
Standard
1071
0
  0
STYLE
  5
87
100
AcDbSymbolTableRecord
100
AcDbTextStyleTableRecord
  2
textstyle17
 70
0
 40
0.0
 41
1.0
 50
0.0
 71
0
 42
0.3125
  3

  4

1001
ACAD
1000
Standard
1071
0
  0
STYLE
  5
88
100
AcDbSymbolTableRecord
100
AcDbTextStyleTableRecord
  2
textstyle18
 70
0
 40
0.0
 41
1.0
 50
0.0
 71
0
 42
7.0
  3

  4

1001
ACAD
1000
Standard
1071
0
  0
STYLE
  5
89
100
AcDbSymbolTableRecord
100
AcDbTextStyleTableRecord
  2
textstyle19
 70
0
 40
0.0
 41
1.0
 50
0.0
 71
0
 42
0.3125
  3

  4

1001
ACAD
1000
Standard
1071
0
  0
STYLE
  5
8A
100
AcDbSymbolTableRecord
100
AcDbTextStyleTableRecord
  2
textstyle20
 70
0
 40
0.0
 41
1.0
 50
0.0
 71
0
 42
0.3125
  3

  4

1001
ACAD
1000
Standard
1071
0
  0
STYLE
  5
8B
100
AcDbSymbolTableRecord
100
AcDbTextStyleTableRecord
  2
textstyle21
 70
0
 40
0.0
 41
1.0
 50
0.0
 71
0
 42
0.3125
  3

  4

1001
ACAD
1000
Standard
1071
0
  0
STYLE
  5
8C
100
AcDbSymbolTableRecord
100
AcDbTextStyleTableRecord
  2
textstyle22
 70
0
 40
0.0
 41
1.0
 50
0.0
 71
0
 42
0.3125
  3

  4

1001
ACAD
1000
Standard
1071
0
  0
STYLE
  5
8D
100
AcDbSymbolTableRecord
100
AcDbTextStyleTableRecord
  2
textstyle23
 70
0
 40
0.0
 41
1.0
 50
0.0
 71
0
 42
0.3125
  3

  4

1001
ACAD
1000
Standard
1071
0
  0
STYLE
  5
8E
100
AcDbSymbolTableRecord
100
AcDbTextStyleTableRecord
  2
textstyle24
 70
0
 40
0.0
 41
1.0
 50
0.0
 71
0
 42
0.3125
  3

  4

1001
ACAD
1000
Standard
1071
0
  0
STYLE
  5
8F
100
AcDbSymbolTableRecord
100
AcDbTextStyleTableRecord
  2
textstyle25
 70
0
 40
0.0
 41
1.0
 50
0.0
 71
0
 42
4.0
  3

  4

1001
ACAD
1000
Standard
1071
0
  0
STYLE
  5
90
100
AcDbSymbolTableRecord
100
AcDbTextStyleTableRecord
  2
textstyle26
 70
0
 40
0.0
 41
1.0
 50
0.0
 71
0
 42
4.0
  3

  4

1001
ACAD
1000
Standard
1071
0
  0
STYLE
  5
91
100
AcDbSymbolTableRecord
100
AcDbTextStyleTableRecord
  2
textstyle27
 70
0
 40
0.0
 41
1.0
 50
0.0
 71
0
 42
7.0
  3

  4

1001
ACAD
1000
Standard
1071
0
  0
STYLE
  5
92
100
AcDbSymbolTableRecord
100
AcDbTextStyleTableRecord
  2
textstyle28
 70
0
 40
0.0
 41
1.0
 50
0.0
 71
0
 42
8.0
  3

  4

1001
ACAD
1000
Standard
1071
0
  0
STYLE
  5
93
100
AcDbSymbolTableRecord
100
AcDbTextStyleTableRecord
  2
textstyle29
 70
0
 40
0.0
 41
1.0
 50
0.0
 71
0
 42
8.0
  3

  4

1001
ACAD
1000
Standard
1071
0
  0
STYLE
  5
94
100
AcDbSymbolTableRecord
100
AcDbTextStyleTableRecord
  2
textstyle30
 70
0
 40
0.0
 41
1.0
 50
0.0
 71
0
 42
8.0
  3

  4

1001
ACAD
1000
Standard
1071
0
  0
STYLE
  5
95
100
AcDbSymbolTableRecord
100
AcDbTextStyleTableRecord
  2
textstyle31
 70
0
 40
0.0
 41
1.0
 50
0.0
 71
0
 42
7.0
  3

  4

1001
ACAD
1000
Standard
1071
0
  0
STYLE
  5
96
100
AcDbSymbolTableRecord
100
AcDbTextStyleTableRecord
  2
textstyle32
 70
0
 40
0.0
 41
1.0
 50
0.0
 71
0
 42
4.0
  3

  4

1001
ACAD
1000
Standard
1071
0
  0
STYLE
  5
97
100
AcDbSymbolTableRecord
100
AcDbTextStyleTableRecord
  2
textstyle33
 70
0
 40
0.0
 41
1.0
 50
0.0
 71
0
 42
4.0
  3

  4

1001
ACAD
1000
Standard
1071
0
  0
STYLE
  5
98
100
AcDbSymbolTableRecord
100
AcDbTextStyleTableRecord
  2
textstyle34
 70
0
 40
0.0
 41
1.0
 50
0.0
 71
0
 42
5.7999883175000004
  3

  4

1001
ACAD
1000
arial
1071
0
  0
ENDTAB
  0
TABLE
  2
VIEW
  5
6
100
AcDbSymbolTable
 70
0
  0
ENDTAB
  0
TABLE
  2
UCS
  5
7
100
AcDbSymbolTable
 70
0
  0
ENDTAB
  0
TABLE
  2
APPID
  5
9
100
AcDbSymbolTable
 70
1
  0
APPID
  5
12
100
AcDbSymbolTableRecord
100
AcDbRegAppTableRecord
  2
ACAD
 70
0
  0
APPID
  5
99
100
AcDbSymbolTableRecord
100
AcDbRegAppTableRecord
  2
QCAD
 70
0
  0
ENDTAB
  0
TABLE
  2
DIMSTYLE
  5
A
100
AcDbSymbolTable
 70
1
100
AcDbDimStyleTable
 71
0
  0
DIMSTYLE
105
27
100
AcDbSymbolTableRecord
100
AcDbDimStyleTableRecord
  2
Standard
 41
6.0
 42
1.5
 43
3.75
 44
1.0
 70
0
 73
1
 74
0
 77
0
 78
8
140
7.0
141
2.5
143
0.03937007874016
147
0.625
171
3
172
1
271
2
272
2
274
3
278
44
283
0
284
8
340
75
  0
ENDTAB
  0
TABLE
  2
BLOCK_RECORD
  5
1
100
AcDbSymbolTable
 70
1
  0
BLOCK_RECORD
  5
1F
100
AcDbSymbolTableRecord
100
AcDbBlockTableRecord
  2
*Model_Space
340
22
  0
BLOCK_RECORD
  5
1B
100
AcDbSymbolTableRecord
100
AcDbBlockTableRecord
  2
*Paper_Space
340
1E
  0
BLOCK_RECORD
  5
23
100
AcDbSymbolTableRecord
100
AcDbBlockTableRecord
  2
*Paper_Space0
340
26
  0
ENDTAB
  0
ENDSEC
  0
SECTION
  2
BLOCKS
  0
BLOCK
  5
20
100
AcDbEntity
  8
0
100
AcDbBlockBegin
  2
*Model_Space
 70
0
 10
0.0
 20
0.0
 30
0.0
  3
*Model_Space
  1

  0
ENDBLK
  5
21
100
AcDbEntity
  8
0
100
AcDbBlockEnd
  0
BLOCK
  5
1C
100
AcDbEntity
 67
1
  8
0
100
AcDbBlockBegin
  2
*Paper_Space
 70
0
 10
0.0
 20
0.0
 30
0.0
  3
*Paper_Space
  1

  0
ENDBLK
  5
1D
100
AcDbEntity
 67
1
  8
0
100
AcDbBlockEnd
  0
BLOCK
  5
24
100
AcDbEntity
  8
0
100
AcDbBlockBegin
  2
*Paper_Space0
 70
0
 10
0.0
 20
0.0
 30
0.0
  3
*Paper_Space0
  1

  0
ENDBLK
  5
25
100
AcDbEntity
  8
0
100
AcDbBlockEnd
  0
ENDSEC
  0
SECTION
  2
ENTITIES
  0
DIMENSION
  5
111
100
AcDbEntity
  8
0
 62
3
420
65280
370
-1
 48
1.0
  6
CONTINUOUS
100
AcDbDimension
 10
252.4279132323999875
 20
386.0880535669999745
 30
0.0
 11
252.4279132323999875
 21
382.0880641626999932
 31
0.0
 70
128
 71
8
 72
2
 74
0
 75
0
 41
0.9
 42
0.0
  1

  3
Standard
100
AcDbAlignedDimension
 13
275.9279132323999875
 23
380.0880535669999745
 33
0.0
 14
275.9279132323999875
 24
386.0880535669999745
 34
0.0
 50
90.0
100
AcDbRotatedDimension
1001
ACAD
1000
DSTYLE
1002
{
1070
279
1070
2
1070
144
1040
1.0
1070
40
1040
1.0
1002
}
  0
DIMENSION
  5
112
100
AcDbEntity
  8
0
 62
3
420
65280
370
-1
 48
1.0
  6
CONTINUOUS
100
AcDbDimension
 10
275.9279132323999875
 20
386.0880535669999745
 30
0.0
 11
284.6592289757999765
 21
422.6836231368000085
 31
0.0
 70
130
 71
8
 72
2
 74
0
 75
0
 41
0.9
 42
0.0
  1

  3
Standard
100
AcDb2LineAngularDimension
 13
316.4279132323999875
 23
432.5646120075999761
 33
0.0
 14
316.4279132323999875
 24
433.049223708999989
 34
0.0
 15
276.4125249338000003
 25
386.0880535669999745
 35
0.0
 16
282.1606912007000005
 26
420.3552755987000182
 36
0.0
  0
DIMENSION
  5
113
100
AcDbEntity
  8
0
 62
3
420
65280
370
-1
 48
1.0
  6
CONTINUOUS
100
AcDbDimension
 10
75.3704226663000014
 20
536.1246760084000016
 30
0.0
 11
64.3704306640999988
 21
536.1246760084000016
 31
0.0
 70
128
 71
8
 72
2
 74
0
 75
0
 41
0.9
 42
0.0
  1

  3
Standard
100
AcDbAlignedDimension
 13
55.3704226663000014
 23
501.5880535669999745
 33
0.0
 14
75.3704226663000014
 24
488.6665631760999986
 34
0.0
 50
0.0
100
AcDbRotatedDimension
1001
ACAD
1000
DSTYLE
1002
{
1070
279
1070
2
1070
144
1040
1.0
1070
40
1040
1.0
1002
}
  0
DIMENSION
  5
114
100
AcDbEntity
  8
0
 62
3
420
65280
370
-1
 48
1.0
  6
CONTINUOUS
100
AcDbDimension
 10
33.2263590104999977
 20
480.0880535669999745
 30
0.0
 11
33.2263590104999977
 21
491.5880500252999923
 31
0.0
 70
128
 71
8
 72
2
 74
0
 75
0
 41
0.9
 42
0.0
  1

  3
Standard
100
AcDbAlignedDimension
 13
58.8704226663000014
 23
505.0880535669999745
 33
0.0
 14
64.6257401426000087
 24
480.0880535669999745
 34
0.0
 50
270.0
100
AcDbRotatedDimension
1001
ACAD
1000
DSTYLE
1002
{
1070
279
1070
2
1070
144
1040
1.0
1070
40
1040
1.0
1002
}
  0
DIMENSION
  5
115
100
AcDbEntity
  8
0
 62
3
420
65280
370
-1
 48
1.0
  6
CONTINUOUS
100
AcDbDimension
 10
75.3704226663000014
 20
324.8703177178999795
 30
0.0
 11
64.3704306640999988
 21
324.8703177178999795
 31
0.0
 70
128
 71
8
 72
2
 74
0
 75
0
 41
0.9
 42
0.0
  1

  3
Standard
100
AcDbAlignedDimension
 13
55.3704226663000014
 23
281.3703177178999795
 33
0.0
 14
75.3704226663000014
 24
275.2668314929999838
 34
0.0
 50
0.0
100
AcDbRotatedDimension
1001
ACAD
1000
DSTYLE
1002
{
1070
279
1070
2
1070
144
1040
1.0
1070
40
1040
1.0
1002
}
  0
DIMENSION
  5
116
100
AcDbEntity
  8
0
 62
3
420
65280
370
-1
 48
1.0
  6
CONTINUOUS
100
AcDbDimension
 10
171.1204226662999872
 20
523.6075172089999796
 30
0.0
 11
190.9927734375000057
 21
523.6075172089999796
 31
0.0
 70
128
 71
8
 72
2
 74
0
 75
0
 41
0.9
 42
0.0
  1

  3
Standard
100
AcDbAlignedDimension
 13
179.6204226662999872
 23
487.3380535669999745
 33
0.0
 14
171.1204226662999872
 24
487.3380535669999745
 34
0.0
 50
180.0
100
AcDbRotatedDimension
1001
ACAD
1000
DSTYLE
1002
{
1070
279
1070
2
1070
144
1040
1.0
1070
40
1040
1.0
1002
}
  0
DIMENSION
  5
117
100
AcDbEntity
  8
0
 62
3
420
65280
370
-1
 48
1.0
  6
CONTINUOUS
100
AcDbDimension
 10
210.1789369283000042
 20
470.0880535669999745
 30
0.0
 11
210.1789369283000042
 21
479.088049255899989
 31
0.0
 70
128
 71
8
 72
2
 74
0
 75
0
 41
0.9
 42
0.0
  1

  3
Standard
100
AcDbAlignedDimension
 13
176.8704226662999872
 23
490.0880535669999745
 33
0.0
 14
176.8704226662999872
 24
470.0880535669999745
 34
0.0
 50
270.0
100
AcDbRotatedDimension
1001
ACAD
1000
DSTYLE
1002
{
1070
279
1070
2
1070
144
1040
1.0
1070
40
1040
1.0
1002
}
  0
DIMENSION
  5
118
100
AcDbEntity
  8
0
 62
3
420
65280
370
-1
 48
1.0
  6
CONTINUOUS
100
AcDbDimension
 10
125.3704226663000014
 20
536.1246760084000016
 30
0.0
 11
149.3704277344000104
 21
536.1246760084000016
 31
0.0
 70
128
 71
8
 72
2
 74
0
 75
0
 41
0.9
 42
0.0
  1

  3
Standard
100
AcDbAlignedDimension
 13
175.3704226662999872
 23
492.5880535669999745
 33
0.0
 14
125.3704226663000014
 24
492.5880535669999745
 34
0.0
 50
180.0
100
AcDbRotatedDimension
1001
ACAD
1000
DSTYLE
1002
{
1070
279
1070
2
1070
144
1040
1.0
1070
40
1040
1.0
1002
}
  0
DIMENSION
  5
119
100
AcDbEntity
  8
0
 62
3
420
65280
370
-1
 48
1.0
  6
CONTINUOUS
100
AcDbDimension
 10
125.3704226663000014
 20
536.1246760084000016
 30
0.0
 11
97.2281396484000027
 21
536.1246760084000016
 31
0.0
 70
128
 71
8
 72
2
 74
0
 75
0
 41
0.9
 42
0.0
  1

  3
Standard
100
AcDbAlignedDimension
 13
75.3704226663000014
 23
492.5880535669999745
 33
0.0
 14
125.3704226663000014
 24
492.5880535669999745
 34
0.0
 50
0.0
100
AcDbRotatedDimension
1001
ACAD
1000
DSTYLE
1002
{
1070
279
1070
2
1070
144
1040
1.0
1070
40
1040
1.0
1002
}
  0
DIMENSION
  5
11A
100
AcDbEntity
  8
0
 62
3
420
65280
370
-1
 48
1.0
  6
CONTINUOUS
100
AcDbDimension
 10
195.3704226662999872
 20
355.6939403594000169
 30
0.0
 11
124.3704248046999936
 21
355.6939403594000169
 31
0.0
 70
128
 71
8
 72
2
 74
0
 75
0
 41
0.9
 42
0.0
  1

  3
Standard
100
AcDbAlignedDimension
 13
55.3704226663000014
 23
378.5880535669999745
 33
0.0
 14
195.3704226662999872
 24
378.5880535669999745
 34
0.0
 50
0.0
100
AcDbRotatedDimension
1001
ACAD
1000
DSTYLE
1002
{
1070
279
1070
2
1070
144
1040
1.0
1070
40
1040
1.0
1002
}
  0
DIMENSION
  5
11B
100
AcDbEntity
  8
0
 62
3
420
65280
370
-1
 48
1.0
  6
CONTINUOUS
100
AcDbDimension
 10
272.4279132323999875
 20
360.0880535669999745
 30
0.0
 11
296.4279023437999854
 21
360.0880535669999745
 31
0.0
 70
128
 71
8
 72
2
 74
0
 75
0
 41
0.9
 42
0.0
  1

  3
Standard
100
AcDbAlignedDimension
 13
322.4279132323999875
 23
378.5880535669999745
 33
0.0
 14
272.4279132323999875
 24
378.5880535669999745
 34
0.0
 50
180.0
100
AcDbRotatedDimension
1001
ACAD
1000
DSTYLE
1002
{
1070
279
1070
2
1070
144
1040
1.0
1070
40
1040
1.0
1002
}
  0
DIMENSION
  5
11C
100
AcDbEntity
  8
0
 62
3
420
65280
370
-1
 48
1.0
  6
CONTINUOUS
100
AcDbDimension
 10
179.8704226662999872
 20
304.8703177178999795
 30
0.0
 11
194.2587099609000063
 21
304.8703177178999795
 31
0.0
 70
128
 71
8
 72
2
 74
0
 75
0
 41
0.9
 42
0.0
  1

  3
Standard
100
AcDbAlignedDimension
 13
170.8704226662999872
 23
276.3703177178999795
 33
0.0
 14
179.8704226662999872
 24
276.3703177178999795
 34
0.0
 50
0.0
100
AcDbRotatedDimension
1001
ACAD
1000
DSTYLE
1002
{
1070
279
1070
2
1070
144
1040
1.0
1070
40
1040
1.0
1002
}
  0
DIMENSION
  5
11D
100
AcDbEntity
  8
0
 62
3
420
65280
370
-1
 48
1.0
  6
CONTINUOUS
100
AcDbDimension
 10
212.7540206474000115
 20
254.3703177179000079
 30
0.0
 11
212.7540206474000115
 21
265.8703117189999716
 31
0.0
 70
128
 71
8
 72
2
 74
0
 75
0
 41
0.9
 42
0.0
  1

  3
Standard
100
AcDbAlignedDimension
 13
176.8704226662999872
 23
279.3703177178999795
 33
0.0
 14
176.8704226662999872
 24
254.3703177179000079
 34
0.0
 50
270.0
100
AcDbRotatedDimension
1001
ACAD
1000
DSTYLE
1002
{
1070
279
1070
2
1070
144
1040
1.0
1070
40
1040
1.0
1002
}
  0
DIMENSION
  5
11E
100
AcDbEntity
  8
0
 62
3
420
65280
370
-1
 48
1.0
  6
CONTINUOUS
100
AcDbDimension
 10
370.4279132323999875
 20
380.0880535669999745
 30
0.0
 11
370.4279132323999875
 21
441.5880602565000004
 31
0.0
 70
128
 71
8
 72
2
 74
0
 75
0
 41
0.9
 42
0.0
  1

  3
Standard
100
AcDbAlignedDimension
 13
323.9279132323999875
 23
505.0880535669999745
 33
0.0
 14
323.9279132323999875
 24
380.0880535669999745
 34
0.0
 50
270.0
100
AcDbRotatedDimension
1001
ACAD
1000
DSTYLE
1002
{
1070
279
1070
2
1070
144
1040
1.0
1070
40
1040
1.0
1002
}
  0
DIMENSION
  5
11F
100
AcDbEntity
  8
0
 62
3
420
65280
370
-1
 48
1.0
  6
CONTINUOUS
100
AcDbDimension
 10
60.3704226663000014
 20
279.8703177178999795
 30
0.0
 11
42.5846509834999978
 21
295.9280238811999766
 31
0.0
 70
132
 71
8
 72
2
 74
0
 41
0.9
 42
0.0
  1
R<>
  3
Standard
100
AcDbRadialDimension
 15
56.0152561018000128
 25
282.3264374615999941
 35
0.0
 40
0.0
1001
ACAD
1000
DSTYLE
1002
{
1070
279
1070
2
1070
144
1040
1.0
1070
40
1040
1.0
1002
}
  0
DIMENSION
  5
120
100
AcDbEntity
  8
0
 62
3
420
65280
370
-1
 48
1.0
  6
CONTINUOUS
100
AcDbDimension
 10
75.3704226663000014
 20
324.8703177178999795
 30
0.0
 11
124.3704248046999936
 21
324.8703177178999795
 31
0.0
 70
128
 71
8
 72
2
 74
0
 75
0
 41
0.9
 42
0.0
  1

  3
Standard
100
AcDbAlignedDimension
 13
175.3704226662999872
 23
287.9787599820999731
 33
0.0
 14
75.3704226663000014
 24
282.8334497934000069
 34
0.0
 50
180.0
100
AcDbRotatedDimension
1001
ACAD
1000
DSTYLE
1002
{
1070
279
1070
2
1070
144
1040
1.0
1070
40
1040
1.0
1002
}
  0
DIMENSION
  5
121
100
AcDbEntity
  8
0
 62
3
420
65280
370
-1
 48
1.0
  6
CONTINUOUS
100
AcDbDimension
 10
330.4279132323999875
 20
525.0880535669999745
 30
0.0
 11
325.4279199219000134
 21
525.0880535669999745
 31
0.0
 70
128
 71
8
 72
2
 74
0
 75
0
 41
0.9
 42
0.0
  1

  3
Standard
100
AcDbAlignedDimension
 13
322.4279132323999875
 23
501.5880535669999745
 33
0.0
 14
330.4279132323999875
 24
501.5880535669999745
 34
0.0
 50
0.0
100
AcDbRotatedDimension
1001
ACAD
1000
DSTYLE
1002
{
1070
279
1070
2
1070
144
1040
1.0
1070
40
1040
1.0
1002
}
  0
DIMENSION
  5
122
100
AcDbEntity
  8
0
 62
3
420
65280
370
-1
 48
1.0
  6
CONTINUOUS
100
AcDbDimension
 10
350.4279132323999875
 20
505.0880535669999745
 30
0.0
 11
350.4279132323999875
 21
479.088038772099992
 31
0.0
 70
128
 71
8
 72
2
 74
0
 75
0
 41
0.9
 42
0.0
  1

  3
Standard
100
AcDbAlignedDimension
 13
323.9279132323999875
 23
455.0880535669999745
 33
0.0
 14
323.9279132323999875
 24
505.0880535669999745
 34
0.0
 50
90.0
100
AcDbRotatedDimension
1001
ACAD
1000
DSTYLE
1002
{
1070
279
1070
2
1070
144
1040
1.0
1070
40
1040
1.0
1002
}
  0
DIMENSION
  5
123
100
AcDbEntity
  8
0
 62
3
420
65280
370
-1
 48
1.0
  6
CONTINUOUS
100
AcDbDimension
 10
60.3704226663000014
 20
500.0880535669999745
 30
0.0
 11
41.900793541699997
 21
525.9823038939999833
 31
0.0
 70
132
 71
8
 72
2
 74
0
 41
0.9
 42
0.0
  1
R<>
  3
Standard
100
AcDbRadialDimension
 15
56.8348887603999984
 25
503.6235874728999988
 35
0.0
 40
0.0
1001
ACAD
1000
DSTYLE
1002
{
1070
279
1070
2
1070
144
1040
1.0
1070
40
1040
1.0
1002
}
  0
LINE
  5
124
100
AcDbEntity
  8
0
 62
4
420
65535
370
-1
 48
1.0
  6
CONTINUOUS
100
AcDbLine
 10
0.0
 20
0.0
 30
0.0
 11
420.0
 21
0.0
 31
0.0
  0
LINE
  5
125
100
AcDbEntity
  8
0
 62
7
420
16777215
370
-1
 48
1.0
  6
CONTINUOUS
100
AcDbLine
 10
10.0
 20
10.0
 30
0.0
 11
410.0
 21
10.0
 31
0.0
  0
LINE
  5
126
100
AcDbEntity
  8
0
 62
4
420
65535
370
-1
 48
1.0
  6
CONTINUOUS
100
AcDbLine
 10
0.0
 20
0.0
 30
0.0
 11
0.0
 21
594.0
 31
0.0
  0
LINE
  5
127
100
AcDbEntity
  8
0
 62
7
420
16777215
370
-1
 48
1.0
  6
CONTINUOUS
100
AcDbLine
 10
10.0
 20
584.0
 30
0.0
 11
10.0
 21
10.0
 31
0.0
  0
LINE
  5
128
100
AcDbEntity
  8
0
 62
7
420
16777215
370
-1
 48
1.0
  6
CONTINUOUS
100
AcDbLine
 10
410.0
 20
10.0
 30
0.0
 11
410.0
 21
584.0
 31
0.0
  0
LINE
  5
129
100
AcDbEntity
  8
0
 62
4
420
65535
370
-1
 48
1.0
  6
CONTINUOUS
100
AcDbLine
 10
420.0
 20
594.0
 30
0.0
 11
420.0
 21
0.0
 31
0.0
  0
LINE
  5
12A
100
AcDbEntity
  8
0
 62
7
420
16777215
370
-1
 48
1.0
  6
CONTINUOUS
100
AcDbLine
 10
410.0
 20
584.0
 30
0.0
 11
10.0
 21
584.0
 31
0.0
  0
LINE
  5
12B
100
AcDbEntity
  8
0
 62
4
420
65535
370
-1
 48
1.0
  6
CONTINUOUS
100
AcDbLine
 10
420.0
 20
594.0
 30
0.0
 11
0.0
 21
594.0
 31
0.0
  0
LINE
  5
12C
100
AcDbEntity
  8
0
 62
7
420
16777215
370
-1
 48
1.0
  6
CONTINUOUS
100
AcDbLine
 10
310.4279132323999875
 20
380.0880535669999745
 30
0.0
 11
272.4279132323999875
 21
380.0880535669999745
 31
0.0
  0
LINE
  5
12D
100
AcDbEntity
  8
02___PRT_ALL_AXES
 62
6
420
16711935
370
-1
 48
1.0
  6
HIDDEN
100
AcDbLine
 10
277.9279132323999875
 20
380.0880535669999745
 30
0.0
 11
302.9272162844999912
 21
380.0880535669999745
 31
0.0
  0
LINE
  5
12E
100
AcDbEntity
  8
0
 62
7
420
16777215
370
-1
 48
1.0
  6
CONTINUOUS
100
AcDbLine
 10
272.4279132323999875
 20
386.0880535669999745
 30
0.0
 11
310.4279132323999875
 21
386.0880535669999745
 31
0.0
  0
LINE
  5
12F
100
AcDbEntity
  8
02___PRT_ALL_AXES
 62
6
420
16711935
370
-1
 48
1.0
  6
HIDDEN
100
AcDbLine
 10
277.9286101801999962
 20
386.0880535669999745
 30
0.0
 11
302.9272162844999912
 21
386.0880535669999745
 31
0.0
  0
LINE
  5
130
100
AcDbEntity
  8
0
 62
7
420
16777215
370
-1
 48
1.0
  6
CONTINUOUS
100
AcDbLine
 10
272.4279132323999875
 20
386.0880535669999745
 30
0.0
 11
272.4279132323999875
 21
380.0880535669999745
 31
0.0
  0
LINE
  5
131
100
AcDbEntity
  8
02___PRT_ALL_AXES
 62
6
420
16711935
370
-1
 48
1.0
  6
HIDDEN
100
AcDbLine
 10
277.9279132323999875
 20
380.0880535669999745
 30
0.0
 11
277.9279132323999875
 21
386.0880535669999745
 31
0.0
  0
LINE
  5
132
100
AcDbEntity
  8
02___PRT_ALL_AXES
 62
3
420
65280
370
-1
 48
1.0
  6
CENTER
100
AcDbLine
 10
290.4279132323999875
 20
392.0880535669999745
 30
0.0
 11
290.4279132323999875
 21
374.0880535669999745
 31
0.0
  0
LINE
  5
133
100
AcDbEntity
  8
02___PRT_ALL_AXES
 62
6
420
16711935
370
-1
 48
1.0
  6
HIDDEN
100
AcDbLine
 10
302.9279132323999875
 20
380.0880535669999745
 30
0.0
 11
302.9279132323999875
 21
386.0880535669999745
 31
0.0
  0
LINE
  5
134
100
AcDbEntity
  8
0
 62
7
420
16777215
370
-1
 48
1.0
  6
CONTINUOUS
100
AcDbLine
 10
322.4279132323999875
 20
455.0880535669999745
 30
0.0
 11
330.4279132323999875
 21
455.0880535669999745
 31
0.0
  0
LINE
  5
135
100
AcDbEntity
  8
0
 62
7
420
16777215
370
-1
 48
1.0
  6
CONTINUOUS
100
AcDbLine
 10
316.4279132323999875
 20
392.0880535669999745
 30
0.0
 11
316.4279132323999875
 21
505.0880535669999745
 31
0.0
  0
LINE
  5
136
100
AcDbEntity
  8
0
 62
7
420
16777215
370
-1
 48
1.0
  6
CONTINUOUS
100
AcDbLine
 10
322.4279132323999875
 20
505.0880535669999745
 30
0.0
 11
322.4279132323999875
 21
392.0880535669999745
 31
0.0
  0
LINE
  5
137
100
AcDbEntity
  8
DEFAULT_2
 62
6
420
16711935
370
-1
 48
1.0
  6
HIDDEN
100
AcDbLine
 10
330.4279132323999875
 20
470.0880535669999745
 30
0.0
 11
316.4279132323999875
 21
470.0880535669999745
 31
0.0
  0
LINE
  5
138
100
AcDbEntity
  8
0
 62
7
420
16777215
370
-1
 48
1.0
  6
CONTINUOUS
100
AcDbLine
 10
330.4279132323999875
 20
455.0880535669999745
 30
0.0
 11
330.4279132323999875
 21
505.0880535669999745
 31
0.0
  0
LINE
  5
139
100
AcDbEntity
  8
02__ASM_ALL_AXES
 62
3
420
65280
370
-1
 48
1.0
  6
CENTER
100
AcDbLine
 10
310.4279132323999875
 20
480.0880535669999745
 30
0.0
 11
336.4279132323999875
 21
480.0880535669999745
 31
0.0
  0
LINE
  5
13A
100
AcDbEntity
  8
DEFAULT_2
 62
6
420
16711935
370
-1
 48
1.0
  6
HIDDEN
100
AcDbLine
 10
330.4279132323999875
 20
490.0880535669999745
 30
0.0
 11
316.4279132323999875
 21
490.0880535669999745
 31
0.0
  0
LINE
  5
13B
100
AcDbEntity
  8
0
 62
7
420
16777215
370
-1
 48
1.0
  6
CONTINUOUS
100
AcDbLine
 10
316.4279132323999875
 20
505.0880535669999745
 30
0.0
 11
330.4279132323999875
 21
505.0880535669999745
 31
0.0
  0
LINE
  5
13C
100
AcDbEntity
  8
0
 62
7
420
16777215
370
-1
 48
1.0
  6
CONTINUOUS
100
AcDbLine
 10
55.3704226663000014
 20
380.0880535669999745
 30
0.0
 11
55.3704226663000014
 21
455.0880535669999745
 31
0.0
  0
LINE
  5
13D
100
AcDbEntity
  8
0
 62
7
420
16777215
370
-1
 48
1.0
  6
CONTINUOUS
100
AcDbLine
 10
55.3704226663000014
 20
455.0880535669999745
 30
0.0
 11
55.3704226663000014
 21
500.0880535669999745
 31
0.0
  0
LINE
  5
13E
100
AcDbEntity
  8
02___PRT_ALL_AXES
 62
6
420
16711935
370
-1
 48
1.0
  6
HIDDEN
100
AcDbLine
 10
179.8704226662999872
 20
380.0880535669999745
 30
0.0
 11
170.8704226662999872
 21
380.0880535669999745
 31
0.0
  0
LINE
  5
13F
100
AcDbEntity
  8
02___PRT_ALL_AXES
 62
6
420
16711935
370
-1
 48
1.0
  6
HIDDEN
100
AcDbLine
 10
79.8704226663000014
 20
380.0880535669999745
 30
0.0
 11
70.8704226663000014
 21
380.0880535669999745
 31
0.0
  0
LINE
  5
140
100
AcDbEntity
  8
0
 62
7
420
16777215
370
-1
 48
1.0
  6
CONTINUOUS
100
AcDbLine
 10
195.3704226662999872
 20
380.0880535669999745
 30
0.0
 11
55.3704226663000014
 21
380.0880535669999745
 31
0.0
  0
LINE
  5
141
100
AcDbEntity
  8
02___PRT_ALL_AXES
 62
6
420
16711935
370
-1
 48
1.0
  6
HIDDEN
100
AcDbLine
 10
179.8704226662999872
 20
386.0880535669999745
 30
0.0
 11
170.8704226662999872
 21
386.0880535669999745
 31
0.0
  0
LINE
  5
142
100
AcDbEntity
  8
02___PRT_ALL_AXES
 62
6
420
16711935
370
-1
 48
1.0
  6
HIDDEN
100
AcDbLine
 10
79.8704226663000014
 20
386.0880535669999745
 30
0.0
 11
70.8704226663000014
 21
386.0880535669999745
 31
0.0
  0
LINE
  5
143
100
AcDbEntity
  8
DEFAULT_2
 62
6
420
16711935
370
-1
 48
1.0
  6
HIDDEN
100
AcDbLine
 10
195.3704226662999872
 20
386.0880535669999745
 30
0.0
 11
55.3704226663000014
 21
386.0880535669999745
 31
0.0
  0
LINE
  5
144
100
AcDbEntity
  8
02___PRT_ALL_AXES
 62
6
420
16711935
370
-1
 48
1.0
  6
HIDDEN
100
AcDbLine
 10
70.8704226663000014
 20
380.0880535669999745
 30
0.0
 11
70.8704226663000014
 21
386.0880535669999745
 31
0.0
  0
LINE
  5
145
100
AcDbEntity
  8
0
 62
7
420
16777215
370
-1
 48
1.0
  6
CONTINUOUS
100
AcDbLine
 10
71.1204226663000014
 20
474.3380535669999745
 30
0.0
 11
71.1204226663000014
 21
485.8380535669999745
 31
0.0
  0
LINE
  5
146
100
AcDbEntity
  8
02__ASM_ALL_AXES
 62
3
420
65280
370
-1
 48
1.0
  6
CENTER
100
AcDbLine
 10
75.3704226663000014
 20
480.0880535669999745
 30
0.0
 11
75.3704226663000014
 21
472.0879535669998859
 31
0.0
  0
LINE
  5
147
100
AcDbEntity
  8
02___PRT_ALL_AXES
 62
3
420
65280
370
-1
 48
1.0
  6
CENTER
100
AcDbLine
 10
75.3704226663000014
 20
392.0880535669999745
 30
0.0
 11
75.3704226663000014
 21
374.0880535669999745
 31
0.0
  0
LINE
  5
148
100
AcDbEntity
  8
02__ASM_ALL_AXES
 62
3
420
65280
370
-1
 48
1.0
  6
CENTER
100
AcDbLine
 10
75.3704226663000014
 20
480.0880535669999745
 30
0.0
 11
75.3704226663000014
 21
488.0881535669998925
 31
0.0
  0
LINE
  5
149
100
AcDbEntity
  8
0
 62
7
420
16777215
370
-1
 48
1.0
  6
CONTINUOUS
100
AcDbLine
 10
79.6204226663000014
 20
485.8380535669999745
 30
0.0
 11
79.6204226663000014
 21
474.3380535669999745
 31
0.0
  0
LINE
  5
14A
100
AcDbEntity
  8
02___PRT_ALL_AXES
 62
6
420
16711935
370
-1
 48
1.0
  6
HIDDEN
100
AcDbLine
 10
79.8704226663000014
 20
380.0880535669999745
 30
0.0
 11
79.8704226663000014
 21
386.0880535669999745
 31
0.0
  0
LINE
  5
14B
100
AcDbEntity
  8
0
 62
7
420
16777215
370
-1
 48
1.0
  6
CONTINUOUS
100
AcDbLine
 10
121.1204226663000014
 20
474.3380535669999745
 30
0.0
 11
121.1204226663000014
 21
485.8380535669999745
 31
0.0
  0
LINE
  5
14C
100
AcDbEntity
  8
02__ASM_ALL_AXES
 62
3
420
65280
370
-1
 48
1.0
  6
CENTER
100
AcDbLine
 10
125.3704226663000014
 20
480.0880535669999745
 30
0.0
 11
125.3704226663000014
 21
472.0879535669998859
 31
0.0
  0
LINE
  5
14D
100
AcDbEntity
  8
02__ASM_ALL_AXES
 62
3
420
65280
370
-1
 48
1.0
  6
CENTER
100
AcDbLine
 10
125.3704226663000014
 20
480.0880535669999745
 30
0.0
 11
125.3704226663000014
 21
488.0881535669998925
 31
0.0
  0
LINE
  5
14E
100
AcDbEntity
  8
0
 62
7
420
16777215
370
-1
 48
1.0
  6
CONTINUOUS
100
AcDbLine
 10
129.6204226662999872
 20
485.8380535669999745
 30
0.0
 11
129.6204226662999872
 21
474.3380535669999745
 31
0.0
  0
LINE
  5
14F
100
AcDbEntity
  8
0
 62
7
420
16777215
370
-1
 48
1.0
  6
CONTINUOUS
100
AcDbLine
 10
195.3704226662999872
 20
455.0880535669999745
 30
0.0
 11
55.3704226663000014
 21
455.0880535669999745
 31
0.0
  0
LINE
  5
150
100
AcDbEntity
  8
02__ASM_ALL_AXES
 62
3
420
65280
370
-1
 48
1.0
  6
CENTER
100
AcDbLine
 10
175.3704226662999872
 20
480.0880535669999745
 30
0.0
 11
167.3703226663000123
 21
480.0880535669999745
 31
0.0
  0
LINE
  5
151
100
AcDbEntity
  8
02__ASM_ALL_AXES
 62
3
420
65280
370
-1
 48
1.0
  6
CENTER
100
AcDbLine
 10
125.3704226663000014
 20
480.0880535669999745
 30
0.0
 11
117.3703226662999981
 21
480.0880535669999745
 31
0.0
  0
LINE
  5
152
100
AcDbEntity
  8
02__ASM_ALL_AXES
 62
3
420
65280
370
-1
 48
1.0
  6
CENTER
100
AcDbLine
 10
75.3704226663000014
 20
480.0880535669999745
 30
0.0
 11
67.3703226662999981
 21
480.0880535669999745
 31
0.0
  0
LINE
  5
153
100
AcDbEntity
  8
02__ASM_ALL_AXES
 62
3
420
65280
370
-1
 48
1.0
  6
CENTER
100
AcDbLine
 10
75.3704226663000014
 20
480.0880535669999745
 30
0.0
 11
83.3705226663000047
 21
480.0880535669999745
 31
0.0
  0
LINE
  5
154
100
AcDbEntity
  8
02__ASM_ALL_AXES
 62
3
420
65280
370
-1
 48
1.0
  6
CENTER
100
AcDbLine
 10
125.3704226663000014
 20
480.0880535669999745
 30
0.0
 11
133.3705226662999905
 21
480.0880535669999745
 31
0.0
  0
LINE
  5
155
100
AcDbEntity
  8
02__ASM_ALL_AXES
 62
3
420
65280
370
-1
 48
1.0
  6
CENTER
100
AcDbLine
 10
175.3704226662999872
 20
480.0880535669999745
 30
0.0
 11
183.3705226662999905
 21
480.0880535669999745
 31
0.0
  0
LINE
  5
156
100
AcDbEntity
  8
02___PRT_ALL_AXES
 62
6
420
16711935
370
-1
 48
1.0
  6
HIDDEN
100
AcDbLine
 10
170.8704226662999872
 20
380.0880535669999745
 30
0.0
 11
170.8704226662999872
 21
386.0880535669999745
 31
0.0
  0
LINE
  5
157
100
AcDbEntity
  8
0
 62
7
420
16777215
370
-1
 48
1.0
  6
CONTINUOUS
100
AcDbLine
 10
171.1204226662999872
 20
474.3380535669999745
 30
0.0
 11
171.1204226662999872
 21
485.8380535669999745
 31
0.0
  0
LINE
  5
158
100
AcDbEntity
  8
02__ASM_ALL_AXES
 62
3
420
65280
370
-1
 48
1.0
  6
CENTER
100
AcDbLine
 10
175.3704226662999872
 20
480.0880535669999745
 30
0.0
 11
175.3704226662999872
 21
472.0879535669998859
 31
0.0
  0
LINE
  5
159
100
AcDbEntity
  8
02___PRT_ALL_AXES
 62
3
420
65280
370
-1
 48
1.0
  6
CENTER
100
AcDbLine
 10
175.3704226662999872
 20
392.0880535669999745
 30
0.0
 11
175.3704226662999872
 21
374.0880535669999745
 31
0.0
  0
LINE
  5
15A
100
AcDbEntity
  8
02__ASM_ALL_AXES
 62
3
420
65280
370
-1
 48
1.0
  6
CENTER
100
AcDbLine
 10
175.3704226662999872
 20
480.0880535669999745
 30
0.0
 11
175.3704226662999872
 21
488.0881535669998925
 31
0.0
  0
LINE
  5
15B
100
AcDbEntity
  8
0
 62
7
420
16777215
370
-1
 48
1.0
  6
CONTINUOUS
100
AcDbLine
 10
179.6204226662999872
 20
485.8380535669999745
 30
0.0
 11
179.6204226662999872
 21
474.3380535669999745
 31
0.0
  0
LINE
  5
15C
100
AcDbEntity
  8
02___PRT_ALL_AXES
 62
6
420
16711935
370
-1
 48
1.0
  6
HIDDEN
100
AcDbLine
 10
179.8704226662999872
 20
380.0880535669999745
 30
0.0
 11
179.8704226662999872
 21
386.0880535669999745
 31
0.0
  0
LINE
  5
15D
100
AcDbEntity
  8
0
 62
7
420
16777215
370
-1
 48
1.0
  6
CONTINUOUS
100
AcDbLine
 10
60.3704226663000014
 20
505.0880535669999745
 30
0.0
 11
190.3704226662999872
 21
505.0880535669999745
 31
0.0
  0
LINE
  5
15E
100
AcDbEntity
  8
0
 62
7
420
16777215
370
-1
 48
1.0
  6
CONTINUOUS
100
AcDbLine
 10
195.3704226662999872
 20
500.0880535669999745
 30
0.0
 11
195.3704226662999872
 21
455.0880535669999745
 31
0.0
  0
LINE
  5
15F
100
AcDbEntity
  8
0
 62
7
420
16777215
370
-1
 48
1.0
  6
CONTINUOUS
100
AcDbLine
 10
195.3704226662999872
 20
455.0880535669999745
 30
0.0
 11
195.3704226662999872
 21
380.0880535669999745
 31
0.0
  0
LINE
  5
160
100
AcDbEntity
  8
0
 62
7
420
16777215
370
-1
 48
1.0
  6
CONTINUOUS
100
AcDbLine
 10
55.3704226663000014
 20
226.8703177179000079
 30
0.0
 11
55.3704226663000014
 21
279.8703177178999795
 31
0.0
  0
LINE
  5
161
100
AcDbEntity
  8
02___PRT_ALL_AXES
 62
7
420
16777215
370
-1
 48
1.0
  6
CONTINUOUS
100
AcDbLine
 10
70.8704226663000014
 20
258.8703177178999795
 30
0.0
 11
70.8704226663000014
 21
274.8703177178999795
 31
0.0
  0
LINE
  5
162
100
AcDbEntity
  8
DEFAULT_2
 62
6
420
16711935
370
-1
 48
1.0
  6
HIDDEN
100
AcDbLine
 10
71.1204226663000014
 20
240.8703177179000079
 30
0.0
 11
71.1204226663000014
 21
226.8703177179000079
 31
0.0
  0
LINE
  5
163
100
AcDbEntity
  8
02___PRT_ALL_AXES
 62
3
420
65280
370
-1
 48
1.0
  6
CENTER
100
AcDbLine
 10
75.3704226663000014
 20
266.8703177178999795
 30
0.0
 11
75.3704226663000014
 21
258.8702177179000046
 31
0.0
  0
LINE
  5
164
100
AcDbEntity
  8
02__ASM_ALL_AXES
 62
3
420
65280
370
-1
 48
1.0
  6
CENTER
100
AcDbLine
 10
75.3704226663000014
 20
246.8703177179000079
 30
0.0
 11
75.3704226663000014
 21
220.8703177179000079
 31
0.0
  0
LINE
  5
165
100
AcDbEntity
  8
02___PRT_ALL_AXES
 62
3
420
65280
370
-1
 48
1.0
  6
CENTER
100
AcDbLine
 10
75.3704226663000014
 20
266.8703177178999795
 30
0.0
 11
75.3704226663000014
 21
274.8704177179000112
 31
0.0
  0
LINE
  5
166
100
AcDbEntity
  8
DEFAULT_2
 62
6
420
16711935
370
-1
 48
1.0
  6
HIDDEN
100
AcDbLine
 10
79.6204226663000014
 20
240.8703177179000079
 30
0.0
 11
79.6204226663000014
 21
226.8703177179000079
 31
0.0
  0
LINE
  5
167
100
AcDbEntity
  8
02___PRT_ALL_AXES
 62
7
420
16777215
370
-1
 48
1.0
  6
CONTINUOUS
100
AcDbLine
 10
79.8704226663000014
 20
274.8703177178999795
 30
0.0
 11
79.8704226663000014
 21
258.8703177178999795
 31
0.0
  0
LINE
  5
168
100
AcDbEntity
  8
0
 62
7
420
16777215
370
-1
 48
1.0
  6
CONTINUOUS
100
AcDbLine
 10
55.3704226663000014
 20
226.8703177179000079
 30
0.0
 11
195.3704226662999872
 21
226.8703177179000079
 31
0.0
  0
LINE
  5
169
100
AcDbEntity
  8
0
 62
7
420
16777215
370
-1
 48
1.0
  6
CONTINUOUS
100
AcDbLine
 10
55.3704226663000014
 20
234.8703177179000079
 30
0.0
 11
195.3704226662999872
 21
234.8703177179000079
 31
0.0
  0
LINE
  5
16A
100
AcDbEntity
  8
0
 62
7
420
16777215
370
-1
 48
1.0
  6
CONTINUOUS
100
AcDbLine
 10
55.3704226663000014
 20
240.8703177179000079
 30
0.0
 11
195.3704226662999872
 21
240.8703177179000079
 31
0.0
  0
LINE
  5
16B
100
AcDbEntity
  8
DEFAULT_2
 62
6
420
16711935
370
-1
 48
1.0
  6
HIDDEN
100
AcDbLine
 10
121.1204226663000014
 20
240.8703177179000079
 30
0.0
 11
121.1204226663000014
 21
226.8703177179000079
 31
0.0
  0
LINE
  5
16C
100
AcDbEntity
  8
02__ASM_ALL_AXES
 62
3
420
65280
370
-1
 48
1.0
  6
CENTER
100
AcDbLine
 10
125.3704226663000014
 20
246.8703177179000079
 30
0.0
 11
125.3704226663000014
 21
220.8703177179000079
 31
0.0
  0
LINE
  5
16D
100
AcDbEntity
  8
DEFAULT_2
 62
6
420
16711935
370
-1
 48
1.0
  6
HIDDEN
100
AcDbLine
 10
129.6204226662999872
 20
240.8703177179000079
 30
0.0
 11
129.6204226662999872
 21
226.8703177179000079
 31
0.0
  0
LINE
  5
16E
100
AcDbEntity
  8
02___PRT_ALL_AXES
 62
3
420
65280
370
-1
 48
1.0
  6
CENTER
100
AcDbLine
 10
175.3704226662999872
 20
266.8703177178999795
 30
0.0
 11
167.3703226663000123
 21
266.8703177178999795
 31
0.0
  0
LINE
  5
16F
100
AcDbEntity
  8
02___PRT_ALL_AXES
 62
3
420
65280
370
-1
 48
1.0
  6
CENTER
100
AcDbLine
 10
75.3704226663000014
 20
266.8703177178999795
 30
0.0
 11
67.3703226662999981
 21
266.8703177178999795
 31
0.0
  0
LINE
  5
170
100
AcDbEntity
  8
02___PRT_ALL_AXES
 62
3
420
65280
370
-1
 48
1.0
  6
CENTER
100
AcDbLine
 10
75.3704226663000014
 20
266.8703177178999795
 30
0.0
 11
83.3705226663000047
 21
266.8703177178999795
 31
0.0
  0
LINE
  5
171
100
AcDbEntity
  8
02___PRT_ALL_AXES
 62
3
420
65280
370
-1
 48
1.0
  6
CENTER
100
AcDbLine
 10
175.3704226662999872
 20
266.8703177178999795
 30
0.0
 11
183.3705226662999905
 21
266.8703177178999795
 31
0.0
  0
LINE
  5
172
100
AcDbEntity
  8
0
 62
7
420
16777215
370
-1
 48
1.0
  6
CONTINUOUS
100
AcDbLine
 10
60.3704226663000014
 20
284.8703177178999795
 30
0.0
 11
190.3704226662999872
 21
284.8703177178999795
 31
0.0
  0
LINE
  5
173
100
AcDbEntity
  8
02___PRT_ALL_AXES
 62
7
420
16777215
370
-1
 48
1.0
  6
CONTINUOUS
100
AcDbLine
 10
170.8704226662999872
 20
258.8703177178999795
 30
0.0
 11
170.8704226662999872
 21
274.8703177178999795
 31
0.0
  0
LINE
  5
174
100
AcDbEntity
  8
DEFAULT_2
 62
6
420
16711935
370
-1
 48
1.0
  6
HIDDEN
100
AcDbLine
 10
171.1204226662999872
 20
240.8703177179000079
 30
0.0
 11
171.1204226662999872
 21
226.8703177179000079
 31
0.0
  0
LINE
  5
175
100
AcDbEntity
  8
02___PRT_ALL_AXES
 62
3
420
65280
370
-1
 48
1.0
  6
CENTER
100
AcDbLine
 10
175.3704226662999872
 20
266.8703177178999795
 30
0.0
 11
175.3704226662999872
 21
258.8702177179000046
 31
0.0
  0
LINE
  5
176
100
AcDbEntity
  8
02__ASM_ALL_AXES
 62
3
420
65280
370
-1
 48
1.0
  6
CENTER
100
AcDbLine
 10
175.3704226662999872
 20
246.8703177179000079
 30
0.0
 11
175.3704226662999872
 21
220.8703177179000079
 31
0.0
  0
LINE
  5
177
100
AcDbEntity
  8
02___PRT_ALL_AXES
 62
3
420
65280
370
-1
 48
1.0
  6
CENTER
100
AcDbLine
 10
175.3704226662999872
 20
266.8703177178999795
 30
0.0
 11
175.3704226662999872
 21
274.8704177179000112
 31
0.0
  0
LINE
  5
178
100
AcDbEntity
  8
DEFAULT_2
 62
6
420
16711935
370
-1
 48
1.0
  6
HIDDEN
100
AcDbLine
 10
179.6204226662999872
 20
240.8703177179000079
 30
0.0
 11
179.6204226662999872
 21
226.8703177179000079
 31
0.0
  0
LINE
  5
179
100
AcDbEntity
  8
02___PRT_ALL_AXES
 62
7
420
16777215
370
-1
 48
1.0
  6
CONTINUOUS
100
AcDbLine
 10
179.8704226662999872
 20
274.8703177178999795
 30
0.0
 11
179.8704226662999872
 21
258.8703177178999795
 31
0.0
  0
LINE
  5
17A
100
AcDbEntity
  8
0
 62
7
420
16777215
370
-1
 48
1.0
  6
CONTINUOUS
100
AcDbLine
 10
195.3704226662999872
 20
226.8703177179000079
 30
0.0
 11
195.3704226662999872
 21
279.8703177178999795
 31
0.0
  0
ARC
  5
17B
100
AcDbEntity
  8
0
 62
7
420
16777215
370
-1
 48
1.0
  6
CONTINUOUS
100
AcDbCircle
 10
310.4279132323999875
 20
392.0880535669999745
 30
0.0
 40
12.0
100
AcDbArc
 50
270.0
 51
360.0
  0
ARC
  5
17C
100
AcDbEntity
  8
0
 62
7
420
16777215
370
-1
 48
1.0
  6
CONTINUOUS
100
AcDbCircle
 10
310.4279132323999875
 20
392.0880535669999745
 30
0.0
 40
6.0
100
AcDbArc
 50
270.0
 51
360.0
  0
ARC
  5
17D
100
AcDbEntity
  8
0
 62
7
420
16777215
370
-1
 48
1.0
  6
CONTINUOUS
100
AcDbCircle
 10
190.3704226662999872
 20
500.0880535669999745
 30
0.0
 40
5.0
100
AcDbArc
 50
0.0
 51
90.0
  0
ARC
  5
17E
100
AcDbEntity
  8
0
 62
7
420
16777215
370
-1
 48
1.0
  6
CONTINUOUS
100
AcDbCircle
 10
60.3704226663000014
 20
500.0880535669999745
 30
0.0
 40
5.0
100
AcDbArc
 50
90.0
 51
180.0
  0
ARC
  5
17F
100
AcDbEntity
  8
0
 62
7
420
16777215
370
-1
 48
1.0
  6
CONTINUOUS
100
AcDbCircle
 10
75.3704226663000014
 20
485.8380535669999745
 30
0.0
 40
4.25
100
AcDbArc
 50
0.0
 51
180.0
  0
ARC
  5
180
100
AcDbEntity
  8
0
 62
7
420
16777215
370
-1
 48
1.0
  6
CONTINUOUS
100
AcDbCircle
 10
75.3704226663000014
 20
474.3380535669999745
 30
0.0
 40
4.25
100
AcDbArc
 50
180.0
 51
360.0
  0
ARC
  5
181
100
AcDbEntity
  8
0
 62
7
420
16777215
370
-1
 48
1.0
  6
CONTINUOUS
100
AcDbCircle
 10
125.3704226663000014
 20
485.8380535669999745
 30
0.0
 40
4.25
100
AcDbArc
 50
0.0
 51
180.0
  0
ARC
  5
182
100
AcDbEntity
  8
0
 62
7
420
16777215
370
-1
 48
1.0
  6
CONTINUOUS
100
AcDbCircle
 10
125.3704226663000014
 20
474.3380535669999745
 30
0.0
 40
4.25
100
AcDbArc
 50
180.0
 51
360.0
  0
ARC
  5
183
100
AcDbEntity
  8
0
 62
7
420
16777215
370
-1
 48
1.0
  6
CONTINUOUS
100
AcDbCircle
 10
175.3704226662999872
 20
485.8380535669999745
 30
0.0
 40
4.25
100
AcDbArc
 50
0.0
 51
180.0
  0
ARC
  5
184
100
AcDbEntity
  8
0
 62
7
420
16777215
370
-1
 48
1.0
  6
CONTINUOUS
100
AcDbCircle
 10
175.3704226662999872
 20
474.3380535669999745
 30
0.0
 40
4.25
100
AcDbArc
 50
180.0
 51
360.0
  0
ARC
  5
185
100
AcDbEntity
  8
0
 62
7
420
16777215
370
-1
 48
1.0
  6
CONTINUOUS
100
AcDbCircle
 10
190.3704226662999872
 20
279.8703177178999795
 30
0.0
 40
5.0
100
AcDbArc
 50
0.0
 51
90.0
  0
ARC
  5
186
100
AcDbEntity
  8
0
 62
7
420
16777215
370
-1
 48
1.0
  6
CONTINUOUS
100
AcDbCircle
 10
60.3704226663000014
 20
279.8703177178999795
 30
0.0
 40
5.0
100
AcDbArc
 50
90.0
 51
180.0
  0
ARC
  5
187
100
AcDbEntity
  8
02___PRT_ALL_AXES
 62
7
420
16777215
370
-1
 48
1.0
  6
CONTINUOUS
100
AcDbCircle
 10
175.3704226662999872
 20
274.8703177178999795
 30
0.0
 40
4.5
100
AcDbArc
 50
0.0
 51
180.0
  0
ARC
  5
188
100
AcDbEntity
  8
02___PRT_ALL_AXES
 62
7
420
16777215
370
-1
 48
1.0
  6
CONTINUOUS
100
AcDbCircle
 10
175.3704226662999872
 20
258.8703177178999795
 30
0.0
 40
4.5
100
AcDbArc
 50
180.0
 51
360.0
  0
ARC
  5
189
100
AcDbEntity
  8
02___PRT_ALL_AXES
 62
7
420
16777215
370
-1
 48
1.0
  6
CONTINUOUS
100
AcDbCircle
 10
75.3704226663000014
 20
274.8703177178999795
 30
0.0
 40
4.5
100
AcDbArc
 50
0.0
 51
180.0
  0
ARC
  5
18A
100
AcDbEntity
  8
02___PRT_ALL_AXES
 62
7
420
16777215
370
-1
 48
1.0
  6
CONTINUOUS
100
AcDbCircle
 10
75.3704226663000014
 20
258.8703177178999795
 30
0.0
 40
4.5
100
AcDbArc
 50
180.0
 51
360.0
  0
ENDSEC
  0
SECTION
  2
OBJECTS
  0
DICTIONARY
  5
C
100
AcDbDictionary
280
0
281
1
  3
ACAD_GROUP
350
D
  3
ACAD_LAYOUT
350
1A
  3
ACAD_MLINESTYLE
350
17
  3
ACAD_PLOTSETTINGS
350
19
  3
ACAD_PLOTSTYLENAME
350
E
  3
AcDbVariableDictionary
350
18B
  3
QCAD_OBJECTS
350
18C
  0
DICTIONARY
  5
D
100
AcDbDictionary
280
0
281
1
  0
ACDBDICTIONARYWDFLT
  5
E
100
AcDbDictionary
281
1
  3
Normal
350
F
100
AcDbDictionaryWithDefault
340
F
  0
ACDBPLACEHOLDER
  5
F
  0
DICTIONARY
  5
17
100
AcDbDictionary
280
0
281
1
  3
Standard
350
18
  0
MLINESTYLE
  5
18
100
AcDbMlineStyle
  2
STANDARD
 70
0
  3

 62
256
 51
90.0
 52
90.0
 71
2
 49
0.5
 62
256
  6
BYLAYER
 49
-0.5
 62
256
  6
BYLAYER
  0
DICTIONARY
  5
19
100
AcDbDictionary
280
0
281
1
  0
DICTIONARY
  5
1A
100
AcDbDictionary
281
1
  3
Layout1
350
1E
  3
Layout2
350
26
  3
Model
350
22
  0
LAYOUT
  5
1E
100
AcDbPlotSettings
  1

  2
none_device
  4

  6

 40
0.0
 41
0.0
 42
0.0
 43
0.0
 44
0.0
 45
0.0
 46
0.0
 47
0.0
 48
0.0
 49
0.0
140
0.0
141
0.0
142
1.0
143
1.0
 70
688
 72
0
 73
0
 74
5
  7

 75
16
147
1.0
148
0.0
149
0.0
100
AcDbLayout
  1
Layout1
 70
1
 71
1
 10
0.0
 20
0.0
 11
420.0
 21
297.0
 12
0.0
 22
0.0
 32
0.0
 14
100000000000000000000.0
 24
100000000000000000000.0
 34
100000000000000000000.0
 15
-100000000000000000000.0
 25
-100000000000000000000.0
 35
-100000000000000000000.0
146
0.0
 13
0.0
 23
0.0
 33
0.0
 16
1.0
 26
0.0
 36
0.0
 17
0.0
 27
1.0
 37
0.0
 76
0
330
1B
  0
LAYOUT
  5
22
100
AcDbPlotSettings
  1

  2
none_device
  4

  6

 40
0.0
 41
0.0
 42
0.0
 43
0.0
 44
0.0
 45
0.0
 46
0.0
 47
0.0
 48
0.0
 49
0.0
140
0.0
141
0.0
142
1.0
143
1.0
 70
1712
 72
0
 73
0
 74
0
  7

 75
0
147
1.0
148
0.0
149
0.0
100
AcDbLayout
  1
Model
 70
1
 71
0
 10
0.0
 20
0.0
 11
12.0
 21
9.0
 12
0.0
 22
0.0
 32
0.0
 14
0.0
 24
0.0
 34
0.0
 15
0.0
 25
0.0
 35
0.0
146
0.0
 13
0.0
 23
0.0
 33
0.0
 16
1.0
 26
0.0
 36
0.0
 17
0.0
 27
1.0
 37
0.0
 76
0
330
1F
  0
LAYOUT
  5
26
100
AcDbPlotSettings
  1

  2
none_device
  4

  6

 40
0.0
 41
0.0
 42
0.0
 43
0.0
 44
0.0
 45
0.0
 46
0.0
 47
0.0
 48
0.0
 49
0.0
140
0.0
141
0.0
142
1.0
143
1.0
 70
688
 72
0
 73
0
 74
5
  7

 75
16
147
1.0
148
0.0
149
0.0
100
AcDbLayout
  1
Layout2
 70
1
 71
2
 10
0.0
 20
0.0
 11
12.0
 21
9.0
 12
0.0
 22
0.0
 32
0.0
 14
0.0
 24
0.0
 34
0.0
 15
0.0
 25
0.0
 35
0.0
146
0.0
 13
0.0
 23
0.0
 33
0.0
 16
1.0
 26
0.0
 36
0.0
 17
0.0
 27
1.0
 37
0.0
 76
0
330
23
  0
DICTIONARY
  5
18B
100
AcDbDictionary
281
1
  3
DIMASSOC
350
18E
  3
HIDETEXT
350
18D
  0
DICTIONARYVAR
  5
18D
100
DictionaryVariables
280
0
  1
2
  0
DICTIONARYVAR
  5
18E
100
DictionaryVariables
280
0
  1
1
  0
DICTIONARY
  5
18C
100
AcDbDictionary
281
1
  3
ColorSettings/BackgroundColor
350
18F
  3
ColorSettings/ColorMode
350
190
  3
Grid/DisplayGrid00
350
191
  3
Grid/DisplayGrid01
350
192
  3
Grid/DisplayGrid02
350
193
  3
Grid/DisplayGrid03
350
194
  3
Grid/GridSpacingX00
350
195
  3
Grid/GridSpacingX01
350
196
  3
Grid/GridSpacingX02
350
197
  3
Grid/GridSpacingX03
350
198
  3
Grid/GridSpacingY00
350
199
  3
Grid/GridSpacingY01
350
19A
  3
Grid/GridSpacingY02
350
19B
  3
Grid/GridSpacingY03
350
19C
  3
Grid/IsometricGrid00
350
19D
  3
Grid/IsometricGrid01
350
19E
  3
Grid/IsometricGrid02
350
19F
  3
Grid/IsometricGrid03
350
1A0
  3
Grid/IsometricProjection00
350
1A1
  3
Grid/IsometricProjection01
350
1A2
  3
Grid/IsometricProjection02
350
1A3
  3
Grid/IsometricProjection03
350
1A4
  3
Grid/MetaGridSpacingX00
350
1A5
  3
Grid/MetaGridSpacingX01
350
1A6
  3
Grid/MetaGridSpacingX02
350
1A7
  3
Grid/MetaGridSpacingX03
350
1A8
  3
Grid/MetaGridSpacingY00
350
1A9
  3
Grid/MetaGridSpacingY01
350
1AA
  3
Grid/MetaGridSpacingY02
350
1AB
  3
Grid/MetaGridSpacingY03
350
1AC
  3
MultiPageSettings/Columns
350
1AD
  3
MultiPageSettings/GlueMarginsBottom
350
1AE
  3
MultiPageSettings/GlueMarginsLeft
350
1AF
  3
MultiPageSettings/GlueMarginsRight
350
1B0
  3
MultiPageSettings/GlueMarginsTop
350
1B1
  3
MultiPageSettings/PrintCropMarks
350
1B2
  3
MultiPageSettings/Rows
350
1B3
  3
PageSettings/OffsetX
350
1B4
  3
PageSettings/OffsetY
350
1B5
  3
PageSettings/PageOrientation
350
1B6
  3
PageSettings/PaperHeight
350
1B7
  3
PageSettings/PaperWidth
350
1B8
  3
PageSettings/Scale
350
1B9
  3
PageSettings/ShowPaperBorders
350
1BA
  3
PageTagSettings/EnablePageTags
350
1BB
  3
PageTagSettings/TagAlignment
350
1BC
  3
PageTagSettings/TagFont
350
1BD
  3
PageTagSettings/TagPosition
350
1BE
  3
QCADVersion
350
1BF
  3
UnitSettings/PaperUnit
350
1C0
  3
ViewportCenter
350
1C1
  3
ViewportHeight
350
1C2
  3
ViewportWidth
350
1C3
  0
XRECORD
  5
18F
330
18C
100
AcDbXrecord
280
1
1000
Bianco
  0
XRECORD
  5
190
330
18C
100
AcDbXrecord
280
1
1000
FullColor
  0
XRECORD
  5
191
330
18C
100
AcDbXrecord
280
1
290
1
  0
XRECORD
  5
192
330
18C
100
AcDbXrecord
280
1
290
1
  0
XRECORD
  5
193
330
18C
100
AcDbXrecord
280
1
290
1
  0
XRECORD
  5
194
330
18C
100
AcDbXrecord
280
1
290
1
  0
XRECORD
  5
195
330
18C
100
AcDbXrecord
280
1
1000
auto
  0
XRECORD
  5
196
330
18C
100
AcDbXrecord
280
1
1000
auto
  0
XRECORD
  5
197
330
18C
100
AcDbXrecord
280
1
1000
auto
  0
XRECORD
  5
198
330
18C
100
AcDbXrecord
280
1
1000
auto
  0
XRECORD
  5
199
330
18C
100
AcDbXrecord
280
1
1000
auto
  0
XRECORD
  5
19A
330
18C
100
AcDbXrecord
280
1
1000
auto
  0
XRECORD
  5
19B
330
18C
100
AcDbXrecord
280
1
1000
auto
  0
XRECORD
  5
19C
330
18C
100
AcDbXrecord
280
1
1000
auto
  0
XRECORD
  5
19D
330
18C
100
AcDbXrecord
280
1
290
0
  0
XRECORD
  5
19E
330
18C
100
AcDbXrecord
280
1
290
0
  0
XRECORD
  5
19F
330
18C
100
AcDbXrecord
280
1
290
0
  0
XRECORD
  5
1A0
330
18C
100
AcDbXrecord
280
1
290
0
  0
XRECORD
  5
1A1
330
18C
100
AcDbXrecord
280
1
 90
65537
  0
XRECORD
  5
1A2
330
18C
100
AcDbXrecord
280
1
 90
65537
  0
XRECORD
  5
1A3
330
18C
100
AcDbXrecord
280
1
 90
65537
  0
XRECORD
  5
1A4
330
18C
100
AcDbXrecord
280
1
 90
65537
  0
XRECORD
  5
1A5
330
18C
100
AcDbXrecord
280
1
1000
auto
  0
XRECORD
  5
1A6
330
18C
100
AcDbXrecord
280
1
1000
auto
  0
XRECORD
  5
1A7
330
18C
100
AcDbXrecord
280
1
1000
auto
  0
XRECORD
  5
1A8
330
18C
100
AcDbXrecord
280
1
1000
auto
  0
XRECORD
  5
1A9
330
18C
100
AcDbXrecord
280
1
1000
auto
  0
XRECORD
  5
1AA
330
18C
100
AcDbXrecord
280
1
1000
auto
  0
XRECORD
  5
1AB
330
18C
100
AcDbXrecord
280
1
1000
auto
  0
XRECORD
  5
1AC
330
18C
100
AcDbXrecord
280
1
1000
auto
  0
XRECORD
  5
1AD
330
18C
100
AcDbXrecord
280
1
 90
1
  0
XRECORD
  5
1AE
330
18C
100
AcDbXrecord
280
1
 40
10.0
  0
XRECORD
  5
1AF
330
18C
100
AcDbXrecord
280
1
 40
10.0
  0
XRECORD
  5
1B0
330
18C
100
AcDbXrecord
280
1
 40
10.0
  0
XRECORD
  5
1B1
330
18C
100
AcDbXrecord
280
1
 40
10.0
  0
XRECORD
  5
1B2
330
18C
100
AcDbXrecord
280
1
290
0
  0
XRECORD
  5
1B3
330
18C
100
AcDbXrecord
280
1
 90
1
  0
XRECORD
  5
1B4
330
18C
100
AcDbXrecord
280
1
 40
0.0
  0
XRECORD
  5
1B5
330
18C
100
AcDbXrecord
280
1
 40
0.0
  0
XRECORD
  5
1B6
330
18C
100
AcDbXrecord
280
1
1000
Portrait
  0
XRECORD
  5
1B7
330
18C
100
AcDbXrecord
280
1
 40
297.0
  0
XRECORD
  5
1B8
330
18C
100
AcDbXrecord
280
1
 40
210.0
  0
XRECORD
  5
1B9
330
18C
100
AcDbXrecord
280
1
1000
1:1
  0
XRECORD
  5
1BA
330
18C
100
AcDbXrecord
280
1
290
1
  0
XRECORD
  5
1BB
330
18C
100
AcDbXrecord
280
1
290
0
  0
XRECORD
  5
1BC
330
18C
100
AcDbXrecord
280
1
1000
Inside
  0
XRECORD
  5
1BD
330
18C
100
AcDbXrecord
280
1
1000
Arial,10,-1,5,50,0,0,0,0,0
  0
XRECORD
  5
1BE
330
18C
100
AcDbXrecord
280
1
1000
TopLeft
  0
XRECORD
  5
1BF
330
18C
100
AcDbXrecord
280
1
1000
3.32.6
  0
XRECORD
  5
1C0
330
18C
100
AcDbXrecord
280
1
 90
4
  0
XRECORD
  5
1C2
330
18C
100
AcDbXrecord
280
1
 40
916.1099999999999
  0
XRECORD
  5
1C3
330
18C
100
AcDbXrecord
280
1
 40
1827.3599999999996726
  0
ENDSEC
  0
EOF
