999
dxflib 3.26.4.0
  0
SECTION
  2
HEADER
  9
$ACADVER
  1
AC1015
  9
$HANDSEED
  5
FFFF
  9
$AUNITS
 70
0
  9
$DIMADEC
 70
0
  9
$DIMALT
 70
0
  9
$DIMALTF
 40
0.0393700787
  9
$DIMASZ
 40
2.0
  9
$DIMATFIT
 70
0
  9
$DIMAUNIT
 70
0
  9
$DIMAZIN
 70
0
  9
$DIMBLK
  1
0
  9
$DIMBLK1
  1
0
  9
$DIMBLK2
  1
0
  9
$DIMCEN
 40
2.1383999999999999
  9
$DIMDEC
 70
4
  9
$DIMDLI
 40
9.0288000000000004
  9
$DIMDSEP
 70
46
  9
$DIMEXE
 40
0.5
  9
$DIMEXO
 40
1.6000000000000001
  9
$DIMGAP
 40
0.625
  9
$DIMLFAC
 40
1.0
  9
$DIMLIM
 70
0
  9
$DIMLUNIT
 70
2
  9
$DIMSCALE
 40
1.0
  9
$DIMTAD
 70
0
  9
$DIMTFAC
 40
1.0
  9
$DIMTIH
 70
0
  9
$DIMTM
 40
0.01
  9
$DIMTOL
 70
1
  9
$DIMTP
 40
0.01
  9
$DIMTSZ
 40
0.0
  9
$DIMTXT
 40
2.0
  9
$DIMZIN
 70
0
  9
$DWGCODEPAGE
  3
ANSI_1252
  9
$EXTMAX
 10
237.5999999999999943
 20
168.0
 30
0.0
  9
$EXTMIN
 10
0.0
 20
0.0
 30
0.0
  9
$INSUNITS
 70
4
  9
$LIMMAX
 10
237.5999999999999943
 20
168.0
  9
$LIMMIN
 10
0.0
 20
0.0
  9
$LTSCALE
 40
13.0679999999999996
  9
$MAXACTVP
 70
64
  9
$MEASUREMENT
 70
1
  9
$MIRRTEXT
 70
0
  9
$PDMODE
 70
3
  9
$PDSIZE
 40
0.3125
  9
$TILEMODE
 70
1
  0
ENDSEC
  0
SECTION
  2
TABLES
  0
TABLE
  2
VPORT
  5
8
100
AcDbSymbolTable
 70
1
  0
VPORT
  5
30
100
AcDbSymbolTableRecord
100
AcDbViewportTableRecord
  2
*Active
 70
0
 10
0.0
 20
0.0
 11
1.0
 21
1.0
 12
286.3055555555554861
 22
148.5
 13
0.0
 23
0.0
 14
10.0
 24
10.0
 15
10.0
 25
10.0
 16
0.0
 26
0.0
 36
1.0
 17
0.0
 27
0.0
 37
0.0
 40
297.0
 41
1.92798353909465
 42
50.0
 43
0.0
 44
0.0
 50
0.0
 51
0.0
 71
0
 72
100
 73
1
 74
3
 75
1
 76
1
 77
0
 78
0
281
0
 65
1
110
0.0
120
0.0
130
0.0
111
1.0
121
0.0
131
0.0
112
0.0
122
1.0
132
0.0
 79
0
146
0.0
  0
ENDTAB
  0
TABLE
  2
LTYPE
  5
5
100
AcDbSymbolTable
 70
41
  0
LTYPE
  5
16
100
AcDbSymbolTableRecord
100
AcDbLinetypeTableRecord
  2
CONTINUOUS
 70
0
  3
Solid line
 72
65
 73
0
 40
0.0
  0
LTYPE
  5
31
100
AcDbSymbolTableRecord
100
AcDbLinetypeTableRecord
  2
DOT2
 70
0
  3
Dot (.5x) ........................................
 72
65
 73
2
 40
3.1749999999999998
 49
0.0
 74
0
 49
-3.1749999999999998
 74
0
  0
LTYPE
  5
32
100
AcDbSymbolTableRecord
100
AcDbLinetypeTableRecord
  2
DASHDOTX2
 70
0
  3
Dash dot (2x) ____  .  ____  .  ____  .  ___
 72
65
 73
4
 40
50.7999999999999972
 49
25.3999999999999986
 74
0
 49
-12.6999999999999993
 74
0
 49
0.0
 74
0
 49
-12.6999999999999993
 74
0
  0
LTYPE
  5
33
100
AcDbSymbolTableRecord
100
AcDbLinetypeTableRecord
  2
ACAD_ISO05W100
 70
0
  3
ISO long-dash double-dot ____ .. ____ .. ____ . 
 72
65
 73
6
 40
33.0
 49
24.0
 74
0
 49
-3.0
 74
0
 49
0.0
 74
0
 49
-3.0
 74
0
 49
0.0
 74
0
 49
-3.0
 74
0
  0
LTYPE
  5
34
100
AcDbSymbolTableRecord
100
AcDbLinetypeTableRecord
  2
ACAD_ISO13W100
 70
0
  3
ISO double-dash double-dot __ __ . . __ __ . . _
 72
65
 73
8
 40
36.0
 49
12.0
 74
0
 49
-3.0
 74
0
 49
12.0
 74
0
 49
-3.0
 74
0
 49
0.0
 74
0
 49
-3.0
 74
0
 49
0.0
 74
0
 49
-3.0
 74
0
  0
LTYPE
  5
35
100
AcDbSymbolTableRecord
100
AcDbLinetypeTableRecord
  2
ACAD_ISO15W100
 70
0
  3
ISO double-dash triple-dot __ __ . . . __ __ . .
 72
65
 73
10
 40
39.0
 49
12.0
 74
0
 49
-3.0
 74
0
 49
12.0
 74
0
 49
-3.0
 74
0
 49
0.0
 74
0
 49
-3.0
 74
0
 49
0.0
 74
0
 49
-3.0
 74
0
 49
0.0
 74
0
 49
-3.0
 74
0
  0
LTYPE
  5
36
100
AcDbSymbolTableRecord
100
AcDbLinetypeTableRecord
  2
ACAD_ISO10W100
 70
0
  3
ISO dash dot __ . __ . __ . __ . __ . __ . __ . 
 72
65
 73
4
 40
18.0
 49
12.0
 74
0
 49
-3.0
 74
0
 49
0.0
 74
0
 49
-3.0
 74
0
  0
LTYPE
  5
37
100
AcDbSymbolTableRecord
100
AcDbLinetypeTableRecord
  2
ACAD_ISO08W100
 70
0
  3
ISO long-dash short-dash ____ __ ____ __ ____ _
 72
65
 73
4
 40
36.0
 49
24.0
 74
0
 49
-3.0
 74
0
 49
6.0
 74
0
 49
-3.0
 74
0
  0
LTYPE
  5
38
100
AcDbSymbolTableRecord
100
AcDbLinetypeTableRecord
  2
ACAD_ISO14W100
 70
0
  3
ISO dash triple-dot __ . . . __ . . . __ . . . _
 72
65
 73
8
 40
24.0
 49
12.0
 74
0
 49
-3.0
 74
0
 49
0.0
 74
0
 49
-3.0
 74
0
 49
0.0
 74
0
 49
-3.0
 74
0
 49
0.0
 74
0
 49
-3.0
 74
0
  0
LTYPE
  5
39
100
AcDbSymbolTableRecord
100
AcDbLinetypeTableRecord
  2
ACAD_ISO02W100
 70
0
  3
ISO dash __ __ __ __ __ __ __ __ __ __ __ __ __
 72
65
 73
2
 40
15.0
 49
12.0
 74
0
 49
-3.0
 74
0
  0
LTYPE
  5
14
100
AcDbSymbolTableRecord
100
AcDbLinetypeTableRecord
  2
BYBLOCK
 70
0
  3

 72
65
 73
0
 40
0.0
  0
LTYPE
  5
3A
100
AcDbSymbolTableRecord
100
AcDbLinetypeTableRecord
  2
PHANTOM2
 70
0
  3
Phantom (.5x) ___ _ _ ___ _ _ ___ _ _ ___ _ _
 72
65
 73
6
 40
31.7500000000000036
 49
15.875
 74
0
 49
-3.1749999999999998
 74
0
 49
3.1749999999999998
 74
0
 49
-3.1749999999999998
 74
0
 49
3.1749999999999998
 74
0
 49
-3.1749999999999998
 74
0
  0
LTYPE
  5
3B
100
AcDbSymbolTableRecord
100
AcDbLinetypeTableRecord
  2
DOT
 70
0
  3
. . . . . . . . . . . . . . . . . . . .
 72
65
 73
2
 40
0.2
 49
0.1
 74
0
 49
-0.1
 74
0
  0
LTYPE
  5
3C
100
AcDbSymbolTableRecord
100
AcDbLinetypeTableRecord
  2
CENTER
 70
0
  3
____ _ ____ _ ____ _ ____ _ ____ _ ____ _ ____
 72
65
 73
4
 40
0.6
 49
0.375
 74
0
 49
-0.075
 74
0
 49
0.075
 74
0
 49
-0.075
 74
0
  0
LTYPE
  5
3D
100
AcDbSymbolTableRecord
100
AcDbLinetypeTableRecord
  2
DASHED
 70
0
  3
- - - - - - - - - - - - - - - - - - - -
 72
65
 73
2
 40
0.2
 49
0.1
 74
0
 49
-0.1
 74
0
  0
LTYPE
  5
3E
100
AcDbSymbolTableRecord
100
AcDbLinetypeTableRecord
  2
CENTER2
 70
0
  3
Center (.5x) ___ _ ___ _ ___ _ ___ _ ___ _ ___
 72
65
 73
4
 40
28.5750000000000028
 49
19.0500000000000007
 74
0
 49
-3.1749999999999998
 74
0
 49
3.1749999999999998
 74
0
 49
-3.1749999999999998
 74
0
  0
LTYPE
  5
3F
100
AcDbSymbolTableRecord
100
AcDbLinetypeTableRecord
  2
ACAD_ISO04W100
 70
0
  3
ISO long-dash dot ____ . ____ . ____ . ____ . _
 72
65
 73
4
 40
30.0
 49
24.0
 74
0
 49
-3.0
 74
0
 49
0.0
 74
0
 49
-3.0
 74
0
  0
LTYPE
  5
40
100
AcDbSymbolTableRecord
100
AcDbLinetypeTableRecord
  2
ACAD_ISO03W100
 70
0
  3
ISO dash space __    __    __    __    __    __
 72
65
 73
2
 40
30.0
 49
12.0
 74
0
 49
-18.0
 74
0
  0
LTYPE
  5
41
100
AcDbSymbolTableRecord
100
AcDbLinetypeTableRecord
  2
DIVIDE2
 70
0
  3
Divide (.5x) __..__..__..__..__..__..__..__.._
 72
65
 73
6
 40
15.875
 49
6.3499999999999996
 74
0
 49
-3.1749999999999998
 74
0
 49
0.0
 74
0
 49
-3.1749999999999998
 74
0
 49
0.0
 74
0
 49
-3.1749999999999998
 74
0
  0
LTYPE
  5
42
100
AcDbSymbolTableRecord
100
AcDbLinetypeTableRecord
  2
DIVIDE
 70
0
  3
Divide ____ . . ____ . . ____ . . ____ . . ____
 72
65
 73
6
 40
31.75
 49
12.6999999999999993
 74
0
 49
-6.3499999999999996
 74
0
 49
0.0
 74
0
 49
-6.3499999999999996
 74
0
 49
0.0
 74
0
 49
-6.3499999999999996
 74
0
  0
LTYPE
  5
43
100
AcDbSymbolTableRecord
100
AcDbLinetypeTableRecord
  2
HIDDEN
 70
0
  3
- - - - - - - - - - - - - - - - - - - -
 72
65
 73
2
 40
0.2
 49
0.1
 74
0
 49
-0.1
 74
0
  0
LTYPE
  5
44
100
AcDbSymbolTableRecord
100
AcDbLinetypeTableRecord
  2
DIVIDEX2
 70
0
  3
Divide (2x) ________  .  .  ________  .  .  _
 72
65
 73
6
 40
63.5
 49
25.3999999999999986
 74
0
 49
-12.6999999999999993
 74
0
 49
0.0
 74
0
 49
-12.6999999999999993
 74
0
 49
0.0
 74
0
 49
-12.6999999999999993
 74
0
  0
LTYPE
  5
45
100
AcDbSymbolTableRecord
100
AcDbLinetypeTableRecord
  2
DASHEDX2
 70
0
  3
Dashed (2x) ____  ____  ____  ____  ____  ___
 72
65
 73
2
 40
38.0999999999999943
 49
25.3999999999999986
 74
0
 49
-12.6999999999999993
 74
0
  0
LTYPE
  5
46
100
AcDbSymbolTableRecord
100
AcDbLinetypeTableRecord
  2
ACAD_ISO12W100
 70
0
  3
ISO dash double-dot __ . . __ . . __ . . __ . . 
 72
65
 73
6
 40
21.0
 49
12.0
 74
0
 49
-3.0
 74
0
 49
0.0
 74
0
 49
-3.0
 74
0
 49
0.0
 74
0
 49
-3.0
 74
0
  0
LTYPE
  5
15
100
AcDbSymbolTableRecord
100
AcDbLinetypeTableRecord
  2
BYLAYER
 70
0
  3

 72
65
 73
0
 40
0.0
  0
LTYPE
  5
47
100
AcDbSymbolTableRecord
100
AcDbLinetypeTableRecord
  2
DASHDOT
 70
0
  3
Dash dot __ . __ . __ . __ . __ . __ . __ . __
 72
65
 73
4
 40
25.3999999999999986
 49
12.6999999999999993
 74
0
 49
-6.3499999999999996
 74
0
 49
0.0
 74
0
 49
-6.3499999999999996
 74
0
  0
LTYPE
  5
48
100
AcDbSymbolTableRecord
100
AcDbLinetypeTableRecord
  2
CENTERX2
 70
0
  3
Center (2x) ________  __  ________  __  _____
 72
65
 73
4
 40
101.6000000000000085
 49
63.5
 74
0
 49
-12.6999999999999993
 74
0
 49
12.6999999999999993
 74
0
 49
-12.6999999999999993
 74
0
  0
LTYPE
  5
49
100
AcDbSymbolTableRecord
100
AcDbLinetypeTableRecord
  2
BORDER
 70
0
  3
Border __ __ . __ __ . __ __ . __ __ . __ __ .
 72
65
 73
6
 40
44.4499999999999957
 49
12.6999999999999993
 74
0
 49
-6.3499999999999996
 74
0
 49
12.6999999999999993
 74
0
 49
-6.3499999999999996
 74
0
 49
0.0
 74
0
 49
-6.3499999999999996
 74
0
  0
LTYPE
  5
4A
100
AcDbSymbolTableRecord
100
AcDbLinetypeTableRecord
  2
PHANTOM
 70
0
  3
_____ _ _ _____ _ _ _____ _ _ _____
 72
65
 73
6
 40
0.8
 49
0.45
 74
0
 49
-0.05
 74
0
 49
0.1
 74
0
 49
-0.05
 74
0
 49
0.1
 74
0
 49
-0.05
 74
0
  0
LTYPE
  5
4B
100
AcDbSymbolTableRecord
100
AcDbLinetypeTableRecord
  2
BORDERX2
 70
0
  3
Border (2x) ____  ____  .  ____  ____  .  ___
 72
65
 73
6
 40
88.8999999999999915
 49
25.3999999999999986
 74
0
 49
-12.6999999999999993
 74
0
 49
25.3999999999999986
 74
0
 49
-12.6999999999999993
 74
0
 49
0.0
 74
0
 49
-12.6999999999999993
 74
0
  0
LTYPE
  5
4C
100
AcDbSymbolTableRecord
100
AcDbLinetypeTableRecord
  2
PHANTOMX2
 70
0
  3
Phantom (2x) ____________    ____    ____   _
 72
65
 73
6
 40
127.0000000000000142
 49
63.5
 74
0
 49
-12.6999999999999993
 74
0
 49
12.6999999999999993
 74
0
 49
-12.6999999999999993
 74
0
 49
12.6999999999999993
 74
0
 49
-12.6999999999999993
 74
0
  0
LTYPE
  5
4D
100
AcDbSymbolTableRecord
100
AcDbLinetypeTableRecord
  2
DASHDOT2
 70
0
  3
Dash dot (.5x) _._._._._._._._._._._._._._._.
 72
65
 73
4
 40
12.6999999999999993
 49
6.3499999999999996
 74
0
 49
-3.1749999999999998
 74
0
 49
0.0
 74
0
 49
-3.1749999999999998
 74
0
  0
LTYPE
  5
4E
100
AcDbSymbolTableRecord
100
AcDbLinetypeTableRecord
  2
ACAD_ISO09W100
 70
0
  3
ISO long-dash double-short-dash ____ __ __ ____
 72
65
 73
6
 40
45.0
 49
24.0
 74
0
 49
-3.0
 74
0
 49
6.0
 74
0
 49
-3.0
 74
0
 49
6.0
 74
0
 49
-3.0
 74
0
  0
LTYPE
  5
4F
100
AcDbSymbolTableRecord
100
AcDbLinetypeTableRecord
  2
HIDDEN2
 70
0
  3
Hidden (.5x) _ _ _ _ _ _ _ _ _ _ _ _ _ _ _ _ _ 
 72
65
 73
2
 40
4.7624999999999993
 49
3.1749999999999998
 74
0
 49
-1.5874999999999999
 74
0
  0
LTYPE
  5
50
100
AcDbSymbolTableRecord
100
AcDbLinetypeTableRecord
  2
ACAD_ISO06W100
 70
0
  3
ISO long-dash triple-dot ____ ... ____ ... ____
 72
65
 73
8
 40
36.0
 49
24.0
 74
0
 49
-3.0
 74
0
 49
0.0
 74
0
 49
-3.0
 74
0
 49
0.0
 74
0
 49
-3.0
 74
0
 49
0.0
 74
0
 49
-3.0
 74
0
  0
LTYPE
  5
51
100
AcDbSymbolTableRecord
100
AcDbLinetypeTableRecord
  2
DASHED2
 70
0
  3
Dashed (.5x) _ _ _ _ _ _ _ _ _ _ _ _ _ _ _ _ _ 
 72
65
 73
2
 40
9.5249999999999986
 49
6.3499999999999996
 74
0
 49
-3.1749999999999998
 74
0
  0
LTYPE
  5
52
100
AcDbSymbolTableRecord
100
AcDbLinetypeTableRecord
  2
ACAD_ISO07W100
 70
0
  3
ISO dot . . . . . . . . . . . . . . . . . . . . 
 72
65
 73
2
 40
3.0
 49
0.0
 74
0
 49
-3.0
 74
0
  0
LTYPE
  5
53
100
AcDbSymbolTableRecord
100
AcDbLinetypeTableRecord
  2
HIDDENX2
 70
0
  3
Hidden (2x) ____ ____ ____ ____ ____ ____ ____ 
 72
65
 73
2
 40
19.0499999999999972
 49
12.6999999999999993
 74
0
 49
-6.3499999999999996
 74
0
  0
LTYPE
  5
54
100
AcDbSymbolTableRecord
100
AcDbLinetypeTableRecord
  2
ACAD_ISO11W100
 70
0
  3
ISO double-dash dot __ __ . __ __ . __ __ . __ _
 72
65
 73
6
 40
33.0
 49
12.0
 74
0
 49
-3.0
 74
0
 49
12.0
 74
0
 49
-3.0
 74
0
 49
0.0
 74
0
 49
-3.0
 74
0
  0
LTYPE
  5
55
100
AcDbSymbolTableRecord
100
AcDbLinetypeTableRecord
  2
DOTX2
 70
0
  3
Dot (2x) .  .  .  .  .  .  .  .  .  .  .  .  .  .
 72
65
 73
2
 40
12.6999999999999993
 49
0.0
 74
0
 49
-12.6999999999999993
 74
0
  0
LTYPE
  5
56
100
AcDbSymbolTableRecord
100
AcDbLinetypeTableRecord
  2
BORDER2
 70
0
  3
Border (.5x) __.__.__.__.__.__.__.__.__.__.__.
 72
65
 73
6
 40
22.2249999999999979
 49
6.3499999999999996
 74
0
 49
-3.1749999999999998
 74
0
 49
6.3499999999999996
 74
0
 49
-3.1749999999999998
 74
0
 49
0.0
 74
0
 49
-3.1749999999999998
 74
0
  0
ENDTAB
  0
TABLE
  2
LAYER
  5
2
100
AcDbSymbolTable
 70
13
  0
LAYER
  5
57
100
AcDbSymbolTableRecord
100
AcDbLayerTableRecord
  2
_29_KOORDINATENSYSTEME
 70
0
 62
7
420
16777215
  6
CONTINUOUS
370
-3
390
F
  0
LAYER
  5
58
100
AcDbSymbolTableRecord
100
AcDbLayerTableRecord
  2
PIANI
 70
0
 62
7
420
16777215
  6
CONTINUOUS
370
-3
390
F
  0
LAYER
  5
59
100
AcDbSymbolTableRecord
100
AcDbLayerTableRecord
  2
PIANI_DEF_PRT
 70
0
 62
7
420
16777215
  6
CONTINUOUS
370
-3
390
F
  0
LAYER
  5
5A
100
AcDbSymbolTableRecord
100
AcDbLayerTableRecord
  2
DIMS
 70
0
 62
7
420
16777215
  6
CONTINUOUS
370
-3
390
F
  0
LAYER
  5
10
100
AcDbSymbolTableRecord
100
AcDbLayerTableRecord
  2
0
 70
0
 62
7
420
16777215
  6
CONTINUOUS
370
-3
390
F
  0
LAYER
  5
5B
100
AcDbSymbolTableRecord
100
AcDbLayerTableRecord
  2
ASSI
 70
0
 62
7
420
16777215
  6
CONTINUOUS
370
-3
390
F
  0
LAYER
  5
5C
100
AcDbSymbolTableRecord
100
AcDbLayerTableRecord
  2
GEOM
 70
0
 62
7
420
16777215
  6
CONTINUOUS
370
-3
390
F
  0
LAYER
  5
5D
100
AcDbSymbolTableRecord
100
AcDbLayerTableRecord
  2
DEFAULT_1
 70
0
 62
7
420
16777215
  6
CENTER
370
-3
390
F
  0
LAYER
  5
5E
100
AcDbSymbolTableRecord
100
AcDbLayerTableRecord
  2
SYS_DEF_PRT
 70
0
 62
7
420
16777215
  6
CONTINUOUS
370
-3
390
F
  0
LAYER
  5
5F
100
AcDbSymbolTableRecord
100
AcDbLayerTableRecord
  2
DEFAULT_2
 70
0
 62
8
420
8355711
  6
HIDDEN
370
-3
390
F
  0
LAYER
  5
60
100
AcDbSymbolTableRecord
100
AcDbLayerTableRecord
  2
DEFAULT_3
 70
0
 62
7
420
16777215
  6
PHANTOM
370
-3
390
F
  0
LAYER
  5
61
100
AcDbSymbolTableRecord
100
AcDbLayerTableRecord
  2
DETAILS
 70
0
 62
7
420
16777215
  6
CONTINUOUS
370
-3
390
F
  0
LAYER
  5
62
100
AcDbSymbolTableRecord
100
AcDbLayerTableRecord
  2
NOGEOM
 70
0
 62
7
420
16777215
  6
CONTINUOUS
370
-3
390
F
  0
ENDTAB
  0
TABLE
  2
STYLE
  5
3
100
AcDbSymbolTable
 70
91
  0
STYLE
  5
63
100
AcDbSymbolTableRecord
100
AcDbTextStyleTableRecord
  2
Standard
 70
0
 40
0.0
 41
1.0
 50
0.0
 71
0
 42
2.5
  3

  4

1001
ACAD
1000
txt
1071
0
  0
STYLE
  5
64
100
AcDbSymbolTableRecord
100
AcDbTextStyleTableRecord
  2
textstyle0
 70
0
 40
0.0
 41
1.0
 50
0.0
 71
0
 42
2.0
  3

  4

1001
ACAD
1000
Standard
1071
0
  0
STYLE
  5
65
100
AcDbSymbolTableRecord
100
AcDbTextStyleTableRecord
  2
textstyle1
 70
0
 40
0.0
 41
1.0
 50
0.0
 71
0
 42
2.0
  3

  4

1001
ACAD
1000
Standard
1071
0
  0
STYLE
  5
66
100
AcDbSymbolTableRecord
100
AcDbTextStyleTableRecord
  2
textstyle2
 70
0
 40
0.0
 41
1.0
 50
0.0
 71
0
 42
2.0
  3

  4

1001
ACAD
1000
Standard
1071
0
  0
STYLE
  5
67
100
AcDbSymbolTableRecord
100
AcDbTextStyleTableRecord
  2
textstyle3
 70
0
 40
0.0
 41
1.0
 50
0.0
 71
0
 42
2.0
  3

  4

1001
ACAD
1000
Standard
1071
0
  0
STYLE
  5
68
100
AcDbSymbolTableRecord
100
AcDbTextStyleTableRecord
  2
textstyle4
 70
0
 40
0.0
 41
1.0
 50
0.0
 71
0
 42
2.0
  3

  4

1001
ACAD
1000
Standard
1071
0
  0
STYLE
  5
69
100
AcDbSymbolTableRecord
100
AcDbTextStyleTableRecord
  2
textstyle5
 70
0
 40
0.0
 41
1.0
 50
0.0
 71
0
 42
3.2000000000000002
  3

  4

1001
ACAD
1000
Standard
1071
0
  0
STYLE
  5
6A
100
AcDbSymbolTableRecord
100
AcDbTextStyleTableRecord
  2
textstyle6
 70
0
 40
0.0
 41
1.0
 50
0.0
 71
0
 42
1.2
  3

  4

1001
ACAD
1000
calibri
1071
0
  0
STYLE
  5
6B
100
AcDbSymbolTableRecord
100
AcDbTextStyleTableRecord
  2
textstyle7
 70
0
 40
0.0
 41
1.0
 50
0.0
 71
0
 42
1.2
  3

  4

1001
ACAD
1000
calibri
1071
0
  0
STYLE
  5
6C
100
AcDbSymbolTableRecord
100
AcDbTextStyleTableRecord
  2
textstyle8
 70
0
 40
0.0
 41
1.0
 50
0.0
 71
0
 42
0.8
  3

  4

1001
ACAD
1000
arial
1071
0
  0
STYLE
  5
6D
100
AcDbSymbolTableRecord
100
AcDbTextStyleTableRecord
  2
textstyle9
 70
0
 40
0.0
 41
1.0
 50
0.0
 71
0
 42
1.2
  3

  4

1001
ACAD
1000
calibri
1071
0
  0
STYLE
  5
6E
100
AcDbSymbolTableRecord
100
AcDbTextStyleTableRecord
  2
textstyle10
 70
0
 40
0.0
 41
1.0
 50
0.0
 71
0
 42
1.2
  3

  4

1001
ACAD
1000
calibri
1071
0
  0
STYLE
  5
6F
100
AcDbSymbolTableRecord
100
AcDbTextStyleTableRecord
  2
textstyle11
 70
0
 40
0.0
 41
1.0
 50
0.0
 71
0
 42
1.2
  3

  4

1001
ACAD
1000
calibri
1071
0
  0
STYLE
  5
70
100
AcDbSymbolTableRecord
100
AcDbTextStyleTableRecord
  2
textstyle12
 70
0
 40
0.0
 41
1.0
 50
0.0
 71
0
 42
1.2
  3

  4

1001
ACAD
1000
calibri
1071
0
  0
STYLE
  5
71
100
AcDbSymbolTableRecord
100
AcDbTextStyleTableRecord
  2
textstyle13
 70
0
 40
0.0
 41
1.0
 50
0.0
 71
0
 42
1.2
  3

  4

1001
ACAD
1000
calibri
1071
0
  0
STYLE
  5
72
100
AcDbSymbolTableRecord
100
AcDbTextStyleTableRecord
  2
textstyle14
 70
0
 40
0.0
 41
1.0
 50
0.0
 71
0
 42
1.2
  3

  4

1001
ACAD
1000
calibri
1071
0
  0
STYLE
  5
73
100
AcDbSymbolTableRecord
100
AcDbTextStyleTableRecord
  2
textstyle15
 70
0
 40
0.0
 41
1.0
 50
0.0
 71
0
 42
1.2
  3

  4

1001
ACAD
1000
calibri
1071
0
  0
STYLE
  5
74
100
AcDbSymbolTableRecord
100
AcDbTextStyleTableRecord
  2
textstyle16
 70
0
 40
0.0
 41
1.0
 50
0.0
 71
0
 42
1.2
  3

  4

1001
ACAD
1000
calibri
1071
0
  0
STYLE
  5
75
100
AcDbSymbolTableRecord
100
AcDbTextStyleTableRecord
  2
textstyle17
 70
0
 40
0.0
 41
1.0
 50
0.0
 71
0
 42
1.2
  3

  4

1001
ACAD
1000
calibri
1071
0
  0
STYLE
  5
76
100
AcDbSymbolTableRecord
100
AcDbTextStyleTableRecord
  2
textstyle18
 70
0
 40
0.0
 41
1.0
 50
0.0
 71
0
 42
1.2
  3

  4

1001
ACAD
1000
calibri
1071
0
  0
STYLE
  5
77
100
AcDbSymbolTableRecord
100
AcDbTextStyleTableRecord
  2
textstyle19
 70
0
 40
0.0
 41
1.0
 50
0.0
 71
0
 42
1.2
  3

  4

1001
ACAD
1000
calibri
1071
0
  0
STYLE
  5
78
100
AcDbSymbolTableRecord
100
AcDbTextStyleTableRecord
  2
textstyle20
 70
0
 40
0.0
 41
1.0
 50
0.0
 71
0
 42
1.2
  3

  4

1001
ACAD
1000
calibri
1071
0
  0
STYLE
  5
79
100
AcDbSymbolTableRecord
100
AcDbTextStyleTableRecord
  2
textstyle21
 70
0
 40
0.0
 41
1.0
 50
0.0
 71
0
 42
1.2
  3

  4

1001
ACAD
1000
calibri
1071
0
  0
STYLE
  5
7A
100
AcDbSymbolTableRecord
100
AcDbTextStyleTableRecord
  2
textstyle22
 70
0
 40
0.0
 41
1.0
 50
0.0
 71
0
 42
1.2
  3

  4

1001
ACAD
1000
calibri
1071
0
  0
STYLE
  5
7B
100
AcDbSymbolTableRecord
100
AcDbTextStyleTableRecord
  2
textstyle23
 70
0
 40
0.0
 41
1.0
 50
0.0
 71
0
 42
1.2
  3

  4

1001
ACAD
1000
calibri
1071
0
  0
STYLE
  5
7C
100
AcDbSymbolTableRecord
100
AcDbTextStyleTableRecord
  2
textstyle24
 70
0
 40
0.0
 41
1.0
 50
0.0
 71
0
 42
1.2
  3

  4

1001
ACAD
1000
calibri
1071
0
  0
STYLE
  5
7D
100
AcDbSymbolTableRecord
100
AcDbTextStyleTableRecord
  2
textstyle25
 70
0
 40
0.0
 41
1.0
 50
0.0
 71
0
 42
1.2
  3

  4

1001
ACAD
1000
calibri
1071
0
  0
STYLE
  5
7E
100
AcDbSymbolTableRecord
100
AcDbTextStyleTableRecord
  2
textstyle26
 70
0
 40
0.0
 41
1.0
 50
0.0
 71
0
 42
1.2
  3

  4

1001
ACAD
1000
calibri
1071
0
  0
STYLE
  5
7F
100
AcDbSymbolTableRecord
100
AcDbTextStyleTableRecord
  2
textstyle27
 70
0
 40
0.0
 41
1.0
 50
0.0
 71
0
 42
1.2
  3

  4

1001
ACAD
1000
calibri
1071
0
  0
STYLE
  5
80
100
AcDbSymbolTableRecord
100
AcDbTextStyleTableRecord
  2
textstyle28
 70
0
 40
0.0
 41
1.0
 50
0.0
 71
0
 42
2.0
  3

  4

1001
ACAD
1000
arial
1071
0
  0
STYLE
  5
81
100
AcDbSymbolTableRecord
100
AcDbTextStyleTableRecord
  2
textstyle29
 70
0
 40
0.0
 41
1.0
 50
0.0
 71
0
 42
1.2
  3

  4

1001
ACAD
1000
calibri
1071
0
  0
STYLE
  5
82
100
AcDbSymbolTableRecord
100
AcDbTextStyleTableRecord
  2
textstyle30
 70
0
 40
0.0
 41
1.0
 50
0.0
 71
0
 42
1.2
  3

  4

1001
ACAD
1000
calibri
1071
0
  0
STYLE
  5
83
100
AcDbSymbolTableRecord
100
AcDbTextStyleTableRecord
  2
textstyle31
 70
0
 40
0.0
 41
1.0
 50
0.0
 71
0
 42
1.2
  3

  4

1001
ACAD
1000
calibri
1071
0
  0
STYLE
  5
84
100
AcDbSymbolTableRecord
100
AcDbTextStyleTableRecord
  2
textstyle32
 70
0
 40
0.0
 41
1.0
 50
0.0
 71
0
 42
1.2
  3

  4

1001
ACAD
1000
calibri
1071
0
  0
STYLE
  5
85
100
AcDbSymbolTableRecord
100
AcDbTextStyleTableRecord
  2
textstyle33
 70
0
 40
0.0
 41
1.0
 50
0.0
 71
0
 42
1.2
  3

  4

1001
ACAD
1000
calibri
1071
0
  0
STYLE
  5
86
100
AcDbSymbolTableRecord
100
AcDbTextStyleTableRecord
  2
textstyle34
 70
0
 40
0.0
 41
1.0
 50
0.0
 71
0
 42
1.2
  3

  4

1001
ACAD
1000
calibri
1071
0
  0
STYLE
  5
87
100
AcDbSymbolTableRecord
100
AcDbTextStyleTableRecord
  2
textstyle35
 70
0
 40
0.0
 41
1.0
 50
0.0
 71
0
 42
1.2
  3

  4

1001
ACAD
1000
calibri
1071
0
  0
STYLE
  5
88
100
AcDbSymbolTableRecord
100
AcDbTextStyleTableRecord
  2
textstyle36
 70
0
 40
0.0
 41
1.0
 50
0.0
 71
0
 42
1.2
  3

  4

1001
ACAD
1000
calibri
1071
0
  0
STYLE
  5
89
100
AcDbSymbolTableRecord
100
AcDbTextStyleTableRecord
  2
textstyle37
 70
0
 40
0.0
 41
1.0
 50
0.0
 71
0
 42
1.2
  3

  4

1001
ACAD
1000
calibri
1071
0
  0
STYLE
  5
8A
100
AcDbSymbolTableRecord
100
AcDbTextStyleTableRecord
  2
textstyle38
 70
0
 40
0.0
 41
1.0
 50
0.0
 71
0
 42
1.2
  3

  4

1001
ACAD
1000
calibri
1071
0
  0
STYLE
  5
8B
100
AcDbSymbolTableRecord
100
AcDbTextStyleTableRecord
  2
textstyle39
 70
0
 40
0.0
 41
1.0
 50
0.0
 71
0
 42
1.2
  3

  4

1001
ACAD
1000
calibri
1071
0
  0
STYLE
  5
8C
100
AcDbSymbolTableRecord
100
AcDbTextStyleTableRecord
  2
textstyle40
 70
0
 40
0.0
 41
1.0
 50
0.0
 71
0
 42
1.2
  3

  4

1001
ACAD
1000
calibri
1071
0
  0
STYLE
  5
8D
100
AcDbSymbolTableRecord
100
AcDbTextStyleTableRecord
  2
textstyle41
 70
0
 40
0.0
 41
1.0
 50
0.0
 71
0
 42
1.2
  3

  4

1001
ACAD
1000
calibri
1071
0
  0
STYLE
  5
8E
100
AcDbSymbolTableRecord
100
AcDbTextStyleTableRecord
  2
textstyle42
 70
0
 40
0.0
 41
1.0
 50
0.0
 71
0
 42
1.2
  3

  4

1001
ACAD
1000
calibri
1071
0
  0
STYLE
  5
8F
100
AcDbSymbolTableRecord
100
AcDbTextStyleTableRecord
  2
textstyle43
 70
0
 40
0.0
 41
1.0
 50
0.0
 71
0
 42
1.2
  3

  4

1001
ACAD
1000
calibri
1071
0
  0
STYLE
  5
90
100
AcDbSymbolTableRecord
100
AcDbTextStyleTableRecord
  2
textstyle44
 70
0
 40
0.0
 41
1.0
 50
0.0
 71
0
 42
0.8
  3

  4

1001
ACAD
1000
calibri
1071
0
  0
STYLE
  5
91
100
AcDbSymbolTableRecord
100
AcDbTextStyleTableRecord
  2
textstyle45
 70
0
 40
0.0
 41
1.0
 50
0.0
 71
0
 42
0.5656565657
  3

  4

1001
ACAD
1000
Standard
1071
0
  0
STYLE
  5
92
100
AcDbSymbolTableRecord
100
AcDbTextStyleTableRecord
  2
textstyle46
 70
0
 40
0.0
 41
1.0
 50
0.0
 71
0
 42
0.5656565657
  3

  4

1001
ACAD
1000
Standard
1071
0
  0
STYLE
  5
93
100
AcDbSymbolTableRecord
100
AcDbTextStyleTableRecord
  2
textstyle47
 70
0
 40
0.0
 41
1.0
 50
0.0
 71
0
 42
0.5656565657
  3

  4

1001
ACAD
1000
Standard
1071
0
  0
STYLE
  5
94
100
AcDbSymbolTableRecord
100
AcDbTextStyleTableRecord
  2
textstyle48
 70
0
 40
0.0
 41
1.0
 50
0.0
 71
0
 42
0.5656565657
  3

  4

1001
ACAD
1000
Standard
1071
0
  0
STYLE
  5
95
100
AcDbSymbolTableRecord
100
AcDbTextStyleTableRecord
  2
textstyle49
 70
0
 40
0.0
 41
1.0
 50
0.0
 71
0
 42
0.5656565657
  3

  4

1001
ACAD
1000
Standard
1071
0
  0
STYLE
  5
96
100
AcDbSymbolTableRecord
100
AcDbTextStyleTableRecord
  2
textstyle50
 70
0
 40
0.0
 41
1.0
 50
0.0
 71
0
 42
0.5656565657
  3

  4

1001
ACAD
1000
Standard
1071
0
  0
STYLE
  5
97
100
AcDbSymbolTableRecord
100
AcDbTextStyleTableRecord
  2
textstyle51
 70
0
 40
0.0
 41
1.0
 50
0.0
 71
0
 42
0.5656565657
  3

  4

1001
ACAD
1000
Standard
1071
0
  0
STYLE
  5
98
100
AcDbSymbolTableRecord
100
AcDbTextStyleTableRecord
  2
textstyle52
 70
0
 40
0.0
 41
1.0
 50
0.0
 71
0
 42
0.5656565657
  3

  4

1001
ACAD
1000
Standard
1071
0
  0
STYLE
  5
99
100
AcDbSymbolTableRecord
100
AcDbTextStyleTableRecord
  2
textstyle53
 70
0
 40
0.0
 41
1.0
 50
0.0
 71
0
 42
0.5656565657
  3

  4

1001
ACAD
1000
Standard
1071
0
  0
STYLE
  5
9A
100
AcDbSymbolTableRecord
100
AcDbTextStyleTableRecord
  2
textstyle54
 70
0
 40
0.0
 41
1.0
 50
0.0
 71
0
 42
0.5656565657
  3

  4

1001
ACAD
1000
Standard
1071
0
  0
STYLE
  5
9B
100
AcDbSymbolTableRecord
100
AcDbTextStyleTableRecord
  2
textstyle55
 70
0
 40
0.0
 41
1.0
 50
0.0
 71
0
 42
2.2626263999999998
  3

  4

1001
ACAD
1000
Standard
1071
0
  0
STYLE
  5
9C
100
AcDbSymbolTableRecord
100
AcDbTextStyleTableRecord
  2
textstyle56
 70
0
 40
0.0
 41
1.0
 50
0.0
 71
0
 42
0.5656565657
  3

  4

1001
ACAD
1000
Standard
1071
0
  0
STYLE
  5
9D
100
AcDbSymbolTableRecord
100
AcDbTextStyleTableRecord
  2
textstyle57
 70
0
 40
0.0
 41
1.0
 50
0.0
 71
0
 42
2.2626263999999998
  3

  4

1001
ACAD
1000
Standard
1071
0
  0
STYLE
  5
9E
100
AcDbSymbolTableRecord
100
AcDbTextStyleTableRecord
  2
textstyle58
 70
0
 40
0.0
 41
1.0
 50
0.0
 71
0
 42
2.2626263999999998
  3

  4

1001
ACAD
1000
Standard
1071
0
  0
STYLE
  5
9F
100
AcDbSymbolTableRecord
100
AcDbTextStyleTableRecord
  2
textstyle59
 70
0
 40
0.0
 41
1.0
 50
0.0
 71
0
 42
3.2000000000000002
  3

  4

1001
ACAD
1000
Standard
1071
0
  0
STYLE
  5
A0
100
AcDbSymbolTableRecord
100
AcDbTextStyleTableRecord
  2
textstyle60
 70
0
 40
0.0
 41
1.0
 50
0.0
 71
0
 42
3.2000000000000002
  3

  4

1001
ACAD
1000
Standard
1071
0
  0
STYLE
  5
A1
100
AcDbSymbolTableRecord
100
AcDbTextStyleTableRecord
  2
textstyle61
 70
0
 40
0.0
 41
1.0
 50
0.0
 71
0
 42
3.2000000000000002
  3

  4

1001
ACAD
1000
Standard
1071
0
  0
STYLE
  5
A2
100
AcDbSymbolTableRecord
100
AcDbTextStyleTableRecord
  2
textstyle62
 70
0
 40
0.0
 41
1.0
 50
0.0
 71
0
 42
3.2000000000000002
  3

  4

1001
ACAD
1000
Standard
1071
0
  0
STYLE
  5
A3
100
AcDbSymbolTableRecord
100
AcDbTextStyleTableRecord
  2
textstyle63
 70
0
 40
0.0
 41
1.0
 50
0.0
 71
0
 42
3.2000000000000002
  3

  4

1001
ACAD
1000
Standard
1071
0
  0
STYLE
  5
A4
100
AcDbSymbolTableRecord
100
AcDbTextStyleTableRecord
  2
textstyle64
 70
0
 40
0.0
 41
1.0
 50
0.0
 71
0
 42
3.2000000000000002
  3

  4

1001
ACAD
1000
Standard
1071
0
  0
STYLE
  5
A5
100
AcDbSymbolTableRecord
100
AcDbTextStyleTableRecord
  2
textstyle65
 70
0
 40
0.0
 41
1.0
 50
0.0
 71
0
 42
3.2000000000000002
  3

  4

1001
ACAD
1000
Standard
1071
0
  0
STYLE
  5
A6
100
AcDbSymbolTableRecord
100
AcDbTextStyleTableRecord
  2
textstyle66
 70
0
 40
0.0
 41
1.0
 50
0.0
 71
0
 42
2.2626263999999998
  3

  4

1001
ACAD
1000
Standard
1071
0
  0
STYLE
  5
A7
100
AcDbSymbolTableRecord
100
AcDbTextStyleTableRecord
  2
textstyle67
 70
0
 40
0.0
 41
1.0
 50
0.0
 71
0
 42
2.2626263999999998
  3

  4

1001
ACAD
1000
Standard
1071
0
  0
STYLE
  5
A8
100
AcDbSymbolTableRecord
100
AcDbTextStyleTableRecord
  2
textstyle68
 70
0
 40
0.0
 41
1.0
 50
0.0
 71
0
 42
2.2626263999999998
  3

  4

1001
ACAD
1000
Standard
1071
0
  0
STYLE
  5
A9
100
AcDbSymbolTableRecord
100
AcDbTextStyleTableRecord
  2
textstyle69
 70
0
 40
0.0
 41
1.0
 50
0.0
 71
0
 42
2.2626263999999998
  3

  4

1001
ACAD
1000
Standard
1071
0
  0
STYLE
  5
AA
100
AcDbSymbolTableRecord
100
AcDbTextStyleTableRecord
  2
textstyle70
 70
0
 40
0.0
 41
1.0
 50
0.0
 71
0
 42
2.2626263999999998
  3

  4

1001
ACAD
1000
Standard
1071
0
  0
STYLE
  5
AB
100
AcDbSymbolTableRecord
100
AcDbTextStyleTableRecord
  2
textstyle71
 70
0
 40
0.0
 41
1.0
 50
0.0
 71
0
 42
2.2626263999999998
  3

  4

1001
ACAD
1000
Standard
1071
0
  0
STYLE
  5
AC
100
AcDbSymbolTableRecord
100
AcDbTextStyleTableRecord
  2
textstyle72
 70
0
 40
0.0
 41
1.0
 50
0.0
 71
0
 42
2.3999999999999999
  3

  4

1001
ACAD
1000
Standard
1071
0
  0
STYLE
  5
AD
100
AcDbSymbolTableRecord
100
AcDbTextStyleTableRecord
  2
textstyle73
 70
0
 40
0.0
 41
1.0
 50
0.0
 71
0
 42
2.3999999999999999
  3

  4

1001
ACAD
1000
Standard
1071
0
  0
STYLE
  5
AE
100
AcDbSymbolTableRecord
100
AcDbTextStyleTableRecord
  2
textstyle74
 70
0
 40
0.0
 41
1.0
 50
0.0
 71
0
 42
2.2626263999999998
  3

  4

1001
ACAD
1000
Standard
1071
0
  0
STYLE
  5
AF
100
AcDbSymbolTableRecord
100
AcDbTextStyleTableRecord
  2
textstyle75
 70
0
 40
0.0
 41
1.0
 50
0.0
 71
0
 42
2.2626263999999998
  3

  4

1001
ACAD
1000
Standard
1071
0
  0
STYLE
  5
B0
100
AcDbSymbolTableRecord
100
AcDbTextStyleTableRecord
  2
textstyle76
 70
0
 40
0.0
 41
1.0
 50
0.0
 71
0
 42
2.2626263999999998
  3

  4

1001
ACAD
1000
Standard
1071
0
  0
STYLE
  5
B1
100
AcDbSymbolTableRecord
100
AcDbTextStyleTableRecord
  2
textstyle77
 70
0
 40
0.0
 41
1.0
 50
0.0
 71
0
 42
2.2626263999999998
  3

  4

1001
ACAD
1000
Standard
1071
0
  0
STYLE
  5
B2
100
AcDbSymbolTableRecord
100
AcDbTextStyleTableRecord
  2
textstyle78
 70
0
 40
0.0
 41
1.0
 50
0.0
 71
0
 42
2.2626263999999998
  3

  4

1001
ACAD
1000
Standard
1071
0
  0
STYLE
  5
B3
100
AcDbSymbolTableRecord
100
AcDbTextStyleTableRecord
  2
textstyle79
 70
0
 40
0.0
 41
1.0
 50
0.0
 71
0
 42
2.2626263999999998
  3

  4

1001
ACAD
1000
Standard
1071
0
  0
STYLE
  5
B4
100
AcDbSymbolTableRecord
100
AcDbTextStyleTableRecord
  2
textstyle80
 70
0
 40
0.0
 41
1.0
 50
0.0
 71
0
 42
2.2626263999999998
  3

  4

1001
ACAD
1000
Standard
1071
0
  0
STYLE
  5
B5
100
AcDbSymbolTableRecord
100
AcDbTextStyleTableRecord
  2
textstyle81
 70
0
 40
0.0
 41
1.0
 50
0.0
 71
0
 42
2.2626263999999998
  3

  4

1001
ACAD
1000
Standard
1071
0
  0
STYLE
  5
B6
100
AcDbSymbolTableRecord
100
AcDbTextStyleTableRecord
  2
textstyle82
 70
0
 40
0.0
 41
1.0
 50
0.0
 71
0
 42
2.2626263999999998
  3

  4

1001
ACAD
1000
Standard
1071
0
  0
STYLE
  5
B7
100
AcDbSymbolTableRecord
100
AcDbTextStyleTableRecord
  2
textstyle83
 70
0
 40
0.0
 41
1.0
 50
0.0
 71
0
 42
2.2626263999999998
  3

  4

1001
ACAD
1000
Standard
1071
0
  0
STYLE
  5
B8
100
AcDbSymbolTableRecord
100
AcDbTextStyleTableRecord
  2
textstyle84
 70
0
 40
0.0
 41
1.0
 50
0.0
 71
0
 42
2.2626263999999998
  3

  4

1001
ACAD
1000
Standard
1071
0
  0
STYLE
  5
B9
100
AcDbSymbolTableRecord
100
AcDbTextStyleTableRecord
  2
textstyle85
 70
0
 40
0.0
 41
1.0
 50
0.0
 71
0
 42
2.2626263999999998
  3

  4

1001
ACAD
1000
Standard
1071
0
  0
STYLE
  5
BA
100
AcDbSymbolTableRecord
100
AcDbTextStyleTableRecord
  2
textstyle86
 70
0
 40
0.0
 41
1.0
 50
0.0
 71
0
 42
2.2626263999999998
  3

  4

1001
ACAD
1000
Standard
1071
0
  0
STYLE
  5
BB
100
AcDbSymbolTableRecord
100
AcDbTextStyleTableRecord
  2
textstyle87
 70
0
 40
0.0
 41
1.0
 50
0.0
 71
0
 42
2.2626263999999998
  3

  4

1001
ACAD
1000
Standard
1071
0
  0
STYLE
  5
BC
100
AcDbSymbolTableRecord
100
AcDbTextStyleTableRecord
  2
textstyle88
 70
0
 40
0.0
 41
1.0
 50
0.0
 71
0
 42
2.2626263999999998
  3

  4

1001
ACAD
1000
Standard
1071
0
  0
STYLE
  5
BD
100
AcDbSymbolTableRecord
100
AcDbTextStyleTableRecord
  2
textstyle89
 70
0
 40
0.0
 41
1.0
 50
0.0
 71
0
 42
2.2626263999999998
  3

  4

1001
ACAD
1000
Standard
1071
0
  0
ENDTAB
  0
TABLE
  2
VIEW
  5
6
100
AcDbSymbolTable
 70
0
  0
ENDTAB
  0
TABLE
  2
UCS
  5
7
100
AcDbSymbolTable
 70
0
  0
ENDTAB
  0
TABLE
  2
APPID
  5
9
100
AcDbSymbolTable
 70
1
  0
APPID
  5
12
100
AcDbSymbolTableRecord
100
AcDbRegAppTableRecord
  2
ACAD
 70
0
  0
APPID
  5
BE
100
AcDbSymbolTableRecord
100
AcDbRegAppTableRecord
  2
QCAD
 70
0
  0
ENDTAB
  0
TABLE
  2
DIMSTYLE
  5
A
100
AcDbSymbolTable
 70
1
100
AcDbDimStyleTable
 71
0
  0
DIMSTYLE
105
27
100
AcDbSymbolTableRecord
100
AcDbDimStyleTableRecord
  2
Standard
 41
2.0
 42
1.6000000000000001
 43
3.75
 44
0.5
 70
0
 73
0
 74
0
 77
0
 78
8
140
2.0
141
2.5
143
0.03937007874016
147
0.625
171
3
172
1
271
2
272
2
274
3
278
44
283
0
284
8
340
63
  0
ENDTAB
  0
TABLE
  2
BLOCK_RECORD
  5
1
100
AcDbSymbolTable
 70
1
  0
BLOCK_RECORD
  5
1F
100
AcDbSymbolTableRecord
100
AcDbBlockTableRecord
  2
*Model_Space
340
22
  0
BLOCK_RECORD
  5
1B
100
AcDbSymbolTableRecord
100
AcDbBlockTableRecord
  2
*Paper_Space
340
1E
  0
BLOCK_RECORD
  5
23
100
AcDbSymbolTableRecord
100
AcDbBlockTableRecord
  2
*Paper_Space0
340
26
  0
ENDTAB
  0
ENDSEC
  0
SECTION
  2
BLOCKS
  0
BLOCK
  5
20
100
AcDbEntity
  8
0
100
AcDbBlockBegin
  2
*Model_Space
 70
0
 10
0.0
 20
0.0
 30
0.0
  3
*Model_Space
  1

  0
ENDBLK
  5
21
100
AcDbEntity
  8
0
100
AcDbBlockEnd
  0
BLOCK
  5
1C
100
AcDbEntity
 67
1
  8
0
100
AcDbBlockBegin
  2
*Paper_Space
 70
0
 10
0.0
 20
0.0
 30
0.0
  3
*Paper_Space
  1

  0
ENDBLK
  5
1D
100
AcDbEntity
 67
1
  8
0
100
AcDbBlockEnd
  0
BLOCK
  5
24
100
AcDbEntity
  8
0
100
AcDbBlockBegin
  2
*Paper_Space0
 70
0
 10
0.0
 20
0.0
 30
0.0
  3
*Paper_Space0
  1

  0
ENDBLK
  5
25
100
AcDbEntity
  8
0
100
AcDbBlockEnd
  0
ENDSEC
  0
SECTION
  2
ENTITIES
  0
MTEXT
  5
18A
100
AcDbEntity
  8
0
 62
7
420
16777215
370
-1
 48
1.0
  6
CONTINUOUS
100
AcDbMText
 10
4.2424242424000003
 20
150.1818182504999868
 30
0.0
 40
2.2626263999999998
 41
1.8101011199999999
 71
2
 72
1
  1
A
  7
textstyle70
 50
0.0
 73
2
 44
0.9
  0
MTEXT
  5
18B
100
AcDbEntity
  8
0
 62
7
420
16777215
370
-1
 48
1.0
  6
CONTINUOUS
100
AcDbMText
 10
4.2424242424000003
 20
124.1616162302999982
 30
0.0
 40
2.2626263999999998
 41
1.8101011199999999
 71
2
 72
1
  1
B
  7
textstyle71
 50
0.0
 73
2
 44
0.9
  0
MTEXT
  5
18C
100
AcDbEntity
  8
0
 62
7
420
16777215
370
-1
 48
1.0
  6
CONTINUOUS
100
AcDbMText
 10
4.2424242424000003
 20
98.1414142100999953
 30
0.0
 40
2.2626263999999998
 41
1.8101011199999999
 71
2
 72
1
  1
C
  7
textstyle68
 50
0.0
 73
2
 44
0.9
  0
MTEXT
  5
18D
100
AcDbEntity
  8
0
 62
7
420
16777215
370
-1
 48
1.0
  6
CONTINUOUS
100
AcDbMText
 10
4.2424242424000003
 20
72.1212121899000067
 30
0.0
 40
2.2626263999999998
 41
1.8101011199999999
 71
2
 72
1
  1
D
  7
textstyle69
 50
0.0
 73
2
 44
0.9
  0
MTEXT
  5
18E
100
AcDbEntity
  8
0
 62
7
420
16777215
370
-1
 48
1.0
  6
CONTINUOUS
100
AcDbMText
 10
4.2424242424000003
 20
46.1010101696999968
 30
0.0
 40
2.2626263999999998
 41
1.8101011199999999
 71
2
 72
1
  1
E
  7
textstyle66
 50
0.0
 73
2
 44
0.9
  0
MTEXT
  5
18F
100
AcDbEntity
  8
0
 62
7
420
16777215
370
-1
 48
1.0
  6
CONTINUOUS
100
AcDbMText
 10
4.2424242424000003
 20
20.080808149500001
 30
0.0
 40
2.2626263999999998
 41
1.8101011199999999
 71
2
 72
1
  1
F
  7
textstyle67
 50
0.0
 73
2
 44
0.9
  0
MTEXT
  5
190
100
AcDbEntity
  8
0
 62
7
420
16777215
370
-1
 48
1.0
  6
CONTINUOUS
100
AcDbMText
 10
233.3333333333000041
 20
150.1818182504999868
 30
0.0
 40
2.2626263999999998
 41
1.8101011199999999
 71
2
 72
1
  1
A
  7
textstyle88
 50
0.0
 73
2
 44
0.9
  0
MTEXT
  5
191
100
AcDbEntity
  8
0
 62
7
420
16777215
370
-1
 48
1.0
  6
CONTINUOUS
100
AcDbMText
 10
233.3333333333000041
 20
124.1616162302999982
 30
0.0
 40
2.2626263999999998
 41
1.8101011199999999
 71
2
 72
1
  1
B
  7
textstyle89
 50
0.0
 73
2
 44
0.9
  0
MTEXT
  5
192
100
AcDbEntity
  8
0
 62
7
420
16777215
370
-1
 48
1.0
  6
CONTINUOUS
100
AcDbMText
 10
233.3333333333000041
 20
98.1414142100999953
 30
0.0
 40
2.2626263999999998
 41
1.8101011199999999
 71
2
 72
1
  1
C
  7
textstyle86
 50
0.0
 73
2
 44
0.9
  0
MTEXT
  5
193
100
AcDbEntity
  8
0
 62
7
420
16777215
370
-1
 48
1.0
  6
CONTINUOUS
100
AcDbMText
 10
233.3333333333000041
 20
72.1212121899000067
 30
0.0
 40
2.2626263999999998
 41
1.8101011199999999
 71
2
 72
1
  1
D
  7
textstyle87
 50
0.0
 73
2
 44
0.9
  0
MTEXT
  5
194
100
AcDbEntity
  8
0
 62
7
420
16777215
370
-1
 48
1.0
  6
CONTINUOUS
100
AcDbMText
 10
233.3333333333000041
 20
20.080808149500001
 30
0.0
 40
2.2626263999999998
 41
1.8101011199999999
 71
2
 72
1
  1
F
  7
textstyle84
 50
0.0
 73
2
 44
0.9
  0
MTEXT
  5
195
100
AcDbEntity
  8
0
 62
7
420
16777215
370
-1
 48
1.0
  6
CONTINUOUS
100
AcDbMText
 10
48.0808080807999971
 20
164.8888889575999883
 30
0.0
 40
2.2626263999999998
 41
1.8101011199999999
 71
2
 72
1
  1
2
  7
textstyle85
 50
0.0
 73
2
 44
0.9
  0
MTEXT
  5
196
100
AcDbEntity
  8
0
 62
7
420
16777215
370
-1
 48
1.0
  6
CONTINUOUS
100
AcDbMText
 10
19.7979797980000001
 20
164.8888889575999883
 30
0.0
 40
2.2626263999999998
 41
1.8101011199999999
 71
2
 72
1
  1
1
  7
textstyle82
 50
0.0
 73
2
 44
0.9
  0
MTEXT
  5
197
100
AcDbEntity
  8
0
 62
7
420
16777215
370
-1
 48
1.0
  6
CONTINUOUS
100
AcDbMText
 10
76.3636363635999942
 20
164.8888889575999883
 30
0.0
 40
2.2626263999999998
 41
1.8101011199999999
 71
2
 72
1
  1
3
  7
textstyle83
 50
0.0
 73
2
 44
0.9
  0
MTEXT
  5
198
100
AcDbEntity
  8
0
 62
7
420
16777215
370
-1
 48
1.0
  6
CONTINUOUS
100
AcDbMText
 10
104.646464646499993
 20
164.8888889575999883
 30
0.0
 40
2.2626263999999998
 41
1.8101011199999999
 71
2
 72
1
  1
4
  7
textstyle80
 50
0.0
 73
2
 44
0.9
  0
MTEXT
  5
199
100
AcDbEntity
  8
0
 62
7
420
16777215
370
-1
 48
1.0
  6
CONTINUOUS
100
AcDbMText
 10
132.9292929293000043
 20
164.8888889575999883
 30
0.0
 40
2.2626263999999998
 41
1.8101011199999999
 71
2
 72
1
  1
5
  7
textstyle81
 50
0.0
 73
2
 44
0.9
  0
MTEXT
  5
19A
100
AcDbEntity
  8
0
 62
7
420
16777215
370
-1
 48
1.0
  6
CONTINUOUS
100
AcDbMText
 10
161.2121212120999871
 20
164.8888889575999883
 30
0.0
 40
2.2626263999999998
 41
1.8101011199999999
 71
2
 72
1
  1
6
  7
textstyle78
 50
0.0
 73
2
 44
0.9
  0
MTEXT
  5
19B
100
AcDbEntity
  8
0
 62
7
420
16777215
370
-1
 48
1.0
  6
CONTINUOUS
100
AcDbMText
 10
189.4949494948999984
 20
164.8888889575999883
 30
0.0
 40
2.2626263999999998
 41
1.8101011199999999
 71
2
 72
1
  1
7
  7
textstyle79
 50
0.0
 73
2
 44
0.9
  0
MTEXT
  5
19C
100
AcDbEntity
  8
0
 62
7
420
16777215
370
-1
 48
1.0
  6
CONTINUOUS
100
AcDbMText
 10
217.7777777777999972
 20
164.8888889575999883
 30
0.0
 40
2.2626263999999998
 41
1.8101011199999999
 71
2
 72
1
  1
8
  7
textstyle76
 50
0.0
 73
2
 44
0.9
  0
MTEXT
  5
19D
100
AcDbEntity
  8
0
 62
7
420
16777215
370
-1
 48
1.0
  6
CONTINUOUS
100
AcDbMText
 10
19.7979797980000001
 20
5.3737374424000004
 30
0.0
 40
2.2626263999999998
 41
1.8101011199999999
 71
2
 72
1
  1
1
  7
textstyle77
 50
0.0
 73
2
 44
0.9
  0
MTEXT
  5
19E
100
AcDbEntity
  8
0
 62
7
420
16777215
370
-1
 48
1.0
  6
CONTINUOUS
100
AcDbMText
 10
76.3636363635999942
 20
5.3737374424000004
 30
0.0
 40
2.2626263999999998
 41
1.8101011199999999
 71
2
 72
1
  1
3
  7
textstyle74
 50
0.0
 73
2
 44
0.9
  0
MTEXT
  5
19F
100
AcDbEntity
  8
0
 62
7
420
16777215
370
-1
 48
1.0
  6
CONTINUOUS
100
AcDbMText
 10
48.0808080807999971
 20
5.3737374424000004
 30
0.0
 40
2.2626263999999998
 41
1.8101011199999999
 71
2
 72
1
  1
2
  7
textstyle75
 50
0.0
 73
2
 44
0.9
  0
MTEXT
  5
1A0
100
AcDbEntity
  8
0
 62
7
420
16777215
370
-1
 48
1.0
  6
CONTINUOUS
100
AcDbMText
 10
161.2121212120999871
 20
5.3737374424000004
 30
0.0
 40
2.2626263999999998
 41
1.8101011199999999
 71
2
 72
1
  1
6
  7
textstyle57
 50
0.0
 73
2
 44
0.9
  0
MTEXT
  5
1A1
100
AcDbEntity
  8
0
 62
7
420
16777215
370
-1
 48
1.0
  6
CONTINUOUS
100
AcDbMText
 10
104.646464646499993
 20
5.3737374424000004
 30
0.0
 40
2.2626263999999998
 41
1.8101011199999999
 71
2
 72
1
  1
4
  7
textstyle58
 50
0.0
 73
2
 44
0.9
  0
MTEXT
  5
1A2
100
AcDbEntity
  8
0
 62
7
420
16777215
370
-1
 48
1.0
  6
CONTINUOUS
100
AcDbMText
 10
132.9292929293000043
 20
5.3737374424000004
 30
0.0
 40
2.2626263999999998
 41
1.8101011199999999
 71
2
 72
1
  1
5
  7
textstyle55
 50
0.0
 73
2
 44
0.9
  0
MTEXT
  5
1A3
100
AcDbEntity
  8
0
 62
7
420
16777215
370
-1
 48
1.0
  6
CONTINUOUS
100
AcDbMText
 10
175.353535353500007
 20
3.6767676767999999
 30
0.0
 40
0.5656565657
 41
0.4525252525
 71
2
 72
1
  1
0
  7
textstyle56
 50
0.0
 73
2
 44
0.9
  0
MTEXT
  5
1A4
100
AcDbEntity
  8
0
 62
7
420
16777215
370
-1
 48
1.0
  6
CONTINUOUS
100
AcDbMText
 10
181.0101010100999872
 20
3.6767676767999999
 30
0.0
 40
0.5656565657
 41
0.9050505051
 71
2
 72
1
  1
10
  7
textstyle53
 50
0.0
 73
2
 44
0.9
  0
MTEXT
  5
1A5
100
AcDbEntity
  8
0
 62
7
420
16777215
370
-1
 48
1.0
  6
CONTINUOUS
100
AcDbMText
 10
186.6666666666999959
 20
3.6767676767999999
 30
0.0
 40
0.5656565657
 41
0.9050505051
 71
2
 72
1
  1
20
  7
textstyle54
 50
0.0
 73
2
 44
0.9
  0
MTEXT
  5
1A6
100
AcDbEntity
  8
0
 62
7
420
16777215
370
-1
 48
1.0
  6
CONTINUOUS
100
AcDbMText
 10
192.3232323231999885
 20
3.6767676767999999
 30
0.0
 40
0.5656565657
 41
0.9050505051
 71
2
 72
1
  1
30
  7
textstyle51
 50
0.0
 73
2
 44
0.9
  0
MTEXT
  5
1A7
100
AcDbEntity
  8
0
 62
7
420
16777215
370
-1
 48
1.0
  6
CONTINUOUS
100
AcDbMText
 10
197.9797979797999972
 20
3.6767676767999999
 30
0.0
 40
0.5656565657
 41
0.9050505051
 71
2
 72
1
  1
40
  7
textstyle52
 50
0.0
 73
2
 44
0.9
  0
MTEXT
  5
1A8
100
AcDbEntity
  8
0
 62
7
420
16777215
370
-1
 48
1.0
  6
CONTINUOUS
100
AcDbMText
 10
203.6363636364000058
 20
3.6767676767999999
 30
0.0
 40
0.5656565657
 41
0.9050505051
 71
2
 72
1
  1
50
  7
textstyle49
 50
0.0
 73
2
 44
0.9
  0
MTEXT
  5
1A9
100
AcDbEntity
  8
0
 62
7
420
16777215
370
-1
 48
1.0
  6
CONTINUOUS
100
AcDbMText
 10
209.2929292928999985
 20
3.6767676767999999
 30
0.0
 40
0.5656565657
 41
0.9050505051
 71
2
 72
1
  1
60
  7
textstyle50
 50
0.0
 73
2
 44
0.9
  0
MTEXT
  5
1AA
100
AcDbEntity
  8
0
 62
7
420
16777215
370
-1
 48
1.0
  6
CONTINUOUS
100
AcDbMText
 10
214.9494949495000071
 20
3.6767676767999999
 30
0.0
 40
0.5656565657
 41
0.9050505051
 71
2
 72
1
  1
70
  7
textstyle47
 50
0.0
 73
2
 44
0.9
  0
MTEXT
  5
1AB
100
AcDbEntity
  8
0
 62
7
420
16777215
370
-1
 48
1.0
  6
CONTINUOUS
100
AcDbMText
 10
220.6060606060999874
 20
3.6767676767999999
 30
0.0
 40
0.5656565657
 41
0.9050505051
 71
2
 72
1
  1
80
  7
textstyle48
 50
0.0
 73
2
 44
0.9
  0
MTEXT
  5
1AC
100
AcDbEntity
  8
0
 62
7
420
16777215
370
-1
 48
1.0
  6
CONTINUOUS
100
AcDbMText
 10
226.2626262626000084
 20
3.6767676767999999
 30
0.0
 40
0.5656565657
 41
0.9050505051
 71
2
 72
1
  1
90
  7
textstyle45
 50
0.0
 73
2
 44
0.9
  0
MTEXT
  5
1AD
100
AcDbEntity
  8
0
 62
7
420
16777215
370
-1
 48
1.0
  6
CONTINUOUS
100
AcDbMText
 10
231.9191919191999887
 20
3.6767676767999999
 30
0.0
 40
0.5656565657
 41
1.3575757576
 71
2
 72
1
  1
100
  7
textstyle46
 50
0.0
 73
2
 44
0.9
  0
HATCH
  5
1AE
100
AcDbEntity
  8
0
 62
2
420
16776960
370
-1
 48
1.0
  6
CONTINUOUS
100
AcDbHatch
 10
0.0
 20
0.0
 30
0.0
210
0.0
220
0.0
230
1.0
  2
C
 70
0
 71
0
 91
7
 92
1
 93
3
 72
1
 10
138.4010821981999868
 20
92.3906303306000041
 11
138.4010821981999868
 21
133.2406303305999984
 72
1
 10
138.4010821981999868
 20
133.2406303305999984
 11
139.8010821981999925
 21
133.2406303305999984
 72
1
 10
139.8010821981999925
 20
133.2406303305999984
 11
141.4010821981999868
 21
131.6406303306000041
 97
0
 92
1
 93
1
 72
1
 10
141.4010821981999868
 20
92.3906303306000041
 11
141.4010821981999868
 21
131.6406303306000041
 97
0
 92
1
 93
1
 72
1
 10
138.4010821981999868
 20
92.3906303306000041
 11
141.4010821981999868
 21
92.3906303306000041
 97
0
 92
1
 93
2
 72
1
 10
138.4010821981999868
 20
136.7406303305999984
 11
138.4010821981999868
 21
138.3906303306000041
 72
1
 10
138.4010821981999868
 20
138.3906303306000041
 11
141.4010821981999868
 21
138.3906303306000041
 97
0
 92
1
 93
1
 72
1
 10
141.4010821981999868
 20
138.3406303305999927
 11
141.4010821981999868
 21
138.3906303306000041
 97
0
 92
1
 93
1
 72
1
 10
139.8010821981999925
 20
136.7406303305999984
 11
141.4010821981999868
 21
138.3406303305999927
 97
0
 92
1
 93
1
 72
1
 10
138.4010821981999868
 20
136.7406303305999984
 11
139.8010821981999925
 21
136.7406303305999984
 97
0
 75
0
 76
1
 52
45.0
 41
2.6652486367999999
 77
0
 78
1
 53
45.0
 43
0.0
 44
0.0
 45
-0.0883883476483184
 46
0.0883883476483185
 79
0
 98
0
1001
ACAD
1010
0.0
1020
0.0
1030
0
  0
HATCH
  5
1AF
100
AcDbEntity
  8
0
 62
2
420
16776960
370
-1
 48
1.0
  6
CONTINUOUS
100
AcDbHatch
 10
0.0
 20
0.0
 30
0.0
210
0.0
220
0.0
230
1.0
  2
B
 70
0
 71
0
 91
6
 92
1
 93
2
 72
1
 10
107.0516372167000014
 20
92.3906303306000041
 11
107.0516372167000014
 21
110.3906303306000041
 72
1
 10
107.0516372167000014
 20
110.3906303306000041
 11
110.0516372167000014
 21
110.3906303306000041
 97
0
 92
1
 93
1
 72
1
 10
110.0516372167000014
 20
92.3906303306000041
 11
110.0516372167000014
 21
110.3906303306000041
 97
0
 92
1
 93
1
 72
1
 10
107.0516372167000014
 20
92.3906303306000041
 11
110.0516372167000014
 21
92.3906303306000041
 97
0
 92
1
 93
2
 72
1
 10
107.0516372167000014
 20
118.3906303306000041
 11
107.0516372167000014
 21
138.3906303306000041
 72
1
 10
107.0516372167000014
 20
138.3906303306000041
 11
110.0516372167000014
 21
138.3906303306000041
 97
0
 92
1
 93
1
 72
1
 10
110.0516372167000014
 20
118.3906303306000041
 11
110.0516372167000014
 21
138.3906303306000041
 97
0
 92
1
 93
1
 72
1
 10
107.0516372167000014
 20
118.3906303306000041
 11
110.0516372167000014
 21
118.3906303306000041
 97
0
 75
0
 76
1
 52
45.0
 41
2.6652486367999999
 77
0
 78
1
 53
45.0
 43
0.0
 44
0.0
 45
-0.0883883476483184
 46
0.0883883476483185
 79
0
 98
0
1001
ACAD
1010
0.0
1020
0.0
1030
0
  0
HATCH
  5
1B0
100
AcDbEntity
  8
0
 62
2
420
16776960
370
-1
 48
1.0
  6
CONTINUOUS
100
AcDbHatch
 10
0.0
 20
0.0
 30
0.0
210
0.0
220
0.0
230
1.0
  2
A
 70
0
 71
0
 91
17
 92
1
 93
3
 72
1
 10
31.2588824277999997
 20
60.6164938577000001
 11
37.6588824278000018
 21
60.6164938577000001
 72
1
 10
37.6588824278000018
 20
60.6164938577000001
 11
37.6588824278000018
 21
59.4164938576999972
 72
1
 10
37.6588824278000018
 20
59.4164938576999972
 11
35.8588824277999976
 21
57.6164938577000001
 97
0
 92
1
 93
1
 72
1
 10
31.2588824277999997
 20
57.6164938577000001
 11
35.8588824277999976
 21
57.6164938577000001
 97
0
 92
1
 93
1
 72
1
 10
31.2588824277999997
 20
60.6164938577000001
 11
31.2588824277999997
 21
57.6164938577000001
 97
0
 92
1
 93
3
 72
1
 10
41.8588824277999976
 20
60.6164938577000001
 11
52.1588824278000018
 21
60.6164938577000001
 72
1
 10
52.1588824278000018
 20
60.6164938577000001
 11
52.1588824278000018
 21
59.4164938576999972
 72
1
 10
52.1588824278000018
 20
59.4164938576999972
 11
50.3588824277999976
 21
57.6164938577000001
 97
0
 92
1
 93
1
 72
1
 10
43.6588824278000018
 20
57.6164938577000001
 11
50.3588824277999976
 21
57.6164938577000001
 97
0
 92
1
 93
1
 72
1
 10
41.8588824277999976
 20
59.4164938576999972
 11
43.6588824278000018
 21
57.6164938577000001
 97
0
 92
1
 93
1
 72
1
 10
41.8588824277999976
 20
60.6164938577000001
 11
41.8588824277999976
 21
59.4164938576999972
 97
0
 92
1
 93
1
 72
1
 10
56.3588824277999976
 20
60.6164938577000001
 11
66.6588824277999947
 21
60.6164938577000001
 97
0
 92
1
 93
1
 72
1
 10
66.6588824277999947
 20
59.4164938576999972
 11
66.6588824277999947
 21
60.6164938577000001
 97
0
 92
1
 93
1
 72
1
 10
66.6588824277999947
 20
59.4164938576999972
 11
64.8588824277999976
 21
57.6164938577000001
 97
0
 92
1
 93
1
 72
1
 10
58.1588824278000018
 20
57.6164938577000001
 11
64.8588824277999976
 21
57.6164938577000001
 97
0
 92
1
 93
1
 72
1
 10
56.3588824277999976
 20
59.4164938576999972
 11
58.1588824278000018
 21
57.6164938577000001
 97
0
 92
1
 93
1
 72
1
 10
56.3588824277999976
 20
60.6164938577000001
 11
56.3588824277999976
 21
59.4164938576999972
 97
0
 92
1
 93
2
 72
1
 10
70.8588824277999976
 20
60.6164938577000001
 11
77.2588824278000033
 21
60.6164938577000001
 72
1
 10
77.2588824278000033
 20
60.6164938577000001
 11
77.2588824278000033
 21
57.6164938577000001
 97
0
 92
1
 93
1
 72
1
 10
72.6588824277999947
 20
57.6164938577000001
 11
77.2588824278000033
 21
57.6164938577000001
 97
0
 92
1
 93
1
 72
1
 10
70.8588824277999976
 20
59.4164938576999972
 11
72.6588824277999947
 21
57.6164938577000001
 97
0
 92
1
 93
1
 72
1
 10
70.8588824277999976
 20
59.4164938576999972
 11
70.8588824277999976
 21
60.6164938577000001
 97
0
 75
0
 76
1
 52
45.0
 41
2.6652486367999999
 77
0
 78
1
 53
45.0
 43
0.0
 44
0.0
 45
-0.0883883476483184
 46
0.0883883476483185
 79
0
 98
0
1001
ACAD
1010
0.0
1020
0.0
1030
0
  0
HATCH
  5
1B1
100
AcDbEntity
  8
0
 62
2
420
16776960
370
-1
 48
1.0
  6
CONTINUOUS
100
AcDbHatch
 10
0.0
 20
0.0
 30
0.0
210
0.0
220
0.0
230
1.0
  2
D
 70
0
 71
0
 91
8
 92
1
 93
3
 72
1
 10
168.0068276885000103
 20
90.3906303306000041
 11
168.0068276885000103
 21
92.0406303305999955
 72
1
 10
168.0068276885000103
 20
92.0406303305999955
 11
169.4068276884999875
 21
92.0406303305999955
 72
1
 10
169.4068276884999875
 20
92.0406303305999955
 11
171.0068276885000103
 21
90.4406303306000012
 97
0
 92
1
 93
1
 72
1
 10
171.0068276885000103
 20
90.3906303306000041
 11
171.0068276885000103
 21
90.4406303306000012
 97
0
 92
1
 93
1
 72
1
 10
171.0068276885000103
 20
90.3906303306000041
 11
168.0068276885000103
 21
90.3906303306000041
 97
0
 92
1
 93
1
 72
1
 10
168.0068276885000103
 20
95.5406303305999955
 11
168.0068276885000103
 21
138.3906303306000041
 97
0
 92
1
 93
1
 72
1
 10
171.0068276885000103
 20
138.3906303306000041
 11
168.0068276885000103
 21
138.3906303306000041
 97
0
 92
1
 93
1
 72
1
 10
171.0068276885000103
 20
97.1406303306000041
 11
171.0068276885000103
 21
138.3906303306000041
 97
0
 92
1
 93
1
 72
1
 10
169.4068276884999875
 20
95.5406303305999955
 11
171.0068276885000103
 21
97.1406303306000041
 97
0
 92
1
 93
1
 72
1
 10
168.0068276885000103
 20
95.5406303305999955
 11
169.4068276884999875
 21
95.5406303305999955
 97
0
 75
0
 76
1
 52
45.0
 41
2.7740342953999999
 77
0
 78
1
 53
45.0
 43
0.0
 44
0.0
 45
-0.0883883476483184
 46
0.0883883476483185
 79
0
 98
0
1001
ACAD
1010
0.0
1020
0.0
1030
0
  0
MTEXT
  5
1B2
100
AcDbEntity
  8
0
 62
7
420
16777215
370
-1
 48
1.0
  6
CONTINUOUS
100
AcDbMText
 10
26.8556210108000002
 20
146.1055757080999911
 30
0.0
 40
3.2000000000000002
 41
2.4560885609000001
 71
1
 72
1
  1
C
  7
textstyle65
 50
0.0
 73
2
 44
0.9
  0
LEADER
  5
1B3
100
AcDbEntity
  8
0
 62
7
420
16777215
370
-1
 48
1.0
  6
CONTINUOUS
100
AcDbLeader
  3
Standard
 71
1
 72
0
 73
3
 74
0
 75
0
 40
1.0
 41
10.0
 76
2
 10
34.6588824278000018
 20
144.5055757080999967
 10
29.9670601251999997
 20
144.5055757080999967
1001
ACAD
1000
DSTYLE
1002
{
1070
40
1040
1.0
1002
}
  0
MTEXT
  5
1B4
100
AcDbEntity
  8
0
 62
7
420
16777215
370
-1
 48
1.0
  6
CONTINUOUS
100
AcDbMText
 10
26.6059740170000012
 20
86.6131466714000027
 30
0.0
 40
3.2000000000000002
 41
2.4560885609000001
 71
1
 72
1
  1
C
  7
textstyle64
 50
0.0
 73
2
 44
0.9
  0
LEADER
  5
1B5
100
AcDbEntity
  8
0
 62
7
420
16777215
370
-1
 48
1.0
  6
CONTINUOUS
100
AcDbLeader
  3
Standard
 71
1
 72
0
 73
3
 74
0
 75
0
 40
1.0
 41
10.0
 76
2
 10
34.6588824278000018
 20
85.0131466713999941
 10
29.7174131314000007
 20
85.0131466713999941
1001
ACAD
1000
DSTYLE
1002
{
1070
40
1040
1.0
1002
}
  0
MTEXT
  5
1B6
100
AcDbEntity
  8
0
 62
7
420
16777215
370
-1
 48
1.0
  6
CONTINUOUS
100
AcDbMText
 10
45.962293099
 20
86.8344425726999987
 30
0.0
 40
3.2000000000000002
 41
2.5387453875000001
 71
1
 72
1
  1
B
  7
textstyle63
 50
0.0
 73
2
 44
0.9
  0
LEADER
  5
1B7
100
AcDbEntity
  8
0
 62
7
420
16777215
370
-1
 48
1.0
  6
CONTINUOUS
100
AcDbLeader
  3
Standard
 71
1
 72
0
 73
3
 74
0
 75
0
 40
1.0
 41
10.0
 76
2
 10
54.2588824278000033
 20
85.0924569550000029
 10
51.3469376920999991
 20
85.0924569550000029
1001
ACAD
1000
DSTYLE
1002
{
1070
40
1040
1.0
1002
}
  0
MTEXT
  5
1B8
100
AcDbEntity
  8
0
 62
7
420
16777215
370
-1
 48
1.0
  6
CONTINUOUS
100
AcDbMText
 10
46.6775983287000003
 20
146.2709756193000032
 30
0.0
 40
3.2000000000000002
 41
2.5387453875000001
 71
1
 72
1
  1
B
  7
textstyle62
 50
0.0
 73
2
 44
0.9
  0
LEADER
  5
1B9
100
AcDbEntity
  8
0
 62
7
420
16777215
370
-1
 48
1.0
  6
CONTINUOUS
100
AcDbLeader
  3
Standard
 71
1
 72
0
 73
3
 74
0
 75
0
 40
1.0
 41
10.0
 76
2
 10
54.2588824278000033
 20
144.4884896021000031
 10
53.054502709700003
 20
144.4884896021000031
1001
ACAD
1000
DSTYLE
1002
{
1070
40
1040
1.0
1002
}
  0
MTEXT
  5
1BA
100
AcDbEntity
  8
0
 62
7
420
16777215
370
-1
 48
1.0
  6
CONTINUOUS
100
AcDbMText
 10
81.7669599804000029
 20
123.4710850585999964
 30
0.0
 40
3.2000000000000002
 41
2.7867158671999999
 71
1
 72
1
  1
A
  7
textstyle61
 50
0.0
 73
2
 44
0.9
  0
LEADER
  5
1BB
100
AcDbEntity
  8
0
 62
7
420
16777215
370
-1
 48
1.0
  6
CONTINUOUS
100
AcDbLeader
  3
Standard
 71
1
 72
0
 73
3
 74
0
 75
0
 40
1.0
 41
10.0
 76
2
 10
83.1603179140000037
 20
114.3906303306000041
 10
83.1603179140000037
 20
118.6710850585999992
1001
ACAD
1000
DSTYLE
1002
{
1070
40
1040
1.0
1002
}
  0
MTEXT
  5
1BC
100
AcDbEntity
  8
0
 62
7
420
16777215
370
-1
 48
1.0
  6
CONTINUOUS
100
AcDbMText
 10
24.965149672199999
 20
123.6735870561000041
 30
0.0
 40
3.2000000000000002
 41
2.7867158671999999
 71
1
 72
1
  1
A
  7
textstyle60
 50
0.0
 73
2
 44
0.9
  0
LEADER
  5
1BD
100
AcDbEntity
  8
0
 62
7
420
16777215
370
-1
 48
1.0
  6
CONTINUOUS
100
AcDbLeader
  3
Standard
 71
1
 72
0
 73
3
 74
0
 75
0
 40
1.0
 41
10.0
 76
2
 10
26.3585076057999999
 20
114.3906303306000041
 10
26.3585076057999999
 20
118.873587056100007
1001
ACAD
1000
DSTYLE
1002
{
1070
40
1040
1.0
1002
}
  0
MTEXT
  5
1BE
100
AcDbEntity
  8
0
 62
7
420
16777215
370
-1
 48
1.0
  6
CONTINUOUS
100
AcDbMText
 10
64.7771459691000047
 20
86.7511011571999973
 30
0.0
 40
3.2000000000000002
 41
3.0346863469000001
 71
1
 72
1
  1
D
  7
textstyle59
 50
0.0
 73
2
 44
0.9
  0
LEADER
  5
1BF
100
AcDbEntity
  8
0
 62
7
420
16777215
370
-1
 48
1.0
  6
CONTINUOUS
100
AcDbLeader
  3
Standard
 71
1
 72
0
 73
3
 74
0
 75
0
 40
1.0
 41
10.0
 76
2
 10
73.8588824277999976
 20
85.1511011572000029
 10
68.4671828694999931
 20
85.1511011572000029
1001
ACAD
1000
DSTYLE
1002
{
1070
40
1040
1.0
1002
}
  0
MTEXT
  5
1C0
100
AcDbEntity
  8
0
 62
7
420
16777215
370
-1
 48
1.0
  6
CONTINUOUS
100
AcDbMText
 10
65.5238904514000069
 20
146.0687632805999954
 30
0.0
 40
3.2000000000000002
 41
3.0346863469000001
 71
1
 72
1
  1
D
  7
textstyle5
 50
0.0
 73
2
 44
0.9
  0
LEADER
  5
1C1
100
AcDbEntity
  8
0
 62
7
420
16777215
370
-1
 48
1.0
  6
CONTINUOUS
100
AcDbLeader
  3
Standard
 71
1
 72
0
 73
3
 74
0
 75
0
 40
1.0
 41
10.0
 76
2
 10
73.8588824277999976
 20
144.3267776629000139
 10
72.1136108643
 20
144.3267776629000139
1001
ACAD
1000
DSTYLE
1002
{
1070
40
1040
1.0
1002
}
  0
DIMENSION
  5
1C2
100
AcDbEntity
  8
DIMS
 62
2
420
16776960
370
-1
 48
1.0
  6
CONTINUOUS
100
AcDbDimension
 10
77.2588824278000033
 20
149.6384746502999974
 30
0.0
 11
54.2342774047999967
 21
149.6384746502999974
 31
0.0
 70
128
 71
8
 72
2
 74
0
 75
0
 41
0.9
 42
0.0
  1

  3
Standard
100
AcDbAlignedDimension
 13
31.2588824277999997
 23
134.6706303306000052
 33
0.0
 14
77.2588824278000033
 24
134.6706303306000052
 34
0.0
 50
0.0
100
AcDbRotatedDimension
1001
ACAD
1000
DSTYLE
1002
{
1070
279
1070
2
1070
144
1040
1.0
1070
40
1040
1.0
1002
}
  0
DIMENSION
  5
1C3
100
AcDbEntity
  8
DIMS
 62
2
420
16776960
370
-1
 48
1.0
  6
CONTINUOUS
100
AcDbDimension
 10
54.3388824278000016
 20
101.1999968402000007
 30
0.0
 11
43.2086581603999988
 21
101.1999968402000007
 31
0.0
 70
128
 71
8
 72
2
 74
0
 75
0
 41
0.9
 42
0.0
  1

  3
Standard
100
AcDbAlignedDimension
 13
32.1388824277999987
 23
92.0706303305999967
 33
0.0
 14
54.3388824278000016
 24
92.0706303305999967
 34
0.0
 50
0.0
100
AcDbRotatedDimension
1001
ACAD
1000
DSTYLE
1002
{
1070
279
1070
2
1070
144
1040
1.0
1070
40
1040
1.0
1002
}
  0
DIMENSION
  5
1C4
100
AcDbEntity
  8
DIMS
 62
2
420
16776960
370
-1
 48
1.0
  6
CONTINUOUS
100
AcDbDimension
 10
32.1388824277999987
 20
101.1999968402000007
 30
0.0
 11
26.4563454253999986
 21
101.1999968402000007
 31
0.0
 70
128
 71
8
 72
2
 74
0
 75
0
 41
0.9
 42
0.0
  1

  3
Standard
100
AcDbAlignedDimension
 13
31.2588824277999997
 23
90.0706303305999967
 33
0.0
 14
32.1388824277999987
 24
90.0706303305999967
 34
0.0
 50
0.0
100
AcDbRotatedDimension
1001
ACAD
1000
DSTYLE
1002
{
1070
279
1070
2
1070
144
1040
1.0
1070
40
1040
1.0
1002
}
  0
DIMENSION
  5
1C5
100
AcDbEntity
  8
DIMS
 62
2
420
16776960
370
-1
 48
1.0
  6
CONTINUOUS
100
AcDbDimension
 10
21.7399434235999998
 20
92.3906303306000041
 30
0.0
 11
21.7399434235999998
 21
91.3574199800000031
 31
0.0
 70
128
 71
8
 72
2
 74
0
 75
0
 41
0.9
 42
0.0
  1

  3
Standard
100
AcDbAlignedDimension
 13
32.458882427799999
 23
90.3906303306000041
 33
0.0
 14
32.458882427799999
 24
92.3906303306000041
 34
0.0
 50
90.0
100
AcDbRotatedDimension
1001
ACAD
1000
DSTYLE
1002
{
1070
279
1070
2
1070
144
1040
1.0
1070
40
1040
1.0
1002
}
  0
DIMENSION
  5
1C6
100
AcDbEntity
  8
DIMS
 62
2
420
16776960
370
-1
 48
1.0
  6
CONTINUOUS
100
AcDbDimension
 10
21.7399434235999998
 20
92.3906303306000041
 30
0.0
 11
21.7399434235999998
 21
115.3660254923999986
 31
0.0
 70
128
 71
8
 72
2
 74
0
 75
0
 41
0.9
 42
0.0
  1

  3
Standard
100
AcDbAlignedDimension
 13
34.9788824278000021
 23
138.3906303306000041
 33
0.0
 14
32.458882427799999
 24
92.3906303306000041
 34
0.0
 50
270.0
100
AcDbRotatedDimension
1001
ACAD
1000
DSTYLE
1002
{
1070
279
1070
2
1070
144
1040
1.0
1070
40
1040
1.0
1002
}
  0
DIMENSION
  5
1C7
100
AcDbEntity
  8
DIMS
 62
2
420
16776960
370
-1
 48
1.0
  6
CONTINUOUS
100
AcDbDimension
 10
16.1815875945000016
 20
90.3906303306000041
 30
0.0
 11
16.1815875945000016
 21
114.3697154370999982
 31
0.0
 70
128
 71
8
 72
2
 74
0
 75
0
 41
0.9
 42
0.0
  1

  3
Standard
100
AcDbAlignedDimension
 13
34.9788824278000021
 23
138.3906303306000041
 33
0.0
 14
31.5788824278
 24
90.3906303306000041
 34
0.0
 50
270.0
100
AcDbRotatedDimension
1001
ACAD
1000
DSTYLE
1002
{
1070
279
1070
2
1070
144
1040
1.0
1070
40
1040
1.0
1002
}
  0
DIMENSION
  5
1C8
100
AcDbEntity
  8
DIMS
 62
2
420
16776960
370
-1
 48
1.0
  6
CONTINUOUS
100
AcDbDimension
 10
77.2588824278000033
 20
101.1999968402000007
 30
0.0
 11
65.7698813964999971
 21
101.1999968402000007
 31
0.0
 70
128
 71
8
 72
2
 74
0
 75
0
 41
0.9
 42
0.0
  1

  3
Standard
100
AcDbAlignedDimension
 13
54.3388824278000016
 23
92.0706303305999967
 33
0.0
 14
77.2588824278000033
 24
93.7906303305999955
 34
0.0
 50
0.0
100
AcDbRotatedDimension
1001
ACAD
1000
DSTYLE
1002
{
1070
279
1070
2
1070
144
1040
1.0
1070
40
1040
1.0
1002
}
  0
DIMENSION
  5
1C9
100
AcDbEntity
  8
DIMS
 62
2
420
16776960
370
-1
 48
1.0
  6
CONTINUOUS
100
AcDbDimension
 10
54.8388824278000016
 20
90.8906303306000041
 30
0.0
 11
59.8712236451000024
 21
96.182304764099996
 31
0.0
 70
132
 71
8
 72
2
 74
0
 41
0.9
 42
0.0
  1
R<>
  3
Standard
100
AcDbRadialDimension
 15
54.4943187810999987
 25
90.5283101775000034
 35
0.0
 40
0.0
1001
ACAD
1000
DSTYLE
1002
{
1070
279
1070
2
1070
144
1040
1.0
1070
40
1040
1.0
1002
}
  0
DIMENSION
  5
1CA
100
AcDbEntity
  8
DIMS
 62
2
420
16776960
370
-1
 48
1.0
  6
CONTINUOUS
100
AcDbDimension
 10
73.8588824277999976
 20
134.9906303305999984
 30
0.0
 11
84.2030681538000039
 21
141.953118058900003
 31
0.0
 70
132
 71
8
 72
2
 74
0
 41
0.9
 42
0.0
  1
R<>
  3
Standard
100
AcDbRadialDimension
 15
76.6794738191999983
 25
136.8891203103000009
 35
0.0
 40
0.0
1001
ACAD
1000
DSTYLE
1002
{
1070
279
1070
2
1070
144
1040
1.0
1070
40
1040
1.0
1002
}
  0
DIMENSION
  5
1CB
100
AcDbEntity
  8
DIMS
 62
2
420
16776960
370
-1
 48
1.0
  6
CONTINUOUS
100
AcDbDimension
 10
138.4010821981999868
 20
143.774935350800007
 30
0.0
 11
139.9416723633000004
 21
143.774935350800007
 31
0.0
 70
128
 71
8
 72
2
 74
0
 75
0
 41
0.9
 42
0.0
  1

  3
Standard
100
AcDbAlignedDimension
 13
141.4010821981999868
 23
138.0706303306000109
 33
0.0
 14
138.4010821981999868
 24
138.0706303306000109
 34
0.0
 50
180.0
100
AcDbRotatedDimension
1001
ACAD
1000
DSTYLE
1002
{
1070
279
1070
2
1070
144
1040
1.0
1070
40
1040
1.0
1002
}
  0
DIMENSION
  5
1CC
100
AcDbEntity
  8
DIMS
 62
2
420
16776960
370
-1
 48
1.0
  6
CONTINUOUS
100
AcDbDimension
 10
31.2588824277999997
 20
43.6402567980000029
 30
0.0
 11
35.4921924682999972
 21
43.6402567980000029
 31
0.0
 70
128
 71
8
 72
2
 74
0
 75
0
 41
0.9
 42
0.0
  1

  3
Standard
100
AcDbAlignedDimension
 13
39.7588824278000033
 23
54.3067934190000017
 33
0.0
 14
31.2588824277999997
 24
57.9364938577000004
 34
0.0
 50
180.0
100
AcDbRotatedDimension
1001
ACAD
1000
DSTYLE
1002
{
1070
279
1070
2
1070
144
1040
1.0
1070
40
1040
1.0
1002
}
  0
DIMENSION
  5
1CD
100
AcDbEntity
  8
DIMS
 62
2
420
16776960
370
-1
 48
1.0
  6
CONTINUOUS
100
AcDbDimension
 10
54.2588824278000033
 20
43.6402567980000029
 30
0.0
 11
47.0782886352999981
 21
43.6402567980000029
 31
0.0
 70
128
 71
8
 72
2
 74
0
 75
0
 41
0.9
 42
0.0
  1

  3
Standard
100
AcDbAlignedDimension
 13
39.7588824278000033
 23
54.3067934190000017
 33
0.0
 14
54.2588824278000033
 24
54.4925898117000003
 34
0.0
 50
0.0
100
AcDbRotatedDimension
1001
ACAD
1000
DSTYLE
1002
{
1070
279
1070
2
1070
144
1040
1.0
1070
40
1040
1.0
1002
}
  0
DIMENSION
  5
1CE
100
AcDbEntity
  8
DIMS
 62
2
420
16776960
370
-1
 48
1.0
  6
CONTINUOUS
100
AcDbDimension
 10
68.7588824278000033
 20
43.6402567980000029
 30
0.0
 11
61.5782876220999995
 21
43.6402567980000029
 31
0.0
 70
128
 71
8
 72
2
 74
0
 75
0
 41
0.9
 42
0.0
  1

  3
Standard
100
AcDbAlignedDimension
 13
54.2588824278000033
 23
54.4925898117000003
 33
0.0
 14
68.7588824278000033
 24
54.3864204444000023
 34
0.0
 50
0.0
100
AcDbRotatedDimension
1001
ACAD
1000
DSTYLE
1002
{
1070
279
1070
2
1070
144
1040
1.0
1070
40
1040
1.0
1002
}
  0
DIMENSION
  5
1CF
100
AcDbEntity
  8
DIMS
 62
2
420
16776960
370
-1
 48
1.0
  6
CONTINUOUS
100
AcDbDimension
 10
77.2588824278000033
 20
43.6402567980000029
 30
0.0
 11
72.9921912230999936
 21
43.6402567980000029
 31
0.0
 70
128
 71
8
 72
2
 74
0
 75
0
 41
0.9
 42
0.0
  1

  3
Standard
100
AcDbAlignedDimension
 13
68.7588824278000033
 23
54.3864204444000023
 33
0.0
 14
77.2588824278000033
 24
57.9364938577000004
 34
0.0
 50
0.0
100
AcDbRotatedDimension
1001
ACAD
1000
DSTYLE
1002
{
1070
279
1070
2
1070
144
1040
1.0
1070
40
1040
1.0
1002
}
  0
DIMENSION
  5
1D0
100
AcDbEntity
  8
DIMS
 62
2
420
16776960
370
-1
 48
1.0
  6
CONTINUOUS
100
AcDbDimension
 10
68.7588824278000033
 20
38.2628794179999971
 30
0.0
 11
54.2416570862
 21
38.2628794179999971
 31
0.0
 70
128
 71
8
 72
2
 74
0
 75
0
 41
0.9
 42
0.0
  1

  3
Standard
100
AcDbAlignedDimension
 13
39.7588824278000033
 23
54.3067934190000017
 33
0.0
 14
68.7588824278000033
 24
54.3864204444000023
 34
0.0
 50
0.0
100
AcDbRotatedDimension
1001
ACAD
1000
DSTYLE
1002
{
1070
279
1070
2
1070
144
1040
1.0
1070
40
1040
1.0
1002
}
  0
DIMENSION
  5
1D1
100
AcDbEntity
  8
DIMS
 62
2
420
16776960
370
-1
 48
1.0
  6
CONTINUOUS
100
AcDbDimension
 10
41.8588824277999976
 20
63.0344141870999977
 30
0.0
 11
39.7588824278000033
 21
63.0344141870999977
 31
0.0
 70
128
 71
8
 72
2
 74
0
 75
0
 41
0.9
 42
0.0
  1
%%c<>
  3
Standard
100
AcDbAlignedDimension
 13
37.6588824278000018
 23
60.2964938576999998
 33
0.0
 14
41.8588824277999976
 24
60.2964938576999998
 34
0.0
 50
0.0
100
AcDbRotatedDimension
1001
ACAD
1000
DSTYLE
1002
{
1070
279
1070
2
1070
144
1040
1.0
1070
40
1040
1.0
1002
}
  0
DIMENSION
  5
1D2
100
AcDbEntity
  8
DIMS
 62
2
420
16776960
370
-1
 48
1.0
  6
CONTINUOUS
100
AcDbDimension
 10
70.8588824277999976
 20
63.0344141870999977
 30
0.0
 11
68.7588824278000033
 21
63.0344141870999977
 31
0.0
 70
128
 71
8
 72
2
 74
0
 75
0
 41
0.9
 42
0.0
  1
%%c<>
  3
Standard
100
AcDbAlignedDimension
 13
66.6588824277999947
 23
60.2964938576999998
 33
0.0
 14
70.8588824277999976
 24
60.2964938576999998
 34
0.0
 50
0.0
100
AcDbRotatedDimension
1001
ACAD
1000
DSTYLE
1002
{
1070
279
1070
2
1070
144
1040
1.0
1070
40
1040
1.0
1002
}
  0
DIMENSION
  5
1D3
100
AcDbEntity
  8
DIMS
 62
2
420
16776960
370
-1
 48
1.0
  6
CONTINUOUS
100
AcDbDimension
 10
72.4326082321999962
 20
57.8427680534000004
 30
0.0
 11
71.2244690942000034
 21
53.0778405806999984
 31
0.0
 70
130
 71
8
 72
2
 74
0
 75
0
 41
0.9
 42
0.0
  1

  3
Standard
100
AcDb2LineAngularDimension
 13
65.1473217208999955
 23
57.904933150799998
 33
0.0
 14
65.0851566234999979
 24
57.8427680534000004
 34
0.0
 15
72.3704431346999968
 25
57.904933150799998
 35
0.0
 16
68.7588824278000033
 26
52.7250214702999997
 36
0.0
  0
DIMENSION
  5
1D4
100
AcDbEntity
  8
DIMS
 62
2
420
16776960
370
-1
 48
1.0
  6
CONTINUOUS
100
AcDbDimension
 10
81.554952060399998
 20
57.6164938577000001
 30
0.0
 11
81.554952060399998
 21
52.2270005224999991
 31
0.0
 70
128
 71
8
 72
2
 74
0
 75
0
 41
0.9
 42
0.0
  1

  3
Standard
100
AcDbAlignedDimension
 13
70.5388824278000044
 23
59.4164938576999972
 33
0.0
 14
73.5388824278000044
 24
57.6164938577000001
 34
0.0
 50
270.0
100
AcDbRotatedDimension
1001
ACAD
1000
DSTYLE
1002
{
1070
279
1070
2
1070
144
1040
1.0
1070
40
1040
1.0
1002
}
  0
DIMENSION
  5
1D5
100
AcDbEntity
  8
DIMS
 62
2
420
16776960
370
-1
 48
1.0
  6
CONTINUOUS
100
AcDbDimension
 10
56.3588824277999976
 20
63.0344141870999977
 30
0.0
 11
54.2588824278000033
 21
63.0344141870999977
 31
0.0
 70
128
 71
8
 72
2
 74
0
 75
0
 41
0.9
 42
0.0
  1
%%c<>
  3
Standard
100
AcDbAlignedDimension
 13
52.1588824278000018
 23
60.2964938576999998
 33
0.0
 14
56.3588824277999976
 24
60.2964938576999998
 34
0.0
 50
0.0
100
AcDbRotatedDimension
1001
ACAD
1000
DSTYLE
1002
{
1070
279
1070
2
1070
144
1040
1.0
1070
40
1040
1.0
1002
}
  0
DIMENSION
  5
1D6
100
AcDbEntity
  8
DIMS
 62
2
420
16776960
370
-1
 48
1.0
  6
CONTINUOUS
100
AcDbDimension
 10
55.8588824277999976
 20
122.932941827999997
 30
0.0
 11
54.297543988000001
 21
122.932941827999997
 31
0.0
 70
128
 71
8
 72
2
 74
0
 75
0
 41
0.9
 42
0.0
  1

  3
Standard
100
AcDbAlignedDimension
 13
52.6588824278000018
 23
116.4706303306000024
 33
0.0
 14
55.8588824277999976
 24
116.4706303306000024
 34
0.0
 50
0.0
100
AcDbRotatedDimension
1001
ACAD
1000
DSTYLE
1002
{
1070
279
1070
2
1070
144
1040
1.0
1070
40
1040
1.0
1002
}
  0
DIMENSION
  5
1D7
100
AcDbEntity
  8
DIMS
 62
2
420
16776960
370
-1
 48
1.0
  6
CONTINUOUS
100
AcDbDimension
 10
54.2588824278000033
 20
116.7906303305999955
 30
0.0
 11
62.289870113500001
 21
121.6104148505999945
 31
0.0
 70
132
 71
8
 72
2
 74
0
 41
0.9
 42
0.0
  1
R<>
  3
Standard
100
AcDbRadialDimension
 15
55.6307812734999985
 25
117.613973246599997
 35
0.0
 40
0.0
1001
ACAD
1000
DSTYLE
1002
{
1070
279
1070
2
1070
144
1040
1.0
1070
40
1040
1.0
1002
}
  0
DIMENSION
  5
1D8
100
AcDbEntity
  8
DIMS
 62
2
420
16776960
370
-1
 48
1.0
  6
CONTINUOUS
100
AcDbDimension
 10
31.2588824277999997
 20
128.3655107131000079
 30
0.0
 11
26.4079868500000003
 21
128.3655107131000079
 31
0.0
 70
128
 71
8
 72
2
 74
0
 75
0
 41
0.9
 42
0.0
  1

  3
Standard
100
AcDbAlignedDimension
 13
34.6588824278000018
 23
135.3106303305999916
 33
0.0
 14
31.2588824277999997
 24
134.9906303305999984
 34
0.0
 50
180.0
100
AcDbRotatedDimension
1001
ACAD
1000
DSTYLE
1002
{
1070
279
1070
2
1070
144
1040
1.0
1070
40
1040
1.0
1002
}
  0
DIMENSION
  5
1D9
100
AcDbEntity
  8
DIMS
 62
2
420
16776960
370
-1
 48
1.0
  6
CONTINUOUS
100
AcDbDimension
 10
77.2588824278000033
 20
105.9633018770999939
 30
0.0
 11
85.692472448700002
 21
105.9633018770999939
 31
0.0
 70
128
 71
8
 72
2
 74
0
 75
0
 41
0.9
 42
0.0
  1

  3
Standard
100
AcDbAlignedDimension
 13
73.8588824277999976
 23
97.2206303306000024
 33
0.0
 14
77.2588824278000033
 24
93.7906303305999955
 34
0.0
 50
0.0
100
AcDbRotatedDimension
1001
ACAD
1000
DSTYLE
1002
{
1070
279
1070
2
1070
144
1040
1.0
1070
40
1040
1.0
1002
}
  0
DIMENSION
  5
1DA
100
AcDbEntity
  8
DIMS
 62
2
420
16776960
370
-1
 48
1.0
  6
CONTINUOUS
100
AcDbDimension
 10
148.4050457159000018
 20
133.2406303305999984
 30
0.0
 11
148.4050457159000018
 21
134.9906303305999984
 31
0.0
 70
128
 71
8
 72
2
 74
0
 75
0
 41
0.9
 42
0.0
  1
%%c<>
  3
Standard
100
AcDbAlignedDimension
 13
139.4810821981999993
 23
136.7406303305999984
 33
0.0
 14
139.4810821981999993
 24
133.2406303305999984
 34
0.0
 50
270.0
100
AcDbRotatedDimension
1001
ACAD
1000
DSTYLE
1002
{
1070
279
1070
2
1070
144
1040
1.0
1070
40
1040
1.0
1002
}
  0
DIMENSION
  5
1DB
100
AcDbEntity
  8
DIMS
 62
2
420
16776960
370
-1
 48
1.0
  6
CONTINUOUS
100
AcDbDimension
 10
176.6685309519999976
 20
92.0406303305999955
 30
0.0
 11
176.6685309519999976
 21
93.7906303305999955
 31
0.0
 70
128
 71
8
 72
2
 74
0
 75
0
 41
0.9
 42
0.0
  1
%%c<>
  3
Standard
100
AcDbAlignedDimension
 13
169.0868276884999943
 23
95.5406303305999955
 33
0.0
 14
169.0868276884999943
 24
92.0406303305999955
 34
0.0
 50
270.0
100
AcDbRotatedDimension
1001
ACAD
1000
DSTYLE
1002
{
1070
279
1070
2
1070
144
1040
1.0
1070
40
1040
1.0
1002
}
  0
DIMENSION
  5
1DC
100
AcDbEntity
  8
DIMS
 62
2
420
16776960
370
-1
 48
1.0
  6
CONTINUOUS
100
AcDbDimension
 10
102.148007935199999
 20
110.3906303306000041
 30
0.0
 11
102.148007935199999
 21
114.486012010500005
 31
0.0
 70
128
 71
8
 72
2
 74
0
 75
0
 41
0.9
 42
0.0
  1

  3
Standard
100
AcDbAlignedDimension
 13
107.3716372166999946
 23
118.3906303306000041
 33
0.0
 14
107.3716372166999946
 24
110.3906303306000041
 34
0.0
 50
270.0
100
AcDbRotatedDimension
1001
ACAD
1000
DSTYLE
1002
{
1070
279
1070
2
1070
144
1040
1.0
1070
40
1040
1.0
1002
}
  0
DIMENSION
  5
1DD
100
AcDbEntity
  8
DIMS
 62
2
420
16776960
370
-1
 48
1.0
  6
CONTINUOUS
100
AcDbDimension
 10
54.2588824278000033
 20
114.3906303306000041
 30
0.0
 11
61.4205340589000031
 21
109.9291663182000036
 31
0.0
 70
132
 71
8
 72
2
 74
0
 41
0.9
 42
0.0
  1
R<>
  3
Standard
100
AcDbRadialDimension
 15
56.0413065365000023
 25
113.2802410760999976
 35
0.0
 40
0.0
1001
ACAD
1000
DSTYLE
1002
{
1070
279
1070
2
1070
144
1040
1.0
1070
40
1040
1.0
1002
}
  0
DIMENSION
  5
1DE
100
AcDbEntity
  8
DIMS
 62
2
420
16776960
370
-1
 48
1.0
  6
CONTINUOUS
100
AcDbDimension
 10
48.2882562077000017
 20
110.3906303306000041
 30
0.0
 11
48.2882562077000017
 21
114.7727313914000007
 31
0.0
 70
128
 71
8
 72
2
 74
0
 75
0
 41
0.9
 42
0.0
  1

  3
Standard
100
AcDbAlignedDimension
 13
54.5788824278000035
 23
118.3906303306000041
 33
0.0
 14
54.5788824278000035
 24
110.3906303306000041
 34
0.0
 50
270.0
100
AcDbRotatedDimension
1001
ACAD
1000
DSTYLE
1002
{
1070
279
1070
2
1070
144
1040
1.0
1070
40
1040
1.0
1002
}
  0
DIMENSION
  5
1DF
100
AcDbEntity
  8
DIMS
 62
2
420
16776960
370
-1
 48
1.0
  6
CONTINUOUS
100
AcDbDimension
 10
141.1748080282999922
 20
138.1143561606000105
 30
0.0
 11
154.5846371718000114
 21
134.9906303305999984
 31
0.0
 70
130
 71
8
 72
2
 74
0
 75
0
 41
0.9
 42
0.0
  1

  3
Standard
100
AcDb2LineAngularDimension
 13
141.0578981399000043
 23
131.9838143890000026
 33
0.0
 14
141.1748080282999922
 24
131.8669045005999862
 34
0.0
 15
141.0578981399000043
 25
137.9974462723000102
 35
0.0
 16
154.5846371718000114
 26
134.9906303305999984
 36
0.0
  0
DIMENSION
  5
1E0
100
AcDbEntity
  8
DIMS
 62
2
420
16776960
370
-1
 48
1.0
  6
CONTINUOUS
100
AcDbDimension
 10
170.7805535184999997
 20
96.9143561605999935
 30
0.0
 11
180.3141918889999999
 21
93.7906303305999955
 31
0.0
 70
130
 71
8
 72
2
 74
0
 75
0
 41
0.9
 42
0.0
  1

  3
Standard
100
AcDb2LineAngularDimension
 13
170.691052437899998
 23
90.7564055811999992
 33
0.0
 14
170.7805535184999997
 24
90.6669045005999976
 34
0.0
 15
170.691052437899998
 25
96.8248550800999936
 35
0.0
 16
180.3141918889999999
 26
93.7906303305999955
 36
0.0
  0
DIMENSION
  5
1E1
100
AcDbEntity
  8
DIMS
 62
2
420
16776960
370
-1
 48
1.0
  6
CONTINUOUS
100
AcDbDimension
 10
57.9326082577999983
 20
57.8427680276999965
 30
0.0
 11
52.4588646719999971
 21
53.0607651681999997
 31
0.0
 70
130
 71
8
 72
2
 74
0
 75
0
 41
0.9
 42
0.0
  1

  3
Standard
100
AcDb2LineAngularDimension
 13
50.6462873640000026
 23
57.9038987938999981
 33
0.0
 14
50.5851565978000011
 24
57.8427680276999965
 34
0.0
 15
57.8714774915999968
 25
57.9038987938999981
 35
0.0
 16
54.2588824278000033
 26
52.8712979899000004
 36
0.0
  0
DIMENSION
  5
1E2
100
AcDbEntity
  8
DIMS
 62
2
420
16776960
370
-1
 48
1.0
  6
CONTINUOUS
100
AcDbDimension
 10
43.4326082330999981
 20
57.8427680523999967
 30
0.0
 11
37.7695408471999983
 21
52.9676557434000017
 31
0.0
 70
130
 71
8
 72
2
 74
0
 75
0
 41
0.9
 42
0.0
  1

  3
Standard
100
AcDb2LineAngularDimension
 13
36.1472211505999965
 23
57.9048325806000008
 33
0.0
 14
36.0851566225000013
 24
57.8427680523999967
 34
0.0
 15
43.3705437050000029
 25
57.9048325806000008
 35
0.0
 16
39.7588824278000033
 26
52.7392441159000001
 36
0.0
  0
DIMENSION
  5
1E3
100
AcDbEntity
  8
DIMS
 62
2
420
16776960
370
-1
 48
1.0
  6
CONTINUOUS
100
AcDbDimension
 10
116.2419892220000008
 20
138.3906303306000041
 30
0.0
 11
116.2419892220000008
 21
126.4066143649999958
 31
0.0
 70
128
 71
8
 72
2
 74
0
 75
0
 41
0.9
 42
0.0
  1

  3
Standard
100
AcDbAlignedDimension
 13
116.4135409361000058
 23
114.3906303306000041
 33
0.0
 14
109.731637216699994
 24
138.3906303306000041
 34
0.0
 50
90.0
100
AcDbRotatedDimension
1001
ACAD
1000
DSTYLE
1002
{
1070
279
1070
2
1070
144
1040
1.0
1070
40
1040
1.0
1002
}
  0
DIMENSION
  5
1E4
100
AcDbEntity
  8
DIMS
 62
2
420
16776960
370
-1
 48
1.0
  6
CONTINUOUS
100
AcDbDimension
 10
132.3633030320999922
 20
134.9906303305999984
 30
0.0
 11
132.3633030320999922
 21
136.7772632337999994
 31
0.0
 70
128
 71
8
 72
2
 74
0
 75
0
 41
0.9
 42
0.0
  1

  3
Standard
100
AcDbAlignedDimension
 13
138.7210821982000084
 23
138.3906303306000041
 33
0.0
 14
134.3708196782000073
 24
134.9906303305999984
 34
0.0
 50
270.0
100
AcDbRotatedDimension
1001
ACAD
1000
DSTYLE
1002
{
1070
279
1070
2
1070
144
1040
1.0
1070
40
1040
1.0
1002
}
  0
DIMENSION
  5
1E5
100
AcDbEntity
  8
DIMS
 62
2
420
16776960
370
-1
 48
1.0
  6
CONTINUOUS
100
AcDbDimension
 10
132.3633030320999922
 20
90.3906303306000041
 30
0.0
 11
132.3633030320999922
 21
112.6677884056999943
 31
0.0
 70
128
 71
8
 72
2
 74
0
 75
0
 41
0.9
 42
0.0
  1

  3
Standard
100
AcDbAlignedDimension
 13
134.3708196782000073
 23
134.9906303305999984
 33
0.0
 14
138.7210821982000084
 24
90.3906303306000041
 34
0.0
 50
270.0
100
AcDbRotatedDimension
1001
ACAD
1000
DSTYLE
1002
{
1070
279
1070
2
1070
144
1040
1.0
1070
40
1040
1.0
1002
}
  0
DIMENSION
  5
1E6
100
AcDbEntity
  8
DIMS
 62
2
420
16776960
370
-1
 48
1.0
  6
CONTINUOUS
100
AcDbDimension
 10
162.0467632952999963
 20
138.3906303306000041
 30
0.0
 11
162.0467632952999963
 21
116.0677886649999948
 31
0.0
 70
128
 71
8
 72
2
 74
0
 75
0
 41
0.9
 42
0.0
  1

  3
Standard
100
AcDbAlignedDimension
 13
165.1495132182000134
 23
93.7906303305999955
 33
0.0
 14
168.3268276885000034
 24
138.3906303306000041
 34
0.0
 50
90.0
100
AcDbRotatedDimension
1001
ACAD
1000
DSTYLE
1002
{
1070
279
1070
2
1070
144
1040
1.0
1070
40
1040
1.0
1002
}
  0
DIMENSION
  5
1E7
100
AcDbEntity
  8
DIMS
 62
2
420
16776960
370
-1
 48
1.0
  6
CONTINUOUS
100
AcDbDimension
 10
162.0467632952999963
 20
90.3906303306000041
 30
0.0
 11
162.0467632952999963
 21
92.1772634930999999
 31
0.0
 70
128
 71
8
 72
2
 74
0
 75
0
 41
0.9
 42
0.0
  1

  3
Standard
100
AcDbAlignedDimension
 13
165.1495132182000134
 23
93.7906303305999955
 33
0.0
 14
168.3268276885000034
 24
90.3906303306000041
 34
0.0
 50
270.0
100
AcDbRotatedDimension
1001
ACAD
1000
DSTYLE
1002
{
1070
279
1070
2
1070
144
1040
1.0
1070
40
1040
1.0
1002
}
  0
MTEXT
  5
1E8
100
AcDbEntity
  8
DETAILS
 62
2
420
16776960
370
-1
 48
1.0
  6
CONTINUOUS
100
AcDbMText
 10
31.1282891202999998
 20
32.2268161446000008
 30
0.0
 40
2.0
 41
15.6752767528000003
 71
1
 72
1
  1
SEZIONE A-A
  7
textstyle4
 50
0.0
 73
2
 44
0.9
  0
MTEXT
  5
1E9
100
AcDbEntity
  8
DETAILS
 62
2
420
16776960
370
-1
 48
1.0
  6
CONTINUOUS
100
AcDbMText
 10
106.8433159326999942
 20
83.2557025163000048
 30
0.0
 40
2.0
 41
15.3653136530999994
 71
1
 72
1
  1
SEZIONE B-B
  7
textstyle2
 50
0.0
 73
2
 44
0.9
  0
MTEXT
  5
1EA
100
AcDbEntity
  8
DETAILS
 62
2
420
16776960
370
-1
 48
1.0
  6
CONTINUOUS
100
AcDbMText
 10
138.6871541033999904
 20
83.1301692508999963
 30
0.0
 40
2.0
 41
15.2619926198999991
 71
1
 72
1
  1
SEZIONE C-C
  7
textstyle3
 50
0.0
 73
2
 44
0.9
  0
MTEXT
  5
1EB
100
AcDbEntity
  8
DETAILS
 62
2
420
16776960
370
-1
 48
1.0
  6
CONTINUOUS
100
AcDbMText
 10
168.3155388136999875
 20
83.2013776355999966
 30
0.0
 40
2.0
 41
15.9852398523999994
 71
1
 72
1
  1
SEZIONE D-D
  7
textstyle1
 50
0.0
 73
2
 44
0.9
  0
LEADER
  5
1EC
100
AcDbEntity
  8
DETAILS
 62
2
420
16776960
370
-1
 48
1.0
  6
CONTINUOUS
100
AcDbLeader
  3
Standard
 71
1
 72
0
 73
3
 74
0
 75
0
 40
1.0
 41
10.0
 76
3
 10
40.8943440398999982
 20
92.3906303306000041
 10
43.6483712064000002
 20
78.7458409852000045
 10
44.6883712063999994
 20
78.7458409852000045
1001
ACAD
1000
DSTYLE
1002
{
1070
40
1040
1.0
1002
}
  0
MTEXT
  5
1ED
100
AcDbEntity
  8
DETAILS
 62
2
420
16776960
370
-1
 48
1.0
  6
CONTINUOUS
100
AcDbMText
 10
44.6883712063999994
 20
79.7458409852000045
 30
0.0
 40
2.0
 41
23.121771217700001
 71
1
 72
1
  1
Punto attacco Laser
  7
textstyle0
 50
0.0
 73
2
 44
0.9
  0
LINE
  5
1EE
100
AcDbEntity
  8
0
 62
7
420
16777215
370
-1
 48
1.0
  6
CONTINUOUS
100
AcDbLine
 10
0.0
 20
85.4141414141000013
 30
0.0
 11
0.0
 21
82.5858585858999987
 31
0.0
  0
LINE
  5
1EF
100
AcDbEntity
  8
0
 62
7
420
16777215
370
-1
 48
1.0
  6
CONTINUOUS
100
AcDbLine
 10
0.0
 20
82.5858585858999987
 30
0.0
 11
2.8282828282999999
 21
84.0
 31
0.0
  0
LINE
  5
1F0
100
AcDbEntity
  8
0
 62
7
420
16777215
370
-1
 48
1.0
  6
CONTINUOUS
100
AcDbLine
 10
2.8282828282999999
 20
84.0
 30
0.0
 11
0.0
 21
85.4141414141000013
 31
0.0
  0
HATCH
  5
1F1
100
AcDbEntity
  8
0
 62
7
420
16777215
370
-1
 48
1.0
  6
CONTINUOUS
100
AcDbHatch
 10
0.0
 20
0.0
 30
0.0
210
0.0
220
0.0
230
1.0
  2
ANSI31
 70
0
 71
0
 91
1
 92
1
 93
3
 72
1
 10
0.0
 20
82.5858585858999987
 11
2.8282828282999999
 21
84.0
 72
1
 10
2.8282828282999999
 20
84.0
 11
0.0
 21
85.4141414141000013
 72
1
 10
0.0
 20
85.4141414141000013
 11
0.0
 21
82.5858585858999987
 97
0
 75
0
 76
1
 52
45.0
 41
0.2244949495
 77
0
 78
1
 53
45.0
 43
0.0
 44
0.0
 45
-0.0883883476483184
 46
0.0883883476483185
 79
0
 98
0
1001
ACAD
1010
0.0
1020
0.0
1030
0
  0
LINE
  5
1F2
100
AcDbEntity
  8
0
 62
7
420
16777215
370
-1
 48
1.0
  6
CONTINUOUS
100
AcDbLine
 10
0.0
 20
0.0
 30
0.0
 11
0.0
 21
168.0
 31
0.0
  0
LINE
  5
1F3
100
AcDbEntity
  8
0
 62
7
420
16777215
370
-1
 48
1.0
  6
CONTINUOUS
100
AcDbLine
 10
2.8282828282999999
 20
165.1717171717000099
 30
0.0
 11
2.8282828282999999
 21
2.8282828282999999
 31
0.0
  0
LINE
  5
1F4
100
AcDbEntity
  8
0
 62
7
420
16777215
370
-1
 48
1.0
  6
CONTINUOUS
100
AcDbLine
 10
5.6565656565999998
 20
162.3434343433999913
 30
0.0
 11
5.6565656565999998
 21
5.6565656565999998
 31
0.0
  0
LINE
  5
1F5
100
AcDbEntity
  8
0
 62
7
420
16777215
370
-1
 48
1.0
  6
CONTINUOUS
100
AcDbLine
 10
33.9393939393999986
 20
2.8282828282999999
 30
0.0
 11
33.9393939393999986
 21
5.6565656565999998
 31
0.0
  0
LINE
  5
1F6
100
AcDbEntity
  8
0
 62
7
420
16777215
370
-1
 48
1.0
  6
CONTINUOUS
100
AcDbLine
 10
33.9393939393999986
 20
162.3434343433999913
 30
0.0
 11
33.9393939393999986
 21
165.1717171717000099
 31
0.0
  0
LINE
  5
1F7
100
AcDbEntity
  8
0
 62
7
420
16777215
370
-1
 48
1.0
  6
CONTINUOUS
100
AcDbLine
 10
0.0
 20
0.0
 30
0.0
 11
237.5999999999999943
 21
0.0
 31
0.0
  0
LINE
  5
1F8
100
AcDbEntity
  8
0
 62
7
420
16777215
370
-1
 48
1.0
  6
CONTINUOUS
100
AcDbLine
 10
117.3737373736999956
 20
0.0
 30
0.0
 11
120.2020202019999999
 21
0.0
 31
0.0
  0
LINE
  5
1F9
100
AcDbEntity
  8
0
 62
7
420
16777215
370
-1
 48
1.0
  6
CONTINUOUS
100
AcDbLine
 10
120.2020202019999999
 20
0.0
 30
0.0
 11
118.7878787878999987
 21
2.8282828282999999
 31
0.0
  0
LINE
  5
1FA
100
AcDbEntity
  8
0
 62
7
420
16777215
370
-1
 48
1.0
  6
CONTINUOUS
100
AcDbLine
 10
118.7878787878999987
 20
2.8282828282999999
 30
0.0
 11
117.3737373736999956
 21
0.0
 31
0.0
  0
HATCH
  5
1FB
100
AcDbEntity
  8
0
 62
7
420
16777215
370
-1
 48
1.0
  6
CONTINUOUS
100
AcDbHatch
 10
0.0
 20
0.0
 30
0.0
210
0.0
220
0.0
230
1.0
  2
ANSI31
 70
0
 71
0
 91
1
 92
1
 93
3
 72
1
 10
120.2020202019999999
 20
0.0
 11
118.7878787878999987
 21
2.8282828282999999
 72
1
 10
118.7878787878999987
 20
2.8282828282999999
 11
117.3737373736999956
 21
0.0
 72
1
 10
117.3737373736999956
 20
0.0
 11
120.2020202019999999
 21
0.0
 97
0
 75
0
 76
1
 52
45.0
 41
0.2244949495
 77
0
 78
1
 53
45.0
 43
0.0
 44
0.0
 45
-0.0883883476483184
 46
0.0883883476483185
 79
0
 98
0
1001
ACAD
1010
0.0
1020
0.0
1030
0
  0
LINE
  5
1FC
100
AcDbEntity
  8
0
 62
7
420
16777215
370
-1
 48
1.0
  6
CONTINUOUS
100
AcDbLine
 10
2.8282828282999999
 20
2.8282828282999999
 30
0.0
 11
234.7474747475000072
 21
2.8282828282999999
 31
0.0
  0
LINE
  5
1FD
100
AcDbEntity
  8
0
 62
7
420
16777215
370
-1
 48
1.0
  6
CONTINUOUS
100
AcDbLine
 10
5.6565656565999998
 20
5.6565656565999998
 30
0.0
 11
231.9191919191999887
 21
5.6565656565999998
 31
0.0
  0
LINE
  5
1FE
100
AcDbEntity
  8
0
 62
7
420
16777215
370
-1
 48
1.0
  6
CONTINUOUS
100
AcDbLine
 10
62.2222222222000028
 20
2.8282828282999999
 30
0.0
 11
62.2222222222000028
 21
5.6565656565999998
 31
0.0
  0
LINE
  5
1FF
100
AcDbEntity
  8
0
 62
7
420
16777215
370
-1
 48
1.0
  6
CONTINUOUS
100
AcDbLine
 10
62.2222222222000028
 20
162.3434343433999913
 30
0.0
 11
62.2222222222000028
 21
165.1717171717000099
 31
0.0
  0
LINE
  5
200
100
AcDbEntity
  8
0
 62
7
420
16777215
370
-1
 48
1.0
  6
CONTINUOUS
100
AcDbLine
 10
0.0
 20
82.5858585858999987
 30
0.0
 11
2.8282828282999999
 21
84.0
 31
0.0
  0
LINE
  5
201
100
AcDbEntity
  8
0
 62
7
420
16777215
370
-1
 48
1.0
  6
CONTINUOUS
100
AcDbLine
 10
234.7474747475000072
 20
31.9595959596000014
 30
0.0
 11
231.9191919191999887
 21
31.9595959596000014
 31
0.0
  0
LINE
  5
202
100
AcDbEntity
  8
0
 62
7
420
16777215
370
-1
 48
1.0
  6
CONTINUOUS
100
AcDbLine
 10
5.6565656565999998
 20
31.9595959596000014
 30
0.0
 11
2.8282828282999999
 21
31.9595959596000014
 31
0.0
  0
LINE
  5
203
100
AcDbEntity
  8
0
 62
7
420
16777215
370
-1
 48
1.0
  6
CONTINUOUS
100
AcDbLine
 10
2.8282828282999999
 20
84.0
 30
0.0
 11
0.0
 21
85.4141414141000013
 31
0.0
  0
LINE
  5
204
100
AcDbEntity
  8
0
 62
7
420
16777215
370
-1
 48
1.0
  6
CONTINUOUS
100
AcDbLine
 10
120.2020202019999999
 20
168.0
 30
0.0
 11
118.7878787878999987
 21
165.1717171717000099
 31
0.0
  0
LINE
  5
205
100
AcDbEntity
  8
0
 62
7
420
16777215
370
-1
 48
1.0
  6
CONTINUOUS
100
AcDbLine
 10
118.7878787878999987
 20
165.1717171717000099
 30
0.0
 11
117.3737373736999956
 21
168.0
 31
0.0
  0
LINE
  5
206
100
AcDbEntity
  8
0
 62
7
420
16777215
370
-1
 48
1.0
  6
CONTINUOUS
100
AcDbLine
 10
117.3737373736999956
 20
168.0
 30
0.0
 11
120.2020202019999999
 21
168.0
 31
0.0
  0
HATCH
  5
207
100
AcDbEntity
  8
0
 62
2
420
16776960
370
-1
 48
1.0
  6
CONTINUOUS
100
AcDbHatch
 10
0.0
 20
0.0
 30
0.0
210
0.0
220
0.0
230
1.0
  2
XSEC0001
 70
0
 71
0
 91
1
 92
1
 93
3
 72
1
 10
118.7878787878999987
 20
165.1717171717000099
 11
117.3737373736999956
 21
168.0
 72
1
 10
117.3737373736999956
 20
168.0
 11
120.2020202019999999
 21
168.0
 72
1
 10
120.2020202019999999
 20
168.0
 11
118.7878787878999987
 21
165.1717171717000099
 97
0
 75
0
 76
1
 52
45.0
 41
1.0
 77
0
 78
1
 53
45.0
 43
0.0
 44
0.0
 45
-0.0883883476483184
 46
0.0883883476483185
 79
0
 98
0
1001
ACAD
1010
0.0
1020
0.0
1030
0
  0
LINE
  5
208
100
AcDbEntity
  8
0
 62
7
420
16777215
370
-1
 48
1.0
  6
CONTINUOUS
100
AcDbLine
 10
118.7878787878999987
 20
165.1717171717000099
 30
0.0
 11
120.2020202019999999
 21
168.0
 31
0.0
  0
LINE
  5
209
100
AcDbEntity
  8
0
 62
7
420
16777215
370
-1
 48
1.0
  6
CONTINUOUS
100
AcDbLine
 10
117.3737373736999956
 20
168.0
 30
0.0
 11
118.7878787878999987
 21
165.1717171717000099
 31
0.0
  0
LINE
  5
20A
100
AcDbEntity
  8
0
 62
7
420
16777215
370
-1
 48
1.0
  6
CONTINUOUS
100
AcDbLine
 10
120.2020202019999999
 20
168.0
 30
0.0
 11
117.3737373736999956
 21
168.0
 31
0.0
  0
HATCH
  5
20B
100
AcDbEntity
  8
0
 62
2
420
16776960
370
-1
 48
1.0
  6
CONTINUOUS
100
AcDbHatch
 10
0.0
 20
0.0
 30
0.0
210
0.0
220
0.0
230
1.0
  2
ANSI31
 70
0
 71
0
 91
1
 92
1
 93
3
 72
1
 10
120.2020202019999999
 20
168.0
 11
117.3737373736999956
 21
168.0
 72
1
 10
117.3737373736999956
 20
168.0
 11
118.7878787878999987
 21
165.1717171717000099
 72
1
 10
118.7878787878999987
 20
165.1717171717000099
 11
120.2020202019999999
 21
168.0
 97
0
 75
0
 76
1
 52
315.0
 41
0.2244949495
 77
0
 78
1
 53
45.0
 43
0.0
 44
0.0
 45
-0.0883883476483184
 46
0.0883883476483185
 79
0
 98
0
1001
ACAD
1010
0.0
1020
0.0
1030
0
  0
LINE
  5
20C
100
AcDbEntity
  8
0
 62
7
420
16777215
370
-1
 48
1.0
  6
CONTINUOUS
100
AcDbLine
 10
120.2020202019999999
 20
0.0
 30
0.0
 11
118.7878787878999987
 21
2.8282828282999999
 31
0.0
  0
LINE
  5
20D
100
AcDbEntity
  8
0
 62
7
420
16777215
370
-1
 48
1.0
  6
CONTINUOUS
100
AcDbLine
 10
90.5050505051000016
 20
2.8282828282999999
 30
0.0
 11
90.5050505051000016
 21
5.6565656565999998
 31
0.0
  0
LINE
  5
20E
100
AcDbEntity
  8
0
 62
7
420
16777215
370
-1
 48
1.0
  6
CONTINUOUS
100
AcDbLine
 10
90.5050505051000016
 20
162.3434343433999913
 30
0.0
 11
90.5050505051000016
 21
165.1717171717000099
 31
0.0
  0
LINE
  5
20F
100
AcDbEntity
  8
0
 62
7
420
16777215
370
-1
 48
1.0
  6
CONTINUOUS
100
AcDbLine
 10
234.7474747475000072
 20
57.9797979797999972
 30
0.0
 11
231.9191919191999887
 21
57.9797979797999972
 31
0.0
  0
LINE
  5
210
100
AcDbEntity
  8
0
 62
7
420
16777215
370
-1
 48
1.0
  6
CONTINUOUS
100
AcDbLine
 10
5.6565656565999998
 20
57.9797979797999972
 30
0.0
 11
2.8282828282999999
 21
57.9797979797999972
 31
0.0
  0
LINE
  5
211
100
AcDbEntity
  8
0
 62
7
420
16777215
370
-1
 48
1.0
  6
CONTINUOUS
100
AcDbLine
 10
118.7878787878999987
 20
2.8282828282999999
 30
0.0
 11
118.7878787878999987
 21
5.6565656565999998
 31
0.0
  0
LINE
  5
212
100
AcDbEntity
  8
0
 62
7
420
16777215
370
-1
 48
1.0
  6
CONTINUOUS
100
AcDbLine
 10
118.7878787878999987
 20
162.3434343433999913
 30
0.0
 11
118.7878787878999987
 21
165.1717171717000099
 31
0.0
  0
LINE
  5
213
100
AcDbEntity
  8
0
 62
7
420
16777215
370
-1
 48
1.0
  6
CONTINUOUS
100
AcDbLine
 10
147.0707070706999957
 20
2.8282828282999999
 30
0.0
 11
147.0707070706999957
 21
5.6565656565999998
 31
0.0
  0
LINE
  5
214
100
AcDbEntity
  8
0
 62
7
420
16777215
370
-1
 48
1.0
  6
CONTINUOUS
100
AcDbLine
 10
147.0707070706999957
 20
162.3434343433999913
 30
0.0
 11
147.0707070706999957
 21
165.1717171717000099
 31
0.0
  0
LINE
  5
215
100
AcDbEntity
  8
0
 62
7
420
16777215
370
-1
 48
1.0
  6
CONTINUOUS
100
AcDbLine
 10
234.7474747475000072
 20
110.0202020202000028
 30
0.0
 11
231.9191919191999887
 21
110.0202020202000028
 31
0.0
  0
LINE
  5
216
100
AcDbEntity
  8
0
 62
7
420
16777215
370
-1
 48
1.0
  6
CONTINUOUS
100
AcDbLine
 10
5.6565656565999998
 20
110.0202020202000028
 30
0.0
 11
2.8282828282999999
 21
110.0202020202000028
 31
0.0
  0
LINE
  5
217
100
AcDbEntity
  8
0
 62
7
420
16777215
370
-1
 48
1.0
  6
CONTINUOUS
100
AcDbLine
 10
118.7878787878999987
 20
2.8282828282999999
 30
0.0
 11
117.3737373736999956
 21
0.0
 31
0.0
  0
LINE
  5
218
100
AcDbEntity
  8
0
 62
7
420
16777215
370
-1
 48
1.0
  6
CONTINUOUS
100
AcDbLine
 10
175.353535353500007
 20
3.9595959596000001
 30
0.0
 11
175.353535353500007
 21
5.6565656565999998
 31
0.0
  0
LINE
  5
219
100
AcDbEntity
  8
0
 62
7
420
16777215
370
-1
 48
1.0
  6
CONTINUOUS
100
AcDbLine
 10
175.353535353500007
 20
162.3434343433999913
 30
0.0
 11
175.353535353500007
 21
165.1717171717000099
 31
0.0
  0
LINE
  5
21A
100
AcDbEntity
  8
0
 62
7
420
16777215
370
-1
 48
1.0
  6
CONTINUOUS
100
AcDbLine
 10
175.9191919191999887
 20
5.0909090909000003
 30
0.0
 11
175.9191919191999887
 21
5.6565656565999998
 31
0.0
  0
LINE
  5
21B
100
AcDbEntity
  8
0
 62
7
420
16777215
370
-1
 48
1.0
  6
CONTINUOUS
100
AcDbLine
 10
176.4848484848000112
 20
5.0909090909000003
 30
0.0
 11
176.4848484848000112
 21
5.6565656565999998
 31
0.0
  0
LINE
  5
21C
100
AcDbEntity
  8
0
 62
7
420
16777215
370
-1
 48
1.0
  6
CONTINUOUS
100
AcDbLine
 10
177.0505050504999929
 20
5.0909090909000003
 30
0.0
 11
177.0505050504999929
 21
5.6565656565999998
 31
0.0
  0
LINE
  5
21D
100
AcDbEntity
  8
0
 62
7
420
16777215
370
-1
 48
1.0
  6
CONTINUOUS
100
AcDbLine
 10
177.616161616200003
 20
5.0909090909000003
 30
0.0
 11
177.616161616200003
 21
5.6565656565999998
 31
0.0
  0
LINE
  5
21E
100
AcDbEntity
  8
0
 62
7
420
16777215
370
-1
 48
1.0
  6
CONTINUOUS
100
AcDbLine
 10
237.5757575757999973
 20
85.4141414141000013
 30
0.0
 11
234.7474747475000072
 21
84.0
 31
0.0
  0
LINE
  5
21F
100
AcDbEntity
  8
0
 62
7
420
16777215
370
-1
 48
1.0
  6
CONTINUOUS
100
AcDbLine
 10
234.7474747475000072
 20
84.0
 30
0.0
 11
237.5757575757999973
 21
82.5858585858999987
 31
0.0
  0
LINE
  5
220
100
AcDbEntity
  8
0
 62
7
420
16777215
370
-1
 48
1.0
  6
CONTINUOUS
100
AcDbLine
 10
237.5757575757999973
 20
82.5858585858999987
 30
0.0
 11
237.5757575757999973
 21
85.4141414141000013
 31
0.0
  0
HATCH
  5
221
100
AcDbEntity
  8
0
 62
7
420
16777215
370
-1
 48
1.0
  6
CONTINUOUS
100
AcDbHatch
 10
0.0
 20
0.0
 30
0.0
210
0.0
220
0.0
230
1.0
  2
ANSI31
 70
0
 71
0
 91
1
 92
1
 93
3
 72
1
 10
234.7474747475000072
 20
84.0
 11
237.5757575757999973
 21
82.5858585858999987
 72
1
 10
237.5757575757999973
 20
82.5858585858999987
 11
237.5757575757999973
 21
85.4141414141000013
 72
1
 10
237.5757575757999973
 20
85.4141414141000013
 11
234.7474747475000072
 21
84.0
 97
0
 75
0
 76
1
 52
135.0
 41
0.2244949495
 77
0
 78
1
 53
45.0
 43
0.0
 44
0.0
 45
-0.0883883476483184
 46
0.0883883476483185
 79
0
 98
0
1001
ACAD
1010
0.0
1020
0.0
1030
0
  0
LINE
  5
222
100
AcDbEntity
  8
0
 62
7
420
16777215
370
-1
 48
1.0
  6
CONTINUOUS
100
AcDbLine
 10
234.7474747475000072
 20
84.0
 30
0.0
 11
237.5757575757999973
 21
85.4141414141000013
 31
0.0
  0
LINE
  5
223
100
AcDbEntity
  8
0
 62
7
420
16777215
370
-1
 48
1.0
  6
CONTINUOUS
100
AcDbLine
 10
237.5757575757999973
 20
82.5858585858999987
 30
0.0
 11
234.7474747475000072
 21
84.0
 31
0.0
  0
LINE
  5
224
100
AcDbEntity
  8
0
 62
7
420
16777215
370
-1
 48
1.0
  6
CONTINUOUS
100
AcDbLine
 10
237.5757575757999973
 20
85.4141414141000013
 30
0.0
 11
237.5757575757999973
 21
82.5858585858999987
 31
0.0
  0
HATCH
  5
225
100
AcDbEntity
  8
0
 62
2
420
16776960
370
-1
 48
1.0
  6
CONTINUOUS
100
AcDbHatch
 10
0.0
 20
0.0
 30
0.0
210
0.0
220
0.0
230
1.0
  2
XSEC0002
 70
0
 71
0
 91
1
 92
1
 93
3
 72
1
 10
237.5757575757999973
 20
85.4141414141000013
 11
237.5757575757999973
 21
82.5858585858999987
 72
1
 10
237.5757575757999973
 20
82.5858585858999987
 11
234.7474747475000072
 21
84.0
 72
1
 10
234.7474747475000072
 20
84.0
 11
237.5757575757999973
 21
85.4141414141000013
 97
0
 75
0
 76
1
 52
45.0
 41
1.0
 77
0
 78
1
 53
45.0
 43
0.0
 44
0.0
 45
-0.0883883476483184
 46
0.0883883476483185
 79
0
 98
0
1001
ACAD
1010
0.0
1020
0.0
1030
0
  0
LINE
  5
226
100
AcDbEntity
  8
0
 62
7
420
16777215
370
-1
 48
1.0
  6
CONTINUOUS
100
AcDbLine
 10
234.7474747475000072
 20
136.0404040404000057
 30
0.0
 11
231.9191919191999887
 21
136.0404040404000057
 31
0.0
  0
LINE
  5
227
100
AcDbEntity
  8
0
 62
7
420
16777215
370
-1
 48
1.0
  6
CONTINUOUS
100
AcDbLine
 10
5.6565656565999998
 20
136.0404040404000057
 30
0.0
 11
2.8282828282999999
 21
136.0404040404000057
 31
0.0
  0
LINE
  5
228
100
AcDbEntity
  8
0
 62
7
420
16777215
370
-1
 48
1.0
  6
CONTINUOUS
100
AcDbLine
 10
178.1818181817999971
 20
4.8080808080999997
 30
0.0
 11
178.1818181817999971
 21
5.6565656565999998
 31
0.0
  0
LINE
  5
229
100
AcDbEntity
  8
0
 62
7
420
16777215
370
-1
 48
1.0
  6
CONTINUOUS
100
AcDbLine
 10
178.7474747475000072
 20
5.0909090909000003
 30
0.0
 11
178.7474747475000072
 21
5.6565656565999998
 31
0.0
  0
LINE
  5
22A
100
AcDbEntity
  8
0
 62
7
420
16777215
370
-1
 48
1.0
  6
CONTINUOUS
100
AcDbLine
 10
179.3131313131000013
 20
5.0909090909000003
 30
0.0
 11
179.3131313131000013
 21
5.6565656565999998
 31
0.0
  0
LINE
  5
22B
100
AcDbEntity
  8
0
 62
7
420
16777215
370
-1
 48
1.0
  6
CONTINUOUS
100
AcDbLine
 10
179.8787878788000114
 20
5.0909090909000003
 30
0.0
 11
179.8787878788000114
 21
5.6565656565999998
 31
0.0
  0
LINE
  5
22C
100
AcDbEntity
  8
0
 62
7
420
16777215
370
-1
 48
1.0
  6
CONTINUOUS
100
AcDbLine
 10
180.4444444444000055
 20
5.0909090909000003
 30
0.0
 11
180.4444444444000055
 21
5.6565656565999998
 31
0.0
  0
LINE
  5
22D
100
AcDbEntity
  8
0
 62
7
420
16777215
370
-1
 48
1.0
  6
CONTINUOUS
100
AcDbLine
 10
181.0101010100999872
 20
3.9595959596000001
 30
0.0
 11
181.0101010100999872
 21
5.6565656565999998
 31
0.0
  0
LINE
  5
22E
100
AcDbEntity
  8
0
 62
7
420
16777215
370
-1
 48
1.0
  6
CONTINUOUS
100
AcDbLine
 10
181.5757575757999973
 20
5.0909090909000003
 30
0.0
 11
181.5757575757999973
 21
5.6565656565999998
 31
0.0
  0
LINE
  5
22F
100
AcDbEntity
  8
0
 62
7
420
16777215
370
-1
 48
1.0
  6
CONTINUOUS
100
AcDbLine
 10
182.1414141413999914
 20
5.0909090909000003
 30
0.0
 11
182.1414141413999914
 21
5.6565656565999998
 31
0.0
  0
LINE
  5
230
100
AcDbEntity
  8
0
 62
7
420
16777215
370
-1
 48
1.0
  6
CONTINUOUS
100
AcDbLine
 10
182.7070707071000015
 20
5.0909090909000003
 30
0.0
 11
182.7070707071000015
 21
5.6565656565999998
 31
0.0
  0
LINE
  5
231
100
AcDbEntity
  8
0
 62
7
420
16777215
370
-1
 48
1.0
  6
CONTINUOUS
100
AcDbLine
 10
183.2727272726999956
 20
5.0909090909000003
 30
0.0
 11
183.2727272726999956
 21
5.6565656565999998
 31
0.0
  0
LINE
  5
232
100
AcDbEntity
  8
0
 62
7
420
16777215
370
-1
 48
1.0
  6
CONTINUOUS
100
AcDbLine
 10
183.8383838384000057
 20
4.8080808080999997
 30
0.0
 11
183.8383838384000057
 21
5.6565656565999998
 31
0.0
  0
LINE
  5
233
100
AcDbEntity
  8
0
 62
7
420
16777215
370
-1
 48
1.0
  6
CONTINUOUS
100
AcDbLine
 10
184.4040404039999999
 20
5.0909090909000003
 30
0.0
 11
184.4040404039999999
 21
5.6565656565999998
 31
0.0
  0
LINE
  5
234
100
AcDbEntity
  8
0
 62
7
420
16777215
370
-1
 48
1.0
  6
CONTINUOUS
100
AcDbLine
 10
184.96969696970001
 20
5.0909090909000003
 30
0.0
 11
184.96969696970001
 21
5.6565656565999998
 31
0.0
  0
LINE
  5
235
100
AcDbEntity
  8
0
 62
7
420
16777215
370
-1
 48
1.0
  6
CONTINUOUS
100
AcDbLine
 10
185.5353535353999916
 20
5.0909090909000003
 30
0.0
 11
185.5353535353999916
 21
5.6565656565999998
 31
0.0
  0
LINE
  5
236
100
AcDbEntity
  8
0
 62
7
420
16777215
370
-1
 48
1.0
  6
CONTINUOUS
100
AcDbLine
 10
186.1010101010000142
 20
5.0909090909000003
 30
0.0
 11
186.1010101010000142
 21
5.6565656565999998
 31
0.0
  0
LINE
  5
237
100
AcDbEntity
  8
0
 62
7
420
16777215
370
-1
 48
1.0
  6
CONTINUOUS
100
AcDbLine
 10
186.6666666666999959
 20
3.9595959596000001
 30
0.0
 11
186.6666666666999959
 21
5.6565656565999998
 31
0.0
  0
LINE
  5
238
100
AcDbEntity
  8
0
 62
7
420
16777215
370
-1
 48
1.0
  6
CONTINUOUS
100
AcDbLine
 10
187.23232323229999
 20
5.0909090909000003
 30
0.0
 11
187.23232323229999
 21
5.6565656565999998
 31
0.0
  0
LINE
  5
239
100
AcDbEntity
  8
0
 62
7
420
16777215
370
-1
 48
1.0
  6
CONTINUOUS
100
AcDbLine
 10
187.7979797980000001
 20
5.0909090909000003
 30
0.0
 11
187.7979797980000001
 21
5.6565656565999998
 31
0.0
  0
LINE
  5
23A
100
AcDbEntity
  8
0
 62
7
420
16777215
370
-1
 48
1.0
  6
CONTINUOUS
100
AcDbLine
 10
188.3636363635999942
 20
5.0909090909000003
 30
0.0
 11
188.3636363635999942
 21
5.6565656565999998
 31
0.0
  0
LINE
  5
23B
100
AcDbEntity
  8
0
 62
7
420
16777215
370
-1
 48
1.0
  6
CONTINUOUS
100
AcDbLine
 10
188.9292929293000043
 20
5.0909090909000003
 30
0.0
 11
188.9292929293000043
 21
5.6565656565999998
 31
0.0
  0
LINE
  5
23C
100
AcDbEntity
  8
0
 62
7
420
16777215
370
-1
 48
1.0
  6
CONTINUOUS
100
AcDbLine
 10
189.4949494948999984
 20
4.8080808080999997
 30
0.0
 11
189.4949494948999984
 21
5.6565656565999998
 31
0.0
  0
LINE
  5
23D
100
AcDbEntity
  8
0
 62
7
420
16777215
370
-1
 48
1.0
  6
CONTINUOUS
100
AcDbLine
 10
192.3232323231999885
 20
3.9595959596000001
 30
0.0
 11
192.3232323231999885
 21
5.6565656565999998
 31
0.0
  0
LINE
  5
23E
100
AcDbEntity
  8
0
 62
7
420
16777215
370
-1
 48
1.0
  6
CONTINUOUS
100
AcDbLine
 10
195.1515151515000071
 20
4.8080808080999997
 30
0.0
 11
195.1515151515000071
 21
5.6565656565999998
 31
0.0
  0
LINE
  5
23F
100
AcDbEntity
  8
0
 62
7
420
16777215
370
-1
 48
1.0
  6
CONTINUOUS
100
AcDbLine
 10
197.9797979797999972
 20
3.9595959596000001
 30
0.0
 11
197.9797979797999972
 21
5.6565656565999998
 31
0.0
  0
LINE
  5
240
100
AcDbEntity
  8
0
 62
7
420
16777215
370
-1
 48
1.0
  6
CONTINUOUS
100
AcDbLine
 10
200.8080808080999873
 20
4.8080808080999997
 30
0.0
 11
200.8080808080999873
 21
5.6565656565999998
 31
0.0
  0
LINE
  5
241
100
AcDbEntity
  8
0
 62
7
420
16777215
370
-1
 48
1.0
  6
CONTINUOUS
100
AcDbLine
 10
231.9191919191999887
 20
162.3434343433999913
 30
0.0
 11
5.6565656565999998
 21
162.3434343433999913
 31
0.0
  0
LINE
  5
242
100
AcDbEntity
  8
0
 62
7
420
16777215
370
-1
 48
1.0
  6
CONTINUOUS
100
AcDbLine
 10
234.7474747475000072
 20
165.1717171717000099
 30
0.0
 11
2.8282828282999999
 21
165.1717171717000099
 31
0.0
  0
LINE
  5
243
100
AcDbEntity
  8
0
 62
7
420
16777215
370
-1
 48
1.0
  6
CONTINUOUS
100
AcDbLine
 10
0.0
 20
168.0
 30
0.0
 11
237.5999999999999943
 21
168.0
 31
0.0
  0
LINE
  5
244
100
AcDbEntity
  8
0
 62
7
420
16777215
370
-1
 48
1.0
  6
CONTINUOUS
100
AcDbLine
 10
203.6363636364000058
 20
3.9595959596000001
 30
0.0
 11
203.6363636364000058
 21
5.6565656565999998
 31
0.0
  0
LINE
  5
245
100
AcDbEntity
  8
0
 62
7
420
16777215
370
-1
 48
1.0
  6
CONTINUOUS
100
AcDbLine
 10
203.6363636364000058
 20
162.3434343433999913
 30
0.0
 11
203.6363636364000058
 21
165.1717171717000099
 31
0.0
  0
LINE
  5
246
100
AcDbEntity
  8
0
 62
7
420
16777215
370
-1
 48
1.0
  6
CONTINUOUS
100
AcDbLine
 10
206.4646464646000084
 20
4.8080808080999997
 30
0.0
 11
206.4646464646000084
 21
5.6565656565999998
 31
0.0
  0
LINE
  5
247
100
AcDbEntity
  8
0
 62
7
420
16777215
370
-1
 48
1.0
  6
CONTINUOUS
100
AcDbLine
 10
209.2929292928999985
 20
3.9595959596000001
 30
0.0
 11
209.2929292928999985
 21
5.6565656565999998
 31
0.0
  0
LINE
  5
248
100
AcDbEntity
  8
0
 62
7
420
16777215
370
-1
 48
1.0
  6
CONTINUOUS
100
AcDbLine
 10
212.1212121211999886
 20
4.8080808080999997
 30
0.0
 11
212.1212121211999886
 21
5.6565656565999998
 31
0.0
  0
LINE
  5
249
100
AcDbEntity
  8
0
 62
7
420
16777215
370
-1
 48
1.0
  6
CONTINUOUS
100
AcDbLine
 10
214.9494949495000071
 20
3.9595959596000001
 30
0.0
 11
214.9494949495000071
 21
5.6565656565999998
 31
0.0
  0
LINE
  5
24A
100
AcDbEntity
  8
0
 62
7
420
16777215
370
-1
 48
1.0
  6
CONTINUOUS
100
AcDbLine
 10
217.7777777777999972
 20
4.8080808080999997
 30
0.0
 11
217.7777777777999972
 21
5.6565656565999998
 31
0.0
  0
LINE
  5
24B
100
AcDbEntity
  8
0
 62
7
420
16777215
370
-1
 48
1.0
  6
CONTINUOUS
100
AcDbLine
 10
220.6060606060999874
 20
3.9595959596000001
 30
0.0
 11
220.6060606060999874
 21
5.6565656565999998
 31
0.0
  0
LINE
  5
24C
100
AcDbEntity
  8
0
 62
7
420
16777215
370
-1
 48
1.0
  6
CONTINUOUS
100
AcDbLine
 10
223.4343434342999899
 20
4.8080808080999997
 30
0.0
 11
223.4343434342999899
 21
5.6565656565999998
 31
0.0
  0
LINE
  5
24D
100
AcDbEntity
  8
0
 62
7
420
16777215
370
-1
 48
1.0
  6
CONTINUOUS
100
AcDbLine
 10
226.2626262626000084
 20
3.9595959596000001
 30
0.0
 11
226.2626262626000084
 21
5.6565656565999998
 31
0.0
  0
LINE
  5
24E
100
AcDbEntity
  8
0
 62
7
420
16777215
370
-1
 48
1.0
  6
CONTINUOUS
100
AcDbLine
 10
229.0909090908999985
 20
4.8080808080999997
 30
0.0
 11
229.0909090908999985
 21
5.6565656565999998
 31
0.0
  0
LINE
  5
24F
100
AcDbEntity
  8
0
 62
7
420
16777215
370
-1
 48
1.0
  6
CONTINUOUS
100
AcDbLine
 10
231.9191919191999887
 20
3.9595959596000001
 30
0.0
 11
231.9191919191999887
 21
162.3434343433999913
 31
0.0
  0
LINE
  5
250
100
AcDbEntity
  8
0
 62
7
420
16777215
370
-1
 48
1.0
  6
CONTINUOUS
100
AcDbLine
 10
234.7474747475000072
 20
2.8282828282999999
 30
0.0
 11
234.7474747475000072
 21
165.1717171717000099
 31
0.0
  0
LINE
  5
251
100
AcDbEntity
  8
0
 62
7
420
16777215
370
-1
 48
1.0
  6
CONTINUOUS
100
AcDbLine
 10
237.5757575757999973
 20
0.0
 30
0.0
 11
237.5757575757999973
 21
168.0
 31
0.0
  0
LINE
  5
252
100
AcDbEntity
  8
0
 62
7
420
16777215
370
-1
 48
1.0
  6
CONTINUOUS
100
AcDbLine
 10
237.5999999999999943
 20
0.0
 30
0.0
 11
237.5999999999999943
 21
168.0
 31
0.0
  0
LINE
  5
253
100
AcDbEntity
  8
GEOM
 62
7
420
16777215
370
-1
 48
1.0
  6
CONTINUOUS
100
AcDbLine
 10
31.2588824277999997
 20
134.9906303305999984
 30
0.0
 11
31.2588824277999997
 21
90.3906303306000041
 31
0.0
  0
LINE
  5
254
100
AcDbEntity
  8
GEOM
 62
7
420
16777215
370
-1
 48
1.0
  6
CONTINUOUS
100
AcDbLine
 10
32.1388824277999987
 20
90.3906303306000041
 30
0.0
 11
32.1388824277999987
 21
92.3906303306000041
 31
0.0
  0
LINE
  5
255
100
AcDbEntity
  8
GEOM
 62
7
420
16777215
370
-1
 48
1.0
  6
CONTINUOUS
100
AcDbLine
 10
31.2588824277999997
 20
90.3906303306000041
 30
0.0
 11
32.1388824277999987
 21
90.3906303306000041
 31
0.0
  0
LINE
  5
256
100
AcDbEntity
  8
GEOM
 62
7
420
16777215
370
-1
 48
1.0
  6
CONTINUOUS
100
AcDbLine
 10
54.8388824278000016
 20
90.3906303306000041
 30
0.0
 11
73.8588824277999976
 21
90.3906303306000041
 31
0.0
  0
LINE
  5
257
100
AcDbEntity
  8
GEOM
 62
7
420
16777215
370
-1
 48
1.0
  6
CONTINUOUS
100
AcDbLine
 10
32.1388824277999987
 20
92.3906303306000041
 30
0.0
 11
54.3388824278000016
 21
92.3906303306000041
 31
0.0
  0
LINE
  5
258
100
AcDbEntity
  8
ASSI
 62
7
420
16777215
370
-1
 48
1.0
  6
CENTER
100
AcDbLine
 10
73.8588824277999976
 20
93.7906303305999955
 30
0.0
 11
70.1088824277999976
 21
93.7906303305999955
 31
0.0
  0
LINE
  5
259
100
AcDbEntity
  8
ASSI
 62
7
420
16777215
370
-1
 48
1.0
  6
CENTER
100
AcDbLine
 10
73.8588824277999976
 20
93.7906303305999955
 30
0.0
 11
77.6088824277999976
 21
93.7906303305999955
 31
0.0
  0
LINE
  5
25A
100
AcDbEntity
  8
DEFAULT_1
 62
7
420
16777215
370
-1
 48
1.0
  6
CENTER
100
AcDbLine
 10
34.6588824278000018
 20
144.5055757080999967
 30
0.0
 11
34.6588824278000018
 21
85.0131466713999941
 31
0.0
  0
LINE
  5
25B
100
AcDbEntity
  8
ASSI
 62
7
420
16777215
370
-1
 48
1.0
  6
CENTER
100
AcDbLine
 10
34.6588824278000018
 20
134.9906303305999984
 30
0.0
 11
34.6588824278000018
 21
131.2406303305999984
 31
0.0
  0
LINE
  5
25C
100
AcDbEntity
  8
ASSI
 62
7
420
16777215
370
-1
 48
1.0
  6
CENTER
100
AcDbLine
 10
34.6588824278000018
 20
134.9906303305999984
 30
0.0
 11
34.6588824278000018
 21
138.7406303305999984
 31
0.0
  0
LINE
  5
25D
100
AcDbEntity
  8
ASSI
 62
7
420
16777215
370
-1
 48
1.0
  6
CENTER
100
AcDbLine
 10
39.7588824278000033
 20
114.3906303306000041
 30
0.0
 11
39.7588824278000033
 21
110.2906303305999955
 31
0.0
  0
LINE
  5
25E
100
AcDbEntity
  8
ASSI
 62
7
420
16777215
370
-1
 48
1.0
  6
CENTER
100
AcDbLine
 10
39.7588824278000033
 20
114.3906303306000041
 30
0.0
 11
39.7588824278000033
 21
118.4906303305999984
 31
0.0
  0
LINE
  5
25F
100
AcDbEntity
  8
GEOM
 62
7
420
16777215
370
-1
 48
1.0
  6
CONTINUOUS
100
AcDbLine
 10
52.6588824278000018
 20
116.7906303305999955
 30
0.0
 11
52.6588824278000018
 21
115.7507773815000007
 31
0.0
  0
LINE
  5
260
100
AcDbEntity
  8
GEOM
 62
7
420
16777215
370
-1
 48
1.0
  6
CONTINUOUS
100
AcDbLine
 10
52.6588824278000018
 20
113.030483279799995
 30
0.0
 11
52.6588824278000018
 21
111.9906303305999984
 31
0.0
  0
LINE
  5
261
100
AcDbEntity
  8
ASSI
 62
7
420
16777215
370
-1
 48
1.0
  6
CENTER
100
AcDbLine
 10
54.2588824278000033
 20
114.3906303306000041
 30
0.0
 11
54.2588824278000033
 21
110.2906303305999955
 31
0.0
  0
LINE
  5
262
100
AcDbEntity
  8
ASSI
 62
7
420
16777215
370
-1
 48
1.0
  6
CENTER
100
AcDbLine
 10
54.2588824278000033
 20
114.3906303306000041
 30
0.0
 11
54.2588824278000033
 21
118.4906303305999984
 31
0.0
  0
LINE
  5
263
100
AcDbEntity
  8
DEFAULT_1
 62
7
420
16777215
370
-1
 48
1.0
  6
CENTER
100
AcDbLine
 10
54.2588824278000033
 20
85.0924569550000029
 30
0.0
 11
54.2588824278000033
 21
144.4884896021000031
 31
0.0
  0
LINE
  5
264
100
AcDbEntity
  8
GEOM
 62
7
420
16777215
370
-1
 48
1.0
  6
CONTINUOUS
100
AcDbLine
 10
54.3388824278000016
 20
92.3906303306000041
 30
0.0
 11
54.3388824278000016
 21
90.8906303306000041
 31
0.0
  0
LINE
  5
265
100
AcDbEntity
  8
ASSI
 62
7
420
16777215
370
-1
 48
1.0
  6
CENTER
100
AcDbLine
 10
68.7588824278000033
 20
114.3906303306000041
 30
0.0
 11
64.6588824277999947
 21
114.3906303306000041
 31
0.0
  0
LINE
  5
266
100
AcDbEntity
  8
ASSI
 62
7
420
16777215
370
-1
 48
1.0
  6
CENTER
100
AcDbLine
 10
54.2588824278000033
 20
114.3906303306000041
 30
0.0
 11
50.1588824278000018
 21
114.3906303306000041
 31
0.0
  0
LINE
  5
267
100
AcDbEntity
  8
ASSI
 62
7
420
16777215
370
-1
 48
1.0
  6
CENTER
100
AcDbLine
 10
39.7588824278000033
 20
114.3906303306000041
 30
0.0
 11
35.6588824278000018
 21
114.3906303306000041
 31
0.0
  0
LINE
  5
268
100
AcDbEntity
  8
DEFAULT_1
 62
7
420
16777215
370
-1
 48
1.0
  6
CENTER
100
AcDbLine
 10
83.1603179140000037
 20
114.3906303306000041
 30
0.0
 11
26.3585076057999999
 21
114.3906303306000041
 31
0.0
  0
LINE
  5
269
100
AcDbEntity
  8
ASSI
 62
7
420
16777215
370
-1
 48
1.0
  6
CENTER
100
AcDbLine
 10
39.7588824278000033
 20
114.3906303306000041
 30
0.0
 11
43.8588824277999976
 21
114.3906303306000041
 31
0.0
  0
LINE
  5
26A
100
AcDbEntity
  8
ASSI
 62
7
420
16777215
370
-1
 48
1.0
  6
CENTER
100
AcDbLine
 10
54.2588824278000033
 20
114.3906303306000041
 30
0.0
 11
58.3588824277999976
 21
114.3906303306000041
 31
0.0
  0
LINE
  5
26B
100
AcDbEntity
  8
ASSI
 62
7
420
16777215
370
-1
 48
1.0
  6
CENTER
100
AcDbLine
 10
68.7588824278000033
 20
114.3906303306000041
 30
0.0
 11
72.8588824277999976
 21
114.3906303306000041
 31
0.0
  0
LINE
  5
26C
100
AcDbEntity
  8
GEOM
 62
7
420
16777215
370
-1
 48
1.0
  6
CONTINUOUS
100
AcDbLine
 10
55.8588824277999976
 20
111.9906303305999984
 30
0.0
 11
55.8588824277999976
 21
113.030483279799995
 31
0.0
  0
LINE
  5
26D
100
AcDbEntity
  8
GEOM
 62
7
420
16777215
370
-1
 48
1.0
  6
CONTINUOUS
100
AcDbLine
 10
55.8588824277999976
 20
115.7507773815000007
 30
0.0
 11
55.8588824277999976
 21
116.7906303305999955
 31
0.0
  0
LINE
  5
26E
100
AcDbEntity
  8
ASSI
 62
7
420
16777215
370
-1
 48
1.0
  6
CENTER
100
AcDbLine
 10
68.7588824278000033
 20
114.3906303306000041
 30
0.0
 11
68.7588824278000033
 21
110.2906303305999955
 31
0.0
  0
LINE
  5
26F
100
AcDbEntity
  8
ASSI
 62
7
420
16777215
370
-1
 48
1.0
  6
CENTER
100
AcDbLine
 10
68.7588824278000033
 20
114.3906303306000041
 30
0.0
 11
68.7588824278000033
 21
118.4906303305999984
 31
0.0
  0
LINE
  5
270
100
AcDbEntity
  8
ASSI
 62
7
420
16777215
370
-1
 48
1.0
  6
CENTER
100
AcDbLine
 10
73.8588824277999976
 20
93.7906303305999955
 30
0.0
 11
73.8588824277999976
 21
90.0406303305999955
 31
0.0
  0
LINE
  5
271
100
AcDbEntity
  8
ASSI
 62
7
420
16777215
370
-1
 48
1.0
  6
CENTER
100
AcDbLine
 10
73.8588824277999976
 20
93.7906303305999955
 30
0.0
 11
73.8588824277999976
 21
97.5406303305999955
 31
0.0
  0
LINE
  5
272
100
AcDbEntity
  8
DEFAULT_1
 62
7
420
16777215
370
-1
 48
1.0
  6
CENTER
100
AcDbLine
 10
73.8588824277999976
 20
85.1511011572000029
 30
0.0
 11
73.8588824277999976
 21
144.3267776629000139
 31
0.0
  0
LINE
  5
273
100
AcDbEntity
  8
ASSI
 62
7
420
16777215
370
-1
 48
1.0
  6
CENTER
100
AcDbLine
 10
34.6588824278000018
 20
134.9906303305999984
 30
0.0
 11
30.9088824277999983
 21
134.9906303305999984
 31
0.0
  0
LINE
  5
274
100
AcDbEntity
  8
ASSI
 62
7
420
16777215
370
-1
 48
1.0
  6
CENTER
100
AcDbLine
 10
34.6588824278000018
 20
134.9906303305999984
 30
0.0
 11
38.4088824278000018
 21
134.9906303305999984
 31
0.0
  0
LINE
  5
275
100
AcDbEntity
  8
GEOM
 62
7
420
16777215
370
-1
 48
1.0
  6
CONTINUOUS
100
AcDbLine
 10
77.2588824278000033
 20
93.7906303305999955
 30
0.0
 11
77.2588824278000033
 21
134.9906303305999984
 31
0.0
  0
LINE
  5
276
100
AcDbEntity
  8
GEOM
 62
7
420
16777215
370
-1
 48
1.0
  6
CONTINUOUS
100
AcDbLine
 10
73.8588824277999976
 20
138.3906303306000041
 30
0.0
 11
34.6588824278000018
 21
138.3906303306000041
 31
0.0
  0
LINE
  5
277
100
AcDbEntity
  8
GEOM
 62
7
420
16777215
370
-1
 48
1.0
  6
CONTINUOUS
100
AcDbLine
 10
141.4010821981999868
 20
90.3906303306000041
 30
0.0
 11
138.4010821981999868
 21
90.3906303306000041
 31
0.0
  0
LINE
  5
278
100
AcDbEntity
  8
GEOM
 62
9
420
12566463
370
-1
 48
1.0
  6
CONTINUOUS
100
AcDbLine
 10
141.4010821981999868
 20
90.8906303306000041
 30
0.0
 11
138.4010821981999868
 21
90.8906303306000041
 31
0.0
  0
LINE
  5
279
100
AcDbEntity
  8
0
 62
7
420
16777215
370
-1
 48
1.0
  6
CONTINUOUS
100
AcDbLine
 10
138.4010821981999868
 20
92.3906303306000041
 30
0.0
 11
141.4010821981999868
 21
92.3906303306000041
 31
0.0
  0
LINE
  5
27A
100
AcDbEntity
  8
0
 62
7
420
16777215
370
-1
 48
1.0
  6
CONTINUOUS
100
AcDbLine
 10
139.8010821981999925
 20
136.7406303305999984
 30
0.0
 11
141.4010821981999868
 21
138.3406303305999927
 31
0.0
  0
LINE
  5
27B
100
AcDbEntity
  8
GEOM
 62
7
420
16777215
370
-1
 48
1.0
  6
CONTINUOUS
100
AcDbLine
 10
138.4010821981999868
 20
90.3906303306000041
 30
0.0
 11
138.4010821981999868
 21
92.3906303306000041
 31
0.0
  0
LINE
  5
27C
100
AcDbEntity
  8
0
 62
7
420
16777215
370
-1
 48
1.0
  6
CONTINUOUS
100
AcDbLine
 10
138.4010821981999868
 20
92.3906303306000041
 30
0.0
 11
138.4010821981999868
 21
133.2406303305999984
 31
0.0
  0
LINE
  5
27D
100
AcDbEntity
  8
ASSI
 62
7
420
16777215
370
-1
 48
1.0
  6
CONTINUOUS
100
AcDbLine
 10
138.4010821981999868
 20
133.2406303305999984
 30
0.0
 11
138.4010821981999868
 21
136.7406303305999984
 31
0.0
  0
LINE
  5
27E
100
AcDbEntity
  8
0
 62
7
420
16777215
370
-1
 48
1.0
  6
CONTINUOUS
100
AcDbLine
 10
138.4010821981999868
 20
136.7406303305999984
 30
0.0
 11
138.4010821981999868
 21
138.3906303306000041
 31
0.0
  0
LINE
  5
27F
100
AcDbEntity
  8
GEOM
 62
7
420
16777215
370
-1
 48
1.0
  6
CONTINUOUS
100
AcDbLine
 10
139.8010821981999925
 20
136.7406303305999984
 30
0.0
 11
139.8010821981999925
 21
133.2406303305999984
 31
0.0
  0
LINE
  5
280
100
AcDbEntity
  8
GEOM
 62
7
420
16777215
370
-1
 48
1.0
  6
CONTINUOUS
100
AcDbLine
 10
141.4010821981999868
 20
138.3406303305999927
 30
0.0
 11
141.4010821981999868
 21
131.6406303306000041
 31
0.0
  0
LINE
  5
281
100
AcDbEntity
  8
GEOM
 62
7
420
16777215
370
-1
 48
1.0
  6
CONTINUOUS
100
AcDbLine
 10
141.4010821981999868
 20
92.3906303306000041
 30
0.0
 11
141.4010821981999868
 21
90.3906303306000041
 31
0.0
  0
LINE
  5
282
100
AcDbEntity
  8
0
 62
7
420
16777215
370
-1
 48
1.0
  6
CONTINUOUS
100
AcDbLine
 10
141.4010821981999868
 20
92.3906303306000041
 30
0.0
 11
141.4010821981999868
 21
131.6406303306000041
 31
0.0
  0
LINE
  5
283
100
AcDbEntity
  8
0
 62
7
420
16777215
370
-1
 48
1.0
  6
CONTINUOUS
100
AcDbLine
 10
141.4010821981999868
 20
138.3406303305999927
 30
0.0
 11
141.4010821981999868
 21
138.3906303306000041
 31
0.0
  0
LINE
  5
284
100
AcDbEntity
  8
0
 62
7
420
16777215
370
-1
 48
1.0
  6
CONTINUOUS
100
AcDbLine
 10
139.8010821981999925
 20
133.2406303305999984
 30
0.0
 11
141.4010821981999868
 21
131.6406303306000041
 31
0.0
  0
LINE
  5
285
100
AcDbEntity
  8
0
 62
7
420
16777215
370
-1
 48
1.0
  6
CONTINUOUS
100
AcDbLine
 10
138.4010821981999868
 20
133.2406303305999984
 30
0.0
 11
139.8010821981999925
 21
133.2406303305999984
 31
0.0
  0
LINE
  5
286
100
AcDbEntity
  8
ASSI
 62
7
420
16777215
370
-1
 48
1.0
  6
CENTER
100
AcDbLine
 10
143.5196630814999992
 20
134.9906303305999984
 30
0.0
 11
134.0508196782000141
 21
134.9906303305999984
 31
0.0
  0
LINE
  5
287
100
AcDbEntity
  8
0
 62
7
420
16777215
370
-1
 48
1.0
  6
CONTINUOUS
100
AcDbLine
 10
138.4010821981999868
 20
136.7406303305999984
 30
0.0
 11
139.8010821981999925
 21
136.7406303305999984
 31
0.0
  0
LINE
  5
288
100
AcDbEntity
  8
0
 62
7
420
16777215
370
-1
 48
1.0
  6
CONTINUOUS
100
AcDbLine
 10
138.4010821981999868
 20
138.3906303306000041
 30
0.0
 11
141.4010821981999868
 21
138.3906303306000041
 31
0.0
  0
LINE
  5
289
100
AcDbEntity
  8
GEOM
 62
7
420
16777215
370
-1
 48
1.0
  6
CONTINUOUS
100
AcDbLine
 10
110.0516372167000014
 20
90.3906303306000041
 30
0.0
 11
107.0516372167000014
 21
90.3906303306000041
 31
0.0
  0
LINE
  5
28A
100
AcDbEntity
  8
GEOM
 62
9
420
12566463
370
-1
 48
1.0
  6
CONTINUOUS
100
AcDbLine
 10
110.0516372167000014
 20
90.8906303306000041
 30
0.0
 11
107.0516372167000014
 21
90.8906303306000041
 31
0.0
  0
LINE
  5
28B
100
AcDbEntity
  8
0
 62
7
420
16777215
370
-1
 48
1.0
  6
CONTINUOUS
100
AcDbLine
 10
107.0516372167000014
 20
92.3906303306000041
 30
0.0
 11
110.0516372167000014
 21
92.3906303306000041
 31
0.0
  0
LINE
  5
28C
100
AcDbEntity
  8
0
 62
7
420
16777215
370
-1
 48
1.0
  6
CONTINUOUS
100
AcDbLine
 10
107.0516372167000014
 20
110.3906303306000041
 30
0.0
 11
110.0516372167000014
 21
110.3906303306000041
 31
0.0
  0
LINE
  5
28D
100
AcDbEntity
  8
GEOM
 62
7
420
16777215
370
-1
 48
1.0
  6
CONTINUOUS
100
AcDbLine
 10
107.0516372167000014
 20
90.3906303306000041
 30
0.0
 11
107.0516372167000014
 21
92.3906303306000041
 31
0.0
  0
LINE
  5
28E
100
AcDbEntity
  8
0
 62
7
420
16777215
370
-1
 48
1.0
  6
CONTINUOUS
100
AcDbLine
 10
107.0516372167000014
 20
92.3906303306000041
 30
0.0
 11
107.0516372167000014
 21
110.3906303306000041
 31
0.0
  0
LINE
  5
28F
100
AcDbEntity
  8
GEOM
 62
7
420
16777215
370
-1
 48
1.0
  6
CONTINUOUS
100
AcDbLine
 10
107.0516372167000014
 20
110.3906303306000041
 30
0.0
 11
107.0516372167000014
 21
118.3906303306000041
 31
0.0
  0
LINE
  5
290
100
AcDbEntity
  8
0
 62
7
420
16777215
370
-1
 48
1.0
  6
CONTINUOUS
100
AcDbLine
 10
107.0516372167000014
 20
118.3906303306000041
 30
0.0
 11
107.0516372167000014
 21
138.3906303306000041
 31
0.0
  0
LINE
  5
291
100
AcDbEntity
  8
GEOM
 62
9
420
12566463
370
-1
 48
1.0
  6
CONTINUOUS
100
AcDbLine
 10
109.0360782370999999
 20
111.9906303305999984
 30
0.0
 11
107.0516372167000014
 21
111.9906303305999984
 31
0.0
  0
LINE
  5
292
100
AcDbEntity
  8
GEOM
 62
7
420
16777215
370
-1
 48
1.0
  6
CONTINUOUS
100
AcDbLine
 10
108.2516372167000043
 20
113.030483279799995
 30
0.0
 11
108.2516372167000043
 21
115.7507773815000007
 31
0.0
  0
LINE
  5
293
100
AcDbEntity
  8
GEOM
 62
7
420
16777215
370
-1
 48
1.0
  6
CONTINUOUS
100
AcDbLine
 10
107.0516372167000014
 20
113.030483279799995
 30
0.0
 11
108.2516372167000043
 21
113.030483279799995
 31
0.0
  0
LINE
  5
294
100
AcDbEntity
  8
ASSI
 62
7
420
16777215
370
-1
 48
1.0
  6
CENTER
100
AcDbLine
 10
116.4135409361000058
 20
114.3906303306000041
 30
0.0
 11
100.2890682799999951
 21
114.3906303306000041
 31
0.0
  0
LINE
  5
295
100
AcDbEntity
  8
GEOM
 62
7
420
16777215
370
-1
 48
1.0
  6
CONTINUOUS
100
AcDbLine
 10
110.0516372167000014
 20
92.3906303306000041
 30
0.0
 11
110.0516372167000014
 21
90.3906303306000041
 31
0.0
  0
LINE
  5
296
100
AcDbEntity
  8
0
 62
7
420
16777215
370
-1
 48
1.0
  6
CONTINUOUS
100
AcDbLine
 10
110.0516372167000014
 20
92.3906303306000041
 30
0.0
 11
110.0516372167000014
 21
110.3906303306000041
 31
0.0
  0
LINE
  5
297
100
AcDbEntity
  8
GEOM
 62
7
420
16777215
370
-1
 48
1.0
  6
CONTINUOUS
100
AcDbLine
 10
110.0516372167000014
 20
110.3906303306000041
 30
0.0
 11
110.0516372167000014
 21
118.3906303306000041
 31
0.0
  0
LINE
  5
298
100
AcDbEntity
  8
0
 62
7
420
16777215
370
-1
 48
1.0
  6
CONTINUOUS
100
AcDbLine
 10
110.0516372167000014
 20
118.3906303306000041
 30
0.0
 11
110.0516372167000014
 21
138.3906303306000041
 31
0.0
  0
LINE
  5
299
100
AcDbEntity
  8
GEOM
 62
7
420
16777215
370
-1
 48
1.0
  6
CONTINUOUS
100
AcDbLine
 10
107.0516372167000014
 20
115.7507773815000007
 30
0.0
 11
108.2516372167000043
 21
115.7507773815000007
 31
0.0
  0
LINE
  5
29A
100
AcDbEntity
  8
GEOM
 62
9
420
12566463
370
-1
 48
1.0
  6
CONTINUOUS
100
AcDbLine
 10
109.0360782370999999
 20
116.7906303305999955
 30
0.0
 11
107.0516372167000014
 21
116.7906303305999955
 31
0.0
  0
LINE
  5
29B
100
AcDbEntity
  8
0
 62
7
420
16777215
370
-1
 48
1.0
  6
CONTINUOUS
100
AcDbLine
 10
107.0516372167000014
 20
118.3906303306000041
 30
0.0
 11
110.0516372167000014
 21
118.3906303306000041
 31
0.0
  0
LINE
  5
29C
100
AcDbEntity
  8
0
 62
7
420
16777215
370
-1
 48
1.0
  6
CONTINUOUS
100
AcDbLine
 10
107.0516372167000014
 20
138.3906303306000041
 30
0.0
 11
110.0516372167000014
 21
138.3906303306000041
 31
0.0
  0
LINE
  5
29D
100
AcDbEntity
  8
0
 62
7
420
16777215
370
-1
 48
1.0
  6
CONTINUOUS
100
AcDbLine
 10
31.2588824277999997
 20
60.6164938577000001
 30
0.0
 11
31.2588824277999997
 21
57.6164938577000001
 31
0.0
  0
LINE
  5
29E
100
AcDbEntity
  8
0
 62
7
420
16777215
370
-1
 48
1.0
  6
CONTINUOUS
100
AcDbLine
 10
37.6588824278000018
 20
60.6164938577000001
 30
0.0
 11
37.6588824278000018
 21
59.4164938576999972
 31
0.0
  0
LINE
  5
29F
100
AcDbEntity
  8
ASSI
 62
7
420
16777215
370
-1
 48
1.0
  6
CENTER
100
AcDbLine
 10
39.7588824278000033
 20
53.9867934190000014
 30
0.0
 11
39.7588824278000033
 21
65.4265427436999971
 31
0.0
  0
LINE
  5
2A0
100
AcDbEntity
  8
0
 62
7
420
16777215
370
-1
 48
1.0
  6
CONTINUOUS
100
AcDbLine
 10
41.8588824277999976
 20
60.6164938577000001
 30
0.0
 11
41.8588824277999976
 21
59.4164938576999972
 31
0.0
  0
LINE
  5
2A1
100
AcDbEntity
  8
0
 62
7
420
16777215
370
-1
 48
1.0
  6
CONTINUOUS
100
AcDbLine
 10
37.6588824278000018
 20
59.4164938576999972
 30
0.0
 11
35.8588824277999976
 21
57.6164938577000001
 31
0.0
  0
LINE
  5
2A2
100
AcDbEntity
  8
0
 62
7
420
16777215
370
-1
 48
1.0
  6
CONTINUOUS
100
AcDbLine
 10
41.8588824277999976
 20
59.4164938576999972
 30
0.0
 11
43.6588824278000018
 21
57.6164938577000001
 31
0.0
  0
LINE
  5
2A3
100
AcDbEntity
  8
0
 62
7
420
16777215
370
-1
 48
1.0
  6
CONTINUOUS
100
AcDbLine
 10
52.1588824278000018
 20
60.6164938577000001
 30
0.0
 11
52.1588824278000018
 21
59.4164938576999972
 31
0.0
  0
LINE
  5
2A4
100
AcDbEntity
  8
GEOM
 62
7
420
16777215
370
-1
 48
1.0
  6
CONTINUOUS
100
AcDbLine
 10
52.6588824278000018
 20
60.6164938577000001
 30
0.0
 11
52.6588824278000018
 21
58.6320528374000034
 31
0.0
  0
LINE
  5
2A5
100
AcDbEntity
  8
0
 62
7
420
16777215
370
-1
 48
1.0
  6
CONTINUOUS
100
AcDbLine
 10
52.1588824278000018
 20
59.4164938576999972
 30
0.0
 11
50.3588824277999976
 21
57.6164938577000001
 31
0.0
  0
LINE
  5
2A6
100
AcDbEntity
  8
GEOM
 62
7
420
16777215
370
-1
 48
1.0
  6
CONTINUOUS
100
AcDbLine
 10
72.6588824277999947
 20
57.6164938577000001
 30
0.0
 11
64.8588824277999976
 21
57.6164938577000001
 31
0.0
  0
LINE
  5
2A7
100
AcDbEntity
  8
GEOM
 62
7
420
16777215
370
-1
 48
1.0
  6
CONTINUOUS
100
AcDbLine
 10
43.6588824278000018
 20
57.6164938577000001
 30
0.0
 11
35.8588824277999976
 21
57.6164938577000001
 31
0.0
  0
LINE
  5
2A8
100
AcDbEntity
  8
0
 62
7
420
16777215
370
-1
 48
1.0
  6
CONTINUOUS
100
AcDbLine
 10
31.2588824277999997
 20
57.6164938577000001
 30
0.0
 11
35.8588824277999976
 21
57.6164938577000001
 31
0.0
  0
LINE
  5
2A9
100
AcDbEntity
  8
0
 62
7
420
16777215
370
-1
 48
1.0
  6
CONTINUOUS
100
AcDbLine
 10
43.6588824278000018
 20
57.6164938577000001
 30
0.0
 11
50.3588824277999976
 21
57.6164938577000001
 31
0.0
  0
LINE
  5
2AA
100
AcDbEntity
  8
GEOM
 62
7
420
16777215
370
-1
 48
1.0
  6
CONTINUOUS
100
AcDbLine
 10
50.3588824277999976
 20
57.6164938577000001
 30
0.0
 11
58.1588824278000018
 21
57.6164938577000001
 31
0.0
  0
LINE
  5
2AB
100
AcDbEntity
  8
0
 62
7
420
16777215
370
-1
 48
1.0
  6
CONTINUOUS
100
AcDbLine
 10
58.1588824278000018
 20
57.6164938577000001
 30
0.0
 11
64.8588824277999976
 21
57.6164938577000001
 31
0.0
  0
LINE
  5
2AC
100
AcDbEntity
  8
0
 62
7
420
16777215
370
-1
 48
1.0
  6
CONTINUOUS
100
AcDbLine
 10
72.6588824277999947
 20
57.6164938577000001
 30
0.0
 11
77.2588824278000033
 21
57.6164938577000001
 31
0.0
  0
LINE
  5
2AD
100
AcDbEntity
  8
ASSI
 62
7
420
16777215
370
-1
 48
1.0
  6
CENTER
100
AcDbLine
 10
54.2588824278000033
 20
54.1725898117
 30
0.0
 11
54.2588824278000033
 21
65.5061697691999996
 31
0.0
  0
LINE
  5
2AE
100
AcDbEntity
  8
GEOM
 62
7
420
16777215
370
-1
 48
1.0
  6
CONTINUOUS
100
AcDbLine
 10
55.8588824277999976
 20
58.6320528374000034
 30
0.0
 11
55.8588824277999976
 21
60.6164938577000001
 31
0.0
  0
LINE
  5
2AF
100
AcDbEntity
  8
GEOM
 62
7
420
16777215
370
-1
 48
1.0
  6
CONTINUOUS
100
AcDbLine
 10
70.8588824277999976
 20
59.4164938576999972
 30
0.0
 11
66.6588824277999947
 21
59.4164938576999972
 31
0.0
  0
LINE
  5
2B0
100
AcDbEntity
  8
GEOM
 62
7
420
16777215
370
-1
 48
1.0
  6
CONTINUOUS
100
AcDbLine
 10
41.8588824277999976
 20
59.4164938576999972
 30
0.0
 11
37.6588824278000018
 21
59.4164938576999972
 31
0.0
  0
LINE
  5
2B1
100
AcDbEntity
  8
GEOM
 62
7
420
16777215
370
-1
 48
1.0
  6
CONTINUOUS
100
AcDbLine
 10
52.1588824278000018
 20
59.4164938576999972
 30
0.0
 11
52.6588824278000018
 21
59.4164938576999972
 31
0.0
  0
LINE
  5
2B2
100
AcDbEntity
  8
GEOM
 62
7
420
16777215
370
-1
 48
1.0
  6
CONTINUOUS
100
AcDbLine
 10
55.8588824277999976
 20
59.4164938576999972
 30
0.0
 11
56.3588824277999976
 21
59.4164938576999972
 31
0.0
  0
LINE
  5
2B3
100
AcDbEntity
  8
ASSI
 62
7
420
16777215
370
-1
 48
1.0
  6
CONTINUOUS
100
AcDbLine
 10
70.8588824277999976
 20
60.6164938577000001
 30
0.0
 11
66.6588824277999947
 21
60.6164938577000001
 31
0.0
  0
LINE
  5
2B4
100
AcDbEntity
  8
0
 62
7
420
16777215
370
-1
 48
1.0
  6
CONTINUOUS
100
AcDbLine
 10
31.2588824277999997
 20
60.6164938577000001
 30
0.0
 11
37.6588824278000018
 21
60.6164938577000001
 31
0.0
  0
LINE
  5
2B5
100
AcDbEntity
  8
ASSI
 62
7
420
16777215
370
-1
 48
1.0
  6
CONTINUOUS
100
AcDbLine
 10
37.6588824278000018
 20
60.6164938577000001
 30
0.0
 11
41.8588824277999976
 21
60.6164938577000001
 31
0.0
  0
LINE
  5
2B6
100
AcDbEntity
  8
0
 62
7
420
16777215
370
-1
 48
1.0
  6
CONTINUOUS
100
AcDbLine
 10
41.8588824277999976
 20
60.6164938577000001
 30
0.0
 11
52.1588824278000018
 21
60.6164938577000001
 31
0.0
  0
LINE
  5
2B7
100
AcDbEntity
  8
GEOM
 62
7
420
16777215
370
-1
 48
1.0
  6
CONTINUOUS
100
AcDbLine
 10
52.1588824278000018
 20
60.6164938577000001
 30
0.0
 11
56.3588824277999976
 21
60.6164938577000001
 31
0.0
  0
LINE
  5
2B8
100
AcDbEntity
  8
0
 62
7
420
16777215
370
-1
 48
1.0
  6
CONTINUOUS
100
AcDbLine
 10
56.3588824277999976
 20
60.6164938577000001
 30
0.0
 11
66.6588824277999947
 21
60.6164938577000001
 31
0.0
  0
LINE
  5
2B9
100
AcDbEntity
  8
0
 62
7
420
16777215
370
-1
 48
1.0
  6
CONTINUOUS
100
AcDbLine
 10
70.8588824277999976
 20
60.6164938577000001
 30
0.0
 11
77.2588824278000033
 21
60.6164938577000001
 31
0.0
  0
LINE
  5
2BA
100
AcDbEntity
  8
0
 62
7
420
16777215
370
-1
 48
1.0
  6
CONTINUOUS
100
AcDbLine
 10
56.3588824277999976
 20
59.4164938576999972
 30
0.0
 11
58.1588824278000018
 21
57.6164938577000001
 31
0.0
  0
LINE
  5
2BB
100
AcDbEntity
  8
0
 62
7
420
16777215
370
-1
 48
1.0
  6
CONTINUOUS
100
AcDbLine
 10
56.3588824277999976
 20
60.6164938577000001
 30
0.0
 11
56.3588824277999976
 21
59.4164938576999972
 31
0.0
  0
LINE
  5
2BC
100
AcDbEntity
  8
0
 62
7
420
16777215
370
-1
 48
1.0
  6
CONTINUOUS
100
AcDbLine
 10
66.6588824277999947
 20
59.4164938576999972
 30
0.0
 11
64.8588824277999976
 21
57.6164938577000001
 31
0.0
  0
LINE
  5
2BD
100
AcDbEntity
  8
0
 62
7
420
16777215
370
-1
 48
1.0
  6
CONTINUOUS
100
AcDbLine
 10
66.6588824277999947
 20
59.4164938576999972
 30
0.0
 11
66.6588824277999947
 21
60.6164938577000001
 31
0.0
  0
LINE
  5
2BE
100
AcDbEntity
  8
0
 62
7
420
16777215
370
-1
 48
1.0
  6
CONTINUOUS
100
AcDbLine
 10
70.8588824277999976
 20
59.4164938576999972
 30
0.0
 11
72.6588824277999947
 21
57.6164938577000001
 31
0.0
  0
LINE
  5
2BF
100
AcDbEntity
  8
ASSI
 62
7
420
16777215
370
-1
 48
1.0
  6
CENTER
100
AcDbLine
 10
68.7588824278000033
 20
65.5592544528000047
 30
0.0
 11
68.7588824278000033
 21
54.0664204444000021
 31
0.0
  0
LINE
  5
2C0
100
AcDbEntity
  8
0
 62
7
420
16777215
370
-1
 48
1.0
  6
CONTINUOUS
100
AcDbLine
 10
70.8588824277999976
 20
59.4164938576999972
 30
0.0
 11
70.8588824277999976
 21
60.6164938577000001
 31
0.0
  0
LINE
  5
2C1
100
AcDbEntity
  8
0
 62
7
420
16777215
370
-1
 48
1.0
  6
CONTINUOUS
100
AcDbLine
 10
77.2588824278000033
 20
60.6164938577000001
 30
0.0
 11
77.2588824278000033
 21
57.6164938577000001
 31
0.0
  0
LINE
  5
2C2
100
AcDbEntity
  8
0
 62
7
420
16777215
370
-1
 48
1.0
  6
CONTINUOUS
100
AcDbLine
 10
171.0068276885000103
 20
90.3906303306000041
 30
0.0
 11
168.0068276885000103
 21
90.3906303306000041
 31
0.0
  0
LINE
  5
2C3
100
AcDbEntity
  8
0
 62
7
420
16777215
370
-1
 48
1.0
  6
CONTINUOUS
100
AcDbLine
 10
168.0068276885000103
 20
92.0406303305999955
 30
0.0
 11
169.4068276884999875
 21
92.0406303305999955
 31
0.0
  0
LINE
  5
2C4
100
AcDbEntity
  8
ASSI
 62
7
420
16777215
370
-1
 48
1.0
  6
CENTER
100
AcDbLine
 10
173.5952246855999874
 20
93.7906303305999955
 30
0.0
 11
164.8295132181999918
 21
93.7906303305999955
 31
0.0
  0
LINE
  5
2C5
100
AcDbEntity
  8
0
 62
7
420
16777215
370
-1
 48
1.0
  6
CONTINUOUS
100
AcDbLine
 10
168.0068276885000103
 20
95.5406303305999955
 30
0.0
 11
169.4068276884999875
 21
95.5406303305999955
 31
0.0
  0
LINE
  5
2C6
100
AcDbEntity
  8
0
 62
7
420
16777215
370
-1
 48
1.0
  6
CONTINUOUS
100
AcDbLine
 10
169.4068276884999875
 20
92.0406303305999955
 30
0.0
 11
171.0068276885000103
 21
90.4406303306000012
 31
0.0
  0
LINE
  5
2C7
100
AcDbEntity
  8
0
 62
7
420
16777215
370
-1
 48
1.0
  6
CONTINUOUS
100
AcDbLine
 10
168.0068276885000103
 20
90.3906303306000041
 30
0.0
 11
168.0068276885000103
 21
92.0406303305999955
 31
0.0
  0
LINE
  5
2C8
100
AcDbEntity
  8
ASSI
 62
7
420
16777215
370
-1
 48
1.0
  6
CONTINUOUS
100
AcDbLine
 10
168.0068276885000103
 20
92.0406303305999955
 30
0.0
 11
168.0068276885000103
 21
95.5406303305999955
 31
0.0
  0
LINE
  5
2C9
100
AcDbEntity
  8
0
 62
7
420
16777215
370
-1
 48
1.0
  6
CONTINUOUS
100
AcDbLine
 10
168.0068276885000103
 20
95.5406303305999955
 30
0.0
 11
168.0068276885000103
 21
138.3906303306000041
 31
0.0
  0
LINE
  5
2CA
100
AcDbEntity
  8
GEOM
 62
7
420
16777215
370
-1
 48
1.0
  6
CONTINUOUS
100
AcDbLine
 10
169.4068276884999875
 20
95.5406303305999955
 30
0.0
 11
169.4068276884999875
 21
92.0406303305999955
 31
0.0
  0
LINE
  5
2CB
100
AcDbEntity
  8
GEOM
 62
7
420
16777215
370
-1
 48
1.0
  6
CONTINUOUS
100
AcDbLine
 10
171.0068276885000103
 20
97.1406303306000041
 30
0.0
 11
171.0068276885000103
 21
90.4406303306000012
 31
0.0
  0
LINE
  5
2CC
100
AcDbEntity
  8
0
 62
7
420
16777215
370
-1
 48
1.0
  6
CONTINUOUS
100
AcDbLine
 10
171.0068276885000103
 20
90.3906303306000041
 30
0.0
 11
171.0068276885000103
 21
90.4406303306000012
 31
0.0
  0
LINE
  5
2CD
100
AcDbEntity
  8
0
 62
7
420
16777215
370
-1
 48
1.0
  6
CONTINUOUS
100
AcDbLine
 10
171.0068276885000103
 20
97.1406303306000041
 30
0.0
 11
171.0068276885000103
 21
138.3906303306000041
 31
0.0
  0
LINE
  5
2CE
100
AcDbEntity
  8
0
 62
7
420
16777215
370
-1
 48
1.0
  6
CONTINUOUS
100
AcDbLine
 10
169.4068276884999875
 20
95.5406303305999955
 30
0.0
 11
171.0068276885000103
 21
97.1406303306000041
 31
0.0
  0
LINE
  5
2CF
100
AcDbEntity
  8
0
 62
7
420
16777215
370
-1
 48
1.0
  6
CONTINUOUS
100
AcDbLine
 10
171.0068276885000103
 20
138.3906303306000041
 30
0.0
 11
168.0068276885000103
 21
138.3906303306000041
 31
0.0
  0
ARC
  5
2D0
100
AcDbEntity
  8
GEOM
 62
7
420
16777215
370
-1
 48
1.0
  6
CONTINUOUS
100
AcDbCircle
 10
54.2588824278000033
 20
114.3906303306000041
 30
0.0
 40
3.8999999999999999
100
AcDbArc
 50
100.4415916070999799
 51
259.5584083928999917
  0
ARC
  5
2D1
100
AcDbEntity
  8
GEOM
 62
7
420
16777215
370
-1
 48
1.0
  6
CONTINUOUS
100
AcDbCircle
 10
54.2588824278000033
 20
114.3906303306000041
 30
0.0
 40
3.8999999999999999
100
AcDbArc
 50
280.4415916071000083
 51
79.5584083929000059
  0
CIRCLE
  5
2D2
100
AcDbEntity
  8
GEOM
 62
7
420
16777215
370
-1
 48
1.0
  6
CONTINUOUS
100
AcDbCircle
 10
39.7588824278000033
 20
114.3906303306000041
 30
0.0
 40
3.8999999999999999
  0
CIRCLE
  5
2D3
100
AcDbEntity
  8
GEOM
 62
7
420
16777215
370
-1
 48
1.0
  6
CONTINUOUS
100
AcDbCircle
 10
68.7588824278000033
 20
114.3906303306000041
 30
0.0
 40
3.8999999999999999
  0
ARC
  5
2D4
100
AcDbEntity
  8
GEOM
 62
7
420
16777215
370
-1
 48
1.0
  6
CONTINUOUS
100
AcDbCircle
 10
34.6588824278000018
 20
134.9906303305999984
 30
0.0
 40
3.3999999999999999
100
AcDbArc
 50
90.0
 51
180.0
  0
ARC
  5
2D5
100
AcDbEntity
  8
GEOM
 62
7
420
16777215
370
-1
 48
1.0
  6
CONTINUOUS
100
AcDbCircle
 10
73.8588824277999976
 20
134.9906303305999984
 30
0.0
 40
3.3999999999999999
100
AcDbArc
 50
0.0
 51
90.0
  0
ARC
  5
2D6
100
AcDbEntity
  8
GEOM
 62
7
420
16777215
370
-1
 48
1.0
  6
CONTINUOUS
100
AcDbCircle
 10
73.8588824277999976
 20
93.7906303305999955
 30
0.0
 40
3.3999999999999999
100
AcDbArc
 50
270.0
 51
360.0
  0
CIRCLE
  5
2D7
100
AcDbEntity
  8
GEOM
 62
7
420
16777215
370
-1
 48
1.0
  6
CONTINUOUS
100
AcDbCircle
 10
34.6588824278000018
 20
134.9906303305999984
 30
0.0
 40
3.3500000000000001
  0
CIRCLE
  5
2D8
100
AcDbEntity
  8
GEOM
 62
7
420
16777215
370
-1
 48
1.0
  6
CONTINUOUS
100
AcDbCircle
 10
73.8588824277999976
 20
93.7906303305999955
 30
0.0
 40
3.3500000000000001
  0
CIRCLE
  5
2D9
100
AcDbEntity
  8
GEOM
 62
7
420
16777215
370
-1
 48
1.0
  6
CONTINUOUS
100
AcDbCircle
 10
68.7588824278000033
 20
114.3906303306000041
 30
0.0
 40
2.1000000000000001
  0
CIRCLE
  5
2DA
100
AcDbEntity
  8
GEOM
 62
7
420
16777215
370
-1
 48
1.0
  6
CONTINUOUS
100
AcDbCircle
 10
39.7588824278000033
 20
114.3906303306000041
 30
0.0
 40
2.1000000000000001
  0
ARC
  5
2DB
100
AcDbEntity
  8
GEOM
 62
7
420
16777215
370
-1
 48
1.0
  6
CONTINUOUS
100
AcDbCircle
 10
54.2588824278000033
 20
114.3906303306000041
 30
0.0
 40
2.1000000000000001
100
AcDbArc
 50
319.6324064557999236
 51
40.3675935441999982
  0
ARC
  5
2DC
100
AcDbEntity
  8
GEOM
 62
7
420
16777215
370
-1
 48
1.0
  6
CONTINUOUS
100
AcDbCircle
 10
54.2588824278000033
 20
114.3906303306000041
 30
0.0
 40
2.1000000000000001
100
AcDbArc
 50
139.6324064558000089
 51
220.3675935441999627
  0
CIRCLE
  5
2DD
100
AcDbEntity
  8
GEOM
 62
7
420
16777215
370
-1
 48
1.0
  6
CONTINUOUS
100
AcDbCircle
 10
73.8588824277999976
 20
93.7906303305999955
 30
0.0
 40
1.75
  0
CIRCLE
  5
2DE
100
AcDbEntity
  8
GEOM
 62
7
420
16777215
370
-1
 48
1.0
  6
CONTINUOUS
100
AcDbCircle
 10
34.6588824278000018
 20
134.9906303305999984
 30
0.0
 40
1.75
  0
ARC
  5
2DF
100
AcDbEntity
  8
GEOM
 62
7
420
16777215
370
-1
 48
1.0
  6
CONTINUOUS
100
AcDbCircle
 10
54.2588824278000033
 20
111.9906303305999984
 30
0.0
 40
1.6000000000000001
100
AcDbArc
 50
180.0
 51
360.0
  0
ARC
  5
2E0
100
AcDbEntity
  8
GEOM
 62
7
420
16777215
370
-1
 48
1.0
  6
CONTINUOUS
100
AcDbCircle
 10
54.2588824278000033
 20
116.7906303305999955
 30
0.0
 40
1.6000000000000001
100
AcDbArc
 50
0.0
 51
180.0
  0
ARC
  5
2E1
100
AcDbEntity
  8
GEOM
 62
7
420
16777215
370
-1
 48
1.0
  6
CONTINUOUS
100
AcDbCircle
 10
54.8388824278000016
 20
90.8906303306000041
 30
0.0
 40
0.5
100
AcDbArc
 50
180.0
 51
270.0
  0
SPLINE
  5
2E2
100
AcDbEntity
  8
GEOM
 62
7
420
16777215
370
-1
 48
1.0
  6
CONTINUOUS
100
AcDbSpline
 70
8
 71
3
 72
9
 73
5
 74
0
 40
0.0
 40
0.0
 40
0.0
 40
0.0
 40
0.4308781901
 40
1.0
 40
1.0
 40
1.0
 40
1.0
 10
110.0516372167000014
 20
110.5552136639999929
 30
0.0
 10
109.9192011494999974
 20
110.7704222732999995
 30
0.0
 10
109.6005173530000008
 20
111.2629389150999941
 30
0.0
 10
109.2495570999000023
 20
111.7340606685999944
 30
0.0
 10
109.0360782370999999
 20
111.9906303305999984
 30
0.0
  0
SPLINE
  5
2E3
100
AcDbEntity
  8
GEOM
 62
7
420
16777215
370
-1
 48
1.0
  6
CONTINUOUS
100
AcDbSpline
 70
8
 71
3
 72
9
 73
5
 74
0
 40
0.0
 40
0.0
 40
0.0
 40
0.0
 40
0.499973323
 40
1.0
 40
1.0
 40
1.0
 40
1.0
 10
108.2516372167000043
 20
115.7507773815000007
 30
0.0
 10
108.3696954671000015
 20
115.9330544578999991
 30
0.0
 10
108.624446650400003
 20
116.2855259797999992
 30
0.0
 10
108.8971612009000012
 20
116.623672831600004
 30
0.0
 10
109.0360782370999999
 20
116.7906303305999955
 30
0.0
  0
SPLINE
  5
2E4
100
AcDbEntity
  8
GEOM
 62
7
420
16777215
370
-1
 48
1.0
  6
CONTINUOUS
100
AcDbSpline
 70
8
 71
3
 72
9
 73
5
 74
0
 40
0.0
 40
0.0
 40
0.0
 40
0.0
 40
0.5000265820000001
 40
1.0
 40
1.0
 40
1.0
 40
1.0
 10
109.0360782370999999
 20
111.9906303305999984
 30
0.0
 10
108.8971612284999964
 20
112.1575877964999961
 30
0.0
 10
108.6244477166000024
 20
112.4957353565000062
 30
0.0
 10
108.3696940367999986
 20
112.8482052300000049
 30
0.0
 10
108.2516372167000043
 20
113.030483279799995
 30
0.0
  0
SPLINE
  5
2E5
100
AcDbEntity
  8
GEOM
 62
7
420
16777215
370
-1
 48
1.0
  6
CONTINUOUS
100
AcDbSpline
 70
8
 71
3
 72
9
 73
5
 74
0
 40
0.0
 40
0.0
 40
0.0
 40
0.0
 40
0.5691145198999999
 40
1.0
 40
1.0
 40
1.0
 40
1.0
 10
109.0360782370999999
 20
116.7906303305999955
 30
0.0
 10
109.2495543667999982
 20
117.0471967077999977
 30
0.0
 10
109.6005150171999958
 20
117.5183181399000034
 30
0.0
 10
109.9191989079999985
 20
118.0108347455000057
 30
0.0
 10
110.0516372167000014
 20
118.2260469973000028
 30
0.0
  0
SPLINE
  5
2E6
100
AcDbEntity
  8
GEOM
 62
7
420
16777215
370
-1
 48
1.0
  6
CONTINUOUS
100
AcDbSpline
 70
8
 71
3
 72
12
 73
8
 74
0
 40
0.0
 40
0.0
 40
0.0
 40
0.0
 40
0.2981404119
 40
0.5521926196
 40
0.6675781409
 40
0.77887268
 40
1.0
 40
1.0
 40
1.0
 40
1.0
 10
54.9656914493999977
 20
57.6164938577000001
 30
0.0
 10
55.1040034720000023
 20
57.658405112799997
 30
0.0
 10
55.3538455350999996
 20
57.7627700366000028
 30
0.0
 10
55.6096209001999995
 20
57.9710306222999989
 30
0.0
 10
55.7440418288000004
 20
58.1629936237999985
 30
0.0
 10
55.8343394325999967
 20
58.3615303098000027
 30
0.0
 10
55.8588824277999976
 20
58.5248621178999997
 30
0.0
 10
55.8588824277999976
 20
58.6320528374000034
 30
0.0
  0
SPLINE
  5
2E7
100
AcDbEntity
  8
GEOM
 62
7
420
16777215
370
-1
 48
1.0
  6
CONTINUOUS
100
AcDbSpline
 70
8
 71
3
 72
12
 73
8
 74
0
 40
0.0
 40
0.0
 40
0.0
 40
0.0
 40
0.2211221098
 40
0.332414922
 40
0.4478007237
 40
0.7018617064
 40
1.0
 40
1.0
 40
1.0
 40
1.0
 10
52.6588824278000018
 20
58.6320528374000034
 30
0.0
 10
52.6588824278000018
 20
58.5248646387000022
 30
0.0
 10
52.6834239402000009
 20
58.3615362285000003
 30
0.0
 10
52.7737185897999979
 20
58.1630018390999979
 30
0.0
 10
52.9081384787000033
 20
57.9710336768999994
 30
0.0
 10
53.1639179006999996
 20
57.7627715085999967
 30
0.0
 10
53.4137623601000016
 20
57.6584048169000027
 30
0.0
 10
53.5520734062000017
 20
57.6164938577000001
 30
0.0
  0
ENDSEC
  0
SECTION
  2
OBJECTS
  0
DICTIONARY
  5
C
100
AcDbDictionary
280
0
281
1
  3
ACAD_GROUP
350
D
  3
ACAD_LAYOUT
350
1A
  3
ACAD_MLINESTYLE
350
17
  3
ACAD_PLOTSETTINGS
350
19
  3
ACAD_PLOTSTYLENAME
350
E
  3
AcDbVariableDictionary
350
2E8
  3
QCAD_OBJECTS
350
2E9
  0
DICTIONARY
  5
D
100
AcDbDictionary
280
0
281
1
  0
ACDBDICTIONARYWDFLT
  5
E
100
AcDbDictionary
281
1
  3
Normal
350
F
100
AcDbDictionaryWithDefault
340
F
  0
ACDBPLACEHOLDER
  5
F
  0
DICTIONARY
  5
17
100
AcDbDictionary
280
0
281
1
  3
Standard
350
18
  0
MLINESTYLE
  5
18
100
AcDbMlineStyle
  2
STANDARD
 70
0
  3

 62
256
 51
90.0
 52
90.0
 71
2
 49
0.5
 62
256
  6
BYLAYER
 49
-0.5
 62
256
  6
BYLAYER
  0
DICTIONARY
  5
19
100
AcDbDictionary
280
0
281
1
  0
DICTIONARY
  5
1A
100
AcDbDictionary
281
1
  3
Layout1
350
1E
  3
Layout2
350
26
  3
Model
350
22
  0
LAYOUT
  5
1E
100
AcDbPlotSettings
  1

  2
none_device
  4

  6

 40
0.0
 41
0.0
 42
0.0
 43
0.0
 44
0.0
 45
0.0
 46
0.0
 47
0.0
 48
0.0
 49
0.0
140
0.0
141
0.0
142
1.0
143
1.0
 70
688
 72
0
 73
0
 74
5
  7

 75
16
147
1.0
148
0.0
149
0.0
100
AcDbLayout
  1
Layout1
 70
1
 71
1
 10
0.0
 20
0.0
 11
420.0
 21
297.0
 12
0.0
 22
0.0
 32
0.0
 14
100000000000000000000.0
 24
100000000000000000000.0
 34
100000000000000000000.0
 15
-100000000000000000000.0
 25
-100000000000000000000.0
 35
-100000000000000000000.0
146
0.0
 13
0.0
 23
0.0
 33
0.0
 16
1.0
 26
0.0
 36
0.0
 17
0.0
 27
1.0
 37
0.0
 76
0
330
1B
  0
LAYOUT
  5
22
100
AcDbPlotSettings
  1

  2
none_device
  4

  6

 40
0.0
 41
0.0
 42
0.0
 43
0.0
 44
0.0
 45
0.0
 46
0.0
 47
0.0
 48
0.0
 49
0.0
140
0.0
141
0.0
142
1.0
143
1.0
 70
1712
 72
0
 73
0
 74
0
  7

 75
0
147
1.0
148
0.0
149
0.0
100
AcDbLayout
  1
Model
 70
1
 71
0
 10
0.0
 20
0.0
 11
12.0
 21
9.0
 12
0.0
 22
0.0
 32
0.0
 14
0.0
 24
0.0
 34
0.0
 15
0.0
 25
0.0
 35
0.0
146
0.0
 13
0.0
 23
0.0
 33
0.0
 16
1.0
 26
0.0
 36
0.0
 17
0.0
 27
1.0
 37
0.0
 76
0
330
1F
  0
LAYOUT
  5
26
100
AcDbPlotSettings
  1

  2
none_device
  4

  6

 40
0.0
 41
0.0
 42
0.0
 43
0.0
 44
0.0
 45
0.0
 46
0.0
 47
0.0
 48
0.0
 49
0.0
140
0.0
141
0.0
142
1.0
143
1.0
 70
688
 72
0
 73
0
 74
5
  7

 75
16
147
1.0
148
0.0
149
0.0
100
AcDbLayout
  1
Layout2
 70
1
 71
2
 10
0.0
 20
0.0
 11
12.0
 21
9.0
 12
0.0
 22
0.0
 32
0.0
 14
0.0
 24
0.0
 34
0.0
 15
0.0
 25
0.0
 35
0.0
146
0.0
 13
0.0
 23
0.0
 33
0.0
 16
1.0
 26
0.0
 36
0.0
 17
0.0
 27
1.0
 37
0.0
 76
0
330
23
  0
DICTIONARY
  5
2E8
100
AcDbDictionary
281
1
  3
DIMASSOC
350
2EB
  3
HIDETEXT
350
2EA
  0
DICTIONARYVAR
  5
2EA
100
DictionaryVariables
280
0
  1
2
  0
DICTIONARYVAR
  5
2EB
100
DictionaryVariables
280
0
  1
1
  0
DICTIONARY
  5
2E9
100
AcDbDictionary
281
1
  3
ColorSettings/BackgroundColor
350
2EC
  3
ColorSettings/ColorMode
350
2ED
  3
Grid/DisplayGrid00
350
2EE
  3
Grid/DisplayGrid01
350
2EF
  3
Grid/DisplayGrid02
350
2F0
  3
Grid/DisplayGrid03
350
2F1
  3
Grid/GridSpacingX00
350
2F2
  3
Grid/GridSpacingX01
350
2F3
  3
Grid/GridSpacingX02
350
2F4
  3
Grid/GridSpacingX03
350
2F5
  3
Grid/GridSpacingY00
350
2F6
  3
Grid/GridSpacingY01
350
2F7
  3
Grid/GridSpacingY02
350
2F8
  3
Grid/GridSpacingY03
350
2F9
  3
Grid/IsometricGrid00
350
2FA
  3
Grid/IsometricGrid01
350
2FB
  3
Grid/IsometricGrid02
350
2FC
  3
Grid/IsometricGrid03
350
2FD
  3
Grid/IsometricProjection00
350
2FE
  3
Grid/IsometricProjection01
350
2FF
  3
Grid/IsometricProjection02
350
300
  3
Grid/IsometricProjection03
350
301
  3
Grid/MetaGridSpacingX00
350
302
  3
Grid/MetaGridSpacingX01
350
303
  3
Grid/MetaGridSpacingX02
350
304
  3
Grid/MetaGridSpacingX03
350
305
  3
Grid/MetaGridSpacingY00
350
306
  3
Grid/MetaGridSpacingY01
350
307
  3
Grid/MetaGridSpacingY02
350
308
  3
Grid/MetaGridSpacingY03
350
309
  3
MultiPageSettings/Columns
350
30A
  3
MultiPageSettings/GlueMarginsBottom
350
30B
  3
MultiPageSettings/GlueMarginsLeft
350
30C
  3
MultiPageSettings/GlueMarginsRight
350
30D
  3
MultiPageSettings/GlueMarginsTop
350
30E
  3
MultiPageSettings/PrintCropMarks
350
30F
  3
MultiPageSettings/Rows
350
310
  3
PageSettings/OffsetX
350
311
  3
PageSettings/OffsetY
350
312
  3
PageSettings/PageOrientation
350
313
  3
PageSettings/PaperHeight
350
314
  3
PageSettings/PaperWidth
350
315
  3
PageSettings/Scale
350
316
  3
PageSettings/ShowPaperBorders
350
317
  3
PageTagSettings/EnablePageTags
350
318
  3
PageTagSettings/TagAlignment
350
319
  3
PageTagSettings/TagFont
350
31A
  3
PageTagSettings/TagPosition
350
31B
  3
QCADVersion
350
31C
  3
UnitSettings/PaperUnit
350
31D
  3
ViewportCenter
350
31E
  3
ViewportHeight
350
31F
  3
ViewportWidth
350
320
  0
XRECORD
  5
2EC
330
2E9
100
AcDbXrecord
280
1
1000
Bianco
  0
XRECORD
  5
2ED
330
2E9
100
AcDbXrecord
280
1
1000
FullColor
  0
XRECORD
  5
2EE
330
2E9
100
AcDbXrecord
280
1
290
1
  0
XRECORD
  5
2EF
330
2E9
100
AcDbXrecord
280
1
290
1
  0
XRECORD
  5
2F0
330
2E9
100
AcDbXrecord
280
1
290
1
  0
XRECORD
  5
2F1
330
2E9
100
AcDbXrecord
280
1
290
1
  0
XRECORD
  5
2F2
330
2E9
100
AcDbXrecord
280
1
1000
auto
  0
XRECORD
  5
2F3
330
2E9
100
AcDbXrecord
280
1
1000
auto
  0
XRECORD
  5
2F4
330
2E9
100
AcDbXrecord
280
1
1000
auto
  0
XRECORD
  5
2F5
330
2E9
100
AcDbXrecord
280
1
1000
auto
  0
XRECORD
  5
2F6
330
2E9
100
AcDbXrecord
280
1
1000
auto
  0
XRECORD
  5
2F7
330
2E9
100
AcDbXrecord
280
1
1000
auto
  0
XRECORD
  5
2F8
330
2E9
100
AcDbXrecord
280
1
1000
auto
  0
XRECORD
  5
2F9
330
2E9
100
AcDbXrecord
280
1
1000
auto
  0
XRECORD
  5
2FA
330
2E9
100
AcDbXrecord
280
1
290
0
  0
XRECORD
  5
2FB
330
2E9
100
AcDbXrecord
280
1
290
0
  0
XRECORD
  5
2FC
330
2E9
100
AcDbXrecord
280
1
290
0
  0
XRECORD
  5
2FD
330
2E9
100
AcDbXrecord
280
1
290
0
  0
XRECORD
  5
2FE
330
2E9
100
AcDbXrecord
280
1
 90
65537
  0
XRECORD
  5
2FF
330
2E9
100
AcDbXrecord
280
1
 90
65537
  0
XRECORD
  5
300
330
2E9
100
AcDbXrecord
280
1
 90
65537
  0
XRECORD
  5
301
330
2E9
100
AcDbXrecord
280
1
 90
65537
  0
XRECORD
  5
302
330
2E9
100
AcDbXrecord
280
1
1000
auto
  0
XRECORD
  5
303
330
2E9
100
AcDbXrecord
280
1
1000
auto
  0
XRECORD
  5
304
330
2E9
100
AcDbXrecord
280
1
1000
auto
  0
XRECORD
  5
305
330
2E9
100
AcDbXrecord
280
1
1000
auto
  0
XRECORD
  5
306
330
2E9
100
AcDbXrecord
280
1
1000
auto
  0
XRECORD
  5
307
330
2E9
100
AcDbXrecord
280
1
1000
auto
  0
XRECORD
  5
308
330
2E9
100
AcDbXrecord
280
1
1000
auto
  0
XRECORD
  5
309
330
2E9
100
AcDbXrecord
280
1
1000
auto
  0
XRECORD
  5
30A
330
2E9
100
AcDbXrecord
280
1
 90
1
  0
XRECORD
  5
30B
330
2E9
100
AcDbXrecord
280
1
 40
10.0
  0
XRECORD
  5
30C
330
2E9
100
AcDbXrecord
280
1
 40
10.0
  0
XRECORD
  5
30D
330
2E9
100
AcDbXrecord
280
1
 40
10.0
  0
XRECORD
  5
30E
330
2E9
100
AcDbXrecord
280
1
 40
10.0
  0
XRECORD
  5
30F
330
2E9
100
AcDbXrecord
280
1
290
0
  0
XRECORD
  5
310
330
2E9
100
AcDbXrecord
280
1
 90
1
  0
XRECORD
  5
311
330
2E9
100
AcDbXrecord
280
1
 40
0.0
  0
XRECORD
  5
312
330
2E9
100
AcDbXrecord
280
1
 40
0.0
  0
XRECORD
  5
313
330
2E9
100
AcDbXrecord
280
1
1000
Portrait
  0
XRECORD
  5
314
330
2E9
100
AcDbXrecord
280
1
 40
297.0
  0
XRECORD
  5
315
330
2E9
100
AcDbXrecord
280
1
 40
210.0
  0
XRECORD
  5
316
330
2E9
100
AcDbXrecord
280
1
1000
1:1
  0
XRECORD
  5
317
330
2E9
100
AcDbXrecord
280
1
290
1
  0
XRECORD
  5
318
330
2E9
100
AcDbXrecord
280
1
290
0
  0
XRECORD
  5
319
330
2E9
100
AcDbXrecord
280
1
1000
Inside
  0
XRECORD
  5
31A
330
2E9
100
AcDbXrecord
280
1
1000
Arial,10,-1,5,50,0,0,0,0,0
  0
XRECORD
  5
31B
330
2E9
100
AcDbXrecord
280
1
1000
TopLeft
  0
XRECORD
  5
31C
330
2E9
100
AcDbXrecord
280
1
1000
3.32.6
  0
XRECORD
  5
31D
330
2E9
100
AcDbXrecord
280
1
 90
4
  0
XRECORD
  5
31F
330
2E9
100
AcDbXrecord
280
1
 40
373.1066181818180212
  0
XRECORD
  5
320
330
2E9
100
AcDbXrecord
280
1
 40
744.233890909090519
  0
ENDSEC
  0
EOF
